M48
; DRILL file KiCad 10.0.5-10.0.5~ubuntu24.04.1 date 2026-09-05T05:01:17
; FORMAT={-:-/ absolute / metric / decimal}
; #@! TF.CreationDate,2026-09-05T05:01:17+00:00
; #@! TF.GenerationSoftware,Kicad,Pcbnew,10.0.5-10.0.5~ubuntu24.04.1
; #@! TF.FileFunction,Plated,1,6,PTH
FMAT,2
METRIC
; #@! TA.AperFunction,Plated,PTH,ViaDrill
T1C0.200
; #@! TA.AperFunction,Plated,PTH,ComponentDrill
T2C0.200
; #@! TA.AperFunction,Plated,PTH,ViaDrill
T3C0.250
; #@! TA.AperFunction,Plated,PTH,ViaDrill
T4C0.300
; #@! TA.AperFunction,Plated,PTH,ViaDrill
T5C0.400
; #@! TA.AperFunction,Plated,PTH,ComponentDrill
T6C0.600
; #@! TA.AperFunction,Plated,PTH,ComponentDrill
T7C0.750
; #@! TA.AperFunction,Plated,PTH,ComponentDrill
T8C0.900
; #@! TA.AperFunction,Plated,PTH,ComponentDrill
T9C1.020
; #@! TA.AperFunction,Plated,PTH,ComponentDrill
T10C1.100
%
G90
G05
T1
X1.9Y-60.7
X2.7Y-27.95
X2.7Y-28.6
X2.8Y-66.8
X3.165Y-59.275
X3.5Y-92.5
X3.7Y-123.2
X3.85Y-29.95
X3.95Y-26.7
X4.25Y-63.5
X4.6Y-66.0
X5.15Y-64.75
X5.3Y-24.55
X5.55Y-68.15
X5.7Y-57.8
X5.9Y-64.8
X6.0Y-23.5
X7.15Y-28.55
X7.2Y-66.5
X7.25Y-30.0
X7.5Y-60.8
X8.95Y-18.35
X11.9Y-28.7
X25.6Y-93.7
X40.6Y-146.38
X45.4Y-146.38
X47.9Y-116.9
X49.3Y-117.0
X53.9Y-56.6
X55.6Y-113.5
X60.3Y-71.0
X61.3Y-76.3
X62.9Y-114.2
X65.2Y-98.8
X67.3Y-77.7
T2
X53.89Y-125.8
X53.89Y-127.2
X54.59Y-125.1
X54.59Y-126.5
X54.59Y-127.9
X55.29Y-125.8
X55.29Y-127.2
X55.99Y-125.1
X55.99Y-126.5
X55.99Y-127.9
X56.69Y-125.8
X56.69Y-127.2
T3
X53.0Y-62.5
X54.0Y-90.4
X55.9Y-59.4
X56.4Y-62.6
X57.6Y-29.1
X58.2Y-24.9
X58.3Y-23.7
X62.1Y-71.6
X63.4Y-75.9
X64.5Y-77.9
X66.6Y-66.6
T4
X0.9Y-116.1
X1.0Y-92.2
X1.1Y-84.0
X1.5Y-83.5
X1.5Y-109.1
X1.65Y-17.1
X1.65Y-18.35
X1.8Y-12.3
X2.0Y-87.9
X2.3Y-26.5
X2.4Y-86.4
X2.675Y-81.225
X2.7Y-83.8
X2.7Y-87.0
X2.7Y-88.9
X2.8Y-85.7
X2.9Y-8.4
X3.4Y-109.4
X3.7Y-98.9
X3.7Y-99.6
X4.0Y-108.6
X4.0Y-121.95
X4.3Y-19.9
X4.3Y-23.65
X4.35Y-141.45
X4.4Y-127.0
X4.4Y-129.5
X4.4Y-136.4
X4.4Y-140.2
X4.4Y-144.0
X4.5Y-112.9
X4.5Y-122.8
X4.6Y-116.5
X4.8Y-85.9
X4.85Y-28.6
X4.925Y-27.775
X5.0Y-89.45
X5.1Y-74.7
X5.25Y-81.2
X6.0Y-20.4
X6.4Y-139.6
X6.6Y-28.0
X6.8Y-138.8
X7.1Y-110.1
X7.3Y-14.6
X8.0Y-39.8
X8.15Y-11.05
X8.2Y-71.4
X8.2Y-112.3
X8.2Y-117.7
X8.6Y-143.1
X8.7Y-25.7
X9.2Y-57.4
X9.4Y-23.5
X9.4Y-56.8
X9.5Y-59.3
X9.6Y-129.6
X9.65Y-22.175
X9.7Y-86.0
X9.8Y-19.5
X9.8Y-67.3
X9.8Y-119.2
X9.9Y-23.1
X10.5Y-67.3
X10.6Y-15.8
X10.7Y-122.6
X11.2Y-67.2
X11.2Y-125.3
X11.6Y-58.1
X11.6Y-59.2
X11.6Y-119.0
X12.0Y-66.9
X12.0Y-145.1
X12.1Y-22.8
X12.2Y-58.7
X12.35Y-59.8
X12.5Y-21.7
X12.65Y-64.2
X12.7Y-75.4
X13.9Y-29.45
X14.3Y-105.0
X14.4Y-146.4
X15.5Y-135.8
X15.6Y-72.5
X15.6Y-127.0
X15.7Y-46.7
X15.7Y-122.6
X15.8Y-102.2
X15.8Y-104.9
X15.8Y-110.2
X15.8Y-117.2
X15.8Y-121.3
X15.8Y-127.8
X16.6Y-131.25
X16.8Y-97.8
X17.0Y-111.2
X17.0Y-129.2
X17.0Y-143.0
X17.7Y-131.2
X17.9Y-128.5
X18.4Y-135.1
X18.4Y-136.4
X18.4Y-142.7
X18.5Y-128.7
X18.5Y-138.2
X18.5Y-140.75
X18.8Y-131.25
X19.4Y-103.7
X19.7Y-105.1
X19.9Y-120.8
X20.0Y-145.0
X20.6Y-124.6
X20.8Y-96.0
X20.8Y-121.3
X20.9Y-133.2
X20.9Y-145.1
X21.0Y-134.1
X21.2Y-95.0
X21.4Y-127.0
X21.4Y-135.9
X21.5Y-140.7
X21.8Y-121.2
X21.8Y-134.5
X22.0Y-118.5
X22.1Y-78.2
X22.1Y-127.7
X22.5Y-124.0
X22.5Y-129.6
X22.6Y-140.4
X23.2Y-112.3
X23.2Y-117.7
X23.7Y-107.1
X23.8Y-28.5
X24.3Y-145.4
X24.4Y-93.7
X25.1Y-92.8
X25.55Y-139.75
X25.6Y-134.7
X25.7Y-122.6
X26.3Y-30.8
X26.4Y-97.05
X26.8Y-57.3
X26.9Y-94.95
X27.1Y-109.6
X27.3Y-115.3
X27.4Y-97.05
X27.5Y-38.9
X27.5Y-113.9
X27.6Y-92.1
X27.8Y-97.9
X28.0Y-115.3
X28.0Y-132.8
X28.3Y-98.8
X28.5Y-115.8
X28.7Y-105.8
X28.9Y-108.0
X29.0Y-138.0
X29.3Y-34.0
X29.5Y-113.9
X29.7Y-34.5
X29.7Y-96.7
X29.9Y-95.5
X30.0Y-29.5
X30.1Y-26.2
X30.1Y-32.0
X30.3Y-27.1
X30.3Y-32.9
X30.3Y-96.0
X30.4Y-90.4
X30.4Y-120.7
X30.5Y-96.6
X30.6Y-135.7
X30.7Y-116.1
X30.7Y-121.6
X30.8Y-138.7
X30.9Y-100.0
X31.0Y-113.5
X31.0Y-119.2
X31.05Y-139.75
X31.1Y-101.3
X31.2Y-98.1
X31.3Y-34.2
X31.4Y-94.9
X31.6Y-91.7
X31.7Y-32.8
X31.7Y-128.6
X31.7Y-129.5
X31.8Y-97.4
X31.8Y-141.0
X32.0Y-27.5
X32.0Y-36.2
X32.0Y-38.5
X32.0Y-95.1
X32.1Y-111.2
X32.2Y-26.0
X32.2Y-26.9
X32.3Y-145.4
X32.5Y-94.7
X32.6Y-135.1
X32.9Y-96.4
X32.9Y-99.9
X32.9Y-127.5
X33.0Y-21.6
X33.0Y-35.1
X33.0Y-124.9
X33.0Y-145.0
X33.2Y-121.5
X33.3Y-22.9
X33.4Y-36.7
X33.5Y-115.5
X33.5Y-116.75
X33.6Y-135.0
X33.7Y-31.3
X33.7Y-112.5
X33.8Y-96.0
X33.9Y-24.4
X33.9Y-114.2
X34.2Y-97.7
X34.3Y-95.5
X34.5Y-134.6
X34.6Y-129.6
X34.7Y-34.7
X34.9Y-94.9
X35.1Y-29.2
X35.4Y-29.8
X35.4Y-97.1
X35.5Y-22.2
X35.7Y-88.5
X35.7Y-131.45
X35.8Y-38.5
X36.1Y-137.3
X36.2Y-30.0
X36.3Y-96.0
X36.4Y-33.0
X36.4Y-97.1
X36.4Y-127.3
X36.6Y-33.8
X36.6Y-95.3
X36.7Y-35.2
X36.8Y-115.0
X36.8Y-142.1
X37.0Y-24.8
X37.2Y-108.0
X37.2Y-125.5
X37.3Y-32.8
X37.3Y-96.0
X37.4Y-97.1
X37.4Y-140.6
X37.4Y-145.4
X37.5Y-21.8
X38.2Y-109.9
X38.2Y-135.0
X38.3Y-96.0
X38.4Y-97.1
X38.5Y-117.9
X39.0Y-118.7
X39.1Y-91.7
X39.2Y-90.6
X39.2Y-94.1
X39.2Y-138.8
X39.3Y-96.0
X39.3Y-123.3
X39.4Y-97.1
X39.7Y-125.4
X39.8Y-25.4
X40.1Y-33.3
X40.2Y-2.2
X40.5Y-30.2
X40.5Y-38.9
X40.8Y-21.1
X41.0Y-126.8
X41.1Y-125.4
X41.6Y-117.1
X41.9Y-123.2
X42.0Y-114.4
X42.2Y-116.9
X42.2Y-120.5
X42.2Y-131.7
X42.4Y-121.1
X42.5Y-12.5
X42.8Y-142.1
X42.85Y-123.2
X42.9Y-144.2
X43.1Y-129.9
X43.1Y-132.5
X43.15Y-126.9
X43.2Y-44.3
X43.2Y-50.4
X43.2Y-104.0
X43.2Y-127.45
X43.3Y-128.65
X43.4Y-20.1
X43.4Y-105.6
X43.5Y-24.7
X43.5Y-26.7
X43.5Y-33.3
X43.7Y-38.3
X43.85Y-114.8
X43.9Y-118.6
X44.0Y-94.1
X44.05Y-129.9
X44.05Y-132.45
X44.3Y-145.3
X45.1Y-110.7
X45.15Y-116.7
X45.2Y-144.7
X45.6Y-136.0
X45.6Y-142.1
X45.65Y-136.7
X45.7Y-144.2
X46.1Y-101.1
X46.2Y-63.2
X46.2Y-100.0
X46.5Y-106.2
X46.5Y-135.0
X46.7Y-122.6
X46.8Y-117.9
X46.9Y-113.4
X47.0Y-130.8
X47.1Y-132.9
X47.4Y-130.0
X47.6Y-3.6
X47.7Y-108.7
X47.7Y-122.1
X48.2Y-101.2
X48.2Y-129.6
X48.3Y-96.75
X48.375Y-141.625
X48.6Y-133.3
X48.7Y-84.5
X48.9Y-144.7
X49.05Y-120.45
X49.075Y-139.725
X49.1Y-54.5
X49.2Y-112.8
X49.2Y-132.4
X49.3Y-88.8
X49.3Y-105.7
X49.3Y-121.9
X49.5Y-147.1
X49.7Y-60.2
X49.7Y-113.3
X50.0Y-25.4
X50.2Y-116.9
X50.3Y-26.7
X50.8Y-98.25
X51.0Y-104.0
X51.2Y-34.3
X51.25Y-96.8
X51.3Y-111.672
X51.4Y-117.9
X51.5Y-54.9
X51.5Y-92.7
X51.55Y-90.2
X51.6Y-145.0
X51.7Y-79.5
X51.7Y-110.7
X51.7Y-135.4
X51.8Y-41.1
X51.85Y-98.15
X51.9Y-78.2
X52.2Y-63.8
X52.2Y-110.3
X52.2Y-125.6
X52.4Y-117.35
X52.6Y-139.7
X52.6Y-145.0
X52.6Y-146.6
X52.7Y-109.6
X52.75Y-81.7
X52.75Y-114.6
X52.8Y-30.0
X52.8Y-135.6
X52.85Y-79.85
X52.95Y-78.15
X52.95Y-79.0
X52.95Y-87.0
X52.95Y-92.1
X53.0Y-82.55
X53.05Y-56.575
X53.1Y-27.4
X53.15Y-115.85
X53.3Y-70.4
X53.4Y-66.5
X53.4Y-80.8
X53.55Y-30.85
X53.7Y-129.1
X53.75Y-52.5
X53.8Y-70.0
X53.8Y-72.7
X53.9Y-59.5
X54.0Y-95.9
X54.0Y-119.95
X54.0Y-146.6
X54.1Y-135.6
X54.15Y-111.6
X54.2Y-66.5
X54.4Y-33.7
X54.6Y-35.9
X54.7Y-99.0
X54.7Y-129.1
X54.9Y-46.7
X55.0Y-40.9
X55.15Y-22.45
X55.25Y-76.35
X55.25Y-77.75
X55.35Y-97.75
X55.4Y-13.5
X55.4Y-61.1
X55.4Y-118.05
X55.4Y-120.45
X55.5Y-140.3
X55.6Y-61.7
X55.7Y-40.3
X55.7Y-130.7
X55.8Y-62.3
X55.8Y-72.3
X55.9Y-123.9
X56.0Y-68.1
X56.0Y-114.9
X56.0Y-135.2
X56.1Y-36.9
X56.1Y-87.8
X56.1Y-89.8
X56.1Y-96.5
X56.1Y-131.2
X56.15Y-44.7
X56.2Y-51.7
X56.3Y-95.6
X56.4Y-52.8
X56.4Y-103.25
X56.5Y-41.1
X56.5Y-87.0
X56.5Y-100.3
X56.5Y-117.6
X56.55Y-64.25
X56.6Y-17.6
X56.6Y-73.3
X56.6Y-77.7
X56.6Y-140.25
X56.7Y-72.0
X56.7Y-115.6
X56.8Y-45.3
X56.8Y-89.2
X57.05Y-114.6
X57.1Y-107.3
X57.3Y-26.7
X57.3Y-56.6
X57.4Y-117.9
X57.5Y-72.8
X57.6Y-53.6
X57.6Y-83.7
X57.7Y-70.0
X57.8Y-31.8
X57.9Y-38.8
X57.95Y-85.9
X57.95Y-135.55
X58.0Y-72.4
X58.0Y-87.6
X58.2Y-116.0
X58.3Y-70.2
X58.4Y-43.0
X58.4Y-44.1
X58.5Y-89.75
X58.6Y-65.6
X58.7Y-34.0
X58.7Y-78.3
X58.8Y-13.1
X58.8Y-68.85
X58.825Y-72.75
X59.0Y-27.4
X59.1Y-24.0
X59.1Y-32.7
X59.2Y-59.6
X59.2Y-133.1
X59.3Y-106.3
X59.4Y-124.5
X59.4Y-146.0
X59.6Y-31.9
X59.6Y-64.5
X59.6Y-112.7
X59.8Y-82.6
X59.9Y-106.5
X60.1Y-68.0
X60.2Y-140.4
X60.3Y-32.5
X60.4Y-10.8
X60.45Y-118.05
X60.5Y-135.6
X60.8Y-65.7
X60.9Y-23.0
X60.9Y-33.1
X61.0Y-28.0
X61.1Y-21.9
X61.1Y-94.3
X61.1Y-95.4
X61.1Y-100.2
X61.1Y-135.4
X61.15Y-88.85
X61.2Y-69.1
X61.2Y-90.8
X61.2Y-138.1
X61.275Y-79.75
X61.3Y-104.5
X61.4Y-26.4
X61.4Y-41.4
X61.5Y-70.1
X61.6Y-122.3
X61.7Y-58.4
X61.7Y-69.5
X61.7Y-111.1
X61.725Y-77.45
X61.8Y-57.6
X61.8Y-81.6
X61.9Y-41.0
X61.9Y-47.1
X61.9Y-61.3
X61.9Y-111.7
X61.9Y-143.0
X62.0Y-41.7
X62.0Y-87.2
X62.2Y-13.1
X62.2Y-108.6
X62.4Y-6.7
X62.4Y-40.6
X62.4Y-61.8
X62.7Y-41.4
X62.7Y-87.75
X62.8Y-40.1
X63.0Y-63.5
X63.0Y-76.4
X63.0Y-102.3
X63.0Y-103.0
X63.0Y-120.5
X63.0Y-135.5
X63.1Y-117.5
X63.2Y-99.8
X63.25Y-109.3
X63.5Y-41.8
X63.5Y-107.0
X63.7Y-52.9
X63.7Y-78.3
X63.7Y-140.5
X63.8Y-48.3
X63.8Y-53.9
X63.9Y-27.9
X64.1Y-99.7
X64.1Y-111.4
X64.15Y-108.35
X64.2Y-5.95
X64.3Y-101.0
X64.4Y-100.3
X64.7Y-70.5
X65.2Y-49.3
X65.3Y-64.6
X65.3Y-85.2
X65.5Y-91.95
X65.8Y-81.3
X66.1Y-99.25
X66.35Y-103.65
X66.5Y-34.1
X66.5Y-62.1
X66.6Y-70.9
X67.325Y-72.675
X67.5Y-31.9
X67.7Y-101.7
X67.8Y-100.9
X68.0Y-82.4
X68.6Y-80.25
X69.2Y-65.4
X69.25Y-76.45
X69.8Y-94.5
X69.8Y-98.1
X70.4Y-97.4
X70.5Y-92.2
X70.9Y-72.2
T5
X1.2Y-98.3
X1.2Y-110.2
X1.4Y-67.95
X1.8Y-116.6
X1.95Y-91.25
X2.0Y-70.7
X2.1Y-67.95
X2.6Y-22.6
X2.8Y-66.15
X2.8Y-67.95
X3.5Y-67.95
X4.45Y-48.25
X5.7Y-48.45
X6.15Y-47.95
X6.4Y-42.8
X6.4Y-70.4
X6.95Y-7.6
X6.95Y-12.1
X7.9Y-17.298
X8.9Y-124.1
X9.2Y-74.65
X9.4Y-120.3
X10.5Y-63.5
X10.7Y-48.25
X10.95Y-18.0
X12.5Y-119.3
X13.05Y-30.9
X13.9Y-28.0
X13.9Y-124.1
X14.0Y-106.6
X15.6Y-131.2
X15.6Y-141.5
X16.55Y-30.9
X18.8Y-124.1
X21.4Y-100.5
X22.6Y-135.5
X22.8Y-29.4
X23.3Y-121.1
X24.0Y-38.9
X24.9Y-97.2
X24.9Y-104.8
X24.9Y-123.7
X26.4Y-107.0
X27.5Y-117.5
X28.1Y-122.0
X28.9Y-122.7
X29.3Y-121.4
X29.4Y-119.2
X30.2Y-111.1
X31.1Y-108.7
X31.2Y-32.0
X32.6Y-141.5
X35.3Y-46.5
X35.55Y-141.75
X36.0Y-48.0
X36.4Y-108.7
X36.8Y-135.1
X37.3Y-113.0
X37.8Y-113.6
X38.5Y-30.9
X40.9Y-106.7
X41.3Y-95.9
X41.4Y-97.2
X41.6Y-47.5
X41.7Y-22.3
X43.1Y-131.4
X43.4Y-36.9
X44.2Y-4.2
X47.1Y-87.2
X47.4Y-114.4
X48.2Y-105.3
X48.6Y-107.0
X49.3Y-6.2
X49.4Y-58.575
X49.4Y-89.9
X49.4Y-91.0
X49.5Y-83.0
X49.6Y-84.1
X49.8Y-55.9
X49.8Y-79.5
X51.15Y-66.725
X51.425Y-58.65
X51.6Y-142.7
X52.0Y-77.2
X52.3Y-67.5
X52.325Y-35.225
X52.6Y-43.0
X52.8Y-10.9
X53.2Y-112.6
X53.4Y-22.6
X54.8Y-143.2
X54.9Y-107.1
X55.0Y-146.7
X55.25Y-43.0
X55.35Y-56.55
X55.4Y-114.1
X55.7Y-66.3
X55.85Y-38.0
X56.2Y-147.0
X56.3Y-67.2
X57.4Y-60.65
X57.9Y-57.4
X58.125Y-62.375
X58.7Y-79.6
X58.7Y-140.5
X58.9Y-63.5
X59.2Y-8.8
X59.65Y-113.875
X59.975Y-60.425
X60.7Y-92.4
X60.95Y-39.425
X61.2Y-103.4
X61.325Y-32.075
X61.325Y-56.05
X61.375Y-34.3
X61.4Y-82.5
X61.5Y-62.4
X61.8Y-120.5
X61.9Y-119.7
X62.1Y-129.3
X62.225Y-48.675
X62.25Y-36.85
X62.525Y-39.025
X62.6Y-140.0
X63.3Y-72.975
X63.3Y-73.875
X63.8Y-96.0
X63.9Y-141.7
X64.2Y-72.975
X64.2Y-73.875
X64.3Y-98.0
X65.25Y-79.2
X66.0Y-86.5
X66.8Y-79.446
T7
X7.0Y-33.0
X7.0Y-35.0
X38.0Y-128.0
X40.0Y-128.0
T8
X51.75Y-6.6
X54.29Y-6.6
T9
X65.9Y-10.0
X65.9Y-12.54
X65.9Y-15.08
X65.9Y-17.62
X65.9Y-20.16
X65.9Y-22.7
X65.9Y-25.24
X65.9Y-27.78
X65.9Y-30.32
X65.9Y-32.86
X65.9Y-35.4
X65.9Y-37.94
X65.9Y-40.48
X65.9Y-43.02
X65.9Y-45.56
X65.9Y-48.1
X65.9Y-50.64
X65.9Y-53.18
X65.9Y-55.72
X65.9Y-58.26
X65.9Y-60.8
X65.9Y-63.34
X65.9Y-65.88
X65.9Y-68.42
T10
X64.21Y-4.6
X66.75Y-4.6
X69.29Y-4.6
T6
X38.68Y-142.025G85X38.68Y-141.225
G05
X38.68Y-146.355G85X38.68Y-145.255
G05
X47.32Y-142.025G85X47.32Y-141.225
G05
X47.32Y-146.355G85X47.32Y-145.255
G05
M30
