%TF.GenerationSoftware,KiCad,Pcbnew,10.0.5-10.0.5~ubuntu24.04.1*%
%TF.CreationDate,2026-09-05T00:14:29+00:00*%
%TF.ProjectId,aqroot-Beta-v2,6171726f-6f74-42d4-9265-74612d76322e,rev?*%
%TF.SameCoordinates,Original*%
%TF.FileFunction,Copper,L3,Inr*%
%TF.FilePolarity,Positive*%
%FSLAX46Y46*%
G04 Gerber Fmt 4.6, Leading zero omitted, Abs format (unit mm)*
G04 Created by KiCad (PCBNEW 10.0.5-10.0.5~ubuntu24.04.1) date 2026-09-05 00:14:29*
%MOMM*%
%LPD*%
G01*
G04 APERTURE LIST*
G04 Aperture macros list*
%AMRoundRect*
0 Rectangle with rounded corners*
0 $1 Rounding radius*
0 $2 $3 $4 $5 $6 $7 $8 $9 X,Y pos of 4 corners*
0 Add a 4 corners polygon primitive as box body*
4,1,4,$2,$3,$4,$5,$6,$7,$8,$9,$2,$3,0*
0 Add four circle primitives for the rounded corners*
1,1,$1+$1,$2,$3*
1,1,$1+$1,$4,$5*
1,1,$1+$1,$6,$7*
1,1,$1+$1,$8,$9*
0 Add four rect primitives between the rounded corners*
20,1,$1+$1,$2,$3,$4,$5,0*
20,1,$1+$1,$4,$5,$6,$7,0*
20,1,$1+$1,$6,$7,$8,$9,0*
20,1,$1+$1,$8,$9,$2,$3,0*%
G04 Aperture macros list end*
%TA.AperFunction,ComponentPad*%
%ADD10R,1.600000X1.600000*%
%TD*%
%TA.AperFunction,ComponentPad*%
%ADD11C,1.600000*%
%TD*%
%TA.AperFunction,HeatsinkPad*%
%ADD12C,0.600000*%
%TD*%
%TA.AperFunction,ComponentPad*%
%ADD13R,1.800000X1.800000*%
%TD*%
%TA.AperFunction,ComponentPad*%
%ADD14C,1.800000*%
%TD*%
%TA.AperFunction,ComponentPad*%
%ADD15O,1.000000X2.100000*%
%TD*%
%TA.AperFunction,ComponentPad*%
%ADD16O,1.000000X1.800000*%
%TD*%
%TA.AperFunction,ComponentPad*%
%ADD17RoundRect,0.250000X-0.350000X-0.625000X0.350000X-0.625000X0.350000X0.625000X-0.350000X0.625000X0*%
%TD*%
%TA.AperFunction,ComponentPad*%
%ADD18O,1.200000X1.750000*%
%TD*%
%TA.AperFunction,ComponentPad*%
%ADD19RoundRect,0.250000X0.625000X-0.350000X0.625000X0.350000X-0.625000X0.350000X-0.625000X-0.350000X0*%
%TD*%
%TA.AperFunction,ComponentPad*%
%ADD20O,1.750000X1.200000*%
%TD*%
%TA.AperFunction,ViaPad*%
%ADD21C,0.600000*%
%TD*%
%TA.AperFunction,ViaPad*%
%ADD22C,0.700000*%
%TD*%
%TA.AperFunction,ViaPad*%
%ADD23C,0.650000*%
%TD*%
%TA.AperFunction,ViaPad*%
%ADD24C,0.350000*%
%TD*%
%TA.AperFunction,ViaPad*%
%ADD25C,0.800000*%
%TD*%
%TA.AperFunction,ViaPad*%
%ADD26C,0.500000*%
%TD*%
%TA.AperFunction,ViaPad*%
%ADD27C,0.450000*%
%TD*%
%TA.AperFunction,ViaPad*%
%ADD28C,0.900000*%
%TD*%
%TA.AperFunction,Conductor*%
%ADD29C,0.400000*%
%TD*%
%TA.AperFunction,Conductor*%
%ADD30C,0.200000*%
%TD*%
%TA.AperFunction,Conductor*%
%ADD31C,0.300000*%
%TD*%
%TA.AperFunction,Conductor*%
%ADD32C,0.800000*%
%TD*%
%TA.AperFunction,Conductor*%
%ADD33C,0.500000*%
%TD*%
%TA.AperFunction,Conductor*%
%ADD34C,0.250000*%
%TD*%
%TA.AperFunction,Conductor*%
%ADD35C,0.600000*%
%TD*%
G04 APERTURE END LIST*
D10*
%TO.N,/ACC_5V_SW*%
%TO.C,J5*%
X65900000Y-10000000D03*
D11*
%TO.N,GND*%
X65900000Y-12540000D03*
%TO.N,/ACC_3V3_SW*%
X65900000Y-15080000D03*
%TO.N,/09_COMMUNITY_HEADER/EXT_SDA*%
X65900000Y-17620000D03*
%TO.N,/09_COMMUNITY_HEADER/EXT_SCL*%
X65900000Y-20160000D03*
%TO.N,GND*%
X65900000Y-22700000D03*
%TO.N,/09_COMMUNITY_HEADER/NATIVE_A_HDR*%
X65900000Y-25240000D03*
%TO.N,/09_COMMUNITY_HEADER/NATIVE_B_HDR*%
X65900000Y-27780000D03*
%TO.N,unconnected-(J5-Pin_9-Pad9)*%
X65900000Y-30320000D03*
%TO.N,unconnected-(J5-Pin_10-Pad10)*%
X65900000Y-32860000D03*
%TO.N,unconnected-(J5-Pin_11-Pad11)*%
X65900000Y-35400000D03*
%TO.N,unconnected-(J5-Pin_12-Pad12)*%
X65900000Y-37940000D03*
%TO.N,/09_COMMUNITY_HEADER/XGPIO4_HDR*%
X65900000Y-40480000D03*
%TO.N,/09_COMMUNITY_HEADER/XGPIO5_HDR*%
X65900000Y-43020000D03*
%TO.N,unconnected-(J5-Pin_15-Pad15)*%
X65900000Y-45560000D03*
%TO.N,unconnected-(J5-Pin_16-Pad16)*%
X65900000Y-48100000D03*
%TO.N,unconnected-(J5-Pin_17-Pad17)*%
X65900000Y-50640000D03*
%TO.N,unconnected-(J5-Pin_18-Pad18)*%
X65900000Y-53180000D03*
%TO.N,GND*%
X65900000Y-55720000D03*
%TO.N,/09_COMMUNITY_HEADER/WAKE_ATTN_N_HDR*%
X65900000Y-58260000D03*
%TO.N,/09_COMMUNITY_HEADER/ACC_DETECT_N_HDR*%
X65900000Y-60800000D03*
%TO.N,/ACC_3V3_SW*%
X65900000Y-63340000D03*
%TO.N,GND*%
X65900000Y-65880000D03*
%TO.N,/ACC_5V_SW*%
X65900000Y-68420000D03*
%TD*%
D12*
%TO.N,GND*%
%TO.C,U1*%
X55990000Y-125100000D03*
X54590000Y-125100000D03*
X56690000Y-125800000D03*
X55290000Y-125800000D03*
X53890000Y-125800000D03*
X55990000Y-126500000D03*
X54590000Y-126500000D03*
X56690000Y-127200000D03*
X55290000Y-127200000D03*
X53890000Y-127200000D03*
X55990000Y-127900000D03*
X54590000Y-127900000D03*
%TD*%
D13*
%TO.N,/07_IR/IR_LED_K*%
%TO.C,D1*%
X51750000Y-6600000D03*
D14*
%TO.N,/07_IR/IR_LED_A*%
X54290000Y-6600000D03*
%TD*%
D15*
%TO.N,Net-(J3-SHIELD)*%
%TO.C,J3*%
X47320000Y-145805000D03*
D16*
X47320000Y-141625000D03*
D15*
X38680000Y-145805000D03*
D16*
X38680000Y-141625000D03*
%TD*%
D13*
%TO.N,/IR_RX_GPIO44*%
%TO.C,U6*%
X64210000Y-4600000D03*
D14*
%TO.N,GND*%
X66750000Y-4600000D03*
%TO.N,/07_IR/IR_RX_VS_LOCAL*%
X69290000Y-4600000D03*
%TD*%
D17*
%TO.N,/06_AUDIO/SPK_P_CONN*%
%TO.C,J6*%
X38000000Y-128000000D03*
D18*
%TO.N,/06_AUDIO/SPK_N_CONN*%
X40000000Y-128000000D03*
%TD*%
D19*
%TO.N,/01_POWER_TREE/BAT_CONNECTOR_P*%
%TO.C,J4*%
X7000000Y-35000000D03*
D20*
%TO.N,GND*%
X7000000Y-33000000D03*
%TD*%
D21*
%TO.N,/09_COMMUNITY_HEADER/WAKE_GATE_S*%
X62200000Y-108600000D03*
X57300000Y-56600000D03*
X56600000Y-17600000D03*
X63700000Y-78300000D03*
X58200000Y-116000000D03*
X54900000Y-46700000D03*
D22*
%TO.N,+3V3*%
X44200000Y-4200000D03*
D23*
X62100000Y-129300000D03*
D22*
X61400000Y-82500000D03*
D24*
X55600000Y-113500000D03*
D22*
X29300000Y-121400000D03*
X30200000Y-111100000D03*
X47400000Y-114400000D03*
D24*
X3700000Y-123200000D03*
D22*
X26400000Y-107000000D03*
X1200000Y-110200000D03*
X56300000Y-67200000D03*
X12500000Y-119300000D03*
X18800000Y-124100000D03*
X59200000Y-8800000D03*
X55700000Y-66300000D03*
X52800000Y-10900000D03*
X61800000Y-120500000D03*
X1800000Y-116600000D03*
X53200000Y-112600000D03*
X49500000Y-83000000D03*
X49400000Y-89900000D03*
X49600000Y-84100000D03*
D23*
X64300000Y-98000000D03*
D22*
X49400000Y-91000000D03*
X15600000Y-141500000D03*
D24*
X60300000Y-71000000D03*
D21*
X41100000Y-125400000D03*
D25*
X41300000Y-95900000D03*
D22*
X31100000Y-108700000D03*
X2000000Y-70700000D03*
X62600000Y-140000000D03*
X24000000Y-38900000D03*
X38500000Y-30900000D03*
X40900000Y-106700000D03*
X8900000Y-124100000D03*
D23*
X63800000Y-96000000D03*
D22*
X22600000Y-135500000D03*
X49800000Y-55900000D03*
D23*
X31200000Y-32000000D03*
D22*
X43100000Y-131400000D03*
D25*
X37800000Y-113600000D03*
D22*
X49800000Y-79500000D03*
D23*
X58700000Y-79600000D03*
D22*
X60700000Y-92400000D03*
X29400000Y-119200000D03*
X23300000Y-121100000D03*
D24*
X65200000Y-98800000D03*
D25*
X56200000Y-147000000D03*
D22*
X37300000Y-113000000D03*
X41400000Y-97200000D03*
X24900000Y-97200000D03*
X24900000Y-123700000D03*
X1200000Y-98300000D03*
X48200000Y-105300000D03*
X57900000Y-57400000D03*
X47100000Y-87200000D03*
D23*
X61900000Y-119700000D03*
D22*
X15600000Y-131200000D03*
X32600000Y-141500000D03*
X52000000Y-77200000D03*
X55000000Y-146700000D03*
X24900000Y-104800000D03*
X49300000Y-6200000D03*
X58700000Y-140500000D03*
X36400000Y-108700000D03*
X52300000Y-67500000D03*
X55400000Y-114100000D03*
X54800000Y-143200000D03*
X22800000Y-29400000D03*
D25*
X63900000Y-141700000D03*
D24*
X61300000Y-76300000D03*
D22*
X13900000Y-124100000D03*
D21*
%TO.N,GND*%
X61700000Y-69500000D03*
X61900000Y-61300000D03*
D26*
X56400000Y-62600000D03*
D21*
X35400000Y-29800000D03*
X63000000Y-102300000D03*
X15600000Y-72500000D03*
X37400000Y-97100000D03*
D26*
X62100000Y-71600000D03*
D21*
X12100000Y-22800000D03*
X43500000Y-33300000D03*
X61200000Y-69100000D03*
X9600000Y-129600000D03*
X12000000Y-66900000D03*
X35800000Y-38500000D03*
X43500000Y-26700000D03*
X53300000Y-70400000D03*
X35100000Y-29200000D03*
X31700000Y-129500000D03*
X33000000Y-21600000D03*
X34500000Y-134600000D03*
X39400000Y-97100000D03*
X5100000Y-74700000D03*
X39200000Y-90600000D03*
X17900000Y-128500000D03*
X36700000Y-35200000D03*
X39300000Y-96000000D03*
X38200000Y-109900000D03*
X33000000Y-145000000D03*
X9800000Y-19500000D03*
X1800000Y-12300000D03*
X51900000Y-78200000D03*
X1000000Y-92200000D03*
X40500000Y-38900000D03*
X8200000Y-112300000D03*
D26*
X57600000Y-29100000D03*
D21*
X23800000Y-28500000D03*
X2700000Y-88900000D03*
X12700000Y-75400000D03*
X11200000Y-67200000D03*
X32000000Y-95100000D03*
X61900000Y-41000000D03*
X33000000Y-124900000D03*
X55800000Y-62300000D03*
D26*
X63400000Y-75900000D03*
D24*
X62900000Y-114200000D03*
D21*
X53400000Y-80800000D03*
X62400000Y-6700000D03*
X65200000Y-49300000D03*
X10600000Y-15800000D03*
X61800000Y-57600000D03*
X60100000Y-68000000D03*
X9400000Y-56800000D03*
X32600000Y-135100000D03*
X23200000Y-117700000D03*
X28700000Y-105800000D03*
X20800000Y-96000000D03*
X42200000Y-131700000D03*
X20000000Y-145000000D03*
X70500000Y-92200000D03*
X3400000Y-109400000D03*
X36800000Y-115000000D03*
X57600000Y-53600000D03*
X53400000Y-66500000D03*
X4500000Y-112900000D03*
X20900000Y-145100000D03*
X21200000Y-95000000D03*
X55400000Y-13500000D03*
D26*
X58300000Y-23700000D03*
D21*
X27300000Y-115300000D03*
X68000000Y-82400000D03*
X61100000Y-100200000D03*
X38300000Y-96000000D03*
X24300000Y-145400000D03*
X10700000Y-122600000D03*
X33700000Y-31300000D03*
X22600000Y-140400000D03*
D26*
X66600000Y-66600000D03*
D21*
X34300000Y-95500000D03*
X32900000Y-96400000D03*
X2300000Y-26500000D03*
X62800000Y-40100000D03*
X34900000Y-94900000D03*
X28000000Y-115300000D03*
X34600000Y-129600000D03*
X27500000Y-113900000D03*
X4400000Y-129500000D03*
X10500000Y-67300000D03*
X61900000Y-143000000D03*
X70900000Y-72200000D03*
X57500000Y-72800000D03*
X8000000Y-39800000D03*
X62200000Y-13100000D03*
X28900000Y-108000000D03*
X32000000Y-38500000D03*
X51700000Y-79500000D03*
D24*
X67300000Y-77700000D03*
D21*
X64100000Y-99700000D03*
X36300000Y-96000000D03*
D27*
X53900000Y-56600000D03*
D24*
X47900000Y-116900000D03*
D21*
X30300000Y-32900000D03*
X55600000Y-61700000D03*
X25700000Y-122600000D03*
D26*
X58200000Y-24900000D03*
D21*
X17000000Y-143000000D03*
X59100000Y-32700000D03*
X36400000Y-97100000D03*
X12500000Y-21700000D03*
X26300000Y-30800000D03*
X32500000Y-94700000D03*
X28500000Y-115800000D03*
X58000000Y-72400000D03*
X43500000Y-24700000D03*
X40500000Y-30200000D03*
X32100000Y-111200000D03*
D26*
X55900000Y-59400000D03*
D21*
X27500000Y-38900000D03*
X2400000Y-86400000D03*
X3700000Y-98900000D03*
X3700000Y-99600000D03*
X61300000Y-104500000D03*
X56000000Y-68100000D03*
X21400000Y-127000000D03*
X43700000Y-38300000D03*
X59900000Y-106500000D03*
X12000000Y-145100000D03*
X63000000Y-76400000D03*
X17700000Y-131200000D03*
X32900000Y-127500000D03*
X63000000Y-135500000D03*
X63000000Y-120500000D03*
X53800000Y-70000000D03*
X38400000Y-97100000D03*
X29900000Y-95500000D03*
X36200000Y-30000000D03*
D26*
X64500000Y-77900000D03*
D21*
X9200000Y-57400000D03*
X58800000Y-13100000D03*
X29700000Y-96700000D03*
X15700000Y-122600000D03*
X4400000Y-144000000D03*
X15800000Y-110200000D03*
X37400000Y-140600000D03*
X9800000Y-119200000D03*
X18500000Y-128700000D03*
X2900000Y-8400000D03*
X15800000Y-127800000D03*
D24*
X49300000Y-117000000D03*
D21*
X54400000Y-33700000D03*
X35400000Y-97100000D03*
D26*
X25600000Y-93700000D03*
D21*
X33800000Y-96000000D03*
X30700000Y-116100000D03*
X32000000Y-36200000D03*
X52600000Y-139700000D03*
X61700000Y-58400000D03*
X9900000Y-23100000D03*
X35700000Y-88500000D03*
X31000000Y-119200000D03*
X61200000Y-90800000D03*
X30300000Y-96000000D03*
X65800000Y-81300000D03*
X50000000Y-25400000D03*
X61400000Y-41400000D03*
X63000000Y-103000000D03*
X15600000Y-127000000D03*
X17000000Y-129200000D03*
X58300000Y-70200000D03*
X48900000Y-144700000D03*
X56700000Y-115600000D03*
X39800000Y-25400000D03*
X9500000Y-59300000D03*
X64300000Y-101000000D03*
X15800000Y-121300000D03*
X63700000Y-140500000D03*
X31400000Y-94900000D03*
X40800000Y-21100000D03*
X32200000Y-26000000D03*
X43400000Y-20100000D03*
X40100000Y-33300000D03*
X65300000Y-64600000D03*
X62400000Y-61800000D03*
X62400000Y-40600000D03*
X15700000Y-46700000D03*
X1500000Y-83500000D03*
X37000000Y-24800000D03*
X64400000Y-100300000D03*
X26800000Y-57300000D03*
X47600000Y-3600000D03*
X48200000Y-101200000D03*
X4000000Y-108600000D03*
X57700000Y-70000000D03*
X30400000Y-120700000D03*
X37400000Y-145400000D03*
X22500000Y-129600000D03*
X8200000Y-117700000D03*
X11600000Y-59200000D03*
X18400000Y-142700000D03*
X62000000Y-41700000D03*
X11600000Y-58100000D03*
X51800000Y-41100000D03*
X4400000Y-127000000D03*
X36800000Y-142100000D03*
X30000000Y-29500000D03*
X67800000Y-100900000D03*
X8200000Y-71400000D03*
X1100000Y-84000000D03*
X56500000Y-100300000D03*
X49500000Y-147100000D03*
X9800000Y-67300000D03*
X30300000Y-27100000D03*
X9400000Y-23500000D03*
X33600000Y-135000000D03*
X64100000Y-111400000D03*
X30700000Y-121600000D03*
X62700000Y-41400000D03*
X2700000Y-87000000D03*
X23200000Y-112300000D03*
X31800000Y-97400000D03*
X40200000Y-2200000D03*
X35500000Y-22200000D03*
X61500000Y-70100000D03*
X15800000Y-102200000D03*
X20800000Y-121300000D03*
X67700000Y-101700000D03*
X36600000Y-95300000D03*
X15800000Y-117200000D03*
X6600000Y-28000000D03*
X18400000Y-135100000D03*
X43400000Y-105600000D03*
X9700000Y-86000000D03*
X61100000Y-21900000D03*
X21800000Y-121200000D03*
X60400000Y-10800000D03*
X55400000Y-61100000D03*
X59300000Y-106300000D03*
X12200000Y-58700000D03*
X54200000Y-66500000D03*
D26*
X53000000Y-62500000D03*
X54000000Y-90400000D03*
D21*
X2800000Y-85700000D03*
X18400000Y-136400000D03*
X51200000Y-34300000D03*
X39700000Y-125400000D03*
X60900000Y-23000000D03*
X30500000Y-96600000D03*
X37300000Y-96000000D03*
X50300000Y-26700000D03*
X32300000Y-145400000D03*
D28*
%TO.N,/ACC_5V_SW*%
X62225000Y-48675000D03*
X61325000Y-32075000D03*
X62525000Y-39025000D03*
X55250000Y-43000000D03*
X62250000Y-36850000D03*
%TO.N,/ACC_3V3_SW*%
X57400000Y-60650000D03*
X51425000Y-58650000D03*
X49400000Y-58575000D03*
X61500000Y-62400000D03*
X55350000Y-56550000D03*
X61325000Y-56050000D03*
X58125000Y-62375000D03*
X59650000Y-113875000D03*
X59975000Y-60425000D03*
X51150000Y-66725000D03*
X58900000Y-63500000D03*
D21*
%TO.N,/09_COMMUNITY_HEADER/EXT_SCL*%
X54600000Y-35900000D03*
X55000000Y-40900000D03*
X61400000Y-26400000D03*
X63000000Y-63500000D03*
X52800000Y-30000000D03*
X56200000Y-51700000D03*
X59600000Y-31900000D03*
X60900000Y-33100000D03*
X60300000Y-32500000D03*
%TO.N,/09_COMMUNITY_HEADER/NATIVE_A_HDR*%
X59400000Y-146000000D03*
X53800000Y-72700000D03*
X58600000Y-65600000D03*
X59100000Y-24000000D03*
%TO.N,/09_COMMUNITY_HEADER/NATIVE_B_HDR*%
X62000000Y-87200000D03*
X67500000Y-31900000D03*
X61000000Y-28000000D03*
X63900000Y-27900000D03*
X46900000Y-113400000D03*
%TO.N,/03_SPI_A_DISPLAY_SD/LED_BOOST*%
X4500000Y-122800000D03*
X27600000Y-92100000D03*
X4600000Y-116500000D03*
X14300000Y-105000000D03*
%TO.N,/03_SPI_A_DISPLAY_SD/LED_A*%
X44000000Y-94100000D03*
X31600000Y-91700000D03*
X30400000Y-90400000D03*
X39200000Y-94100000D03*
%TO.N,/SD_CARD_DETECT_N*%
X53000000Y-82550000D03*
%TO.N,/I2C_SDA_INT*%
X47700000Y-108700000D03*
X39000000Y-118700000D03*
X69200000Y-65400000D03*
X28000000Y-132800000D03*
X30600000Y-135700000D03*
X39200000Y-138800000D03*
X42400000Y-121100000D03*
X49300000Y-105700000D03*
X45200000Y-144700000D03*
X4800000Y-85900000D03*
X46500000Y-106200000D03*
X42000000Y-114400000D03*
X51000000Y-104000000D03*
X61200000Y-138100000D03*
X52700000Y-109600000D03*
X42200000Y-120500000D03*
X52200000Y-110300000D03*
X54000000Y-146600000D03*
X16800000Y-97800000D03*
X29000000Y-138000000D03*
X66500000Y-62100000D03*
X61800000Y-81600000D03*
X65300000Y-85200000D03*
X37200000Y-108000000D03*
X28300000Y-98800000D03*
X63700000Y-52900000D03*
X2700000Y-83800000D03*
X57600000Y-83700000D03*
X51700000Y-110700000D03*
%TO.N,/AMP_SD_MODE*%
X51550000Y-90200000D03*
%TO.N,/WAKE_INT_N*%
X59400000Y-124500000D03*
X53700000Y-129100000D03*
X61600000Y-122300000D03*
X49200000Y-132400000D03*
X48600000Y-133300000D03*
X63100000Y-117500000D03*
X52600000Y-145000000D03*
X55500000Y-140300000D03*
%TO.N,/02_MCU_CORE/DISP_BL_CTL_STRAP*%
X46700000Y-122600000D03*
X50200000Y-116900000D03*
X41600000Y-117100000D03*
X60200000Y-140400000D03*
X43900000Y-118600000D03*
X42200000Y-116900000D03*
%TO.N,Net-(U1-EN)*%
X60450000Y-118050000D03*
X52400000Y-117350000D03*
X53150000Y-115850000D03*
X56600000Y-140250000D03*
%TO.N,/SPI_B_SCK*%
X51600000Y-145000000D03*
X15500000Y-135800000D03*
X56000000Y-135200000D03*
X21400000Y-135900000D03*
X4400000Y-136400000D03*
X6800000Y-138800000D03*
X14400000Y-146400000D03*
%TO.N,/SPI_B_MOSI*%
X6400000Y-139600000D03*
X30800000Y-138700000D03*
X36100000Y-137300000D03*
X22100000Y-127700000D03*
X55900000Y-123900000D03*
X31300000Y-34200000D03*
X52200000Y-125600000D03*
X19400000Y-103700000D03*
X22100000Y-78200000D03*
X47100000Y-132900000D03*
X21800000Y-134500000D03*
%TO.N,/SPI_B_MISO*%
X25600000Y-134700000D03*
X31700000Y-32800000D03*
X8600000Y-143100000D03*
X43200000Y-44300000D03*
X56500000Y-117600000D03*
X21500000Y-140700000D03*
X47000000Y-130800000D03*
%TO.N,/CC1101_CS_N*%
X21000000Y-134100000D03*
X55400000Y-120450000D03*
X54150000Y-111600000D03*
X55400000Y-118050000D03*
%TO.N,/CC1101_GDO0*%
X18500000Y-140750000D03*
X54000000Y-119950000D03*
%TO.N,/SX1262_CS_N*%
X38500000Y-117900000D03*
X56000000Y-114900000D03*
X46800000Y-117900000D03*
X20900000Y-133200000D03*
X51400000Y-117900000D03*
%TO.N,/SX1262_BUSY*%
X49050000Y-120450000D03*
X4350000Y-141450000D03*
%TO.N,/NFC_CS_N*%
X43200000Y-50400000D03*
X49300000Y-121900000D03*
X33000000Y-35100000D03*
X43200000Y-104000000D03*
X49200000Y-112800000D03*
X45100000Y-110700000D03*
X49700000Y-113300000D03*
%TO.N,/DISP_CS_N*%
X42850000Y-123200000D03*
X26400000Y-97050000D03*
%TO.N,/SPI_A_MOSI*%
X33200000Y-121500000D03*
X27800000Y-97900000D03*
X37200000Y-125500000D03*
X19700000Y-105100000D03*
%TO.N,/SPI_A_SCK*%
X27400000Y-97050000D03*
X43150000Y-126900000D03*
X16600000Y-131250000D03*
X43200000Y-127450000D03*
%TO.N,/SPI_A_MISO*%
X43300000Y-128650000D03*
X18800000Y-131250000D03*
%TO.N,/DISP_DC*%
X44050000Y-129900000D03*
X26900000Y-94950000D03*
%TO.N,/NATIVE_B*%
X44050000Y-132450000D03*
X43850000Y-114800000D03*
%TO.N,/02_MCU_CORE/GPIO45_VDDSPI_STRAP*%
X46500000Y-135000000D03*
X59600000Y-112700000D03*
%TO.N,/02_MCU_CORE/BOOT_N*%
X45600000Y-136000000D03*
X31050000Y-139750000D03*
X57050000Y-114600000D03*
X25550000Y-139750000D03*
X45650000Y-136700000D03*
%TO.N,/I2S_BCLK*%
X52800000Y-135600000D03*
X48200000Y-129600000D03*
X31000000Y-113500000D03*
X41900000Y-123200000D03*
X33900000Y-114200000D03*
X27100000Y-109600000D03*
%TO.N,/I2S_LRCLK*%
X20600000Y-124600000D03*
X52600000Y-146600000D03*
X54100000Y-135600000D03*
X7100000Y-110100000D03*
X31800000Y-141000000D03*
X45600000Y-142100000D03*
%TO.N,/I2S_SPK_DOUT*%
X39300000Y-123300000D03*
X29500000Y-113900000D03*
X47400000Y-130000000D03*
%TO.N,/I2S_MIC_DIN*%
X61900000Y-111700000D03*
X61700000Y-111100000D03*
X57400000Y-117900000D03*
X15800000Y-104900000D03*
X59200000Y-133100000D03*
%TO.N,/IR_RX_GPIO44*%
X64200000Y-5950000D03*
X63250000Y-109300000D03*
X57950000Y-135550000D03*
X64150000Y-108350000D03*
%TO.N,/I2C_SCL_INT*%
X47700000Y-122100000D03*
X43100000Y-132500000D03*
X60500000Y-135600000D03*
X46200000Y-63200000D03*
X51700000Y-135400000D03*
X56700000Y-72000000D03*
X59600000Y-64500000D03*
X25100000Y-92800000D03*
X56100000Y-131200000D03*
X54700000Y-129100000D03*
X55700000Y-130700000D03*
X32900000Y-99900000D03*
X24400000Y-93700000D03*
X61100000Y-135400000D03*
X49100000Y-54500000D03*
%TO.N,/07_IR/IR_GATE*%
X51300000Y-111672363D03*
X42500000Y-12500000D03*
D25*
%TO.N,/01_POWER_TREE/USB_VBUS_RAW*%
X51600000Y-142700000D03*
D24*
X40600000Y-146380000D03*
X45400000Y-146380000D03*
D25*
X35550000Y-141750000D03*
D21*
%TO.N,/DISP_BL_CTL*%
X4000000Y-121950000D03*
X52750000Y-114600000D03*
%TO.N,Net-(J3-SHIELD)*%
X48375000Y-141625000D03*
X49075000Y-139725000D03*
%TO.N,/08_BUTTONS_EXPANDERS/BTN_RIGHT_N*%
X57950000Y-85900000D03*
X52750000Y-81700000D03*
%TO.N,/09_COMMUNITY_HEADER/EXT_SCL_BUF*%
X57800000Y-31800000D03*
X55700000Y-40300000D03*
X56400000Y-52800000D03*
%TO.N,/08_BUTTONS_EXPANDERS/BTN_LEFT_N*%
X11600000Y-119000000D03*
X56800000Y-89200000D03*
X54000000Y-95900000D03*
X31100000Y-101300000D03*
X11200000Y-125300000D03*
%TO.N,Net-(D13-BK)*%
X56400000Y-103250000D03*
%TO.N,Net-(D13-GK)*%
X50800000Y-98250000D03*
%TO.N,Net-(D13-RK)*%
X51250000Y-96800000D03*
%TO.N,Net-(SW9-A)*%
X19900000Y-120800000D03*
X66350000Y-103650000D03*
X62700000Y-87750000D03*
X65500000Y-91950000D03*
D25*
%TO.N,/01_POWER_TREE/BQ25185_SYS*%
X61200000Y-103400000D03*
X28100000Y-122000000D03*
X14000000Y-106600000D03*
X41600000Y-47500000D03*
X66000000Y-86500000D03*
X53400000Y-22600000D03*
X54900000Y-107100000D03*
X9400000Y-120300000D03*
X28900000Y-122700000D03*
X48600000Y-107000000D03*
D21*
%TO.N,/06_AUDIO/SPK_P*%
X31700000Y-128600000D03*
X33500000Y-116750000D03*
%TO.N,/06_AUDIO/SPK_N*%
X35700000Y-131449999D03*
X33500000Y-115500000D03*
%TO.N,/TOUCH_RST_N*%
X52950000Y-92100000D03*
%TO.N,/03_SPI_A_DISPLAY_SD/LED_K*%
X900000Y-116100000D03*
X1500000Y-109100000D03*
%TO.N,/DISP_RST_N*%
X52950000Y-87000000D03*
%TO.N,/TOUCH_INT_N*%
X61150000Y-88850000D03*
%TO.N,/09_COMMUNITY_HEADER/EXT_SDA_BUF*%
X58700000Y-34000000D03*
X63800000Y-53900000D03*
D28*
%TO.N,/01_POWER_TREE/USB_VBUS_CHG*%
X13050000Y-30900000D03*
X7900000Y-17298200D03*
X65250000Y-79200000D03*
X6950000Y-7600000D03*
X1950000Y-91250000D03*
X66800000Y-79446400D03*
X6950000Y-12100000D03*
X13900000Y-28000000D03*
X2600000Y-22600000D03*
X16550000Y-30900000D03*
X36800000Y-135100000D03*
D21*
%TO.N,/08_BUTTONS_EXPANDERS/BTN_A_N*%
X48700000Y-84500000D03*
X58000000Y-87600000D03*
X34200000Y-97700000D03*
X39100000Y-91700000D03*
X23700000Y-107100000D03*
X56100000Y-96500000D03*
X30900000Y-100000000D03*
X49300000Y-88800000D03*
X51500000Y-92700000D03*
%TO.N,/08_BUTTONS_EXPANDERS/BTN_B_N*%
X48300000Y-96750000D03*
X56300000Y-95600000D03*
%TO.N,/XGPIO5*%
X53550000Y-30850000D03*
X55250000Y-76350000D03*
%TO.N,/08_BUTTONS_EXPANDERS/BTN_DOWN_N*%
X31200000Y-98100000D03*
%TO.N,/ACC_DETECT_N*%
X57900000Y-38800000D03*
%TO.N,/05_I2C_DEVICES/BMI270_INT1_RAW*%
X58800000Y-68850000D03*
X45150000Y-116700000D03*
%TO.N,/XGPIO4*%
X56600000Y-77700000D03*
X55150000Y-22450000D03*
%TO.N,/08_BUTTONS_EXPANDERS/BTN_UP_N*%
X61100000Y-95400000D03*
%TO.N,/01_POWER_TREE/LTC_OV*%
X12350000Y-59800000D03*
X12650000Y-64200000D03*
D28*
%TO.N,/01_POWER_TREE/ACC_5V_RAW*%
X52325000Y-35225000D03*
X61375000Y-34300000D03*
X55850000Y-38000000D03*
X52600000Y-43000000D03*
X60950000Y-39425000D03*
D24*
%TO.N,/01_POWER_TREE/Q3_CS*%
X3165000Y-59275000D03*
X5700000Y-57800000D03*
%TO.N,/01_POWER_TREE/LTC_GATE*%
X5150000Y-64750000D03*
X5900000Y-64800000D03*
X7500000Y-60800000D03*
X1900000Y-60700000D03*
%TO.N,/01_POWER_TREE/BAT_SENSE*%
X4250000Y-63500000D03*
X4600000Y-66000000D03*
D21*
%TO.N,/01_POWER_TREE/VBUS_PRESENT*%
X2000000Y-87900000D03*
X5000000Y-89450000D03*
%TO.N,/01_POWER_TREE/REC_GATE_N*%
X4300000Y-19900000D03*
X6000000Y-20400000D03*
%TO.N,/01_POWER_TREE/ACC_5V_FB*%
X56100000Y-36900000D03*
X58400000Y-44100000D03*
X56800000Y-45300000D03*
D25*
%TO.N,/NFC_SUPPLY*%
X35300000Y-46500000D03*
X41700000Y-22300000D03*
X21400000Y-100500000D03*
X43400000Y-36900000D03*
X27500000Y-117500000D03*
X36000000Y-48000000D03*
D21*
%TO.N,/ACC_5V_BOOST_EN*%
X59000000Y-27400000D03*
X56600000Y-73300000D03*
X53100000Y-27400000D03*
X56500000Y-41100000D03*
X61900000Y-47100000D03*
X66500000Y-34100000D03*
X58400000Y-43000000D03*
%TO.N,/04_SPI_B_RADIOS_NFC/NFC_VDD_D*%
X29700000Y-34500000D03*
X30100000Y-26200000D03*
%TO.N,/04_SPI_B_RADIOS_NFC/NFC_VDD_A*%
X33900000Y-24400000D03*
X34700000Y-34700000D03*
%TO.N,/04_SPI_B_RADIOS_NFC/NFC_VDD_RF*%
X32000000Y-27500000D03*
X32200000Y-26900000D03*
X37300000Y-32800000D03*
X37500000Y-21800000D03*
%TO.N,/04_SPI_B_RADIOS_NFC/NFC_AGDC*%
X36600000Y-33800000D03*
X36400000Y-33000000D03*
X33300000Y-22900000D03*
X33400000Y-36700000D03*
%TO.N,/08_BUTTONS_EXPANDERS/FRONT_RGB_G_N*%
X54700000Y-99000000D03*
X52950000Y-79000000D03*
%TO.N,/SX1262_RST_N*%
X56100000Y-89800000D03*
X22500000Y-124000000D03*
X46200000Y-100000000D03*
X33700000Y-112500000D03*
X4400000Y-140200000D03*
X36400000Y-127300000D03*
%TO.N,/01_POWER_TREE/REC_LIM_IN*%
X8150000Y-11050000D03*
X4300000Y-23650000D03*
D24*
%TO.N,/01_POWER_TREE/REF_POL*%
X2700000Y-28600000D03*
X6000000Y-23500000D03*
D21*
%TO.N,/01_POWER_TREE/N_BATDIV*%
X4925000Y-27775000D03*
X9650000Y-22175000D03*
D25*
%TO.N,/01_POWER_TREE/BAT_PROTECTED_P*%
X63300000Y-72975000D03*
X63300000Y-73875000D03*
X2800000Y-66150000D03*
X2800000Y-67950000D03*
X2100000Y-67950000D03*
D24*
X2800000Y-66800000D03*
D25*
X64200000Y-72975000D03*
X3500000Y-67950000D03*
X1400000Y-67950000D03*
X64200000Y-73875000D03*
X9200000Y-74650000D03*
D24*
X7200000Y-66500000D03*
D21*
%TO.N,/01_POWER_TREE/ILIM_VSET*%
X68600000Y-80250000D03*
X69250000Y-76450000D03*
%TO.N,/NFC_5V_EN*%
X56100000Y-87800000D03*
X63800000Y-48300000D03*
X59800000Y-82600000D03*
X57300000Y-26700000D03*
X63500000Y-41800000D03*
%TO.N,/BQ25185_STAT1*%
X70400000Y-97400000D03*
X63500000Y-107000000D03*
%TO.N,/BQ25185_STAT2*%
X63200000Y-99800000D03*
X57100000Y-107300000D03*
%TO.N,/ACC_5V_SW_EN*%
X53750000Y-52500000D03*
X55250000Y-77750000D03*
X56500000Y-87000000D03*
X58500000Y-89750000D03*
%TO.N,/ACC_POWER_FAULT_N*%
X53050000Y-56575000D03*
X56150000Y-44700000D03*
X61275000Y-79750000D03*
X61725000Y-77450000D03*
X56550000Y-64250000D03*
X52200000Y-63800000D03*
%TO.N,/08_BUTTONS_EXPANDERS/FRONT_RGB_B_N*%
X52950000Y-78150000D03*
X55350000Y-97750000D03*
D25*
%TO.N,/01_POWER_TREE/BAT_RAW*%
X10700000Y-48250000D03*
X5700000Y-48450000D03*
D23*
X10500000Y-63500000D03*
D25*
X6150000Y-47950000D03*
D23*
X4450000Y-48250000D03*
D25*
X6400000Y-42800000D03*
D23*
X10950000Y-18000000D03*
X6400000Y-70400000D03*
D24*
%TO.N,/01_POWER_TREE/N_POL*%
X2700000Y-27950000D03*
X5300000Y-24550000D03*
%TO.N,/01_POWER_TREE/REF_HO*%
X8950000Y-18350000D03*
X3950000Y-26700000D03*
D21*
%TO.N,/09_COMMUNITY_HEADER/TCA4307_READY*%
X59200000Y-59600000D03*
X55800000Y-72300000D03*
X60800000Y-65700000D03*
X17000000Y-111200000D03*
%TO.N,/01_POWER_TREE/VREF_TOP*%
X8700000Y-25700000D03*
X13900000Y-29450000D03*
D24*
%TO.N,/01_POWER_TREE/LTC_SHDN*%
X5550000Y-68150000D03*
X3500000Y-92500000D03*
D21*
%TO.N,/01_POWER_TREE/MAX17048_ALRT_N*%
X2675000Y-81225000D03*
X5250000Y-81200000D03*
%TO.N,/01_POWER_TREE/REC_BAT_LOW*%
X4850000Y-28600000D03*
X7300000Y-14600000D03*
X1650000Y-17100000D03*
X1650000Y-18350000D03*
D24*
%TO.N,/01_POWER_TREE/VREC_VCC*%
X7150000Y-28550000D03*
X7250000Y-30000000D03*
X11900000Y-28700000D03*
X3850000Y-29950000D03*
D21*
%TO.N,/01_POWER_TREE/V3V3_FB*%
X58825000Y-72750000D03*
X67325000Y-72675000D03*
X66100000Y-99250000D03*
%TO.N,/08_BUTTONS_EXPANDERS/FRONT_RGB_R_N*%
X52850000Y-79850000D03*
X51850000Y-98150000D03*
%TO.N,Net-(U11-TS_MR)*%
X49700000Y-60200000D03*
X66600000Y-70900000D03*
X64700000Y-70500000D03*
%TO.N,/SX1262_RXEN*%
X46100000Y-101100000D03*
X43100000Y-129900000D03*
X41000000Y-126800000D03*
X18500000Y-138200000D03*
X58700000Y-78300000D03*
X38200000Y-135000000D03*
%TO.N,/ACC_PWR_EN*%
X53900000Y-59500000D03*
X51500000Y-54900000D03*
%TD*%
%TO.N,/ACC_3V3_SW*%
D29*
X51150000Y-66725000D02*
X49825000Y-104050000D01*
X54300000Y-22175000D02*
X63975000Y-13150000D01*
X51425000Y-58650000D02*
X49400000Y-58575000D01*
X51150000Y-66725000D02*
X51425000Y-58650000D01*
X59975000Y-60425000D02*
X61325000Y-56050000D01*
X58450000Y-41050000D02*
X56725000Y-38450000D01*
X61325000Y-56050000D02*
X55125000Y-44450000D01*
X57400000Y-60650000D02*
X58125000Y-62375000D01*
X63975000Y-13150000D02*
X65900000Y-15075000D01*
X55125000Y-44450000D02*
X58450000Y-41050000D01*
X55350000Y-56550000D02*
X57400000Y-60650000D01*
X57400000Y-60650000D02*
X59975000Y-60425000D01*
X58125000Y-62375000D02*
X58900000Y-63500000D01*
X49825000Y-104050000D02*
X59650000Y-113875000D01*
X59975000Y-60425000D02*
X61500000Y-62400000D01*
X56975000Y-36750000D02*
X54300000Y-22175000D01*
X56725000Y-38450000D02*
X56975000Y-36750000D01*
%TO.N,/09_COMMUNITY_HEADER/NATIVE_A_HDR*%
D30*
X59300000Y-89600000D02*
X61200000Y-114500000D01*
X56800000Y-131200000D02*
X57700000Y-140200000D01*
X60300000Y-117100000D02*
X58700000Y-119100000D01*
X54600000Y-78800000D02*
X58200000Y-82700000D01*
X58700000Y-119100000D02*
X56800000Y-131200000D01*
X61200000Y-114500000D02*
X60300000Y-117100000D01*
X57700000Y-140200000D02*
X59400000Y-146000000D01*
X53800000Y-72700000D02*
X54600000Y-78800000D01*
X58200000Y-82700000D02*
X59300000Y-89600000D01*
%TO.N,/09_COMMUNITY_HEADER/NATIVE_B_HDR*%
X67500000Y-31900000D02*
X68000000Y-76600000D01*
X68000000Y-76600000D02*
X67700000Y-80000000D01*
X67700000Y-80000000D02*
X62000000Y-87200000D01*
%TO.N,/03_SPI_A_DISPLAY_SD/LED_BOOST*%
D31*
X22800000Y-93500000D02*
X26000000Y-90500000D01*
X14300000Y-105000000D02*
X24000000Y-94900000D01*
X26000000Y-90500000D02*
X27600000Y-92100000D01*
X24000000Y-94900000D02*
X22800000Y-93500000D01*
%TO.N,/I2C_SDA_INT*%
D30*
X51000000Y-104000000D02*
X59200000Y-95300000D01*
X45200000Y-144700000D02*
X51100000Y-143500000D01*
X62400000Y-54400000D02*
X64800000Y-61500000D01*
X57000000Y-86100000D02*
X57600000Y-83700000D01*
X46500000Y-106200000D02*
X51500000Y-110900000D01*
X64800000Y-61500000D02*
X65600000Y-62100000D01*
X36500000Y-136400000D02*
X39100000Y-138900000D01*
X57600000Y-89500000D02*
X57300000Y-88000000D01*
X30700000Y-102000000D02*
X37200000Y-108000000D01*
X57300000Y-88000000D02*
X57300000Y-87300000D01*
X29000000Y-138000000D02*
X36500000Y-136400000D01*
X65600000Y-62100000D02*
X66500000Y-62100000D01*
X42200000Y-120500000D02*
X40300000Y-116100000D01*
X59200000Y-95300000D02*
X57600000Y-89500000D01*
X53100000Y-144400000D02*
X54200000Y-146300000D01*
X28300000Y-98800000D02*
X30700000Y-102000000D01*
X51500000Y-110900000D02*
X51700000Y-110700000D01*
X39100000Y-138900000D02*
X39200000Y-138800000D01*
X51100000Y-143500000D02*
X53100000Y-144400000D01*
X69800000Y-81700000D02*
X65700000Y-85600000D01*
X68500000Y-77100000D02*
X69800000Y-81700000D01*
X65700000Y-85600000D02*
X65300000Y-85200000D01*
X54200000Y-146300000D02*
X54000000Y-146600000D01*
X47700000Y-108700000D02*
X52200000Y-110300000D01*
X57300000Y-87300000D02*
X57000000Y-86100000D01*
X52700000Y-109600000D02*
X49300000Y-105700000D01*
X40300000Y-116100000D02*
X42000000Y-114400000D01*
X63700000Y-52900000D02*
X62400000Y-54400000D01*
X69200000Y-65400000D02*
X68500000Y-77100000D01*
%TO.N,/WAKE_INT_N*%
X55500000Y-140300000D02*
X48600000Y-133300000D01*
X53700000Y-129100000D02*
X49200000Y-132400000D01*
%TO.N,Net-(U1-EN)*%
X45950000Y-135350000D02*
X54275000Y-142575000D01*
X54275000Y-142575000D02*
X56600000Y-140250000D01*
X52400000Y-117350000D02*
X45100000Y-133250000D01*
X45100000Y-133250000D02*
X45950000Y-135350000D01*
%TO.N,/SPI_B_SCK*%
X51600000Y-145000000D02*
X47500000Y-147300000D01*
X47500000Y-147300000D02*
X15200000Y-147200000D01*
X15200000Y-147200000D02*
X14400000Y-146400000D01*
%TO.N,/SPI_B_MOSI*%
X23500000Y-113700000D02*
X16800000Y-106300000D01*
X52200000Y-125600000D02*
X47100000Y-132900000D01*
X19900000Y-135500000D02*
X16100000Y-131900000D01*
X22100000Y-127700000D02*
X24200000Y-120900000D01*
X21800000Y-134500000D02*
X19900000Y-135500000D01*
X6800000Y-139800000D02*
X6400000Y-139600000D01*
X36100000Y-137300000D02*
X30800000Y-138700000D01*
X16100000Y-131900000D02*
X6800000Y-139800000D01*
X16800000Y-106300000D02*
X19400000Y-103700000D01*
X24200000Y-120900000D02*
X23500000Y-113700000D01*
%TO.N,/SPI_B_MISO*%
X9400000Y-143900000D02*
X8600000Y-143100000D01*
X58100000Y-114700000D02*
X46700000Y-101600000D01*
X49300000Y-96400000D02*
X43200000Y-44300000D01*
X21500000Y-140700000D02*
X9400000Y-143900000D01*
X56500000Y-117600000D02*
X58100000Y-114700000D01*
X46700000Y-101600000D02*
X49300000Y-96400000D01*
%TO.N,/CC1101_CS_N*%
X55400000Y-118050000D02*
X54150000Y-111600000D01*
%TO.N,/SX1262_BUSY*%
X49050000Y-120450000D02*
X44950000Y-132550000D01*
X44950000Y-132550000D02*
X43550000Y-133800000D01*
X43550000Y-133800000D02*
X40300000Y-131250000D01*
X40300000Y-131250000D02*
X4350000Y-141450000D01*
%TO.N,/NFC_CS_N*%
X45100000Y-110700000D02*
X49300000Y-114700000D01*
X49300000Y-114700000D02*
X51300000Y-116900000D01*
X51300000Y-116900000D02*
X49100000Y-119400000D01*
X43200000Y-104000000D02*
X43200000Y-50400000D01*
X49100000Y-119400000D02*
X50200000Y-120700000D01*
X50200000Y-120700000D02*
X49300000Y-121900000D01*
%TO.N,/DISP_CS_N*%
X42850000Y-123200000D02*
X26400000Y-97050000D01*
%TO.N,/SPI_A_MOSI*%
X33200000Y-121500000D02*
X37200000Y-125500000D01*
%TO.N,/SPI_A_SCK*%
X17500000Y-130350000D02*
X16600000Y-131250000D01*
X43200000Y-127450000D02*
X25600000Y-96950000D01*
X43150000Y-126900000D02*
X39700000Y-130350000D01*
X39700000Y-130350000D02*
X17500000Y-130350000D01*
X26450000Y-96100000D02*
X27400000Y-97050000D01*
X25600000Y-96950000D02*
X26450000Y-96100000D01*
%TO.N,/SPI_A_MISO*%
X19250000Y-130800000D02*
X18800000Y-131250000D01*
X41150000Y-130800000D02*
X19250000Y-130800000D01*
X43300000Y-128650000D02*
X41150000Y-130800000D01*
%TO.N,/DISP_DC*%
X42400000Y-110450000D02*
X26900000Y-94950000D01*
X44050000Y-129900000D02*
X42400000Y-110450000D01*
%TO.N,/NATIVE_B*%
X43850000Y-116400000D02*
X43850000Y-114800000D01*
X44050000Y-132450000D02*
X44700000Y-131800000D01*
X44700000Y-117250000D02*
X43850000Y-116400000D01*
X44700000Y-131800000D02*
X44700000Y-117250000D01*
%TO.N,/02_MCU_CORE/GPIO45_VDDSPI_STRAP*%
X46500000Y-135000000D02*
X60175000Y-115800000D01*
X60175000Y-115800000D02*
X60550000Y-113575000D01*
X59625000Y-112675000D02*
X59600000Y-112700000D01*
X60550000Y-113575000D02*
X59625000Y-112675000D01*
%TO.N,/02_MCU_CORE/BOOT_N*%
X45650000Y-136700000D02*
X42600000Y-139750000D01*
X42600000Y-139750000D02*
X25550000Y-139750000D01*
X31050000Y-139750000D02*
X25550000Y-139750000D01*
%TO.N,/I2S_BCLK*%
X27100000Y-109600000D02*
X31000000Y-113500000D01*
%TO.N,/I2S_LRCLK*%
X37400000Y-144700000D02*
X45500000Y-142000000D01*
X32900000Y-140400000D02*
X37400000Y-144700000D01*
X20800000Y-124400000D02*
X20600000Y-124600000D01*
X7100000Y-110100000D02*
X20800000Y-124400000D01*
X31800000Y-141000000D02*
X32900000Y-140400000D01*
X45500000Y-142000000D02*
X45600000Y-142100000D01*
%TO.N,/I2S_SPK_DOUT*%
X30900000Y-115300000D02*
X29500000Y-113900000D01*
X39300000Y-123300000D02*
X30900000Y-115300000D01*
%TO.N,/I2S_MIC_DIN*%
X15800000Y-104900000D02*
X28100000Y-92700000D01*
X52700000Y-116500000D02*
X55800000Y-119500000D01*
X28100000Y-92700000D02*
X52100000Y-116700000D01*
X55800000Y-119500000D02*
X57400000Y-117900000D01*
X52100000Y-116700000D02*
X52700000Y-116500000D01*
%TO.N,/IR_RX_GPIO44*%
X57950000Y-135550000D02*
X63250000Y-109300000D01*
X64150000Y-108350000D02*
X64450000Y-101900000D01*
X67050000Y-8800000D02*
X64200000Y-5950000D01*
X71350000Y-94850000D02*
X67050000Y-8800000D01*
X64450000Y-101900000D02*
X71350000Y-94850000D01*
%TO.N,/I2C_SCL_INT*%
X61300000Y-65100000D02*
X62400000Y-66800000D01*
X59600000Y-64500000D02*
X61300000Y-65100000D01*
X46200000Y-113600000D02*
X46100000Y-120500000D01*
X58900000Y-70700000D02*
X57300000Y-71700000D01*
X57300000Y-71700000D02*
X56700000Y-72000000D01*
X51700000Y-135400000D02*
X56100000Y-131200000D01*
X32900000Y-99900000D02*
X46200000Y-113600000D01*
X59000000Y-70300000D02*
X58900000Y-70700000D01*
X62400000Y-66800000D02*
X59000000Y-70300000D01*
X46200000Y-63200000D02*
X49100000Y-54500000D01*
X46100000Y-120500000D02*
X47700000Y-122100000D01*
%TO.N,/07_IR/IR_GATE*%
X42500000Y-12500000D02*
X42500000Y-106000000D01*
X46000000Y-109800000D02*
X51300000Y-111672363D01*
X42500000Y-106000000D02*
X46000000Y-109800000D01*
%TO.N,/08_BUTTONS_EXPANDERS/BTN_LEFT_N*%
X11600000Y-119000000D02*
X11200000Y-125300000D01*
%TO.N,Net-(SW9-A)*%
X65500000Y-91950000D02*
X62700000Y-87750000D01*
%TO.N,/01_POWER_TREE/BQ25185_SYS*%
D32*
X14000000Y-106600000D02*
X5600000Y-93000000D01*
X41600000Y-56600000D02*
X41600000Y-47500000D01*
X5600000Y-93000000D02*
X41600000Y-56600000D01*
%TO.N,/09_COMMUNITY_HEADER/EXT_SDA_BUF*%
D30*
X64700000Y-52700000D02*
X63800000Y-53900000D01*
X58700000Y-34000000D02*
X60300000Y-40800000D01*
X60300000Y-40800000D02*
X64700000Y-52700000D01*
%TO.N,/01_POWER_TREE/USB_VBUS_CHG*%
D33*
X7900000Y-17275000D02*
X5100000Y-20125000D01*
X13050000Y-30900000D02*
X13725000Y-83300000D01*
X7900000Y-17250000D02*
X8050000Y-17100000D01*
X3500000Y-93525000D02*
X1625000Y-91575000D01*
X11350000Y-17100000D02*
X13900000Y-19650000D01*
X8250000Y-13400000D02*
X6950000Y-12100000D01*
X1950000Y-91250000D02*
X3500000Y-141850000D01*
X13075000Y-28825000D02*
X13900000Y-28000000D01*
X1625000Y-91575000D02*
X1950000Y-91250000D01*
X5100000Y-20125000D02*
X5025000Y-20375000D01*
X13050000Y-30900000D02*
X13075000Y-28825000D01*
X66800000Y-79425000D02*
X65250000Y-79200000D01*
X3500000Y-141850000D02*
X4900000Y-143100000D01*
X13725000Y-83300000D02*
X3500000Y-93525000D01*
X5025000Y-20375000D02*
X2600000Y-22600000D01*
X13050000Y-30900000D02*
X16550000Y-30900000D01*
X4900000Y-143100000D02*
X36800000Y-135100000D01*
X13900000Y-19650000D02*
X13900000Y-28000000D01*
X6950000Y-12100000D02*
X6950000Y-7600000D01*
X7900000Y-17275000D02*
X8250000Y-13400000D01*
X8050000Y-17100000D02*
X11350000Y-17100000D01*
%TO.N,/08_BUTTONS_EXPANDERS/BTN_A_N*%
D30*
X33700000Y-97200000D02*
X34200000Y-97700000D01*
X39100000Y-91700000D02*
X33700000Y-97200000D01*
X48700000Y-84500000D02*
X49300000Y-88800000D01*
%TO.N,/XGPIO5*%
X53550000Y-30850000D02*
X55250000Y-76350000D01*
%TO.N,/XGPIO4*%
X64600000Y-67650000D02*
X56400000Y-76950000D01*
X56400000Y-76950000D02*
X56600000Y-77700000D01*
X55150000Y-22450000D02*
X64600000Y-67650000D01*
%TO.N,/01_POWER_TREE/Q3_CS*%
D34*
X4600000Y-57800000D02*
X5700000Y-57800000D01*
X3150000Y-59250000D02*
X4600000Y-57800000D01*
%TO.N,/01_POWER_TREE/BAT_SENSE*%
D30*
X4600000Y-66000000D02*
X4250000Y-63500000D01*
%TO.N,/01_POWER_TREE/ACC_5V_FB*%
X58400000Y-44100000D02*
X56800000Y-45300000D01*
%TO.N,/NFC_SUPPLY*%
D35*
X20600000Y-101300000D02*
X21400000Y-100500000D01*
X24600000Y-106000000D02*
X20600000Y-101300000D01*
X24500000Y-112400000D02*
X24600000Y-106000000D01*
X27500000Y-117500000D02*
X24500000Y-112400000D01*
%TO.N,/ACC_5V_BOOST_EN*%
D30*
X65400000Y-34100000D02*
X65100000Y-33900000D01*
X66500000Y-34100000D02*
X65400000Y-34100000D01*
X59000000Y-27700000D02*
X59000000Y-27400000D01*
X63100000Y-31800000D02*
X59000000Y-27700000D01*
X65100000Y-33900000D02*
X63100000Y-31800000D01*
%TO.N,/04_SPI_B_RADIOS_NFC/NFC_VDD_A*%
X33900000Y-24400000D02*
X34700000Y-34700000D01*
%TO.N,/04_SPI_B_RADIOS_NFC/NFC_AGDC*%
X35600000Y-34900000D02*
X36600000Y-33800000D01*
X33400000Y-36700000D02*
X35600000Y-34900000D01*
%TO.N,/08_BUTTONS_EXPANDERS/FRONT_RGB_G_N*%
X52950000Y-79000000D02*
X54700000Y-80750000D01*
X54700000Y-80750000D02*
X54700000Y-99000000D01*
%TO.N,/SX1262_RST_N*%
X13500000Y-131100000D02*
X4400000Y-140200000D01*
X34200000Y-113500000D02*
X33700000Y-112500000D01*
X34500000Y-113800000D02*
X34200000Y-113500000D01*
X40200000Y-123400000D02*
X40000000Y-123000000D01*
X36400000Y-127300000D02*
X40200000Y-123400000D01*
X22500000Y-124000000D02*
X13500000Y-131100000D01*
X40000000Y-123000000D02*
X34500000Y-113800000D01*
%TO.N,/01_POWER_TREE/REC_LIM_IN*%
X2450000Y-23650000D02*
X1800000Y-23000000D01*
X4300000Y-23650000D02*
X2450000Y-23650000D01*
X7350000Y-6800000D02*
X8150000Y-7600000D01*
X1800000Y-22150000D02*
X3650000Y-20300000D01*
X8150000Y-7600000D02*
X8150000Y-11050000D01*
X1800000Y-23000000D02*
X1800000Y-22150000D01*
X3650000Y-9700000D02*
X6550000Y-6800000D01*
X3650000Y-20300000D02*
X3650000Y-9700000D01*
X6550000Y-6800000D02*
X7350000Y-6800000D01*
%TO.N,/NFC_5V_EN*%
X64800000Y-51300000D02*
X65600000Y-52000000D01*
X62000000Y-79800000D02*
X61900000Y-80500000D01*
X63500000Y-36900000D02*
X63500000Y-41800000D01*
X65000000Y-34500000D02*
X63500000Y-36900000D01*
X67200000Y-52800000D02*
X67300000Y-71600000D01*
X66500000Y-52000000D02*
X67200000Y-52800000D01*
X61900000Y-80500000D02*
X59800000Y-82600000D01*
X65100000Y-74200000D02*
X62000000Y-79800000D01*
X63800000Y-48300000D02*
X64800000Y-51300000D01*
X65600000Y-52000000D02*
X66500000Y-52000000D01*
X57300000Y-26700000D02*
X65000000Y-34500000D01*
X67300000Y-71600000D02*
X65100000Y-74200000D01*
%TO.N,/ACC_POWER_FAULT_N*%
X61725000Y-77450000D02*
X61275000Y-79750000D01*
%TO.N,/08_BUTTONS_EXPANDERS/FRONT_RGB_B_N*%
X55350000Y-80400000D02*
X55350000Y-97750000D01*
X52950000Y-78150000D02*
X53100000Y-78150000D01*
X53100000Y-78150000D02*
X55350000Y-80400000D01*
%TO.N,/01_POWER_TREE/BAT_RAW*%
D35*
X6650000Y-50450000D02*
X4450000Y-48250000D01*
X10950000Y-18000000D02*
X10500000Y-63500000D01*
X6400000Y-70400000D02*
X6400000Y-65400000D01*
X6400000Y-65400000D02*
X6650000Y-65150000D01*
X6650000Y-65150000D02*
X6650000Y-50450000D01*
%TO.N,/01_POWER_TREE/N_POL*%
D34*
X5300000Y-24550000D02*
X2700000Y-27150000D01*
X2700000Y-27150000D02*
X2700000Y-27950000D01*
%TO.N,/01_POWER_TREE/REF_HO*%
X8950000Y-21750000D02*
X4000000Y-26700000D01*
X4000000Y-26700000D02*
X3950000Y-26700000D01*
X8950000Y-18350000D02*
X8950000Y-21750000D01*
%TO.N,/09_COMMUNITY_HEADER/TCA4307_READY*%
D30*
X60800000Y-65700000D02*
X55600000Y-71100000D01*
X55600000Y-71100000D02*
X55800000Y-72300000D01*
%TO.N,/01_POWER_TREE/LTC_SHDN*%
D34*
X5550000Y-68150000D02*
X3500000Y-70200000D01*
X3500000Y-70200000D02*
X3500000Y-92500000D01*
%TO.N,/01_POWER_TREE/VREC_VCC*%
X7200000Y-29950000D02*
X7250000Y-30000000D01*
X3850000Y-29950000D02*
X7200000Y-29950000D01*
%TO.N,/01_POWER_TREE/V3V3_FB*%
D30*
X56000000Y-75575000D02*
X58825000Y-72750000D01*
X66100000Y-99250000D02*
X59975000Y-84300000D01*
X55975000Y-77925000D02*
X56000000Y-75575000D01*
X59975000Y-84300000D02*
X55975000Y-77925000D01*
%TO.N,/08_BUTTONS_EXPANDERS/FRONT_RGB_R_N*%
X52100000Y-85750000D02*
X52200000Y-85850000D01*
X52100000Y-80600000D02*
X52100000Y-85750000D01*
X52200000Y-85850000D02*
X52200000Y-97800000D01*
X52850000Y-79850000D02*
X52100000Y-80600000D01*
X52200000Y-97800000D02*
X51850000Y-98150000D01*
%TO.N,Net-(U11-TS_MR)*%
X64700000Y-70500000D02*
X66600000Y-70900000D01*
%TO.N,/SX1262_RXEN*%
X38200000Y-135000000D02*
X35800000Y-133200000D01*
X35800000Y-133200000D02*
X18500000Y-138200000D01*
%TO.N,/ACC_PWR_EN*%
X53900000Y-59500000D02*
X51300000Y-55100000D01*
X51300000Y-55100000D02*
X51500000Y-54900000D01*
%TD*%
M02*
