%TF.GenerationSoftware,KiCad,Pcbnew,10.0.5-10.0.5~ubuntu24.04.1*%
%TF.CreationDate,2026-09-05T01:52:42+00:00*%
%TF.ProjectId,aqroot-Beta-v2,6171726f-6f74-42d4-9265-74612d76322e,rev?*%
%TF.SameCoordinates,Original*%
%TF.FileFunction,Paste,Bot*%
%TF.FilePolarity,Positive*%
%FSLAX46Y46*%
G04 Gerber Fmt 4.6, Leading zero omitted, Abs format (unit mm)*
G04 Created by KiCad (PCBNEW 10.0.5-10.0.5~ubuntu24.04.1) date 2026-09-05 01:52:42*
%MOMM*%
%LPD*%
G01*
G04 APERTURE LIST*
G04 Aperture macros list*
%AMRoundRect*
0 Rectangle with rounded corners*
0 $1 Rounding radius*
0 $2 $3 $4 $5 $6 $7 $8 $9 X,Y pos of 4 corners*
0 Add a 4 corners polygon primitive as box body*
4,1,4,$2,$3,$4,$5,$6,$7,$8,$9,$2,$3,0*
0 Add four circle primitives for the rounded corners*
1,1,$1+$1,$2,$3*
1,1,$1+$1,$4,$5*
1,1,$1+$1,$6,$7*
1,1,$1+$1,$8,$9*
0 Add four rect primitives between the rounded corners*
20,1,$1+$1,$2,$3,$4,$5,0*
20,1,$1+$1,$4,$5,$6,$7,0*
20,1,$1+$1,$6,$7,$8,$9,0*
20,1,$1+$1,$8,$9,$2,$3,0*%
%AMFreePoly0*
4,1,229,0.185710,1.528830,0.227650,1.517970,0.268960,1.504930,0.309520,1.489740,0.349240,1.472430,0.387990,1.453070,0.425670,1.431700,0.462180,1.408390,0.497410,1.383180,0.531280,1.356170,0.563670,1.327410,0.594520,1.296990,0.623720,1.265000,0.651210,1.231510,0.676890,1.196630,0.700720,1.160450,0.722610,1.123070,0.742510,1.084590,0.760360,1.045120,0.776110,1.004770,
0.789730,0.963650,0.801170,0.921860,0.810400,0.879540,0.817390,0.836790,0.822130,0.793730,0.824610,0.750480,0.824810,0.707160,0.822730,0.663890,0.818390,0.620790,0.811790,0.577980,0.802960,0.535570,0.791910,0.493680,0.778670,0.452430,0.763290,0.411940,0.745810,0.372300,0.726270,0.333640,0.704720,0.296060,0.681240,0.259660,0.655870,0.224540,0.628700,0.190810,
0.599790,0.158540,0.569230,0.127840,0.537100,0.098780,0.503490,0.071450,0.468490,0.045930,0.432200,0.022270,0.394720,0.000550,0.356150,-0.019170,0.316600,-0.036830,0.276170,-0.052400,0.234980,-0.065830,0.193150,-0.077070,0.150780,-0.086100,0.108000,-0.092900,0.064920,-0.097440,0.021660,-0.099720,-0.021660,-0.099720,-0.064920,-0.097440,-0.108000,-0.092900,-0.150780,-0.086100,
-0.193150,-0.077070,-0.234980,-0.065830,-0.276170,-0.052400,-0.316600,-0.036830,-0.356150,-0.019170,-0.394720,0.000550,-0.432200,0.022270,-0.468490,0.045930,-0.503490,0.071450,-0.537100,0.098780,-0.569230,0.127840,-0.599790,0.158540,-0.628700,0.190810,-0.655870,0.224540,-0.681240,0.259660,-0.704720,0.296060,-0.726270,0.333640,-0.745810,0.372300,-0.763290,0.411940,-0.778670,0.452430,
-0.791910,0.493680,-0.802960,0.535570,-0.811790,0.577980,-0.818390,0.620790,-0.822730,0.663890,-0.824810,0.707160,-0.824610,0.750480,-0.822130,0.793730,-0.817390,0.836790,-0.810400,0.879540,-0.801170,0.921860,-0.789730,0.963650,-0.776110,1.004770,-0.760360,1.045120,-0.742510,1.084590,-0.722610,1.123070,-0.700720,1.160450,-0.676890,1.196630,-0.651210,1.231510,-0.623720,1.265000,
-0.594520,1.296990,-0.563670,1.327410,-0.531280,1.356170,-0.497410,1.383180,-0.462180,1.408390,-0.425670,1.431700,-0.387990,1.453070,-0.349240,1.472430,-0.309520,1.489740,-0.268960,1.504930,-0.227650,1.517970,-0.185710,1.528830,-0.143260,1.537470,-0.108530,1.340500,-0.140690,1.333960,-0.172460,1.325740,-0.203750,1.315850,-0.234490,1.304350,-0.264570,1.291240,-0.293930,1.276570,
-0.322480,1.260380,-0.350140,1.242720,-0.376830,1.223620,-0.402480,1.203160,-0.427020,1.181370,-0.450390,1.158330,-0.472520,1.134090,-0.493340,1.108720,-0.512800,1.082300,-0.530850,1.054890,-0.547430,1.026570,-0.562510,0.997420,-0.576030,0.967520,-0.587970,0.936950,-0.598280,0.905790,-0.606950,0.874140,-0.613940,0.842080,-0.619240,0.809690,-0.622830,0.777070,-0.624700,0.744300,
-0.624850,0.711490,-0.623280,0.678710,-0.619990,0.646050,-0.615000,0.613620,-0.608300,0.581490,-0.599930,0.549760,-0.589900,0.518510,-0.578250,0.487830,-0.565010,0.457810,-0.550200,0.428520,-0.533880,0.400040,-0.516090,0.372470,-0.496870,0.345870,-0.476290,0.320310,-0.454390,0.295860,-0.431240,0.272610,-0.406900,0.250590,-0.381430,0.229890,-0.354920,0.210550,-0.327430,0.192630,
-0.299030,0.176180,-0.269810,0.161240,-0.239850,0.147850,-0.209220,0.136060,-0.178020,0.125890,-0.146330,0.117370,-0.114230,0.110530,-0.081820,0.105380,-0.049180,0.101940,-0.016410,0.100220,0.016410,0.100220,0.049180,0.101940,0.081820,0.105380,0.114230,0.110530,0.146330,0.117370,0.178020,0.125890,0.209220,0.136060,0.239850,0.147850,0.269810,0.161240,0.299030,0.176180,
0.327430,0.192630,0.354920,0.210550,0.381430,0.229890,0.406900,0.250590,0.431240,0.272610,0.454390,0.295860,0.476290,0.320310,0.496870,0.345870,0.516090,0.372470,0.533880,0.400040,0.550200,0.428520,0.565010,0.457810,0.578250,0.487830,0.589900,0.518510,0.599930,0.549760,0.608300,0.581490,0.615000,0.613620,0.619990,0.646050,0.623280,0.678710,0.624850,0.711490,
0.624700,0.744300,0.622830,0.777070,0.619240,0.809690,0.613940,0.842080,0.606950,0.874140,0.598280,0.905790,0.587970,0.936950,0.576030,0.967520,0.562510,0.997420,0.547430,1.026570,0.530850,1.054890,0.512800,1.082300,0.493340,1.108720,0.472520,1.134090,0.450390,1.158330,0.427020,1.181370,0.402480,1.203160,0.376830,1.223620,0.350140,1.242720,0.322480,1.260380,
0.293930,1.276570,0.264570,1.291240,0.234490,1.304350,0.203750,1.315850,0.172460,1.325740,0.140690,1.333960,0.108530,1.340500,0.143260,1.537470,0.185710,1.528830,0.185710,1.528830,$1*%
G04 Aperture macros list end*
%ADD10RoundRect,0.200000X-0.200000X-0.275000X0.200000X-0.275000X0.200000X0.275000X-0.200000X0.275000X0*%
%ADD11RoundRect,0.140000X-0.140000X-0.170000X0.140000X-0.170000X0.140000X0.170000X-0.140000X0.170000X0*%
%ADD12RoundRect,0.150000X0.150000X-0.825000X0.150000X0.825000X-0.150000X0.825000X-0.150000X-0.825000X0*%
%ADD13RoundRect,0.250000X-0.250000X-0.475000X0.250000X-0.475000X0.250000X0.475000X-0.250000X0.475000X0*%
%ADD14FreePoly0,0.000000*%
%ADD15R,0.600000X0.400000*%
%ADD16R,1.400000X1.400000*%
%ADD17RoundRect,0.075000X-0.300000X-0.075000X0.300000X-0.075000X0.300000X0.075000X-0.300000X0.075000X0*%
%ADD18RoundRect,0.075000X-0.075000X-0.300000X0.075000X-0.300000X0.075000X0.300000X-0.075000X0.300000X0*%
%ADD19RoundRect,0.218750X-0.218750X-0.256250X0.218750X-0.256250X0.218750X0.256250X-0.218750X0.256250X0*%
%ADD20RoundRect,0.225000X-0.225000X-0.250000X0.225000X-0.250000X0.225000X0.250000X-0.225000X0.250000X0*%
%ADD21R,0.980000X3.700000*%
%ADD22RoundRect,0.150000X-0.587500X-0.150000X0.587500X-0.150000X0.587500X0.150000X-0.587500X0.150000X0*%
%ADD23RoundRect,0.225000X-0.250000X0.225000X-0.250000X-0.225000X0.250000X-0.225000X0.250000X0.225000X0*%
%ADD24R,0.980000X3.400000*%
%ADD25RoundRect,0.200000X0.275000X-0.200000X0.275000X0.200000X-0.275000X0.200000X-0.275000X-0.200000X0*%
%ADD26RoundRect,0.250000X-0.325000X-0.650000X0.325000X-0.650000X0.325000X0.650000X-0.325000X0.650000X0*%
%ADD27RoundRect,0.100000X-0.637500X-0.100000X0.637500X-0.100000X0.637500X0.100000X-0.637500X0.100000X0*%
%ADD28RoundRect,0.150000X-0.512500X-0.150000X0.512500X-0.150000X0.512500X0.150000X-0.512500X0.150000X0*%
%ADD29RoundRect,0.250000X-0.375000X-0.625000X0.375000X-0.625000X0.375000X0.625000X-0.375000X0.625000X0*%
%ADD30RoundRect,0.112500X-0.187500X-0.112500X0.187500X-0.112500X0.187500X0.112500X-0.187500X0.112500X0*%
%ADD31R,1.800000X0.900000*%
%ADD32RoundRect,0.250000X-1.425000X0.362500X-1.425000X-0.362500X1.425000X-0.362500X1.425000X0.362500X0*%
%ADD33RoundRect,0.125000X-0.537500X-0.125000X0.537500X-0.125000X0.537500X0.125000X-0.537500X0.125000X0*%
%ADD34RoundRect,0.200000X0.200000X0.275000X-0.200000X0.275000X-0.200000X-0.275000X0.200000X-0.275000X0*%
%ADD35O,0.240000X0.600000*%
%ADD36R,2.565000X1.422000*%
%ADD37R,0.340000X0.620000*%
%ADD38RoundRect,0.075000X-0.275000X-0.075000X0.275000X-0.075000X0.275000X0.075000X-0.275000X0.075000X0*%
%ADD39RoundRect,0.225000X0.250000X-0.225000X0.250000X0.225000X-0.250000X0.225000X-0.250000X-0.225000X0*%
%ADD40RoundRect,0.210000X-0.210000X-0.495000X0.210000X-0.495000X0.210000X0.495000X-0.210000X0.495000X0*%
%ADD41RoundRect,0.050000X-0.325000X-0.050000X0.325000X-0.050000X0.325000X0.050000X-0.325000X0.050000X0*%
%ADD42RoundRect,0.150000X0.512500X0.150000X-0.512500X0.150000X-0.512500X-0.150000X0.512500X-0.150000X0*%
%ADD43RoundRect,0.225000X-0.225000X-0.375000X0.225000X-0.375000X0.225000X0.375000X-0.225000X0.375000X0*%
%ADD44RoundRect,0.250000X-0.312500X-0.625000X0.312500X-0.625000X0.312500X0.625000X-0.312500X0.625000X0*%
%ADD45RoundRect,0.087500X-0.250000X-0.087500X0.250000X-0.087500X0.250000X0.087500X-0.250000X0.087500X0*%
%ADD46RoundRect,0.150000X-0.150000X-0.275000X0.150000X-0.275000X0.150000X0.275000X-0.150000X0.275000X0*%
%ADD47RoundRect,0.175000X-0.175000X-0.225000X0.175000X-0.225000X0.175000X0.225000X-0.175000X0.225000X0*%
%ADD48RoundRect,0.125000X-0.687500X-0.125000X0.687500X-0.125000X0.687500X0.125000X-0.687500X0.125000X0*%
%ADD49R,0.250000X0.475000*%
%ADD50R,0.475000X0.250000*%
%ADD51RoundRect,0.087500X0.662500X0.087500X-0.662500X0.087500X-0.662500X-0.087500X0.662500X-0.087500X0*%
%ADD52RoundRect,0.250000X0.450000X0.350000X-0.450000X0.350000X-0.450000X-0.350000X0.450000X-0.350000X0*%
%ADD53RoundRect,0.087500X-0.425000X-0.087500X0.425000X-0.087500X0.425000X0.087500X-0.425000X0.087500X0*%
G04 APERTURE END LIST*
D10*
%TO.C,R78*%
X11675000Y-60500000D03*
X13325000Y-60500000D03*
%TD*%
D11*
%TO.C,C18*%
X22793385Y-29341214D03*
X23753385Y-29341214D03*
%TD*%
D12*
%TO.C,Q3*%
X5705000Y-59275000D03*
X4435000Y-59275000D03*
X3165000Y-59275000D03*
X1895000Y-59275000D03*
X1895000Y-54325000D03*
X3165000Y-54325000D03*
X4435000Y-54325000D03*
X5705000Y-54325000D03*
%TD*%
D13*
%TO.C,C35*%
X53550000Y-14750000D03*
X55450000Y-14750000D03*
%TD*%
D14*
%TO.C,MK1*%
X4000000Y-97725000D03*
D15*
X2925000Y-99580000D03*
X2925000Y-98930000D03*
X2925000Y-98280000D03*
X5075000Y-98280000D03*
X5075000Y-98930000D03*
X5075000Y-99580000D03*
%TD*%
D10*
%TO.C,R99*%
X62175000Y-33500000D03*
X63825000Y-33500000D03*
%TD*%
%TO.C,R107*%
X25890000Y-120335000D03*
X27540000Y-120335000D03*
%TD*%
%TO.C,R102*%
X60750000Y-57735000D03*
X62400000Y-57735000D03*
%TD*%
D16*
%TO.C,U9*%
X33100000Y-29100000D03*
X33100000Y-30900000D03*
X34900000Y-29100000D03*
X34900000Y-30900000D03*
D17*
X31725000Y-31750000D03*
X31725000Y-31250000D03*
X31725000Y-30750000D03*
X31725000Y-30250000D03*
X31725000Y-29750000D03*
X31725000Y-29250000D03*
X31725000Y-28750000D03*
X31725000Y-28250000D03*
D18*
X32250000Y-27725000D03*
X32750000Y-27725000D03*
X33250000Y-27725000D03*
X33750000Y-27725000D03*
X34250000Y-27725000D03*
X34750000Y-27725000D03*
X35250000Y-27725000D03*
X35750000Y-27725000D03*
D17*
X36275000Y-28250000D03*
X36275000Y-28750000D03*
X36275000Y-29250000D03*
X36275000Y-29750000D03*
X36275000Y-30250000D03*
X36275000Y-30750000D03*
X36275000Y-31250000D03*
X36275000Y-31750000D03*
D18*
X35750000Y-32275000D03*
X35250000Y-32275000D03*
X34750000Y-32275000D03*
X34250000Y-32275000D03*
X33750000Y-32275000D03*
X33250000Y-32275000D03*
X32750000Y-32275000D03*
X32250000Y-32275000D03*
%TD*%
D19*
%TO.C,L5*%
X38512500Y-27800000D03*
X40087500Y-27800000D03*
%TD*%
D20*
%TO.C,C57*%
X7725000Y-56500000D03*
X9275000Y-56500000D03*
%TD*%
%TO.C,C6*%
X57266915Y-67186743D03*
X58816915Y-67186743D03*
%TD*%
D10*
%TO.C,R125*%
X50297820Y-99207791D03*
X51947820Y-99207791D03*
%TD*%
D13*
%TO.C,C34*%
X60550000Y-23500000D03*
X62450000Y-23500000D03*
%TD*%
D10*
%TO.C,R13*%
X36175000Y-132750000D03*
X37825000Y-132750000D03*
%TD*%
D21*
%TO.C,L2*%
X57715000Y-18400000D03*
X60085000Y-18400000D03*
%TD*%
D22*
%TO.C,Q5*%
X1637500Y-25415000D03*
X1637500Y-23515000D03*
X3512500Y-24465000D03*
%TD*%
D13*
%TO.C,C65*%
X60085000Y-40475000D03*
X61985000Y-40475000D03*
%TD*%
D10*
%TO.C,R88*%
X8000000Y-23175000D03*
X9650000Y-23175000D03*
%TD*%
D20*
%TO.C,C61*%
X11225000Y-22000000D03*
X12775000Y-22000000D03*
%TD*%
D23*
%TO.C,C36*%
X63750000Y-74325000D03*
X63750000Y-75875000D03*
%TD*%
D20*
%TO.C,C77*%
X48725000Y-32200000D03*
X50275000Y-32200000D03*
%TD*%
D24*
%TO.C,L3*%
X1815000Y-118900000D03*
X4185000Y-118900000D03*
%TD*%
D10*
%TO.C,R37*%
X62925000Y-77500000D03*
X64575000Y-77500000D03*
%TD*%
%TO.C,R94*%
X8000000Y-12075000D03*
X9650000Y-12075000D03*
%TD*%
D20*
%TO.C,C50*%
X38025000Y-38900000D03*
X39575000Y-38900000D03*
%TD*%
D10*
%TO.C,R119*%
X52252132Y-68499630D03*
X53902132Y-68499630D03*
%TD*%
%TO.C,R90*%
X8000000Y-19475000D03*
X9650000Y-19475000D03*
%TD*%
%TO.C,R115*%
X45275000Y-32200000D03*
X46925000Y-32200000D03*
%TD*%
D20*
%TO.C,C52*%
X30425000Y-37500000D03*
X31975000Y-37500000D03*
%TD*%
D25*
%TO.C,R76*%
X7500000Y-59825000D03*
X7500000Y-58175000D03*
%TD*%
D10*
%TO.C,R104*%
X1300000Y-90435000D03*
X2950000Y-90435000D03*
%TD*%
D13*
%TO.C,C47*%
X34050000Y-24800000D03*
X35950000Y-24800000D03*
%TD*%
D20*
%TO.C,C72*%
X41925000Y-32200000D03*
X43475000Y-32200000D03*
%TD*%
D10*
%TO.C,R106*%
X22540000Y-120335000D03*
X24190000Y-120335000D03*
%TD*%
D26*
%TO.C,C27*%
X66525000Y-75000000D03*
X69475000Y-75000000D03*
%TD*%
D10*
%TO.C,R36*%
X67925000Y-80250000D03*
X69575000Y-80250000D03*
%TD*%
%TO.C,R5*%
X50297820Y-86792208D03*
X51947820Y-86792208D03*
%TD*%
D26*
%TO.C,C32*%
X23840000Y-122605000D03*
X26790000Y-122605000D03*
%TD*%
D20*
%TO.C,C21*%
X14149863Y-45686926D03*
X15699863Y-45686926D03*
%TD*%
%TO.C,C48*%
X34225000Y-35200000D03*
X35775000Y-35200000D03*
%TD*%
D10*
%TO.C,R100*%
X57675000Y-33000000D03*
X59325000Y-33000000D03*
%TD*%
D27*
%TO.C,U2*%
X54137500Y-91575000D03*
X54137500Y-90925000D03*
X54137500Y-90275000D03*
X54137500Y-89625000D03*
X54137500Y-88975000D03*
X54137500Y-88325000D03*
X54137500Y-87675000D03*
X54137500Y-87025000D03*
X54137500Y-86375000D03*
X54137500Y-85725000D03*
X54137500Y-85075000D03*
X54137500Y-84425000D03*
X59862500Y-84425000D03*
X59862500Y-85075000D03*
X59862500Y-85725000D03*
X59862500Y-86375000D03*
X59862500Y-87025000D03*
X59862500Y-87675000D03*
X59862500Y-88325000D03*
X59862500Y-88975000D03*
X59862500Y-89625000D03*
X59862500Y-90275000D03*
X59862500Y-90925000D03*
X59862500Y-91575000D03*
%TD*%
D20*
%TO.C,C17*%
X37975000Y-30250000D03*
X39525000Y-30250000D03*
%TD*%
D28*
%TO.C,U22*%
X53862500Y-43950000D03*
X53862500Y-43000000D03*
X53862500Y-42050000D03*
X56137500Y-42050000D03*
X56137500Y-43000000D03*
X56137500Y-43950000D03*
%TD*%
D22*
%TO.C,Q9*%
X1637500Y-10255000D03*
X1637500Y-8355000D03*
X3512500Y-9305000D03*
%TD*%
D10*
%TO.C,R126*%
X55425000Y-103250000D03*
X57075000Y-103250000D03*
%TD*%
D22*
%TO.C,Q8*%
X1637500Y-14045000D03*
X1637500Y-12145000D03*
X3512500Y-13095000D03*
%TD*%
D26*
%TO.C,C29*%
X8870000Y-122605000D03*
X11820000Y-122605000D03*
%TD*%
D29*
%TO.C,F1*%
X2000000Y-42800000D03*
X4800000Y-42800000D03*
%TD*%
D10*
%TO.C,R45*%
X57200000Y-14095000D03*
X58850000Y-14095000D03*
%TD*%
D21*
%TO.C,L4*%
X57715000Y-36200000D03*
X60085000Y-36200000D03*
%TD*%
D20*
%TO.C,C54*%
X34225000Y-37500000D03*
X35775000Y-37500000D03*
%TD*%
%TO.C,C24*%
X61725000Y-103250000D03*
X63275000Y-103250000D03*
%TD*%
D10*
%TO.C,R85*%
X8000000Y-28725000D03*
X9650000Y-28725000D03*
%TD*%
%TO.C,R91*%
X8000000Y-17625000D03*
X9650000Y-17625000D03*
%TD*%
%TO.C,R86*%
X8000000Y-26875000D03*
X9650000Y-26875000D03*
%TD*%
D30*
%TO.C,D8*%
X4700000Y-122750000D03*
X6800000Y-122750000D03*
%TD*%
D10*
%TO.C,R105*%
X1300000Y-88585000D03*
X2950000Y-88585000D03*
%TD*%
D20*
%TO.C,C74*%
X41925000Y-34300000D03*
X43475000Y-34300000D03*
%TD*%
D30*
%TO.C,D11*%
X14450000Y-30000000D03*
X16550000Y-30000000D03*
%TD*%
D20*
%TO.C,C62*%
X29290000Y-120335000D03*
X30840000Y-120335000D03*
%TD*%
D25*
%TO.C,R80*%
X5500000Y-71325000D03*
X5500000Y-69675000D03*
%TD*%
D26*
%TO.C,C31*%
X18850000Y-122605000D03*
X21800000Y-122605000D03*
%TD*%
D10*
%TO.C,R127*%
X61425000Y-107750000D03*
X63075000Y-107750000D03*
%TD*%
D12*
%TO.C,Q2*%
X5705000Y-51475000D03*
X4435000Y-51475000D03*
X3165000Y-51475000D03*
X1895000Y-51475000D03*
X1895000Y-46525000D03*
X3165000Y-46525000D03*
X4435000Y-46525000D03*
X5705000Y-46525000D03*
%TD*%
D20*
%TO.C,C38*%
X60600000Y-31095000D03*
X62150000Y-31095000D03*
%TD*%
%TO.C,C71*%
X41925000Y-27800000D03*
X43475000Y-27800000D03*
%TD*%
D10*
%TO.C,R96*%
X8000000Y-7575000D03*
X9650000Y-7575000D03*
%TD*%
D30*
%TO.C,D10*%
X10950000Y-30000000D03*
X13050000Y-30000000D03*
%TD*%
D31*
%TO.C,U7*%
X34000000Y-127000000D03*
X34000000Y-128270000D03*
X34000000Y-129540000D03*
X34000000Y-135110000D03*
X34000000Y-136380000D03*
X34000000Y-137650000D03*
X34000000Y-138920000D03*
X34000000Y-140190000D03*
X34000000Y-141460000D03*
X34000000Y-142730000D03*
X34000000Y-144000000D03*
X20000000Y-144000000D03*
X20000000Y-142730000D03*
X20000000Y-141460000D03*
X20000000Y-140190000D03*
X20000000Y-138920000D03*
X20000000Y-137650000D03*
X20000000Y-136380000D03*
X20000000Y-135110000D03*
X20000000Y-129540000D03*
X20000000Y-128270000D03*
X20000000Y-127000000D03*
%TD*%
D20*
%TO.C,C76*%
X48725000Y-25700000D03*
X50275000Y-25700000D03*
%TD*%
D32*
%TO.C,R75*%
X2800000Y-62037500D03*
X2800000Y-67962500D03*
%TD*%
D10*
%TO.C,R6*%
X50297820Y-89207791D03*
X51947820Y-89207791D03*
%TD*%
D20*
%TO.C,C80*%
X27825000Y-27100000D03*
X29375000Y-27100000D03*
%TD*%
D10*
%TO.C,R83*%
X4175000Y-75500000D03*
X5825000Y-75500000D03*
%TD*%
D22*
%TO.C,Q4*%
X1637500Y-94205000D03*
X1637500Y-92305000D03*
X3512500Y-93255000D03*
%TD*%
D33*
%TO.C,U19*%
X1557500Y-29230000D03*
X1557500Y-28580000D03*
X1557500Y-27930000D03*
X1557500Y-27280000D03*
X3832500Y-27280000D03*
X3832500Y-27930000D03*
X3832500Y-28580000D03*
X3832500Y-29230000D03*
%TD*%
D30*
%TO.C,D12*%
X10950000Y-17000000D03*
X13050000Y-17000000D03*
%TD*%
D34*
%TO.C,R84*%
X12825000Y-28000000D03*
X11175000Y-28000000D03*
%TD*%
D35*
%TO.C,U12*%
X65100000Y-100000000D03*
X65600000Y-100000000D03*
X66100000Y-100000000D03*
X66600000Y-100000000D03*
X67100000Y-100000000D03*
X67600000Y-100000000D03*
X68100000Y-100000000D03*
X68100000Y-102800000D03*
X67600000Y-102800000D03*
X67100000Y-102800000D03*
X66600000Y-102800000D03*
X66100000Y-102800000D03*
X65600000Y-102800000D03*
X65100000Y-102800000D03*
D36*
X66600000Y-101400000D03*
%TD*%
D10*
%TO.C,R118*%
X51925000Y-70250000D03*
X53575000Y-70250000D03*
%TD*%
%TO.C,R93*%
X8000000Y-13925000D03*
X9650000Y-13925000D03*
%TD*%
D37*
%TO.C,U14*%
X2005000Y-82135000D03*
X2005000Y-82895000D03*
X2465000Y-82135000D03*
X2465000Y-82895000D03*
D38*
X1245000Y-83265000D03*
X1245000Y-82765000D03*
X1245000Y-82265000D03*
X1245000Y-81765000D03*
X3225000Y-81765000D03*
X3225000Y-82265000D03*
X3225000Y-82765000D03*
X3225000Y-83265000D03*
%TD*%
D13*
%TO.C,C49*%
X37850000Y-21100000D03*
X39750000Y-21100000D03*
%TD*%
D10*
%TO.C,R103*%
X50700000Y-55885000D03*
X52350000Y-55885000D03*
%TD*%
D39*
%TO.C,C5*%
X61950000Y-75925000D03*
X61950000Y-74375000D03*
%TD*%
D20*
%TO.C,C69*%
X38525000Y-25700000D03*
X40075000Y-25700000D03*
%TD*%
D10*
%TO.C,R44*%
X62175000Y-16500000D03*
X63825000Y-16500000D03*
%TD*%
D20*
%TO.C,C7*%
X60425000Y-70000000D03*
X61975000Y-70000000D03*
%TD*%
D10*
%TO.C,R116*%
X45275000Y-25700000D03*
X46925000Y-25700000D03*
%TD*%
%TO.C,R124*%
X50297820Y-96792208D03*
X51947820Y-96792208D03*
%TD*%
%TO.C,R8*%
X50385594Y-84830964D03*
X52035594Y-84830964D03*
%TD*%
D13*
%TO.C,C66*%
X53300000Y-34250000D03*
X55200000Y-34250000D03*
%TD*%
D10*
%TO.C,R41*%
X12490000Y-120335000D03*
X14140000Y-120335000D03*
%TD*%
D20*
%TO.C,C28*%
X68400000Y-93245000D03*
X69950000Y-93245000D03*
%TD*%
D10*
%TO.C,R81*%
X4175000Y-73000000D03*
X5825000Y-73000000D03*
%TD*%
%TO.C,R131*%
X56675000Y-105250000D03*
X58325000Y-105250000D03*
%TD*%
D20*
%TO.C,C78*%
X48725000Y-34300000D03*
X50275000Y-34300000D03*
%TD*%
D40*
%TO.C,U11*%
X67500000Y-77800000D03*
D41*
X66400000Y-78600000D03*
X66400000Y-78200000D03*
X66400000Y-77800000D03*
X66400000Y-77400000D03*
X66400000Y-77000000D03*
X68600000Y-77000000D03*
X68600000Y-77400000D03*
X68600000Y-77800000D03*
X68600000Y-78200000D03*
X68600000Y-78600000D03*
%TD*%
D10*
%TO.C,R14*%
X60550000Y-14095000D03*
X62200000Y-14095000D03*
%TD*%
D13*
%TO.C,C45*%
X30250000Y-24800000D03*
X32150000Y-24800000D03*
%TD*%
D20*
%TO.C,C37*%
X57450000Y-61435000D03*
X59000000Y-61435000D03*
%TD*%
D10*
%TO.C,R92*%
X8000000Y-15775000D03*
X9650000Y-15775000D03*
%TD*%
D42*
%TO.C,U20*%
X53387500Y-63800000D03*
X53387500Y-64750000D03*
X53387500Y-65700000D03*
X51112500Y-65700000D03*
X51112500Y-64750000D03*
X51112500Y-63800000D03*
%TD*%
D20*
%TO.C,C16*%
X24978920Y-38911811D03*
X26528920Y-38911811D03*
%TD*%
D10*
%TO.C,R117*%
X45275000Y-34300000D03*
X46925000Y-34300000D03*
%TD*%
D20*
%TO.C,C55*%
X41825000Y-21100000D03*
X43375000Y-21100000D03*
%TD*%
D10*
%TO.C,R9*%
X50385594Y-91169035D03*
X52035594Y-91169035D03*
%TD*%
%TO.C,R42*%
X15840000Y-120335000D03*
X17490000Y-120335000D03*
%TD*%
D22*
%TO.C,Q6*%
X1637500Y-21625000D03*
X1637500Y-19725000D03*
X3512500Y-20675000D03*
%TD*%
D43*
%TO.C,D9*%
X11350000Y-72500000D03*
X14650000Y-72500000D03*
%TD*%
D44*
%TO.C,R95*%
X8162500Y-9825000D03*
X11087500Y-9825000D03*
%TD*%
D20*
%TO.C,C53*%
X34225000Y-22500000D03*
X35775000Y-22500000D03*
%TD*%
D13*
%TO.C,C44*%
X1495000Y-113005000D03*
X3395000Y-113005000D03*
%TD*%
D45*
%TO.C,U21*%
X57087500Y-40400000D03*
X57087500Y-39900000D03*
X57087500Y-39400000D03*
X58512500Y-39400000D03*
X58512500Y-39900000D03*
X58512500Y-40400000D03*
%TD*%
D24*
%TO.C,L1*%
X65415000Y-96600000D03*
X67785000Y-96600000D03*
%TD*%
D26*
%TO.C,C26*%
X60275000Y-105500000D03*
X63225000Y-105500000D03*
%TD*%
D13*
%TO.C,C51*%
X30250000Y-22500000D03*
X32150000Y-22500000D03*
%TD*%
D10*
%TO.C,R46*%
X57400000Y-59585000D03*
X59050000Y-59585000D03*
%TD*%
%TO.C,R101*%
X24282189Y-57258894D03*
X25932189Y-57258894D03*
%TD*%
D20*
%TO.C,C39*%
X60800000Y-61435000D03*
X62350000Y-61435000D03*
%TD*%
%TO.C,C75*%
X48725000Y-27800000D03*
X50275000Y-27800000D03*
%TD*%
%TO.C,C23*%
X64475000Y-80250000D03*
X66025000Y-80250000D03*
%TD*%
%TO.C,C58*%
X11225000Y-74500000D03*
X12775000Y-74500000D03*
%TD*%
D31*
%TO.C,U8*%
X17000000Y-127000000D03*
X17000000Y-128270000D03*
X17000000Y-129540000D03*
X17000000Y-135110000D03*
X17000000Y-136380000D03*
X17000000Y-137650000D03*
X17000000Y-138920000D03*
X17000000Y-140190000D03*
X17000000Y-141460000D03*
X17000000Y-142730000D03*
X17000000Y-144000000D03*
X3000000Y-144000000D03*
X3000000Y-142730000D03*
X3000000Y-141460000D03*
X3000000Y-140190000D03*
X3000000Y-138920000D03*
X3000000Y-137650000D03*
X3000000Y-136380000D03*
X3000000Y-135110000D03*
X3000000Y-129540000D03*
X3000000Y-128270000D03*
X3000000Y-127000000D03*
%TD*%
D10*
%TO.C,R77*%
X11675000Y-63500000D03*
X13325000Y-63500000D03*
%TD*%
D39*
%TO.C,C59*%
X8000000Y-42275000D03*
X8000000Y-40725000D03*
%TD*%
D10*
%TO.C,R43*%
X19190000Y-120335000D03*
X20840000Y-120335000D03*
%TD*%
D46*
%TO.C,J7*%
X53400000Y-31875000D03*
X54600000Y-31875000D03*
D47*
X52250000Y-28100000D03*
X55750000Y-28100000D03*
%TD*%
D45*
%TO.C,U13*%
X57587500Y-23200000D03*
X57587500Y-22700000D03*
X57587500Y-22200000D03*
X59012500Y-22200000D03*
X59012500Y-22700000D03*
X59012500Y-23200000D03*
%TD*%
D20*
%TO.C,C46*%
X30425000Y-35200000D03*
X31975000Y-35200000D03*
%TD*%
D10*
%TO.C,R4*%
X50425000Y-83000000D03*
X52075000Y-83000000D03*
%TD*%
D48*
%TO.C,U16*%
X57137500Y-55725000D03*
X57137500Y-55075000D03*
X57137500Y-54425000D03*
X57137500Y-53775000D03*
X61362500Y-53775000D03*
X61362500Y-54425000D03*
X61362500Y-55075000D03*
X61362500Y-55725000D03*
%TD*%
D13*
%TO.C,C64*%
X8795000Y-120085000D03*
X10695000Y-120085000D03*
%TD*%
D20*
%TO.C,C68*%
X1350000Y-86735000D03*
X2900000Y-86735000D03*
%TD*%
D10*
%TO.C,R129*%
X57400000Y-57735000D03*
X59050000Y-57735000D03*
%TD*%
D11*
%TO.C,C19*%
X42120000Y-38900000D03*
X43080000Y-38900000D03*
%TD*%
D19*
%TO.C,L6*%
X38512500Y-32200000D03*
X40087500Y-32200000D03*
%TD*%
D20*
%TO.C,C73*%
X41925000Y-25700000D03*
X43475000Y-25700000D03*
%TD*%
D10*
%TO.C,R39*%
X65675000Y-71750000D03*
X67325000Y-71750000D03*
%TD*%
%TO.C,R63*%
X54050000Y-57735000D03*
X55700000Y-57735000D03*
%TD*%
%TO.C,R114*%
X45275000Y-27800000D03*
X46925000Y-27800000D03*
%TD*%
D13*
%TO.C,C33*%
X28755000Y-122775000D03*
X30655000Y-122775000D03*
%TD*%
D49*
%TO.C,U4*%
X56750000Y-68837500D03*
X57250000Y-68837500D03*
X57750000Y-68837500D03*
X58250000Y-68837500D03*
D50*
X58412500Y-69500000D03*
X58412500Y-70000000D03*
X58412500Y-70500000D03*
D49*
X58250000Y-71162500D03*
X57750000Y-71162500D03*
X57250000Y-71162500D03*
X56750000Y-71162500D03*
D50*
X56587500Y-70500000D03*
X56587500Y-70000000D03*
X56587500Y-69500000D03*
%TD*%
D20*
%TO.C,C25*%
X62225000Y-65000000D03*
X63775000Y-65000000D03*
%TD*%
D13*
%TO.C,C43*%
X1495000Y-110655000D03*
X3395000Y-110655000D03*
%TD*%
D10*
%TO.C,R87*%
X8000000Y-25025000D03*
X9650000Y-25025000D03*
%TD*%
%TO.C,R38*%
X8700000Y-85985000D03*
X10350000Y-85985000D03*
%TD*%
%TO.C,R49*%
X60750000Y-59585000D03*
X62400000Y-59585000D03*
%TD*%
D20*
%TO.C,C63*%
X50750000Y-59585000D03*
X52300000Y-59585000D03*
%TD*%
%TO.C,C79*%
X27825000Y-32900000D03*
X29375000Y-32900000D03*
%TD*%
%TO.C,C70*%
X38525000Y-34300000D03*
X40075000Y-34300000D03*
%TD*%
D10*
%TO.C,R128*%
X47468772Y-104529969D03*
X49118772Y-104529969D03*
%TD*%
%TO.C,R7*%
X50425000Y-81000000D03*
X52075000Y-81000000D03*
%TD*%
D51*
%TO.C,U18*%
X10100000Y-65500000D03*
X10100000Y-66000000D03*
X10100000Y-66500000D03*
X10100000Y-67000000D03*
X10100000Y-67500000D03*
X5900000Y-67500000D03*
X5900000Y-67000000D03*
X5900000Y-66500000D03*
X5900000Y-66000000D03*
X5900000Y-65500000D03*
%TD*%
D10*
%TO.C,R97*%
X50700000Y-61435000D03*
X52350000Y-61435000D03*
%TD*%
%TO.C,R40*%
X59675000Y-72750000D03*
X61325000Y-72750000D03*
%TD*%
%TO.C,R98*%
X54050000Y-61435000D03*
X55700000Y-61435000D03*
%TD*%
D20*
%TO.C,C4*%
X50347820Y-79207791D03*
X51897820Y-79207791D03*
%TD*%
D52*
%TO.C,Y1*%
X29700000Y-30850000D03*
X27500000Y-30850000D03*
X27500000Y-29150000D03*
X29700000Y-29150000D03*
%TD*%
D10*
%TO.C,R89*%
X8000000Y-21325000D03*
X9650000Y-21325000D03*
%TD*%
%TO.C,R50*%
X48675000Y-57735000D03*
X50325000Y-57735000D03*
%TD*%
%TO.C,R17*%
X54050000Y-59585000D03*
X55700000Y-59585000D03*
%TD*%
%TO.C,R79*%
X15175000Y-63500000D03*
X16825000Y-63500000D03*
%TD*%
D26*
%TO.C,C30*%
X13860000Y-122605000D03*
X16810000Y-122605000D03*
%TD*%
D10*
%TO.C,R74*%
X39675000Y-132750000D03*
X41325000Y-132750000D03*
%TD*%
D53*
%TO.C,U17*%
X1362500Y-123250000D03*
X1362500Y-122600000D03*
X1362500Y-121950000D03*
X3037500Y-121950000D03*
X3037500Y-123250000D03*
%TD*%
D10*
%TO.C,R69*%
X1400000Y-108555000D03*
X3050000Y-108555000D03*
%TD*%
D22*
%TO.C,Q7*%
X1637500Y-17835000D03*
X1637500Y-15935000D03*
X3512500Y-16885000D03*
%TD*%
D25*
%TO.C,R82*%
X7500000Y-73825000D03*
X7500000Y-72175000D03*
%TD*%
D39*
%TO.C,C60*%
X6500000Y-29275000D03*
X6500000Y-27725000D03*
%TD*%
D20*
%TO.C,C22*%
X10014794Y-58218922D03*
X11564794Y-58218922D03*
%TD*%
D27*
%TO.C,U3*%
X54137500Y-81575000D03*
X54137500Y-80925000D03*
X54137500Y-80275000D03*
X54137500Y-79625000D03*
X54137500Y-78975000D03*
X54137500Y-78325000D03*
X54137500Y-77675000D03*
X54137500Y-77025000D03*
X54137500Y-76375000D03*
X54137500Y-75725000D03*
X54137500Y-75075000D03*
X54137500Y-74425000D03*
X59862500Y-74425000D03*
X59862500Y-75075000D03*
X59862500Y-75725000D03*
X59862500Y-76375000D03*
X59862500Y-77025000D03*
X59862500Y-77675000D03*
X59862500Y-78325000D03*
X59862500Y-78975000D03*
X59862500Y-79625000D03*
X59862500Y-80275000D03*
X59862500Y-80925000D03*
X59862500Y-81575000D03*
%TD*%
M02*
