%TF.GenerationSoftware,KiCad,Pcbnew,10.0.5-10.0.5~ubuntu24.04.1*%
%TF.CreationDate,2026-09-05T00:14:29+00:00*%
%TF.ProjectId,aqroot-Beta-v2,6171726f-6f74-42d4-9265-74612d76322e,rev?*%
%TF.SameCoordinates,Original*%
%TF.FileFunction,Legend,Bot*%
%TF.FilePolarity,Positive*%
%FSLAX46Y46*%
G04 Gerber Fmt 4.6, Leading zero omitted, Abs format (unit mm)*
G04 Created by KiCad (PCBNEW 10.0.5-10.0.5~ubuntu24.04.1) date 2026-09-05 00:14:29*
%MOMM*%
%LPD*%
G01*
G04 APERTURE LIST*
%ADD10C,0.120000*%
%ADD11C,0.160000*%
%ADD12C,0.210000*%
%ADD13C,0.310000*%
%ADD14C,0.100000*%
G04 APERTURE END LIST*
%TO.C,R78*%
D10*
X12262742Y-59977500D02*
X12737258Y-59977500D01*
X12262742Y-61022500D02*
X12737258Y-61022500D01*
%TO.C,C18*%
X23165549Y-28981214D02*
X23381221Y-28981214D01*
X23165549Y-29701214D02*
X23381221Y-29701214D01*
%TO.C,TP28*%
X55450000Y-38000000D02*
G75*
G02*
X54050000Y-38000000I-700000J0D01*
G01*
X54050000Y-38000000D02*
G75*
G02*
X55450000Y-38000000I700000J0D01*
G01*
%TO.C,Q3*%
X1240000Y-54740000D02*
X1240000Y-58860000D01*
X1240000Y-58860000D02*
X1335000Y-58860000D01*
X1335000Y-54740000D02*
X1240000Y-54740000D01*
X6265000Y-58860000D02*
X6360000Y-58860000D01*
X6360000Y-54740000D02*
X6265000Y-54740000D01*
X6360000Y-58860000D02*
X6360000Y-54740000D01*
X6270000Y-59400000D02*
X6600000Y-59640000D01*
X6600000Y-59160000D01*
X6270000Y-59400000D01*
G36*
X6600000Y-59640000D02*
G01*
X6270000Y-59400000D01*
X6600000Y-59160000D01*
X6600000Y-59640000D01*
G37*
%TO.C,TP31*%
X5700000Y-88500000D02*
G75*
G02*
X4300000Y-88500000I-700000J0D01*
G01*
X4300000Y-88500000D02*
G75*
G02*
X5700000Y-88500000I700000J0D01*
G01*
%TO.C,TP21*%
X6700000Y-19500000D02*
G75*
G02*
X5300000Y-19500000I-700000J0D01*
G01*
X5300000Y-19500000D02*
G75*
G02*
X6700000Y-19500000I700000J0D01*
G01*
%TO.C,C35*%
X54238748Y-14015000D02*
X54761252Y-14015000D01*
X54238748Y-15485000D02*
X54761252Y-15485000D01*
%TO.C,MK1*%
X2400000Y-100100000D02*
X2400000Y-99900000D01*
X2400000Y-100100000D02*
X2600000Y-100100000D01*
D11*
X3005000Y-99950000D02*
G75*
G02*
X2845000Y-99950000I-80000J0D01*
G01*
X2845000Y-99950000D02*
G75*
G02*
X3005000Y-99950000I80000J0D01*
G01*
%TO.C,R99*%
D10*
X62762742Y-32977500D02*
X63237258Y-32977500D01*
X62762742Y-34022500D02*
X63237258Y-34022500D01*
%TO.C,R107*%
X26477742Y-119812500D02*
X26952258Y-119812500D01*
X26477742Y-120857500D02*
X26952258Y-120857500D01*
%TO.C,R102*%
X61337742Y-57212500D02*
X61812258Y-57212500D01*
X61337742Y-58257500D02*
X61812258Y-58257500D01*
%TO.C,U9*%
D12*
X31255000Y-32850000D02*
G75*
G02*
X31045000Y-32850000I-105000J0D01*
G01*
X31045000Y-32850000D02*
G75*
G02*
X31255000Y-32850000I105000J0D01*
G01*
%TO.C,TP20*%
D10*
X9450000Y-47000000D02*
G75*
G02*
X8050000Y-47000000I-700000J0D01*
G01*
X8050000Y-47000000D02*
G75*
G02*
X9450000Y-47000000I700000J0D01*
G01*
%TO.C,L5*%
X39137221Y-27290000D02*
X39462779Y-27290000D01*
X39137221Y-28310000D02*
X39462779Y-28310000D01*
%TO.C,C57*%
X8359420Y-55990000D02*
X8640580Y-55990000D01*
X8359420Y-57010000D02*
X8640580Y-57010000D01*
%TO.C,C6*%
X57901335Y-66676743D02*
X58182495Y-66676743D01*
X57901335Y-67696743D02*
X58182495Y-67696743D01*
%TO.C,R125*%
X50885562Y-98685291D02*
X51360078Y-98685291D01*
X50885562Y-99730291D02*
X51360078Y-99730291D01*
%TO.C,C34*%
X61238748Y-22765000D02*
X61761252Y-22765000D01*
X61238748Y-24235000D02*
X61761252Y-24235000D01*
%TO.C,TP12*%
X60700000Y-63500000D02*
G75*
G02*
X59300000Y-63500000I-700000J0D01*
G01*
X59300000Y-63500000D02*
G75*
G02*
X60700000Y-63500000I700000J0D01*
G01*
%TO.C,R13*%
X36762742Y-132227500D02*
X37237258Y-132227500D01*
X36762742Y-133272500D02*
X37237258Y-133272500D01*
%TO.C,L2*%
X56850000Y-16350000D02*
X57250000Y-16350000D01*
X56850000Y-20450000D02*
X56850000Y-16350000D01*
X57250000Y-20450000D02*
X56850000Y-20450000D01*
X60550000Y-20450000D02*
X60950000Y-20450000D01*
X60950000Y-16350000D02*
X60550000Y-16350000D01*
X60950000Y-20450000D02*
X60950000Y-16350000D01*
D12*
X56555000Y-20300000D02*
G75*
G02*
X56345000Y-20300000I-105000J0D01*
G01*
X56345000Y-20300000D02*
G75*
G02*
X56555000Y-20300000I105000J0D01*
G01*
%TO.C,TP38*%
D10*
X40000000Y-36700000D02*
G75*
G02*
X38600000Y-36700000I-700000J0D01*
G01*
X38600000Y-36700000D02*
G75*
G02*
X40000000Y-36700000I700000J0D01*
G01*
%TO.C,Q5*%
X1815000Y-22905000D02*
X1815000Y-22955000D01*
X1815000Y-24075000D02*
X1815000Y-24855000D01*
X1815000Y-25975000D02*
X1815000Y-26025000D01*
X1815000Y-26025000D02*
X3335000Y-26025000D01*
X3335000Y-22905000D02*
X1815000Y-22905000D01*
X3335000Y-23905000D02*
X3335000Y-22905000D01*
X3335000Y-26025000D02*
X3335000Y-25025000D01*
X1275000Y-24845000D02*
X1515000Y-24515000D01*
X1035000Y-24515000D01*
X1275000Y-24845000D01*
G36*
X1275000Y-24845000D02*
G01*
X1035000Y-24515000D01*
X1515000Y-24515000D01*
X1275000Y-24845000D01*
G37*
%TO.C,C65*%
X60773748Y-39740000D02*
X61296252Y-39740000D01*
X60773748Y-41210000D02*
X61296252Y-41210000D01*
%TO.C,R88*%
X8587742Y-22652500D02*
X9062258Y-22652500D01*
X8587742Y-23697500D02*
X9062258Y-23697500D01*
%TO.C,C61*%
X11859420Y-21490000D02*
X12140580Y-21490000D01*
X11859420Y-22510000D02*
X12140580Y-22510000D01*
%TO.C,C36*%
X63240000Y-74959420D02*
X63240000Y-75240580D01*
X64260000Y-74959420D02*
X64260000Y-75240580D01*
%TO.C,TP25*%
X64200000Y-67250000D02*
G75*
G02*
X62800000Y-67250000I-700000J0D01*
G01*
X62800000Y-67250000D02*
G75*
G02*
X64200000Y-67250000I700000J0D01*
G01*
%TO.C,C77*%
X49359420Y-31690000D02*
X49640580Y-31690000D01*
X49359420Y-32710000D02*
X49640580Y-32710000D01*
%TO.C,L3*%
X1000000Y-116900000D02*
X1400000Y-116900000D01*
X1000000Y-120900000D02*
X1000000Y-116900000D01*
X1400000Y-120900000D02*
X1000000Y-120900000D01*
X4600000Y-120900000D02*
X5000000Y-120900000D01*
X5000000Y-116900000D02*
X4600000Y-116900000D01*
X5000000Y-120900000D02*
X5000000Y-116900000D01*
%TO.C,R37*%
X63512742Y-76977500D02*
X63987258Y-76977500D01*
X63512742Y-78022500D02*
X63987258Y-78022500D01*
%TO.C,TP8*%
X38700000Y-124500000D02*
G75*
G02*
X37300000Y-124500000I-700000J0D01*
G01*
X37300000Y-124500000D02*
G75*
G02*
X38700000Y-124500000I700000J0D01*
G01*
%TO.C,R94*%
X8587742Y-11552500D02*
X9062258Y-11552500D01*
X8587742Y-12597500D02*
X9062258Y-12597500D01*
%TO.C,C50*%
X38659420Y-38390000D02*
X38940580Y-38390000D01*
X38659420Y-39410000D02*
X38940580Y-39410000D01*
%TO.C,R119*%
X52839874Y-67977130D02*
X53314390Y-67977130D01*
X52839874Y-69022130D02*
X53314390Y-69022130D01*
%TO.C,R90*%
X8587742Y-18952500D02*
X9062258Y-18952500D01*
X8587742Y-19997500D02*
X9062258Y-19997500D01*
%TO.C,R115*%
X45862742Y-31677500D02*
X46337258Y-31677500D01*
X45862742Y-32722500D02*
X46337258Y-32722500D01*
%TO.C,C52*%
X31059420Y-36990000D02*
X31340580Y-36990000D01*
X31059420Y-38010000D02*
X31340580Y-38010000D01*
%TO.C,R76*%
X6977500Y-59237258D02*
X6977500Y-58762742D01*
X8022500Y-59237258D02*
X8022500Y-58762742D01*
%TO.C,R104*%
X1887742Y-89912500D02*
X2362258Y-89912500D01*
X1887742Y-90957500D02*
X2362258Y-90957500D01*
%TO.C,C47*%
X34738748Y-24065000D02*
X35261252Y-24065000D01*
X34738748Y-25535000D02*
X35261252Y-25535000D01*
%TO.C,C72*%
X42559420Y-31690000D02*
X42840580Y-31690000D01*
X42559420Y-32710000D02*
X42840580Y-32710000D01*
%TO.C,R106*%
X23127742Y-119812500D02*
X23602258Y-119812500D01*
X23127742Y-120857500D02*
X23602258Y-120857500D01*
%TO.C,C27*%
X67288748Y-74090000D02*
X68711252Y-74090000D01*
X67288748Y-75910000D02*
X68711252Y-75910000D01*
%TO.C,R36*%
X68512742Y-79727500D02*
X68987258Y-79727500D01*
X68512742Y-80772500D02*
X68987258Y-80772500D01*
%TO.C,R5*%
X50885562Y-86269708D02*
X51360078Y-86269708D01*
X50885562Y-87314708D02*
X51360078Y-87314708D01*
%TO.C,C32*%
X24603748Y-121695000D02*
X26026252Y-121695000D01*
X24603748Y-123515000D02*
X26026252Y-123515000D01*
%TO.C,C21*%
X14784283Y-45176926D02*
X15065443Y-45176926D01*
X14784283Y-46196926D02*
X15065443Y-46196926D01*
%TO.C,C48*%
X34859420Y-34690000D02*
X35140580Y-34690000D01*
X34859420Y-35710000D02*
X35140580Y-35710000D01*
%TO.C,R100*%
X58262742Y-32477500D02*
X58737258Y-32477500D01*
X58262742Y-33522500D02*
X58737258Y-33522500D01*
%TO.C,U2*%
X54690000Y-92035000D02*
X59310000Y-92035000D01*
X59310000Y-83965000D02*
X54690000Y-83965000D01*
X53140000Y-91580000D02*
X52810000Y-91340000D01*
X52810000Y-91820000D01*
X53140000Y-91580000D01*
G36*
X53140000Y-91580000D02*
G01*
X52810000Y-91820000D01*
X52810000Y-91340000D01*
X53140000Y-91580000D01*
G37*
%TO.C,C17*%
X38609420Y-29740000D02*
X38890580Y-29740000D01*
X38609420Y-30760000D02*
X38890580Y-30760000D01*
%TO.C,U22*%
X54090000Y-41440000D02*
X54090000Y-41490000D01*
X54090000Y-44510000D02*
X54090000Y-44560000D01*
X54090000Y-44560000D02*
X55910000Y-44560000D01*
X55910000Y-41440000D02*
X54090000Y-41440000D01*
X55910000Y-41490000D02*
X55910000Y-41440000D01*
X55910000Y-44560000D02*
X55910000Y-44510000D01*
X53550000Y-44510000D02*
X53310000Y-44840000D01*
X53790000Y-44840000D01*
X53550000Y-44510000D01*
G36*
X53790000Y-44840000D02*
G01*
X53310000Y-44840000D01*
X53550000Y-44510000D01*
X53790000Y-44840000D01*
G37*
%TO.C,TP47*%
X62950000Y-96000000D02*
G75*
G02*
X61550000Y-96000000I-700000J0D01*
G01*
X61550000Y-96000000D02*
G75*
G02*
X62950000Y-96000000I700000J0D01*
G01*
%TO.C,Q9*%
X1815000Y-7745000D02*
X1815000Y-7795000D01*
X1815000Y-8915000D02*
X1815000Y-9695000D01*
X1815000Y-10815000D02*
X1815000Y-10865000D01*
X1815000Y-10865000D02*
X3335000Y-10865000D01*
X3335000Y-7745000D02*
X1815000Y-7745000D01*
X3335000Y-8745000D02*
X3335000Y-7745000D01*
X3335000Y-10865000D02*
X3335000Y-9865000D01*
X1275000Y-9685000D02*
X1515000Y-9355000D01*
X1035000Y-9355000D01*
X1275000Y-9685000D01*
G36*
X1275000Y-9685000D02*
G01*
X1035000Y-9355000D01*
X1515000Y-9355000D01*
X1275000Y-9685000D01*
G37*
%TO.C,R126*%
X56012742Y-102727500D02*
X56487258Y-102727500D01*
X56012742Y-103772500D02*
X56487258Y-103772500D01*
%TO.C,Q8*%
X1815000Y-11535000D02*
X1815000Y-11585000D01*
X1815000Y-12705000D02*
X1815000Y-13485000D01*
X1815000Y-14605000D02*
X1815000Y-14655000D01*
X1815000Y-14655000D02*
X3335000Y-14655000D01*
X3335000Y-11535000D02*
X1815000Y-11535000D01*
X3335000Y-12535000D02*
X3335000Y-11535000D01*
X3335000Y-14655000D02*
X3335000Y-13655000D01*
X1275000Y-13475000D02*
X1515000Y-13145000D01*
X1035000Y-13145000D01*
X1275000Y-13475000D01*
G36*
X1275000Y-13475000D02*
G01*
X1035000Y-13145000D01*
X1515000Y-13145000D01*
X1275000Y-13475000D01*
G37*
%TO.C,C29*%
X9633748Y-121695000D02*
X11056252Y-121695000D01*
X9633748Y-123515000D02*
X11056252Y-123515000D01*
%TO.C,F1*%
X2797936Y-41890000D02*
X4002064Y-41890000D01*
X2797936Y-43710000D02*
X4002064Y-43710000D01*
%TO.C,R45*%
X57787742Y-13572500D02*
X58262258Y-13572500D01*
X57787742Y-14617500D02*
X58262258Y-14617500D01*
%TO.C,L4*%
X56850000Y-34150000D02*
X57250000Y-34150000D01*
X56850000Y-38250000D02*
X56850000Y-34150000D01*
X57250000Y-38250000D02*
X56850000Y-38250000D01*
X60550000Y-38250000D02*
X60950000Y-38250000D01*
X60950000Y-34150000D02*
X60550000Y-34150000D01*
X60950000Y-38250000D02*
X60950000Y-34150000D01*
D12*
X56555000Y-38100000D02*
G75*
G02*
X56345000Y-38100000I-105000J0D01*
G01*
X56345000Y-38100000D02*
G75*
G02*
X56555000Y-38100000I105000J0D01*
G01*
%TO.C,C54*%
D10*
X34859420Y-36990000D02*
X35140580Y-36990000D01*
X34859420Y-38010000D02*
X35140580Y-38010000D01*
%TO.C,C24*%
X62359420Y-102740000D02*
X62640580Y-102740000D01*
X62359420Y-103760000D02*
X62640580Y-103760000D01*
%TO.C,R85*%
X8587742Y-28202500D02*
X9062258Y-28202500D01*
X8587742Y-29247500D02*
X9062258Y-29247500D01*
%TO.C,TP9*%
X50200000Y-39250000D02*
G75*
G02*
X48800000Y-39250000I-700000J0D01*
G01*
X48800000Y-39250000D02*
G75*
G02*
X50200000Y-39250000I700000J0D01*
G01*
%TO.C,R91*%
X8587742Y-17102500D02*
X9062258Y-17102500D01*
X8587742Y-18147500D02*
X9062258Y-18147500D01*
%TO.C,TP27*%
X58200000Y-64250000D02*
G75*
G02*
X56800000Y-64250000I-700000J0D01*
G01*
X56800000Y-64250000D02*
G75*
G02*
X58200000Y-64250000I700000J0D01*
G01*
%TO.C,TP44*%
X16925500Y-112927500D02*
G75*
G02*
X15525500Y-112927500I-700000J0D01*
G01*
X15525500Y-112927500D02*
G75*
G02*
X16925500Y-112927500I700000J0D01*
G01*
%TO.C,R86*%
X8587742Y-26352500D02*
X9062258Y-26352500D01*
X8587742Y-27397500D02*
X9062258Y-27397500D01*
%TO.C,D8*%
X4140000Y-121900000D02*
X6800000Y-121900000D01*
X4140000Y-123600000D02*
X4140000Y-121900000D01*
X4140000Y-123600000D02*
X6800000Y-123600000D01*
%TO.C,R105*%
X1887742Y-88062500D02*
X2362258Y-88062500D01*
X1887742Y-89107500D02*
X2362258Y-89107500D01*
%TO.C,TP34*%
X5700000Y-39000000D02*
G75*
G02*
X4300000Y-39000000I-700000J0D01*
G01*
X4300000Y-39000000D02*
G75*
G02*
X5700000Y-39000000I700000J0D01*
G01*
%TO.C,C74*%
X42559420Y-33790000D02*
X42840580Y-33790000D01*
X42559420Y-34810000D02*
X42840580Y-34810000D01*
%TO.C,D11*%
X13890000Y-29150000D02*
X16550000Y-29150000D01*
X13890000Y-30850000D02*
X13890000Y-29150000D01*
X13890000Y-30850000D02*
X16550000Y-30850000D01*
%TO.C,C62*%
X29924420Y-119825000D02*
X30205580Y-119825000D01*
X29924420Y-120845000D02*
X30205580Y-120845000D01*
%TO.C,R80*%
X4977500Y-70737258D02*
X4977500Y-70262742D01*
X6022500Y-70737258D02*
X6022500Y-70262742D01*
%TO.C,TP10*%
X64200000Y-42750000D02*
G75*
G02*
X62800000Y-42750000I-700000J0D01*
G01*
X62800000Y-42750000D02*
G75*
G02*
X64200000Y-42750000I700000J0D01*
G01*
%TO.C,C31*%
X19613748Y-121695000D02*
X21036252Y-121695000D01*
X19613748Y-123515000D02*
X21036252Y-123515000D01*
%TO.C,R127*%
X62012742Y-107227500D02*
X62487258Y-107227500D01*
X62012742Y-108272500D02*
X62487258Y-108272500D01*
%TO.C,Q2*%
X1240000Y-46940000D02*
X1240000Y-51060000D01*
X1240000Y-51060000D02*
X1335000Y-51060000D01*
X1335000Y-46940000D02*
X1240000Y-46940000D01*
X6265000Y-51060000D02*
X6360000Y-51060000D01*
X6360000Y-46940000D02*
X6265000Y-46940000D01*
X6360000Y-51060000D02*
X6360000Y-46940000D01*
X6270000Y-51600000D02*
X6600000Y-51840000D01*
X6600000Y-51360000D01*
X6270000Y-51600000D01*
G36*
X6600000Y-51840000D02*
G01*
X6270000Y-51600000D01*
X6600000Y-51360000D01*
X6600000Y-51840000D01*
G37*
%TO.C,C38*%
X61234420Y-30585000D02*
X61515580Y-30585000D01*
X61234420Y-31605000D02*
X61515580Y-31605000D01*
%TO.C,C71*%
X42559420Y-27290000D02*
X42840580Y-27290000D01*
X42559420Y-28310000D02*
X42840580Y-28310000D01*
%TO.C,R96*%
X8587742Y-7052500D02*
X9062258Y-7052500D01*
X8587742Y-8097500D02*
X9062258Y-8097500D01*
%TO.C,D10*%
X10390000Y-29150000D02*
X13050000Y-29150000D01*
X10390000Y-30850000D02*
X10390000Y-29150000D01*
X10390000Y-30850000D02*
X13050000Y-30850000D01*
%TO.C,U7*%
D13*
X35555000Y-127000000D02*
G75*
G02*
X35245000Y-127000000I-155000J0D01*
G01*
X35245000Y-127000000D02*
G75*
G02*
X35555000Y-127000000I155000J0D01*
G01*
%TO.C,C76*%
D10*
X49359420Y-25190000D02*
X49640580Y-25190000D01*
X49359420Y-26210000D02*
X49640580Y-26210000D01*
%TO.C,R75*%
X1090000Y-62822936D02*
X1090000Y-67177064D01*
X4510000Y-62822936D02*
X4510000Y-67177064D01*
%TO.C,R6*%
X50885562Y-88685291D02*
X51360078Y-88685291D01*
X50885562Y-89730291D02*
X51360078Y-89730291D01*
%TO.C,TP32*%
X35950000Y-48250000D02*
G75*
G02*
X34550000Y-48250000I-700000J0D01*
G01*
X34550000Y-48250000D02*
G75*
G02*
X35950000Y-48250000I700000J0D01*
G01*
%TO.C,C80*%
X28459420Y-26590000D02*
X28740580Y-26590000D01*
X28459420Y-27610000D02*
X28740580Y-27610000D01*
%TO.C,R83*%
X4762742Y-74977500D02*
X5237258Y-74977500D01*
X4762742Y-76022500D02*
X5237258Y-76022500D01*
%TO.C,Q4*%
X1815000Y-91695000D02*
X1815000Y-91745000D01*
X1815000Y-92865000D02*
X1815000Y-93645000D01*
X1815000Y-94765000D02*
X1815000Y-94815000D01*
X1815000Y-94815000D02*
X3335000Y-94815000D01*
X3335000Y-91695000D02*
X1815000Y-91695000D01*
X3335000Y-92695000D02*
X3335000Y-91695000D01*
X3335000Y-94815000D02*
X3335000Y-93815000D01*
X1275000Y-93635000D02*
X1515000Y-93305000D01*
X1035000Y-93305000D01*
X1275000Y-93635000D01*
G36*
X1275000Y-93635000D02*
G01*
X1035000Y-93305000D01*
X1515000Y-93305000D01*
X1275000Y-93635000D01*
G37*
%TO.C,TP11*%
X5950000Y-80250000D02*
G75*
G02*
X4550000Y-80250000I-700000J0D01*
G01*
X4550000Y-80250000D02*
G75*
G02*
X5950000Y-80250000I700000J0D01*
G01*
%TO.C,U19*%
X1785000Y-26695000D02*
X1785000Y-26770000D01*
X1785000Y-29740000D02*
X1785000Y-29815000D01*
X1785000Y-29815000D02*
X3605000Y-29815000D01*
X3605000Y-26695000D02*
X1785000Y-26695000D01*
X3605000Y-26770000D02*
X3605000Y-26695000D01*
X3605000Y-29815000D02*
X3605000Y-29740000D01*
X1245000Y-29745000D02*
X1005000Y-30075000D01*
X1485000Y-30075000D01*
X1245000Y-29745000D01*
G36*
X1485000Y-30075000D02*
G01*
X1005000Y-30075000D01*
X1245000Y-29745000D01*
X1485000Y-30075000D01*
G37*
%TO.C,TP33*%
X62950000Y-79750000D02*
G75*
G02*
X61550000Y-79750000I-700000J0D01*
G01*
X61550000Y-79750000D02*
G75*
G02*
X62950000Y-79750000I700000J0D01*
G01*
%TO.C,TP24*%
X6700000Y-22500000D02*
G75*
G02*
X5300000Y-22500000I-700000J0D01*
G01*
X5300000Y-22500000D02*
G75*
G02*
X6700000Y-22500000I700000J0D01*
G01*
%TO.C,D12*%
X10390000Y-16150000D02*
X13050000Y-16150000D01*
X10390000Y-17850000D02*
X10390000Y-16150000D01*
X10390000Y-17850000D02*
X13050000Y-17850000D01*
%TO.C,TP14*%
X41200000Y-124500000D02*
G75*
G02*
X39800000Y-124500000I-700000J0D01*
G01*
X39800000Y-124500000D02*
G75*
G02*
X41200000Y-124500000I700000J0D01*
G01*
%TO.C,R84*%
X12237258Y-27477500D02*
X11762742Y-27477500D01*
X12237258Y-28522500D02*
X11762742Y-28522500D01*
%TO.C,U12*%
D11*
X64730000Y-99450000D02*
G75*
G02*
X64570000Y-99450000I-80000J0D01*
G01*
X64570000Y-99450000D02*
G75*
G02*
X64730000Y-99450000I80000J0D01*
G01*
%TO.C,R118*%
D10*
X52512742Y-69727500D02*
X52987258Y-69727500D01*
X52512742Y-70772500D02*
X52987258Y-70772500D01*
%TO.C,R93*%
X8587742Y-13402500D02*
X9062258Y-13402500D01*
X8587742Y-14447500D02*
X9062258Y-14447500D01*
%TO.C,U14*%
X1635000Y-81455000D02*
X2835000Y-81455000D01*
X1635000Y-83575000D02*
X2835000Y-83575000D01*
D14*
X835000Y-83265000D02*
G75*
G02*
X735000Y-83265000I-50000J0D01*
G01*
X735000Y-83265000D02*
G75*
G02*
X835000Y-83265000I50000J0D01*
G01*
%TO.C,C49*%
D10*
X38538748Y-20365000D02*
X39061252Y-20365000D01*
X38538748Y-21835000D02*
X39061252Y-21835000D01*
%TO.C,R103*%
X51287742Y-55362500D02*
X51762258Y-55362500D01*
X51287742Y-56407500D02*
X51762258Y-56407500D01*
%TO.C,C5*%
X61440000Y-75290580D02*
X61440000Y-75009420D01*
X62460000Y-75290580D02*
X62460000Y-75009420D01*
%TO.C,C69*%
X39159420Y-25190000D02*
X39440580Y-25190000D01*
X39159420Y-26210000D02*
X39440580Y-26210000D01*
%TO.C,R44*%
X62762742Y-15977500D02*
X63237258Y-15977500D01*
X62762742Y-17022500D02*
X63237258Y-17022500D01*
%TO.C,C7*%
X61059420Y-69490000D02*
X61340580Y-69490000D01*
X61059420Y-70510000D02*
X61340580Y-70510000D01*
%TO.C,R116*%
X45862742Y-25177500D02*
X46337258Y-25177500D01*
X45862742Y-26222500D02*
X46337258Y-26222500D01*
%TO.C,R124*%
X50885562Y-96269708D02*
X51360078Y-96269708D01*
X50885562Y-97314708D02*
X51360078Y-97314708D01*
%TO.C,R8*%
X50973336Y-84308464D02*
X51447852Y-84308464D01*
X50973336Y-85353464D02*
X51447852Y-85353464D01*
%TO.C,C66*%
X53988748Y-33515000D02*
X54511252Y-33515000D01*
X53988748Y-34985000D02*
X54511252Y-34985000D01*
%TO.C,TP26*%
X61700000Y-67250000D02*
G75*
G02*
X60300000Y-67250000I-700000J0D01*
G01*
X60300000Y-67250000D02*
G75*
G02*
X61700000Y-67250000I700000J0D01*
G01*
%TO.C,R41*%
X13077742Y-119812500D02*
X13552258Y-119812500D01*
X13077742Y-120857500D02*
X13552258Y-120857500D01*
%TO.C,C28*%
X69034420Y-92735000D02*
X69315580Y-92735000D01*
X69034420Y-93755000D02*
X69315580Y-93755000D01*
%TO.C,R81*%
X4762742Y-72477500D02*
X5237258Y-72477500D01*
X4762742Y-73522500D02*
X5237258Y-73522500D01*
%TO.C,R131*%
X57262742Y-104727500D02*
X57737258Y-104727500D01*
X57262742Y-105772500D02*
X57737258Y-105772500D01*
%TO.C,C78*%
X49359420Y-33790000D02*
X49640580Y-33790000D01*
X49359420Y-34810000D02*
X49640580Y-34810000D01*
%TO.C,U11*%
X66690748Y-78960000D02*
X68710000Y-78960000D01*
X68710000Y-76640000D02*
X66290000Y-76640000D01*
X66400000Y-78970000D02*
X66260000Y-79160000D01*
X66540000Y-79160000D01*
X66400000Y-78970000D01*
G36*
X66540000Y-79160000D02*
G01*
X66260000Y-79160000D01*
X66400000Y-78970000D01*
X66540000Y-79160000D01*
G37*
%TO.C,R14*%
X61137742Y-13572500D02*
X61612258Y-13572500D01*
X61137742Y-14617500D02*
X61612258Y-14617500D01*
%TO.C,C45*%
X30938748Y-24065000D02*
X31461252Y-24065000D01*
X30938748Y-25535000D02*
X31461252Y-25535000D01*
%TO.C,C37*%
X58084420Y-60925000D02*
X58365580Y-60925000D01*
X58084420Y-61945000D02*
X58365580Y-61945000D01*
%TO.C,R92*%
X8587742Y-15252500D02*
X9062258Y-15252500D01*
X8587742Y-16297500D02*
X9062258Y-16297500D01*
%TO.C,U20*%
X51340000Y-63190000D02*
X51340000Y-63240000D01*
X51340000Y-66260000D02*
X51340000Y-66310000D01*
X51340000Y-66310000D02*
X53160000Y-66310000D01*
X53160000Y-63190000D02*
X51340000Y-63190000D01*
X53160000Y-63240000D02*
X53160000Y-63190000D01*
X53160000Y-66310000D02*
X53160000Y-66260000D01*
X53700000Y-63240000D02*
X53940000Y-62910000D01*
X53460000Y-62910000D01*
X53700000Y-63240000D01*
G36*
X53700000Y-63240000D02*
G01*
X53460000Y-62910000D01*
X53940000Y-62910000D01*
X53700000Y-63240000D01*
G37*
%TO.C,C16*%
X25613340Y-38401811D02*
X25894500Y-38401811D01*
X25613340Y-39421811D02*
X25894500Y-39421811D01*
%TO.C,R117*%
X45862742Y-33777500D02*
X46337258Y-33777500D01*
X45862742Y-34822500D02*
X46337258Y-34822500D01*
%TO.C,C55*%
X42459420Y-20590000D02*
X42740580Y-20590000D01*
X42459420Y-21610000D02*
X42740580Y-21610000D01*
%TO.C,R9*%
X50973336Y-90646535D02*
X51447852Y-90646535D01*
X50973336Y-91691535D02*
X51447852Y-91691535D01*
%TO.C,TP17*%
X10200000Y-60500000D02*
G75*
G02*
X8800000Y-60500000I-700000J0D01*
G01*
X8800000Y-60500000D02*
G75*
G02*
X10200000Y-60500000I700000J0D01*
G01*
%TO.C,R42*%
X16427742Y-119812500D02*
X16902258Y-119812500D01*
X16427742Y-120857500D02*
X16902258Y-120857500D01*
%TO.C,Q6*%
X1815000Y-19115000D02*
X1815000Y-19165000D01*
X1815000Y-20285000D02*
X1815000Y-21065000D01*
X1815000Y-22185000D02*
X1815000Y-22235000D01*
X1815000Y-22235000D02*
X3335000Y-22235000D01*
X3335000Y-19115000D02*
X1815000Y-19115000D01*
X3335000Y-20115000D02*
X3335000Y-19115000D01*
X3335000Y-22235000D02*
X3335000Y-21235000D01*
X1275000Y-21055000D02*
X1515000Y-20725000D01*
X1035000Y-20725000D01*
X1275000Y-21055000D01*
G36*
X1275000Y-21055000D02*
G01*
X1035000Y-20725000D01*
X1515000Y-20725000D01*
X1275000Y-21055000D01*
G37*
%TO.C,D9*%
X10640000Y-71500000D02*
X14650000Y-71500000D01*
X10640000Y-73500000D02*
X10640000Y-71500000D01*
X10640000Y-73500000D02*
X14650000Y-73500000D01*
%TO.C,R95*%
X8897936Y-8915000D02*
X10352064Y-8915000D01*
X8897936Y-10735000D02*
X10352064Y-10735000D01*
%TO.C,TP13*%
X66200000Y-93000000D02*
G75*
G02*
X64800000Y-93000000I-700000J0D01*
G01*
X64800000Y-93000000D02*
G75*
G02*
X66200000Y-93000000I700000J0D01*
G01*
%TO.C,C53*%
X34859420Y-21990000D02*
X35140580Y-21990000D01*
X34859420Y-23010000D02*
X35140580Y-23010000D01*
%TO.C,C44*%
X2183748Y-112270000D02*
X2706252Y-112270000D01*
X2183748Y-113740000D02*
X2706252Y-113740000D01*
%TO.C,U21*%
X57374432Y-40835000D02*
X58510000Y-40835000D01*
X58510000Y-38965000D02*
X57090000Y-38965000D01*
X57080000Y-40840000D02*
X56940000Y-41030000D01*
X57220000Y-41030000D01*
X57080000Y-40840000D01*
G36*
X57220000Y-41030000D02*
G01*
X56940000Y-41030000D01*
X57080000Y-40840000D01*
X57220000Y-41030000D01*
G37*
%TO.C,L1*%
X64600000Y-94600000D02*
X65000000Y-94600000D01*
X64600000Y-98600000D02*
X64600000Y-94600000D01*
X65000000Y-98600000D02*
X64600000Y-98600000D01*
X68200000Y-98600000D02*
X68600000Y-98600000D01*
X68600000Y-94600000D02*
X68200000Y-94600000D01*
X68600000Y-98600000D02*
X68600000Y-94600000D01*
%TO.C,C26*%
X61038748Y-104590000D02*
X62461252Y-104590000D01*
X61038748Y-106410000D02*
X62461252Y-106410000D01*
%TO.C,C51*%
X30938748Y-21765000D02*
X31461252Y-21765000D01*
X30938748Y-23235000D02*
X31461252Y-23235000D01*
%TO.C,J4*%
X4700000Y-31550000D02*
X8200000Y-31550000D01*
X4700000Y-34000000D02*
X5200000Y-34000000D01*
X4700000Y-34100000D02*
X5200000Y-34100000D01*
X4700000Y-36450000D02*
X4700000Y-31550000D01*
X5200000Y-33900000D02*
X4700000Y-33900000D01*
X5200000Y-34100000D02*
X5200000Y-33900000D01*
X6200000Y-30940000D02*
X6200000Y-31550000D01*
X6200000Y-37060000D02*
X6200000Y-36450000D01*
X7500000Y-30940000D02*
X7500000Y-31550000D01*
X7500000Y-37060000D02*
X7500000Y-36450000D01*
X8200000Y-31550000D02*
X8200000Y-33500000D01*
X8200000Y-33500000D02*
X8810000Y-33500000D01*
X8200000Y-34500000D02*
X8200000Y-36450000D01*
X8200000Y-36450000D02*
X4700000Y-36450000D01*
X8810000Y-34500000D02*
X8200000Y-34500000D01*
X8810000Y-35300000D02*
X9010000Y-35300000D01*
X8910000Y-35300000D02*
X8910000Y-35600000D01*
X9010000Y-35300000D02*
X9010000Y-35600000D01*
X9010000Y-35600000D02*
X8810000Y-35600000D01*
X9110000Y-36110000D02*
X9110000Y-37360000D01*
X9110000Y-37360000D02*
X7860000Y-37360000D01*
X4090000Y-30940000D02*
X8810000Y-30940000D01*
X8810000Y-37060000D01*
X4090000Y-37060000D01*
X4090000Y-30940000D01*
%TO.C,R46*%
X57987742Y-59062500D02*
X58462258Y-59062500D01*
X57987742Y-60107500D02*
X58462258Y-60107500D01*
%TO.C,R101*%
X24869931Y-56736394D02*
X25344447Y-56736394D01*
X24869931Y-57781394D02*
X25344447Y-57781394D01*
%TO.C,TP37*%
X40000000Y-23300000D02*
G75*
G02*
X38600000Y-23300000I-700000J0D01*
G01*
X38600000Y-23300000D02*
G75*
G02*
X40000000Y-23300000I700000J0D01*
G01*
%TO.C,C39*%
X61434420Y-60925000D02*
X61715580Y-60925000D01*
X61434420Y-61945000D02*
X61715580Y-61945000D01*
%TO.C,C75*%
X49359420Y-27290000D02*
X49640580Y-27290000D01*
X49359420Y-28310000D02*
X49640580Y-28310000D01*
%TO.C,C23*%
X65109420Y-79740000D02*
X65390580Y-79740000D01*
X65109420Y-80760000D02*
X65390580Y-80760000D01*
%TO.C,C58*%
X11859420Y-73990000D02*
X12140580Y-73990000D01*
X11859420Y-75010000D02*
X12140580Y-75010000D01*
%TO.C,U8*%
D13*
X18555000Y-127000000D02*
G75*
G02*
X18245000Y-127000000I-155000J0D01*
G01*
X18245000Y-127000000D02*
G75*
G02*
X18555000Y-127000000I155000J0D01*
G01*
%TO.C,R77*%
D10*
X12262742Y-62977500D02*
X12737258Y-62977500D01*
X12262742Y-64022500D02*
X12737258Y-64022500D01*
%TO.C,C59*%
X7490000Y-41640580D02*
X7490000Y-41359420D01*
X8510000Y-41640580D02*
X8510000Y-41359420D01*
%TO.C,R43*%
X19777742Y-119812500D02*
X20252258Y-119812500D01*
X19777742Y-120857500D02*
X20252258Y-120857500D01*
%TO.C,J7*%
X51790000Y-28760000D02*
X51790000Y-32110000D01*
X51790000Y-32110000D02*
X52840000Y-32110000D01*
X52840000Y-32110000D02*
X52840000Y-32300000D01*
X52860000Y-27590000D02*
X53210000Y-27590000D01*
X53150000Y-33153553D02*
X53400000Y-32800000D01*
X53210000Y-27590000D02*
X53610000Y-28090000D01*
X53400000Y-32800000D02*
X53650000Y-33153553D01*
X53610000Y-28090000D02*
X54390000Y-28090000D01*
X53650000Y-33153553D02*
X53150000Y-33153553D01*
X54390000Y-28090000D02*
X54790000Y-27590000D01*
X54790000Y-27590000D02*
X55140000Y-27590000D01*
X56210000Y-28760000D02*
X56210000Y-32110000D01*
X56210000Y-32110000D02*
X55160000Y-32110000D01*
%TO.C,U13*%
X57874432Y-23635000D02*
X59010000Y-23635000D01*
X59010000Y-21765000D02*
X57590000Y-21765000D01*
X57580000Y-23640000D02*
X57440000Y-23830000D01*
X57720000Y-23830000D01*
X57580000Y-23640000D01*
G36*
X57720000Y-23830000D02*
G01*
X57440000Y-23830000D01*
X57580000Y-23640000D01*
X57720000Y-23830000D01*
G37*
%TO.C,C46*%
X31059420Y-34690000D02*
X31340580Y-34690000D01*
X31059420Y-35710000D02*
X31340580Y-35710000D01*
%TO.C,R4*%
X51012742Y-82477500D02*
X51487258Y-82477500D01*
X51012742Y-83522500D02*
X51487258Y-83522500D01*
%TO.C,U16*%
X57640000Y-53140000D02*
X57640000Y-53265000D01*
X57640000Y-56235000D02*
X57640000Y-56360000D01*
X57640000Y-56360000D02*
X60860000Y-56360000D01*
X60860000Y-53140000D02*
X57640000Y-53140000D01*
X60860000Y-53265000D02*
X60860000Y-53140000D01*
X60860000Y-56360000D02*
X60860000Y-56235000D01*
X57090000Y-56240000D02*
X56850000Y-56570000D01*
X57330000Y-56570000D01*
X57090000Y-56240000D01*
G36*
X57330000Y-56570000D02*
G01*
X56850000Y-56570000D01*
X57090000Y-56240000D01*
X57330000Y-56570000D01*
G37*
%TO.C,C64*%
X9483748Y-119350000D02*
X10006252Y-119350000D01*
X9483748Y-120820000D02*
X10006252Y-120820000D01*
%TO.C,C68*%
X1984420Y-86225000D02*
X2265580Y-86225000D01*
X1984420Y-87245000D02*
X2265580Y-87245000D01*
%TO.C,R129*%
X57987742Y-57212500D02*
X58462258Y-57212500D01*
X57987742Y-58257500D02*
X58462258Y-58257500D01*
%TO.C,C19*%
X42492164Y-38540000D02*
X42707836Y-38540000D01*
X42492164Y-39260000D02*
X42707836Y-39260000D01*
%TO.C,L6*%
X39137221Y-31690000D02*
X39462779Y-31690000D01*
X39137221Y-32710000D02*
X39462779Y-32710000D01*
%TO.C,C73*%
X42559420Y-25190000D02*
X42840580Y-25190000D01*
X42559420Y-26210000D02*
X42840580Y-26210000D01*
%TO.C,R39*%
X66262742Y-71227500D02*
X66737258Y-71227500D01*
X66262742Y-72272500D02*
X66737258Y-72272500D01*
%TO.C,R63*%
X54637742Y-57212500D02*
X55112258Y-57212500D01*
X54637742Y-58257500D02*
X55112258Y-58257500D01*
%TO.C,R114*%
X45862742Y-27277500D02*
X46337258Y-27277500D01*
X45862742Y-28322500D02*
X46337258Y-28322500D01*
%TO.C,C33*%
X29443748Y-122040000D02*
X29966252Y-122040000D01*
X29443748Y-123510000D02*
X29966252Y-123510000D01*
%TO.C,U4*%
X56120000Y-68280000D02*
X56120000Y-68480000D01*
X56120000Y-68280000D02*
X56320000Y-68280000D01*
%TO.C,C25*%
X62859420Y-64490000D02*
X63140580Y-64490000D01*
X62859420Y-65510000D02*
X63140580Y-65510000D01*
%TO.C,C43*%
X2183748Y-109920000D02*
X2706252Y-109920000D01*
X2183748Y-111390000D02*
X2706252Y-111390000D01*
%TO.C,R87*%
X8587742Y-24502500D02*
X9062258Y-24502500D01*
X8587742Y-25547500D02*
X9062258Y-25547500D01*
%TO.C,R38*%
X9287742Y-85462500D02*
X9762258Y-85462500D01*
X9287742Y-86507500D02*
X9762258Y-86507500D01*
%TO.C,R49*%
X61337742Y-59062500D02*
X61812258Y-59062500D01*
X61337742Y-60107500D02*
X61812258Y-60107500D01*
%TO.C,C63*%
X51384420Y-59075000D02*
X51665580Y-59075000D01*
X51384420Y-60095000D02*
X51665580Y-60095000D01*
%TO.C,C79*%
X28459420Y-32390000D02*
X28740580Y-32390000D01*
X28459420Y-33410000D02*
X28740580Y-33410000D01*
%TO.C,TP19*%
X4700000Y-77500000D02*
G75*
G02*
X3300000Y-77500000I-700000J0D01*
G01*
X3300000Y-77500000D02*
G75*
G02*
X4700000Y-77500000I700000J0D01*
G01*
%TO.C,TP6*%
X70950000Y-95500000D02*
G75*
G02*
X69550000Y-95500000I-700000J0D01*
G01*
X69550000Y-95500000D02*
G75*
G02*
X70950000Y-95500000I700000J0D01*
G01*
%TO.C,C70*%
X39159420Y-33790000D02*
X39440580Y-33790000D01*
X39159420Y-34810000D02*
X39440580Y-34810000D01*
%TO.C,R128*%
X48056514Y-104007469D02*
X48531030Y-104007469D01*
X48056514Y-105052469D02*
X48531030Y-105052469D01*
%TO.C,R7*%
X51012742Y-80477500D02*
X51487258Y-80477500D01*
X51012742Y-81522500D02*
X51487258Y-81522500D01*
%TO.C,U18*%
X6390000Y-64890000D02*
X6390000Y-65065000D01*
X6390000Y-67935000D02*
X6390000Y-68110000D01*
X6390000Y-68110000D02*
X9610000Y-68110000D01*
X9610000Y-64890000D02*
X6390000Y-64890000D01*
X9610000Y-65065000D02*
X9610000Y-64890000D01*
X9610000Y-68110000D02*
X9610000Y-67935000D01*
X10160000Y-65060000D02*
X10400000Y-64730000D01*
X9920000Y-64730000D01*
X10160000Y-65060000D01*
G36*
X10160000Y-65060000D02*
G01*
X9920000Y-64730000D01*
X10400000Y-64730000D01*
X10160000Y-65060000D01*
G37*
%TO.C,TP15*%
X2500000Y-79900000D02*
G75*
G02*
X1100000Y-79900000I-700000J0D01*
G01*
X1100000Y-79900000D02*
G75*
G02*
X2500000Y-79900000I700000J0D01*
G01*
%TO.C,TP23*%
X6700000Y-25250000D02*
G75*
G02*
X5300000Y-25250000I-700000J0D01*
G01*
X5300000Y-25250000D02*
G75*
G02*
X6700000Y-25250000I700000J0D01*
G01*
%TO.C,R97*%
X51287742Y-60912500D02*
X51762258Y-60912500D01*
X51287742Y-61957500D02*
X51762258Y-61957500D01*
%TO.C,R40*%
X60262742Y-72227500D02*
X60737258Y-72227500D01*
X60262742Y-73272500D02*
X60737258Y-73272500D01*
%TO.C,R98*%
X54637742Y-60912500D02*
X55112258Y-60912500D01*
X54637742Y-61957500D02*
X55112258Y-61957500D01*
%TO.C,C4*%
X50982240Y-78697791D02*
X51263400Y-78697791D01*
X50982240Y-79717791D02*
X51263400Y-79717791D01*
%TO.C,Y1*%
X30660000Y-28290000D02*
X30660000Y-31710000D01*
X30660000Y-31710000D02*
X26540000Y-31710000D01*
%TO.C,R89*%
X8587742Y-20802500D02*
X9062258Y-20802500D01*
X8587742Y-21847500D02*
X9062258Y-21847500D01*
%TO.C,R50*%
X49262742Y-57212500D02*
X49737258Y-57212500D01*
X49262742Y-58257500D02*
X49737258Y-58257500D01*
%TO.C,R17*%
X54637742Y-59062500D02*
X55112258Y-59062500D01*
X54637742Y-60107500D02*
X55112258Y-60107500D01*
%TO.C,R79*%
X15762742Y-62977500D02*
X16237258Y-62977500D01*
X15762742Y-64022500D02*
X16237258Y-64022500D01*
%TO.C,TP16*%
X12450000Y-48250000D02*
G75*
G02*
X11050000Y-48250000I-700000J0D01*
G01*
X11050000Y-48250000D02*
G75*
G02*
X12450000Y-48250000I700000J0D01*
G01*
%TO.C,C30*%
X14623748Y-121695000D02*
X16046252Y-121695000D01*
X14623748Y-123515000D02*
X16046252Y-123515000D01*
%TO.C,R74*%
X40262742Y-132227500D02*
X40737258Y-132227500D01*
X40262742Y-133272500D02*
X40737258Y-133272500D01*
%TO.C,TP18*%
X9200000Y-44500000D02*
G75*
G02*
X7800000Y-44500000I-700000J0D01*
G01*
X7800000Y-44500000D02*
G75*
G02*
X9200000Y-44500000I700000J0D01*
G01*
%TO.C,U17*%
X1465000Y-121490000D02*
X1465000Y-121515000D01*
X1465000Y-123685000D02*
X1465000Y-123710000D01*
X1465000Y-123710000D02*
X2935000Y-123710000D01*
X2935000Y-121490000D02*
X1465000Y-121490000D01*
X2935000Y-121515000D02*
X2935000Y-121490000D01*
X2935000Y-122815000D02*
X2935000Y-122385000D01*
X2935000Y-123710000D02*
X2935000Y-123685000D01*
X1020000Y-123690000D02*
X880000Y-123880000D01*
X1160000Y-123880000D01*
X1020000Y-123690000D01*
G36*
X1160000Y-123880000D02*
G01*
X880000Y-123880000D01*
X1020000Y-123690000D01*
X1160000Y-123880000D01*
G37*
%TO.C,R69*%
X1987742Y-108032500D02*
X2462258Y-108032500D01*
X1987742Y-109077500D02*
X2462258Y-109077500D01*
%TO.C,Q7*%
X1815000Y-15325000D02*
X1815000Y-15375000D01*
X1815000Y-16495000D02*
X1815000Y-17275000D01*
X1815000Y-18395000D02*
X1815000Y-18445000D01*
X1815000Y-18445000D02*
X3335000Y-18445000D01*
X3335000Y-15325000D02*
X1815000Y-15325000D01*
X3335000Y-16325000D02*
X3335000Y-15325000D01*
X3335000Y-18445000D02*
X3335000Y-17445000D01*
X1275000Y-17265000D02*
X1515000Y-16935000D01*
X1035000Y-16935000D01*
X1275000Y-17265000D01*
G36*
X1275000Y-17265000D02*
G01*
X1035000Y-16935000D01*
X1515000Y-16935000D01*
X1275000Y-17265000D01*
G37*
%TO.C,TP22*%
X13200000Y-14500000D02*
G75*
G02*
X11800000Y-14500000I-700000J0D01*
G01*
X11800000Y-14500000D02*
G75*
G02*
X13200000Y-14500000I700000J0D01*
G01*
%TO.C,TP30*%
X64200000Y-51500000D02*
G75*
G02*
X62800000Y-51500000I-700000J0D01*
G01*
X62800000Y-51500000D02*
G75*
G02*
X64200000Y-51500000I700000J0D01*
G01*
%TO.C,R82*%
X6977500Y-73237258D02*
X6977500Y-72762742D01*
X8022500Y-73237258D02*
X8022500Y-72762742D01*
%TO.C,C60*%
X5990000Y-28640580D02*
X5990000Y-28359420D01*
X7010000Y-28640580D02*
X7010000Y-28359420D01*
%TO.C,TP7*%
X63450000Y-98500000D02*
G75*
G02*
X62050000Y-98500000I-700000J0D01*
G01*
X62050000Y-98500000D02*
G75*
G02*
X63450000Y-98500000I700000J0D01*
G01*
%TO.C,C22*%
X10649214Y-57708922D02*
X10930374Y-57708922D01*
X10649214Y-58728922D02*
X10930374Y-58728922D01*
%TO.C,U3*%
X54690000Y-82035000D02*
X59310000Y-82035000D01*
X59310000Y-73965000D02*
X54690000Y-73965000D01*
X53140000Y-81580000D02*
X52810000Y-81340000D01*
X52810000Y-81820000D01*
X53140000Y-81580000D01*
G36*
X53140000Y-81580000D02*
G01*
X52810000Y-81820000D01*
X52810000Y-81340000D01*
X53140000Y-81580000D01*
G37*
%TD*%
M02*
