<?xml version="1.0" standalone="no"?>
 <!DOCTYPE svg PUBLIC "-//W3C//DTD SVG 1.1//EN" 
 "http://www.w3.org/Graphics/SVG/1.1/DTD/svg11.dtd"> 
<svg
  xmlns:svg="http://www.w3.org/2000/svg"
  xmlns="http://www.w3.org/2000/svg"
  xmlns:xlink="http://www.w3.org/1999/xlink"
  xmlns:inkscape="http://www.inkscape.org/namespaces/inkscape"
  version="1.1"
  width="73.9902mm" height="151.9936mm" viewBox="0.0000 0.0000 73.9902 151.9936">
<title>SVG Image created as C_bottom_floorplan.svg date 2026-08-10T19:01:39 </title>
  <desc>Image generated by PCBNEW </desc>
<g style="fill:#000000; fill-opacity:1.0000;stroke:#000000; stroke-opacity:1.0000;
stroke-linecap:round; stroke-linejoin:round;"
 transform="translate(0 0) scale(1 1)">
<path style="fill:#000000; fill-opacity:1.0000; stroke:none;fill-rule:evenodd;"
d="M 70.4302,13.4000
70.4302,11.6000
68.6302,11.6000
68.6302,13.4000
Z" /> 
</g>
<g style="fill:#000000; fill-opacity:1.0000; stroke:none;">
<circle cx="66.9902" cy="12.5000" r="0.9000" /> 
<circle cx="64.4502" cy="12.5000" r="0.9000" /> 
</g>
<g style="fill:none; 
stroke:#000000; stroke-width:1.0000; stroke-opacity:1; 
stroke-linecap:round; stroke-linejoin:round;">
<path d="M43.3102 144.1650
L43.3102 145.2650
" />
<path d="M43.3102 148.4950
L43.3102 149.2950
" />
<path d="M34.6702 144.1650
L34.6702 145.2650
" />
<path d="M34.6702 148.4950
L34.6702 149.2950
" />
<path style="fill:#000000; fill-opacity:1.0000; stroke:none;fill-rule:evenodd;"
d="M 68.3902,4.9000
68.3902,3.1000
66.5902,3.1000
66.5902,4.9000
Z" /> 
</g>
<g style="fill:#000000; fill-opacity:1.0000; stroke:none;">
<circle cx="64.9502" cy="4.0000" r="0.9000" /> 
<path style="fill:#000000; fill-opacity:1.0000; stroke:none;fill-rule:evenodd;"
d="M 3.8902,118.4500
3.8902,117.5500
2.0902,117.5500
2.0902,118.4500
Z" /> 
<path style="fill:#000000; fill-opacity:1.0000; stroke:none;fill-rule:evenodd;"
d="M 3.8902,119.7200
3.8902,118.8200
2.0902,118.8200
2.0902,119.7200
Z" /> 
<path style="fill:#000000; fill-opacity:1.0000; stroke:none;fill-rule:evenodd;"
d="M 3.8902,120.9900
3.8902,120.0900
2.0902,120.0900
2.0902,120.9900
Z" /> 
<path style="fill:#000000; fill-opacity:1.0000; stroke:none;fill-rule:evenodd;"
d="M 3.8902,126.5600
3.8902,125.6600
2.0902,125.6600
2.0902,126.5600
Z" /> 
<path style="fill:#000000; fill-opacity:1.0000; stroke:none;fill-rule:evenodd;"
d="M 3.8902,127.8300
3.8902,126.9300
2.0902,126.9300
2.0902,127.8300
Z" /> 
<path style="fill:#000000; fill-opacity:1.0000; stroke:none;fill-rule:evenodd;"
d="M 3.8902,129.1000
3.8902,128.2000
2.0902,128.2000
2.0902,129.1000
Z" /> 
<path style="fill:#000000; fill-opacity:1.0000; stroke:none;fill-rule:evenodd;"
d="M 3.8902,130.3700
3.8902,129.4700
2.0902,129.4700
2.0902,130.3700
Z" /> 
<path style="fill:#000000; fill-opacity:1.0000; stroke:none;fill-rule:evenodd;"
d="M 3.8902,131.6400
3.8902,130.7400
2.0902,130.7400
2.0902,131.6400
Z" /> 
<path style="fill:#000000; fill-opacity:1.0000; stroke:none;fill-rule:evenodd;"
d="M 3.8902,132.9100
3.8902,132.0100
2.0902,132.0100
2.0902,132.9100
Z" /> 
<path style="fill:#000000; fill-opacity:1.0000; stroke:none;fill-rule:evenodd;"
d="M 3.8902,134.1800
3.8902,133.2800
2.0902,133.2800
2.0902,134.1800
Z" /> 
<path style="fill:#000000; fill-opacity:1.0000; stroke:none;fill-rule:evenodd;"
d="M 3.8902,135.4500
3.8902,134.5500
2.0902,134.5500
2.0902,135.4500
Z" /> 
<path style="fill:#000000; fill-opacity:1.0000; stroke:none;fill-rule:evenodd;"
d="M 17.8902,135.4500
17.8902,134.5500
16.0902,134.5500
16.0902,135.4500
Z" /> 
<path style="fill:#000000; fill-opacity:1.0000; stroke:none;fill-rule:evenodd;"
d="M 17.8902,134.1800
17.8902,133.2800
16.0902,133.2800
16.0902,134.1800
Z" /> 
<path style="fill:#000000; fill-opacity:1.0000; stroke:none;fill-rule:evenodd;"
d="M 17.8902,132.9100
17.8902,132.0100
16.0902,132.0100
16.0902,132.9100
Z" /> 
<path style="fill:#000000; fill-opacity:1.0000; stroke:none;fill-rule:evenodd;"
d="M 17.8902,131.6400
17.8902,130.7400
16.0902,130.7400
16.0902,131.6400
Z" /> 
<path style="fill:#000000; fill-opacity:1.0000; stroke:none;fill-rule:evenodd;"
d="M 17.8902,130.3700
17.8902,129.4700
16.0902,129.4700
16.0902,130.3700
Z" /> 
<path style="fill:#000000; fill-opacity:1.0000; stroke:none;fill-rule:evenodd;"
d="M 17.8902,129.1000
17.8902,128.2000
16.0902,128.2000
16.0902,129.1000
Z" /> 
<path style="fill:#000000; fill-opacity:1.0000; stroke:none;fill-rule:evenodd;"
d="M 17.8902,127.8300
17.8902,126.9300
16.0902,126.9300
16.0902,127.8300
Z" /> 
<path style="fill:#000000; fill-opacity:1.0000; stroke:none;fill-rule:evenodd;"
d="M 17.8902,126.5600
17.8902,125.6600
16.0902,125.6600
16.0902,126.5600
Z" /> 
<path style="fill:#000000; fill-opacity:1.0000; stroke:none;fill-rule:evenodd;"
d="M 17.8902,120.9900
17.8902,120.0900
16.0902,120.0900
16.0902,120.9900
Z" /> 
<path style="fill:#000000; fill-opacity:1.0000; stroke:none;fill-rule:evenodd;"
d="M 17.8902,119.7200
17.8902,118.8200
16.0902,118.8200
16.0902,119.7200
Z" /> 
<path style="fill:#000000; fill-opacity:1.0000; stroke:none;fill-rule:evenodd;"
d="M 17.8902,118.4500
17.8902,117.5500
16.0902,117.5500
16.0902,118.4500
Z" /> 
<path style="fill:#000000; fill-opacity:1.0000; stroke:none;fill-rule:evenodd;"
d="M 62.1962,148.7880
62.1962,147.2880
61.3962,147.2880
61.3962,148.7880
Z" /> 
<path style="fill:#000000; fill-opacity:1.0000; stroke:none;fill-rule:evenodd;"
d="M 61.0962,148.7880
61.0962,147.2880
60.2962,147.2880
60.2962,148.7880
Z" /> 
<path style="fill:#000000; fill-opacity:1.0000; stroke:none;fill-rule:evenodd;"
d="M 59.9962,148.7880
59.9962,147.2880
59.1962,147.2880
59.1962,148.7880
Z" /> 
<path style="fill:#000000; fill-opacity:1.0000; stroke:none;fill-rule:evenodd;"
d="M 58.8962,148.7880
58.8962,147.2880
58.0962,147.2880
58.0962,148.7880
Z" /> 
<path style="fill:#000000; fill-opacity:1.0000; stroke:none;fill-rule:evenodd;"
d="M 57.7962,148.7880
57.7962,147.2880
56.9962,147.2880
56.9962,148.7880
Z" /> 
<path style="fill:#000000; fill-opacity:1.0000; stroke:none;fill-rule:evenodd;"
d="M 56.6962,148.7880
56.6962,147.2880
55.8962,147.2880
55.8962,148.7880
Z" /> 
<path style="fill:#000000; fill-opacity:1.0000; stroke:none;fill-rule:evenodd;"
d="M 55.5962,148.7880
55.5962,147.2880
54.7962,147.2880
54.7962,148.7880
Z" /> 
<path style="fill:#000000; fill-opacity:1.0000; stroke:none;fill-rule:evenodd;"
d="M 54.4962,148.7880
54.4962,147.2880
53.6962,147.2880
53.6962,148.7880
Z" /> 
<path style="fill:#000000; fill-opacity:1.0000; stroke:none;fill-rule:evenodd;"
d="M 66.2462,151.7870
66.2462,150.0870
64.8462,150.0870
64.8462,151.7870
Z" /> 
<path style="fill:#000000; fill-opacity:1.0000; stroke:none;fill-rule:evenodd;"
d="M 62.7462,137.0380
62.7462,135.8880
61.2462,135.8880
61.2462,137.0380
Z" /> 
<path style="fill:#000000; fill-opacity:1.0000; stroke:none;fill-rule:evenodd;"
d="M 53.8462,137.0380
53.8462,135.8880
52.3462,135.8880
52.3462,137.0380
Z" /> 
<path style="fill:#000000; fill-opacity:1.0000; stroke:none;fill-rule:evenodd;"
d="M 53.3462,151.7870
53.3462,150.0870
51.9462,150.0870
51.9462,151.7870
Z" /> 
<path style="fill:#000000; fill-opacity:1.0000; stroke:none;fill-rule:evenodd;"
d="M 60.4462,137.0380
60.4462,135.8880
58.9462,135.8880
58.9462,137.0380
Z" /> 
<path style="fill:#000000; fill-opacity:1.0000; stroke:none;fill-rule:evenodd;"
d="M 53.0842,141.9380
53.0842,140.4380
51.7842,140.4380
51.7842,141.9380
Z" /> 
<path style="fill:#000000; fill-opacity:1.0000; stroke:none;fill-rule:evenodd;"
d="M 66.9502,16.5000
66.0502,16.5000
66.0502,18.0000
66.9502,18.0000
Z" /> 
<path style="fill:#000000; fill-opacity:1.0000; stroke:none;fill-rule:evenodd;"
d="M 65.6802,16.5000
64.7802,16.5000
64.7802,18.0000
65.6802,18.0000
Z" /> 
<path style="fill:#000000; fill-opacity:1.0000; stroke:none;fill-rule:evenodd;"
d="M 64.4102,16.5000
63.5102,16.5000
63.5102,18.0000
64.4102,18.0000
Z" /> 
<path style="fill:#000000; fill-opacity:1.0000; stroke:none;fill-rule:evenodd;"
d="M 63.1402,16.5000
62.2402,16.5000
62.2402,18.0000
63.1402,18.0000
Z" /> 
<path style="fill:#000000; fill-opacity:1.0000; stroke:none;fill-rule:evenodd;"
d="M 61.8702,16.5000
60.9702,16.5000
60.9702,18.0000
61.8702,18.0000
Z" /> 
<path style="fill:#000000; fill-opacity:1.0000; stroke:none;fill-rule:evenodd;"
d="M 60.6002,16.5000
59.7002,16.5000
59.7002,18.0000
60.6002,18.0000
Z" /> 
<path style="fill:#000000; fill-opacity:1.0000; stroke:none;fill-rule:evenodd;"
d="M 59.3302,16.5000
58.4302,16.5000
58.4302,18.0000
59.3302,18.0000
Z" /> 
<path style="fill:#000000; fill-opacity:1.0000; stroke:none;fill-rule:evenodd;"
d="M 58.0602,16.5000
57.1602,16.5000
57.1602,18.0000
58.0602,18.0000
Z" /> 
<path style="fill:#000000; fill-opacity:1.0000; stroke:none;fill-rule:evenodd;"
d="M 56.7902,16.5000
55.8902,16.5000
55.8902,18.0000
56.7902,18.0000
Z" /> 
<path style="fill:#000000; fill-opacity:1.0000; stroke:none;fill-rule:evenodd;"
d="M 55.5202,16.5000
54.6202,16.5000
54.6202,18.0000
55.5202,18.0000
Z" /> 
<path style="fill:#000000; fill-opacity:1.0000; stroke:none;fill-rule:evenodd;"
d="M 54.2502,16.5000
53.3502,16.5000
53.3502,18.0000
54.2502,18.0000
Z" /> 
<path style="fill:#000000; fill-opacity:1.0000; stroke:none;fill-rule:evenodd;"
d="M 52.9802,16.5000
52.0802,16.5000
52.0802,18.0000
52.9802,18.0000
Z" /> 
<path style="fill:#000000; fill-opacity:1.0000; stroke:none;fill-rule:evenodd;"
d="M 51.7102,16.5000
50.8102,16.5000
50.8102,18.0000
51.7102,18.0000
Z" /> 
<path style="fill:#000000; fill-opacity:1.0000; stroke:none;fill-rule:evenodd;"
d="M 49.5402,18.0000
50.4402,18.0000
50.4402,16.5000
49.5402,16.5000
Z" /> 
<path style="fill:#000000; fill-opacity:1.0000; stroke:none;fill-rule:evenodd;"
d="M 49.4902,19.4650
49.4902,18.5650
47.9902,18.5650
47.9902,19.4650
Z" /> 
<path style="fill:#000000; fill-opacity:1.0000; stroke:none;fill-rule:evenodd;"
d="M 49.4902,20.7350
49.4902,19.8350
47.9902,19.8350
47.9902,20.7350
Z" /> 
<path style="fill:#000000; fill-opacity:1.0000; stroke:none;fill-rule:evenodd;"
d="M 49.4902,22.0050
49.4902,21.1050
47.9902,21.1050
47.9902,22.0050
Z" /> 
<path style="fill:#000000; fill-opacity:1.0000; stroke:none;fill-rule:evenodd;"
d="M 49.4902,23.2750
49.4902,22.3750
47.9902,22.3750
47.9902,23.2750
Z" /> 
<path style="fill:#000000; fill-opacity:1.0000; stroke:none;fill-rule:evenodd;"
d="M 49.4902,24.5450
49.4902,23.6450
47.9902,23.6450
47.9902,24.5450
Z" /> 
<path style="fill:#000000; fill-opacity:1.0000; stroke:none;fill-rule:evenodd;"
d="M 49.4902,25.8150
49.4902,24.9150
47.9902,24.9150
47.9902,25.8150
Z" /> 
<path style="fill:#000000; fill-opacity:1.0000; stroke:none;fill-rule:evenodd;"
d="M 49.4902,27.0850
49.4902,26.1850
47.9902,26.1850
47.9902,27.0850
Z" /> 
<path style="fill:#000000; fill-opacity:1.0000; stroke:none;fill-rule:evenodd;"
d="M 49.4902,28.3550
49.4902,27.4550
47.9902,27.4550
47.9902,28.3550
Z" /> 
<path style="fill:#000000; fill-opacity:1.0000; stroke:none;fill-rule:evenodd;"
d="M 49.4902,29.6250
49.4902,28.7250
47.9902,28.7250
47.9902,29.6250
Z" /> 
<path style="fill:#000000; fill-opacity:1.0000; stroke:none;fill-rule:evenodd;"
d="M 49.4902,30.8950
49.4902,29.9950
47.9902,29.9950
47.9902,30.8950
Z" /> 
<path style="fill:#000000; fill-opacity:1.0000; stroke:none;fill-rule:evenodd;"
d="M 49.4902,32.1650
49.4902,31.2650
47.9902,31.2650
47.9902,32.1650
Z" /> 
<path style="fill:#000000; fill-opacity:1.0000; stroke:none;fill-rule:evenodd;"
d="M 49.4902,33.4350
49.4902,32.5350
47.9902,32.5350
47.9902,33.4350
Z" /> 
<path style="fill:#000000; fill-opacity:1.0000; stroke:none;fill-rule:evenodd;"
d="M 50.4402,34.0000
49.5402,34.0000
49.5402,35.5000
50.4402,35.5000
Z" /> 
<path style="fill:#000000; fill-opacity:1.0000; stroke:none;fill-rule:evenodd;"
d="M 51.7102,34.0000
50.8102,34.0000
50.8102,35.5000
51.7102,35.5000
Z" /> 
<path style="fill:#000000; fill-opacity:1.0000; stroke:none;fill-rule:evenodd;"
d="M 52.9802,34.0000
52.0802,34.0000
52.0802,35.5000
52.9802,35.5000
Z" /> 
<path style="fill:#000000; fill-opacity:1.0000; stroke:none;fill-rule:evenodd;"
d="M 54.2502,34.0000
53.3502,34.0000
53.3502,35.5000
54.2502,35.5000
Z" /> 
<path style="fill:#000000; fill-opacity:1.0000; stroke:none;fill-rule:evenodd;"
d="M 55.5202,34.0000
54.6202,34.0000
54.6202,35.5000
55.5202,35.5000
Z" /> 
<path style="fill:#000000; fill-opacity:1.0000; stroke:none;fill-rule:evenodd;"
d="M 56.7902,34.0000
55.8902,34.0000
55.8902,35.5000
56.7902,35.5000
Z" /> 
<path style="fill:#000000; fill-opacity:1.0000; stroke:none;fill-rule:evenodd;"
d="M 58.0602,34.0000
57.1602,34.0000
57.1602,35.5000
58.0602,35.5000
Z" /> 
<path style="fill:#000000; fill-opacity:1.0000; stroke:none;fill-rule:evenodd;"
d="M 59.3302,34.0000
58.4302,34.0000
58.4302,35.5000
59.3302,35.5000
Z" /> 
<path style="fill:#000000; fill-opacity:1.0000; stroke:none;fill-rule:evenodd;"
d="M 60.6002,34.0000
59.7002,34.0000
59.7002,35.5000
60.6002,35.5000
Z" /> 
<path style="fill:#000000; fill-opacity:1.0000; stroke:none;fill-rule:evenodd;"
d="M 61.8702,34.0000
60.9702,34.0000
60.9702,35.5000
61.8702,35.5000
Z" /> 
<path style="fill:#000000; fill-opacity:1.0000; stroke:none;fill-rule:evenodd;"
d="M 63.1402,34.0000
62.2402,34.0000
62.2402,35.5000
63.1402,35.5000
Z" /> 
<path style="fill:#000000; fill-opacity:1.0000; stroke:none;fill-rule:evenodd;"
d="M 64.4102,34.0000
63.5102,34.0000
63.5102,35.5000
64.4102,35.5000
Z" /> 
<path style="fill:#000000; fill-opacity:1.0000; stroke:none;fill-rule:evenodd;"
d="M 65.6802,34.0000
64.7802,34.0000
64.7802,35.5000
65.6802,35.5000
Z" /> 
<path style="fill:#000000; fill-opacity:1.0000; stroke:none;fill-rule:evenodd;"
d="M 66.9502,34.0000
66.0502,34.0000
66.0502,35.5000
66.9502,35.5000
Z" /> 
<circle cx="58.0802" cy="23.1000" r="0.3000" /> 
<circle cx="59.4802" cy="23.1000" r="0.3000" /> 
<circle cx="57.3802" cy="23.8000" r="0.3000" /> 
<circle cx="58.7802" cy="23.8000" r="0.3000" /> 
<circle cx="60.1802" cy="23.8000" r="0.3000" /> 
<circle cx="58.0802" cy="24.5000" r="0.3000" /> 
<path style="fill:#000000; fill-opacity:1.0000; stroke:none;fill-rule:evenodd;"
d="M 60.7302,26.4500
60.7302,22.5500
56.8302,22.5500
56.8302,26.4500
Z" /> 
<circle cx="59.4802" cy="24.5000" r="0.3000" /> 
<circle cx="57.3802" cy="25.2000" r="0.3000" /> 
<circle cx="58.7802" cy="25.2000" r="0.3000" /> 
<circle cx="60.1802" cy="25.2000" r="0.3000" /> 
<circle cx="58.0802" cy="25.9000" r="0.3000" /> 
<circle cx="59.4802" cy="25.9000" r="0.3000" /> 
<path style="fill:#000000; fill-opacity:1.0000; stroke:none;fill-rule:evenodd;"
d="M 20.9002,3.1900
20.9002,4.8900
22.6002,4.8900
22.6002,3.1900
Z" /> 
<circle cx="21.7502" cy="6.5800" r="0.8500" /> 
<circle cx="24.2902" cy="4.0400" r="0.8500" /> 
<circle cx="24.2902" cy="6.5800" r="0.8500" /> 
<circle cx="26.8302" cy="4.0400" r="0.8500" /> 
<circle cx="26.8302" cy="6.5800" r="0.8500" /> 
<circle cx="29.3702" cy="4.0400" r="0.8500" /> 
<circle cx="29.3702" cy="6.5800" r="0.8500" /> 
<circle cx="31.9102" cy="4.0400" r="0.8500" /> 
<circle cx="31.9102" cy="6.5800" r="0.8500" /> 
<circle cx="34.4502" cy="4.0400" r="0.8500" /> 
<circle cx="34.4502" cy="6.5800" r="0.8500" /> 
<circle cx="36.9902" cy="4.0400" r="0.8500" /> 
<circle cx="36.9902" cy="6.5800" r="0.8500" /> 
<circle cx="39.5302" cy="4.0400" r="0.8500" /> 
<circle cx="39.5302" cy="6.5800" r="0.8500" /> 
<circle cx="42.0702" cy="4.0400" r="0.8500" /> 
<circle cx="42.0702" cy="6.5800" r="0.8500" /> 
<circle cx="44.6102" cy="4.0400" r="0.8500" /> 
<circle cx="44.6102" cy="6.5800" r="0.8500" /> 
<circle cx="47.1502" cy="4.0400" r="0.8500" /> 
<circle cx="47.1502" cy="6.5800" r="0.8500" /> 
<circle cx="49.6902" cy="4.0400" r="0.8500" /> 
<circle cx="49.6902" cy="6.5800" r="0.8500" /> 
<circle cx="52.2302" cy="4.0400" r="0.8500" /> 
<circle cx="52.2302" cy="6.5800" r="0.8500" /> 
<path style="fill:#000000; fill-opacity:1.0000; stroke:none;fill-rule:evenodd;"
d="M 12.5902,20.3750
12.5712,20.2793
12.5170,20.1982
12.4359,20.1440
12.3402,20.1250
11.6402,20.1250
11.5445,20.1440
11.4634,20.1982
11.4092,20.2793
11.3902,20.3750
11.3902,21.6250
11.4092,21.7207
11.4634,21.8018
11.5445,21.8560
11.6402,21.8750
12.3402,21.8750
12.4359,21.8560
12.5170,21.8018
12.5712,21.7207
12.5902,21.6250
Z" /> 
</g>
<g style="fill:none; 
stroke:#000000; stroke-width:1.2000; stroke-opacity:1; 
stroke-linecap:round; stroke-linejoin:round;">
<path d="M9.9902 20.7250
L9.9902 21.2750
" />
<path style="fill:#000000; fill-opacity:1.0000; stroke:none;fill-rule:evenodd;"
d="M 26.5402,138.9000
27.4402,138.9000
27.4402,137.1000
26.5402,137.1000
Z" /> 
<path style="fill:#000000; fill-opacity:1.0000; stroke:none;fill-rule:evenodd;"
d="M 25.2702,138.9000
26.1702,138.9000
26.1702,137.1000
25.2702,137.1000
Z" /> 
<path style="fill:#000000; fill-opacity:1.0000; stroke:none;fill-rule:evenodd;"
d="M 24.0002,138.9000
24.9002,138.9000
24.9002,137.1000
24.0002,137.1000
Z" /> 
<path style="fill:#000000; fill-opacity:1.0000; stroke:none;fill-rule:evenodd;"
d="M 18.4302,138.9000
19.3302,138.9000
19.3302,137.1000
18.4302,137.1000
Z" /> 
<path style="fill:#000000; fill-opacity:1.0000; stroke:none;fill-rule:evenodd;"
d="M 17.1602,138.9000
18.0602,138.9000
18.0602,137.1000
17.1602,137.1000
Z" /> 
<path style="fill:#000000; fill-opacity:1.0000; stroke:none;fill-rule:evenodd;"
d="M 15.8902,138.9000
16.7902,138.9000
16.7902,137.1000
15.8902,137.1000
Z" /> 
<path style="fill:#000000; fill-opacity:1.0000; stroke:none;fill-rule:evenodd;"
d="M 14.6202,138.9000
15.5202,138.9000
15.5202,137.1000
14.6202,137.1000
Z" /> 
<path style="fill:#000000; fill-opacity:1.0000; stroke:none;fill-rule:evenodd;"
d="M 13.3502,138.9000
14.2502,138.9000
14.2502,137.1000
13.3502,137.1000
Z" /> 
<path style="fill:#000000; fill-opacity:1.0000; stroke:none;fill-rule:evenodd;"
d="M 12.0802,138.9000
12.9802,138.9000
12.9802,137.1000
12.0802,137.1000
Z" /> 
<path style="fill:#000000; fill-opacity:1.0000; stroke:none;fill-rule:evenodd;"
d="M 10.8102,138.9000
11.7102,138.9000
11.7102,137.1000
10.8102,137.1000
Z" /> 
<path style="fill:#000000; fill-opacity:1.0000; stroke:none;fill-rule:evenodd;"
d="M 9.5402,138.9000
10.4402,138.9000
10.4402,137.1000
9.5402,137.1000
Z" /> 
<path style="fill:#000000; fill-opacity:1.0000; stroke:none;fill-rule:evenodd;"
d="M 9.5402,152.9000
10.4402,152.9000
10.4402,151.1000
9.5402,151.1000
Z" /> 
<path style="fill:#000000; fill-opacity:1.0000; stroke:none;fill-rule:evenodd;"
d="M 10.8102,152.9000
11.7102,152.9000
11.7102,151.1000
10.8102,151.1000
Z" /> 
<path style="fill:#000000; fill-opacity:1.0000; stroke:none;fill-rule:evenodd;"
d="M 12.0802,152.9000
12.9802,152.9000
12.9802,151.1000
12.0802,151.1000
Z" /> 
<path style="fill:#000000; fill-opacity:1.0000; stroke:none;fill-rule:evenodd;"
d="M 13.3502,152.9000
14.2502,152.9000
14.2502,151.1000
13.3502,151.1000
Z" /> 
<path style="fill:#000000; fill-opacity:1.0000; stroke:none;fill-rule:evenodd;"
d="M 14.6202,152.9000
15.5202,152.9000
15.5202,151.1000
14.6202,151.1000
Z" /> 
<path style="fill:#000000; fill-opacity:1.0000; stroke:none;fill-rule:evenodd;"
d="M 15.8902,152.9000
16.7902,152.9000
16.7902,151.1000
15.8902,151.1000
Z" /> 
<path style="fill:#000000; fill-opacity:1.0000; stroke:none;fill-rule:evenodd;"
d="M 17.1602,152.9000
18.0602,152.9000
18.0602,151.1000
17.1602,151.1000
Z" /> 
<path style="fill:#000000; fill-opacity:1.0000; stroke:none;fill-rule:evenodd;"
d="M 18.4302,152.9000
19.3302,152.9000
19.3302,151.1000
18.4302,151.1000
Z" /> 
<path style="fill:#000000; fill-opacity:1.0000; stroke:none;fill-rule:evenodd;"
d="M 24.0002,152.9000
24.9002,152.9000
24.9002,151.1000
24.0002,151.1000
Z" /> 
<path style="fill:#000000; fill-opacity:1.0000; stroke:none;fill-rule:evenodd;"
d="M 25.2702,152.9000
26.1702,152.9000
26.1702,151.1000
25.2702,151.1000
Z" /> 
<path style="fill:#000000; fill-opacity:1.0000; stroke:none;fill-rule:evenodd;"
d="M 26.5402,152.9000
27.4402,152.9000
27.4402,151.1000
26.5402,151.1000
Z" /> 
<path style="fill:#000000; fill-opacity:1.0000; stroke:none;fill-rule:evenodd;"
d="M 72.7452,71.8500
72.7262,71.7543
72.6720,71.6732
72.5909,71.6190
72.4952,71.6000
71.4452,71.6000
71.3495,71.6190
71.2684,71.6732
71.2142,71.7543
71.1952,71.8500
71.1952,72.6500
71.2142,72.7457
71.2684,72.8268
71.3495,72.8810
71.4452,72.9000
72.4952,72.9000
72.5909,72.8810
72.6720,72.8268
72.7262,72.7457
72.7452,72.6500
Z" /> 
<path style="fill:#000000; fill-opacity:1.0000; stroke:none;fill-rule:evenodd;"
d="M 64.7852,71.8500
64.7662,71.7543
64.7120,71.6732
64.6309,71.6190
64.5352,71.6000
63.4852,71.6000
63.3895,71.6190
63.3084,71.6732
63.2542,71.7543
63.2352,71.8500
63.2352,72.6500
63.2542,72.7457
63.3084,72.8268
63.3895,72.8810
63.4852,72.9000
64.5352,72.9000
64.6309,72.8810
64.7120,72.8268
64.7662,72.7457
64.7852,72.6500
Z" /> 
<path style="fill:#000000; fill-opacity:1.0000; stroke:none;fill-rule:evenodd;"
d="M 72.7452,67.3500
72.7262,67.2543
72.6720,67.1732
72.5909,67.1190
72.4952,67.1000
71.4452,67.1000
71.3495,67.1190
71.2684,67.1732
71.2142,67.2543
71.1952,67.3500
71.1952,68.1500
71.2142,68.2457
71.2684,68.3268
71.3495,68.3810
71.4452,68.4000
72.4952,68.4000
72.5909,68.3810
72.6720,68.3268
72.7262,68.2457
72.7452,68.1500
Z" /> 
<path style="fill:#000000; fill-opacity:1.0000; stroke:none;fill-rule:evenodd;"
d="M 64.7852,67.3500
64.7662,67.2543
64.7120,67.1732
64.6309,67.1190
64.5352,67.1000
63.4852,67.1000
63.3895,67.1190
63.3084,67.1732
63.2542,67.2543
63.2352,67.3500
63.2352,68.1500
63.2542,68.2457
63.3084,68.3268
63.3895,68.3810
63.4852,68.4000
64.5352,68.4000
64.6309,68.3810
64.7120,68.3268
64.7662,68.2457
64.7852,68.1500
Z" /> 
</g>
<g style="fill:none; 
stroke:#000000; stroke-width:0.1500; stroke-opacity:1; 
stroke-linecap:round; stroke-linejoin:round;">
<text x="9.9902" y="138.7000"
textLength="2.2500" font-size="1.3333" lengthAdjust="spacingAndGlyphs"
text-anchor="middle" opacity="0" stroke-opacity="0">U8</text>
<g class="stroked-text"><desc>U8</desc>
<path d="M9.2283 137.6548
L9.2283 138.4643
" />
<path d="M9.2283 138.4643
L9.2759 138.5596
" />
<path d="M9.2759 138.5596
L9.3235 138.6072
" />
<path d="M9.3235 138.6072
L9.4188 138.6548
" />
<path d="M9.4188 138.6548
L9.6092 138.6548
" />
<path d="M9.6092 138.6548
L9.7045 138.6072
" />
<path d="M9.7045 138.6072
L9.7521 138.5596
" />
<path d="M9.7521 138.5596
L9.7997 138.4643
" />
<path d="M9.7997 138.4643
L9.7997 137.6548
" />
<path d="M10.4188 138.0834
L10.3235 138.0358
" />
<path d="M10.3235 138.0358
L10.2759 137.9882
" />
<path d="M10.2759 137.9882
L10.2283 137.8929
" />
<path d="M10.2283 137.8929
L10.2283 137.8453
" />
<path d="M10.2283 137.8453
L10.2759 137.7501
" />
<path d="M10.2759 137.7501
L10.3235 137.7024
" />
<path d="M10.3235 137.7024
L10.4188 137.6548
" />
<path d="M10.4188 137.6548
L10.6092 137.6548
" />
<path d="M10.6092 137.6548
L10.7045 137.7024
" />
<path d="M10.7045 137.7024
L10.7521 137.7501
" />
<path d="M10.7521 137.7501
L10.7997 137.8453
" />
<path d="M10.7997 137.8453
L10.7997 137.8929
" />
<path d="M10.7997 137.8929
L10.7521 137.9882
" />
<path d="M10.7521 137.9882
L10.7045 138.0358
" />
<path d="M10.7045 138.0358
L10.6092 138.0834
" />
<path d="M10.6092 138.0834
L10.4188 138.0834
" />
<path d="M10.4188 138.0834
L10.3235 138.1310
" />
<path d="M10.3235 138.1310
L10.2759 138.1786
" />
<path d="M10.2759 138.1786
L10.2283 138.2739
" />
<path d="M10.2283 138.2739
L10.2283 138.4643
" />
<path d="M10.2283 138.4643
L10.2759 138.5596
" />
<path d="M10.2759 138.5596
L10.3235 138.6072
" />
<path d="M10.3235 138.6072
L10.4188 138.6548
" />
<path d="M10.4188 138.6548
L10.6092 138.6548
" />
<path d="M10.6092 138.6548
L10.7045 138.6072
" />
<path d="M10.7045 138.6072
L10.7521 138.5596
" />
<path d="M10.7521 138.5596
L10.7997 138.4643
" />
<path d="M10.7997 138.4643
L10.7997 138.2739
" />
<path d="M10.7997 138.2739
L10.7521 138.1786
" />
<path d="M10.7521 138.1786
L10.7045 138.1310
" />
<path d="M10.7045 138.1310
L10.6092 138.0834
" />
</g><text x="58.9902" y="153.8000"
textLength="1.9643" font-size="1.3333" lengthAdjust="spacingAndGlyphs"
text-anchor="middle" opacity="0" stroke-opacity="0">J2</text>
<g class="stroked-text"><desc>J2</desc>
<path d="M58.6569 152.7548
L58.6569 153.4691
" />
<path d="M58.6569 153.4691
L58.6092 153.6120
" />
<path d="M58.6092 153.6120
L58.5140 153.7072
" />
<path d="M58.5140 153.7072
L58.3712 153.7548
" />
<path d="M58.3712 153.7548
L58.2759 153.7548
" />
<path d="M59.0854 152.8501
L59.1331 152.8024
" />
<path d="M59.1331 152.8024
L59.2283 152.7548
" />
<path d="M59.2283 152.7548
L59.4664 152.7548
" />
<path d="M59.4664 152.7548
L59.5616 152.8024
" />
<path d="M59.5616 152.8024
L59.6092 152.8501
" />
<path d="M59.6092 152.8501
L59.6569 152.9453
" />
<path d="M59.6569 152.9453
L59.6569 153.0405
" />
<path d="M59.6569 153.0405
L59.6092 153.1834
" />
<path d="M59.6092 153.1834
L59.0378 153.7548
" />
<path d="M59.0378 153.7548
L59.6569 153.7548
" />
</g><text x="49.8402" y="16.0000"
textLength="2.2500" font-size="1.3333" lengthAdjust="spacingAndGlyphs"
text-anchor="middle" opacity="0" stroke-opacity="0">U1</text>
<g class="stroked-text"><desc>U1</desc>
<path d="M49.0783 14.9548
L49.0783 15.7643
" />
<path d="M49.0783 15.7643
L49.1259 15.8596
" />
<path d="M49.1259 15.8596
L49.1735 15.9072
" />
<path d="M49.1735 15.9072
L49.2688 15.9548
" />
<path d="M49.2688 15.9548
L49.4592 15.9548
" />
<path d="M49.4592 15.9548
L49.5545 15.9072
" />
<path d="M49.5545 15.9072
L49.6021 15.8596
" />
<path d="M49.6021 15.8596
L49.6497 15.7643
" />
<path d="M49.6497 15.7643
L49.6497 14.9548
" />
<path d="M50.6497 15.9548
L50.0783 15.9548
" />
<path d="M50.3640 15.9548
L50.3640 14.9548
" />
<path d="M50.3640 14.9548
L50.2688 15.0977
" />
<path d="M50.2688 15.0977
L50.1735 15.1929
" />
<path d="M50.1735 15.1929
L50.0783 15.2405
" />
</g><text x="36.9902" y="-1.0000"
textLength="1.9643" font-size="1.3333" lengthAdjust="spacingAndGlyphs"
text-anchor="middle" opacity="0" stroke-opacity="0">J5</text>
<g class="stroked-text"><desc>J5</desc>
<path d="M36.6569 -2.0452
L36.6569 -1.3309
" />
<path d="M36.6569 -1.3309
L36.6092 -1.1880
" />
<path d="M36.6092 -1.1880
L36.5140 -1.0928
" />
<path d="M36.5140 -1.0928
L36.3712 -1.0452
" />
<path d="M36.3712 -1.0452
L36.2759 -1.0452
" />
<path d="M37.6092 -2.0452
L37.1331 -2.0452
" />
<path d="M37.1331 -2.0452
L37.0854 -1.5690
" />
<path d="M37.0854 -1.5690
L37.1331 -1.6166
" />
<path d="M37.1331 -1.6166
L37.2283 -1.6642
" />
<path d="M37.2283 -1.6642
L37.4664 -1.6642
" />
<path d="M37.4664 -1.6642
L37.5616 -1.6166
" />
<path d="M37.5616 -1.6166
L37.6092 -1.5690
" />
<path d="M37.6092 -1.5690
L37.6569 -1.4738
" />
<path d="M37.6569 -1.4738
L37.6569 -1.2357
" />
<path d="M37.6569 -1.2357
L37.6092 -1.1404
" />
<path d="M37.6092 -1.1404
L37.5616 -1.0928
" />
<path d="M37.5616 -1.0928
L37.4664 -1.0452
" />
<path d="M37.4664 -1.0452
L37.2283 -1.0452
" />
<path d="M37.2283 -1.0452
L37.1331 -1.0928
" />
<path d="M37.1331 -1.0928
L37.0854 -1.1404
" />
</g><text x="10.9902" y="24.4000"
textLength="1.9643" font-size="1.3333" lengthAdjust="spacingAndGlyphs"
text-anchor="middle" opacity="0" stroke-opacity="0">J6</text>
<g class="stroked-text"><desc>J6</desc>
<path d="M10.6569 23.3548
L10.6569 24.0691
" />
<path d="M10.6569 24.0691
L10.6092 24.2120
" />
<path d="M10.6092 24.2120
L10.5140 24.3072
" />
<path d="M10.5140 24.3072
L10.3712 24.3548
" />
<path d="M10.3712 24.3548
L10.2759 24.3548
" />
<path d="M11.5616 23.3548
L11.3712 23.3548
" />
<path d="M11.3712 23.3548
L11.2759 23.4024
" />
<path d="M11.2759 23.4024
L11.2283 23.4501
" />
<path d="M11.2283 23.4501
L11.1331 23.5929
" />
<path d="M11.1331 23.5929
L11.0854 23.7834
" />
<path d="M11.0854 23.7834
L11.0854 24.1643
" />
<path d="M11.0854 24.1643
L11.1331 24.2596
" />
<path d="M11.1331 24.2596
L11.1807 24.3072
" />
<path d="M11.1807 24.3072
L11.2759 24.3548
" />
<path d="M11.2759 24.3548
L11.4664 24.3548
" />
<path d="M11.4664 24.3548
L11.5616 24.3072
" />
<path d="M11.5616 24.3072
L11.6092 24.2596
" />
<path d="M11.6092 24.2596
L11.6569 24.1643
" />
<path d="M11.6569 24.1643
L11.6569 23.9262
" />
<path d="M11.6569 23.9262
L11.6092 23.8310
" />
<path d="M11.6092 23.8310
L11.5616 23.7834
" />
<path d="M11.5616 23.7834
L11.4664 23.7358
" />
<path d="M11.4664 23.7358
L11.2759 23.7358
" />
<path d="M11.2759 23.7358
L11.1807 23.7834
" />
<path d="M11.1807 23.7834
L11.1331 23.8310
" />
<path d="M11.1331 23.8310
L11.0854 23.9262
" />
</g><g transform="rotate(90.000000 6.7902 145.0000)">
<text x="6.7902" y="145.5000"
textLength="2.2500" font-size="1.3333" lengthAdjust="spacingAndGlyphs"
text-anchor="middle" opacity="0" stroke-opacity="0">U7</text>
</g>
<g class="stroked-text"><desc>U7</desc>
<path d="M7.3354 144.2381
L6.5259 144.2381
" />
<path d="M6.5259 144.2381
L6.4306 144.2857
" />
<path d="M6.4306 144.2857
L6.3830 144.3333
" />
<path d="M6.3830 144.3333
L6.3354 144.4286
" />
<path d="M6.3354 144.4286
L6.3354 144.6190
" />
<path d="M6.3354 144.6190
L6.3830 144.7143
" />
<path d="M6.3830 144.7143
L6.4306 144.7619
" />
<path d="M6.4306 144.7619
L6.5259 144.8095
" />
<path d="M6.5259 144.8095
L7.3354 144.8095
" />
<path d="M7.3354 145.1905
L7.3354 145.8571
" />
<path d="M7.3354 145.8571
L6.3354 145.4286
" />
</g><text x="67.9902" y="74.5500"
textLength="3.2976" font-size="1.3333" lengthAdjust="spacingAndGlyphs"
text-anchor="middle" opacity="0" stroke-opacity="0">SW1</text>
<g class="stroked-text"><desc>SW1</desc>
<path d="M66.6569 74.4572
L66.7997 74.5048
" />
<path d="M66.7997 74.5048
L67.0378 74.5048
" />
<path d="M67.0378 74.5048
L67.1331 74.4572
" />
<path d="M67.1331 74.4572
L67.1807 74.4096
" />
<path d="M67.1807 74.4096
L67.2283 74.3143
" />
<path d="M67.2283 74.3143
L67.2283 74.2191
" />
<path d="M67.2283 74.2191
L67.1807 74.1239
" />
<path d="M67.1807 74.1239
L67.1331 74.0762
" />
<path d="M67.1331 74.0762
L67.0378 74.0286
" />
<path d="M67.0378 74.0286
L66.8473 73.9810
" />
<path d="M66.8473 73.9810
L66.7521 73.9334
" />
<path d="M66.7521 73.9334
L66.7045 73.8858
" />
<path d="M66.7045 73.8858
L66.6569 73.7905
" />
<path d="M66.6569 73.7905
L66.6569 73.6953
" />
<path d="M66.6569 73.6953
L66.7045 73.6001
" />
<path d="M66.7045 73.6001
L66.7521 73.5524
" />
<path d="M66.7521 73.5524
L66.8473 73.5048
" />
<path d="M66.8473 73.5048
L67.0854 73.5048
" />
<path d="M67.0854 73.5048
L67.2283 73.5524
" />
<path d="M67.5616 73.5048
L67.7997 74.5048
" />
<path d="M67.7997 74.5048
L67.9902 73.7905
" />
<path d="M67.9902 73.7905
L68.1807 74.5048
" />
<path d="M68.1807 74.5048
L68.4188 73.5048
" />
<path d="M69.3235 74.5048
L68.7521 74.5048
" />
<path d="M69.0378 74.5048
L69.0378 73.5048
" />
<path d="M69.0378 73.5048
L68.9426 73.6477
" />
<path d="M68.9426 73.6477
L68.8473 73.7429
" />
<path d="M68.8473 73.7429
L68.7521 73.7905
" />
</g></g>
<g style="fill:#000000; fill-opacity:1.0000; stroke:none;">
<circle cx="1.5902" cy="118.0000" r="0.3100" /> 
<circle cx="66.8902" cy="148.0380" r="0.2600" /> 
</g>
<g style="fill:none; 
stroke:#000000; stroke-width:0.1200; stroke-opacity:1; 
stroke-linecap:round; stroke-linejoin:round;">
<path d="M74.1402 16.8000
L74.1402 35.2000
" />
<path d="M74.1402 16.8000
L67.9402 16.8000
" />
<path d="M74.1402 35.2000
L67.9402 35.2000
" />
<path d="M49.2902 16.8000
L48.2902 16.8000
" />
<path d="M48.2902 16.8000
L48.2902 18.3000
" />
<path d="M48.2902 35.2000
L49.2902 35.2000
" />
<path d="M48.2902 35.2000
L48.2902 33.7000
" />
<path style="fill:none; 
stroke:#000000; stroke-width:0.1200; stroke-opacity:1; 
stroke-linecap:round; stroke-linejoin:round;fill:none"
d="M 67.2652,16.8000
67.2652,16.3000
67.7652,16.8000
Z" /> 
<path style="fill:#000000; fill-opacity:1.0000; stroke:none;fill-rule:evenodd;"
d="M 67.2652,16.8000
67.7652,16.8000
67.2652,16.3000
Z" /> 
</g>
<g style="fill:none; 
stroke:#000000; stroke-width:0.1200; stroke-opacity:1; 
stroke-linecap:round; stroke-linejoin:round;">
<path d="M20.4802 0.0000
L53.5002 0.0000
" />
<path d="M20.4802 2.5400
L53.5002 2.5400
" />
</g>
<g style="fill:none; 
stroke:#000000; stroke-width:0.2500; stroke-opacity:1; 
stroke-linecap:round; stroke-linejoin:round;">
<path d="M19.8802 2.8400
L19.8802 5.2400
" />
</g>
<g style="fill:none; 
stroke:#000000; stroke-width:0.1200; stroke-opacity:1; 
stroke-linecap:round; stroke-linejoin:round;">
<path d="M14.3502 23.1100
L14.3502 21.8600
" />
<path d="M14.0502 20.2000
L13.4402 20.2000
" />
<path d="M14.0502 21.5000
L13.4402 21.5000
" />
<path d="M13.4402 18.7000
L8.5402 18.7000
" />
<path d="M13.4402 22.2000
L13.4402 18.7000
" />
<path d="M13.1002 23.1100
L14.3502 23.1100
" />
<path d="M12.5902 23.0100
L12.5902 22.8100
" />
<path d="M12.2902 22.8100
L12.2902 23.0100
" />
<path d="M12.2902 22.9100
L12.5902 22.9100
" />
<path d="M12.2902 23.0100
L12.5902 23.0100
" />
<path d="M11.4902 22.2000
L13.4402 22.2000
" />
<path d="M11.4902 22.8100
L11.4902 22.2000
" />
<path d="M11.0902 18.7000
L11.0902 19.2000
" />
<path d="M11.0902 19.2000
L10.8902 19.2000
" />
<path d="M10.9902 18.7000
L10.9902 19.2000
" />
<path d="M10.8902 19.2000
L10.8902 18.7000
" />
<path d="M10.4902 22.2000
L10.4902 22.8100
" />
<path d="M8.5402 18.7000
L8.5402 22.2000
" />
<path d="M8.5402 22.2000
L10.4902 22.2000
" />
<path d="M7.9302 20.2000
L8.5402 20.2000
" />
<path d="M7.9302 21.5000
L8.5402 21.5000
" />
<path style="fill:none; 
stroke:#000000; stroke-width:0.1200; stroke-opacity:1; 
stroke-linecap:round; stroke-linejoin:round;fill:none"
d="M 14.0502,18.0900
7.9302,18.0900
7.9302,22.8100
14.0502,22.8100
Z" /> 
</g>
<g style="fill:#000000; fill-opacity:1.0000; stroke:none;">
<circle cx="26.9902" cy="136.6000" r="0.3100" /> 
</g>
<g style="fill:none; 
stroke:#000000; stroke-width:0.1200; stroke-opacity:1; 
stroke-linecap:round; stroke-linejoin:round;">
<path d="M71.2202 66.7700
L71.2202 66.8000
" />
<path d="M71.2202 66.7700
L64.7602 66.7700
" />
<path d="M71.2202 71.3000
L71.2202 68.7000
" />
<path d="M71.2202 73.2000
L71.2202 73.2300
" />
<path d="M71.2202 73.2300
L64.7602 73.2300
" />
<path d="M64.7602 66.7700
L64.7602 66.8000
" />
<path d="M64.7602 71.3000
L64.7602 68.7000
" />
<path d="M64.7602 73.2300
L64.7602 73.2000
" />
</g>
<g style="fill:none; 
stroke:#000000; stroke-width:0.1500; stroke-opacity:1; 
stroke-linecap:round; stroke-linejoin:round;">
<text x="9.9902" y="116.3000"
textLength="11.1548" font-size="1.3333" lengthAdjust="spacingAndGlyphs"
text-anchor="middle" opacity="0" stroke-opacity="0">E22-900M22S</text>
<g class="stroked-text"><desc>E22-900M22S</desc>
<path d="M4.7759 115.7310
L5.1092 115.7310
" />
<path d="M5.2521 116.2548
L4.7759 116.2548
" />
<path d="M4.7759 116.2548
L4.7759 115.2548
" />
<path d="M4.7759 115.2548
L5.2521 115.2548
" />
<path d="M5.6331 115.3501
L5.6807 115.3024
" />
<path d="M5.6807 115.3024
L5.7759 115.2548
" />
<path d="M5.7759 115.2548
L6.0140 115.2548
" />
<path d="M6.0140 115.2548
L6.1092 115.3024
" />
<path d="M6.1092 115.3024
L6.1569 115.3501
" />
<path d="M6.1569 115.3501
L6.2045 115.4453
" />
<path d="M6.2045 115.4453
L6.2045 115.5405
" />
<path d="M6.2045 115.5405
L6.1569 115.6834
" />
<path d="M6.1569 115.6834
L5.5854 116.2548
" />
<path d="M5.5854 116.2548
L6.2045 116.2548
" />
<path d="M6.5854 115.3501
L6.6331 115.3024
" />
<path d="M6.6331 115.3024
L6.7283 115.2548
" />
<path d="M6.7283 115.2548
L6.9664 115.2548
" />
<path d="M6.9664 115.2548
L7.0616 115.3024
" />
<path d="M7.0616 115.3024
L7.1092 115.3501
" />
<path d="M7.1092 115.3501
L7.1569 115.4453
" />
<path d="M7.1569 115.4453
L7.1569 115.5405
" />
<path d="M7.1569 115.5405
L7.1092 115.6834
" />
<path d="M7.1092 115.6834
L6.5378 116.2548
" />
<path d="M6.5378 116.2548
L7.1569 116.2548
" />
<path d="M7.5854 115.8739
L8.3473 115.8739
" />
<path d="M8.8712 116.2548
L9.0616 116.2548
" />
<path d="M9.0616 116.2548
L9.1569 116.2072
" />
<path d="M9.1569 116.2072
L9.2045 116.1596
" />
<path d="M9.2045 116.1596
L9.2997 116.0167
" />
<path d="M9.2997 116.0167
L9.3473 115.8262
" />
<path d="M9.3473 115.8262
L9.3473 115.4453
" />
<path d="M9.3473 115.4453
L9.2997 115.3501
" />
<path d="M9.2997 115.3501
L9.2521 115.3024
" />
<path d="M9.2521 115.3024
L9.1569 115.2548
" />
<path d="M9.1569 115.2548
L8.9664 115.2548
" />
<path d="M8.9664 115.2548
L8.8712 115.3024
" />
<path d="M8.8712 115.3024
L8.8235 115.3501
" />
<path d="M8.8235 115.3501
L8.7759 115.4453
" />
<path d="M8.7759 115.4453
L8.7759 115.6834
" />
<path d="M8.7759 115.6834
L8.8235 115.7786
" />
<path d="M8.8235 115.7786
L8.8712 115.8262
" />
<path d="M8.8712 115.8262
L8.9664 115.8739
" />
<path d="M8.9664 115.8739
L9.1569 115.8739
" />
<path d="M9.1569 115.8739
L9.2521 115.8262
" />
<path d="M9.2521 115.8262
L9.2997 115.7786
" />
<path d="M9.2997 115.7786
L9.3473 115.6834
" />
<path d="M9.9664 115.2548
L10.0616 115.2548
" />
<path d="M10.0616 115.2548
L10.1569 115.3024
" />
<path d="M10.1569 115.3024
L10.2045 115.3501
" />
<path d="M10.2045 115.3501
L10.2521 115.4453
" />
<path d="M10.2521 115.4453
L10.2997 115.6358
" />
<path d="M10.2997 115.6358
L10.2997 115.8739
" />
<path d="M10.2997 115.8739
L10.2521 116.0643
" />
<path d="M10.2521 116.0643
L10.2045 116.1596
" />
<path d="M10.2045 116.1596
L10.1569 116.2072
" />
<path d="M10.1569 116.2072
L10.0616 116.2548
" />
<path d="M10.0616 116.2548
L9.9664 116.2548
" />
<path d="M9.9664 116.2548
L9.8712 116.2072
" />
<path d="M9.8712 116.2072
L9.8235 116.1596
" />
<path d="M9.8235 116.1596
L9.7759 116.0643
" />
<path d="M9.7759 116.0643
L9.7283 115.8739
" />
<path d="M9.7283 115.8739
L9.7283 115.6358
" />
<path d="M9.7283 115.6358
L9.7759 115.4453
" />
<path d="M9.7759 115.4453
L9.8235 115.3501
" />
<path d="M9.8235 115.3501
L9.8712 115.3024
" />
<path d="M9.8712 115.3024
L9.9664 115.2548
" />
<path d="M10.9188 115.2548
L11.0140 115.2548
" />
<path d="M11.0140 115.2548
L11.1092 115.3024
" />
<path d="M11.1092 115.3024
L11.1569 115.3501
" />
<path d="M11.1569 115.3501
L11.2045 115.4453
" />
<path d="M11.2045 115.4453
L11.2521 115.6358
" />
<path d="M11.2521 115.6358
L11.2521 115.8739
" />
<path d="M11.2521 115.8739
L11.2045 116.0643
" />
<path d="M11.2045 116.0643
L11.1569 116.1596
" />
<path d="M11.1569 116.1596
L11.1092 116.2072
" />
<path d="M11.1092 116.2072
L11.0140 116.2548
" />
<path d="M11.0140 116.2548
L10.9188 116.2548
" />
<path d="M10.9188 116.2548
L10.8235 116.2072
" />
<path d="M10.8235 116.2072
L10.7759 116.1596
" />
<path d="M10.7759 116.1596
L10.7283 116.0643
" />
<path d="M10.7283 116.0643
L10.6807 115.8739
" />
<path d="M10.6807 115.8739
L10.6807 115.6358
" />
<path d="M10.6807 115.6358
L10.7283 115.4453
" />
<path d="M10.7283 115.4453
L10.7759 115.3501
" />
<path d="M10.7759 115.3501
L10.8235 115.3024
" />
<path d="M10.8235 115.3024
L10.9188 115.2548
" />
<path d="M11.6807 116.2548
L11.6807 115.2548
" />
<path d="M11.6807 115.2548
L12.0140 115.9691
" />
<path d="M12.0140 115.9691
L12.3473 115.2548
" />
<path d="M12.3473 115.2548
L12.3473 116.2548
" />
<path d="M12.7759 115.3501
L12.8235 115.3024
" />
<path d="M12.8235 115.3024
L12.9188 115.2548
" />
<path d="M12.9188 115.2548
L13.1569 115.2548
" />
<path d="M13.1569 115.2548
L13.2521 115.3024
" />
<path d="M13.2521 115.3024
L13.2997 115.3501
" />
<path d="M13.2997 115.3501
L13.3473 115.4453
" />
<path d="M13.3473 115.4453
L13.3473 115.5405
" />
<path d="M13.3473 115.5405
L13.2997 115.6834
" />
<path d="M13.2997 115.6834
L12.7283 116.2548
" />
<path d="M12.7283 116.2548
L13.3473 116.2548
" />
<path d="M13.7283 115.3501
L13.7759 115.3024
" />
<path d="M13.7759 115.3024
L13.8712 115.2548
" />
<path d="M13.8712 115.2548
L14.1092 115.2548
" />
<path d="M14.1092 115.2548
L14.2045 115.3024
" />
<path d="M14.2045 115.3024
L14.2521 115.3501
" />
<path d="M14.2521 115.3501
L14.2997 115.4453
" />
<path d="M14.2997 115.4453
L14.2997 115.5405
" />
<path d="M14.2997 115.5405
L14.2521 115.6834
" />
<path d="M14.2521 115.6834
L13.6807 116.2548
" />
<path d="M13.6807 116.2548
L14.2997 116.2548
" />
<path d="M14.6807 116.2072
L14.8235 116.2548
" />
<path d="M14.8235 116.2548
L15.0616 116.2548
" />
<path d="M15.0616 116.2548
L15.1569 116.2072
" />
<path d="M15.1569 116.2072
L15.2045 116.1596
" />
<path d="M15.2045 116.1596
L15.2521 116.0643
" />
<path d="M15.2521 116.0643
L15.2521 115.9691
" />
<path d="M15.2521 115.9691
L15.2045 115.8739
" />
<path d="M15.2045 115.8739
L15.1569 115.8262
" />
<path d="M15.1569 115.8262
L15.0616 115.7786
" />
<path d="M15.0616 115.7786
L14.8712 115.7310
" />
<path d="M14.8712 115.7310
L14.7759 115.6834
" />
<path d="M14.7759 115.6834
L14.7283 115.6358
" />
<path d="M14.7283 115.6358
L14.6807 115.5405
" />
<path d="M14.6807 115.5405
L14.6807 115.4453
" />
<path d="M14.6807 115.4453
L14.7283 115.3501
" />
<path d="M14.7283 115.3501
L14.7759 115.3024
" />
<path d="M14.7759 115.3024
L14.8712 115.2548
" />
<path d="M14.8712 115.2548
L15.1092 115.2548
" />
<path d="M15.1092 115.2548
L15.2521 115.3024
" />
</g></g>
<g style="fill:none; 
stroke:#000000; stroke-width:0.2000; stroke-opacity:1; 
stroke-linecap:round; stroke-linejoin:round;">
<text x="9.9902" y="130.6000"
textLength="2.7600" font-size="1.6000" lengthAdjust="spacingAndGlyphs"
text-anchor="middle" opacity="0" stroke-opacity="0">U8</text>
<g class="stroked-text"><desc>U8</desc>
<path d="M9.0759 129.3447
L9.0759 130.3162
" />
<path d="M9.0759 130.3162
L9.1331 130.4305
" />
<path d="M9.1331 130.4305
L9.1902 130.4876
" />
<path d="M9.1902 130.4876
L9.3045 130.5447
" />
<path d="M9.3045 130.5447
L9.5331 130.5447
" />
<path d="M9.5331 130.5447
L9.6473 130.4876
" />
<path d="M9.6473 130.4876
L9.7045 130.4305
" />
<path d="M9.7045 130.4305
L9.7616 130.3162
" />
<path d="M9.7616 130.3162
L9.7616 129.3447
" />
<path d="M10.5045 129.8590
L10.3902 129.8019
" />
<path d="M10.3902 129.8019
L10.3331 129.7447
" />
<path d="M10.3331 129.7447
L10.2759 129.6305
" />
<path d="M10.2759 129.6305
L10.2759 129.5733
" />
<path d="M10.2759 129.5733
L10.3331 129.4590
" />
<path d="M10.3331 129.4590
L10.3902 129.4019
" />
<path d="M10.3902 129.4019
L10.5045 129.3447
" />
<path d="M10.5045 129.3447
L10.7331 129.3447
" />
<path d="M10.7331 129.3447
L10.8473 129.4019
" />
<path d="M10.8473 129.4019
L10.9045 129.4590
" />
<path d="M10.9045 129.4590
L10.9616 129.5733
" />
<path d="M10.9616 129.5733
L10.9616 129.6305
" />
<path d="M10.9616 129.6305
L10.9045 129.7447
" />
<path d="M10.9045 129.7447
L10.8473 129.8019
" />
<path d="M10.8473 129.8019
L10.7331 129.8590
" />
<path d="M10.7331 129.8590
L10.5045 129.8590
" />
<path d="M10.5045 129.8590
L10.3902 129.9162
" />
<path d="M10.3902 129.9162
L10.3331 129.9733
" />
<path d="M10.3331 129.9733
L10.2759 130.0876
" />
<path d="M10.2759 130.0876
L10.2759 130.3162
" />
<path d="M10.2759 130.3162
L10.3331 130.4305
" />
<path d="M10.3331 130.4305
L10.3902 130.4876
" />
<path d="M10.3902 130.4876
L10.5045 130.5447
" />
<path d="M10.5045 130.5447
L10.7331 130.5447
" />
<path d="M10.7331 130.5447
L10.8473 130.4876
" />
<path d="M10.8473 130.4876
L10.9045 130.4305
" />
<path d="M10.9045 130.4305
L10.9616 130.3162
" />
<path d="M10.9616 130.3162
L10.9616 130.0876
" />
<path d="M10.9616 130.0876
L10.9045 129.9733
" />
<path d="M10.9045 129.9733
L10.8473 129.9162
" />
<path d="M10.8473 129.9162
L10.7331 129.8590
" />
</g></g>
<g style="fill:none; 
stroke:#000000; stroke-width:0.1500; stroke-opacity:1; 
stroke-linecap:round; stroke-linejoin:round;">
<text x="58.9902" y="134.3000"
textLength="14.7738" font-size="1.3333" lengthAdjust="spacingAndGlyphs"
text-anchor="middle" opacity="0" stroke-opacity="0">Molex_5025700893</text>
<g class="stroked-text"><desc>Molex_5025700893</desc>
<path d="M51.9664 134.2548
L51.9664 133.2548
" />
<path d="M51.9664 133.2548
L52.2997 133.9691
" />
<path d="M52.2997 133.9691
L52.6331 133.2548
" />
<path d="M52.6331 133.2548
L52.6331 134.2548
" />
<path d="M53.2521 134.2548
L53.1569 134.2072
" />
<path d="M53.1569 134.2072
L53.1092 134.1596
" />
<path d="M53.1092 134.1596
L53.0616 134.0643
" />
<path d="M53.0616 134.0643
L53.0616 133.7786
" />
<path d="M53.0616 133.7786
L53.1092 133.6834
" />
<path d="M53.1092 133.6834
L53.1569 133.6358
" />
<path d="M53.1569 133.6358
L53.2521 133.5882
" />
<path d="M53.2521 133.5882
L53.3950 133.5882
" />
<path d="M53.3950 133.5882
L53.4902 133.6358
" />
<path d="M53.4902 133.6358
L53.5378 133.6834
" />
<path d="M53.5378 133.6834
L53.5854 133.7786
" />
<path d="M53.5854 133.7786
L53.5854 134.0643
" />
<path d="M53.5854 134.0643
L53.5378 134.1596
" />
<path d="M53.5378 134.1596
L53.4902 134.2072
" />
<path d="M53.4902 134.2072
L53.3950 134.2548
" />
<path d="M53.3950 134.2548
L53.2521 134.2548
" />
<path d="M54.1569 134.2548
L54.0616 134.2072
" />
<path d="M54.0616 134.2072
L54.0140 134.1120
" />
<path d="M54.0140 134.1120
L54.0140 133.2548
" />
<path d="M54.9188 134.2072
L54.8235 134.2548
" />
<path d="M54.8235 134.2548
L54.6331 134.2548
" />
<path d="M54.6331 134.2548
L54.5378 134.2072
" />
<path d="M54.5378 134.2072
L54.4902 134.1120
" />
<path d="M54.4902 134.1120
L54.4902 133.7310
" />
<path d="M54.4902 133.7310
L54.5378 133.6358
" />
<path d="M54.5378 133.6358
L54.6331 133.5882
" />
<path d="M54.6331 133.5882
L54.8235 133.5882
" />
<path d="M54.8235 133.5882
L54.9188 133.6358
" />
<path d="M54.9188 133.6358
L54.9664 133.7310
" />
<path d="M54.9664 133.7310
L54.9664 133.8262
" />
<path d="M54.9664 133.8262
L54.4902 133.9215
" />
<path d="M55.2997 134.2548
L55.8235 133.5882
" />
<path d="M55.2997 133.5882
L55.8235 134.2548
" />
<path d="M55.9664 134.3501
L56.7283 134.3501
" />
<path d="M57.4426 133.2548
L56.9664 133.2548
" />
<path d="M56.9664 133.2548
L56.9188 133.7310
" />
<path d="M56.9188 133.7310
L56.9664 133.6834
" />
<path d="M56.9664 133.6834
L57.0616 133.6358
" />
<path d="M57.0616 133.6358
L57.2997 133.6358
" />
<path d="M57.2997 133.6358
L57.3950 133.6834
" />
<path d="M57.3950 133.6834
L57.4426 133.7310
" />
<path d="M57.4426 133.7310
L57.4902 133.8262
" />
<path d="M57.4902 133.8262
L57.4902 134.0643
" />
<path d="M57.4902 134.0643
L57.4426 134.1596
" />
<path d="M57.4426 134.1596
L57.3950 134.2072
" />
<path d="M57.3950 134.2072
L57.2997 134.2548
" />
<path d="M57.2997 134.2548
L57.0616 134.2548
" />
<path d="M57.0616 134.2548
L56.9664 134.2072
" />
<path d="M56.9664 134.2072
L56.9188 134.1596
" />
<path d="M58.1092 133.2548
L58.2045 133.2548
" />
<path d="M58.2045 133.2548
L58.2997 133.3024
" />
<path d="M58.2997 133.3024
L58.3473 133.3501
" />
<path d="M58.3473 133.3501
L58.3950 133.4453
" />
<path d="M58.3950 133.4453
L58.4426 133.6358
" />
<path d="M58.4426 133.6358
L58.4426 133.8739
" />
<path d="M58.4426 133.8739
L58.3950 134.0643
" />
<path d="M58.3950 134.0643
L58.3473 134.1596
" />
<path d="M58.3473 134.1596
L58.2997 134.2072
" />
<path d="M58.2997 134.2072
L58.2045 134.2548
" />
<path d="M58.2045 134.2548
L58.1092 134.2548
" />
<path d="M58.1092 134.2548
L58.0140 134.2072
" />
<path d="M58.0140 134.2072
L57.9664 134.1596
" />
<path d="M57.9664 134.1596
L57.9188 134.0643
" />
<path d="M57.9188 134.0643
L57.8712 133.8739
" />
<path d="M57.8712 133.8739
L57.8712 133.6358
" />
<path d="M57.8712 133.6358
L57.9188 133.4453
" />
<path d="M57.9188 133.4453
L57.9664 133.3501
" />
<path d="M57.9664 133.3501
L58.0140 133.3024
" />
<path d="M58.0140 133.3024
L58.1092 133.2548
" />
<path d="M58.8235 133.3501
L58.8712 133.3024
" />
<path d="M58.8712 133.3024
L58.9664 133.2548
" />
<path d="M58.9664 133.2548
L59.2045 133.2548
" />
<path d="M59.2045 133.2548
L59.2997 133.3024
" />
<path d="M59.2997 133.3024
L59.3473 133.3501
" />
<path d="M59.3473 133.3501
L59.3950 133.4453
" />
<path d="M59.3950 133.4453
L59.3950 133.5405
" />
<path d="M59.3950 133.5405
L59.3473 133.6834
" />
<path d="M59.3473 133.6834
L58.7759 134.2548
" />
<path d="M58.7759 134.2548
L59.3950 134.2548
" />
<path d="M60.2997 133.2548
L59.8235 133.2548
" />
<path d="M59.8235 133.2548
L59.7759 133.7310
" />
<path d="M59.7759 133.7310
L59.8235 133.6834
" />
<path d="M59.8235 133.6834
L59.9188 133.6358
" />
<path d="M59.9188 133.6358
L60.1569 133.6358
" />
<path d="M60.1569 133.6358
L60.2521 133.6834
" />
<path d="M60.2521 133.6834
L60.2997 133.7310
" />
<path d="M60.2997 133.7310
L60.3473 133.8262
" />
<path d="M60.3473 133.8262
L60.3473 134.0643
" />
<path d="M60.3473 134.0643
L60.2997 134.1596
" />
<path d="M60.2997 134.1596
L60.2521 134.2072
" />
<path d="M60.2521 134.2072
L60.1569 134.2548
" />
<path d="M60.1569 134.2548
L59.9188 134.2548
" />
<path d="M59.9188 134.2548
L59.8235 134.2072
" />
<path d="M59.8235 134.2072
L59.7759 134.1596
" />
<path d="M60.6807 133.2548
L61.3473 133.2548
" />
<path d="M61.3473 133.2548
L60.9188 134.2548
" />
<path d="M61.9188 133.2548
L62.0140 133.2548
" />
<path d="M62.0140 133.2548
L62.1092 133.3024
" />
<path d="M62.1092 133.3024
L62.1569 133.3501
" />
<path d="M62.1569 133.3501
L62.2045 133.4453
" />
<path d="M62.2045 133.4453
L62.2521 133.6358
" />
<path d="M62.2521 133.6358
L62.2521 133.8739
" />
<path d="M62.2521 133.8739
L62.2045 134.0643
" />
<path d="M62.2045 134.0643
L62.1569 134.1596
" />
<path d="M62.1569 134.1596
L62.1092 134.2072
" />
<path d="M62.1092 134.2072
L62.0140 134.2548
" />
<path d="M62.0140 134.2548
L61.9188 134.2548
" />
<path d="M61.9188 134.2548
L61.8235 134.2072
" />
<path d="M61.8235 134.2072
L61.7759 134.1596
" />
<path d="M61.7759 134.1596
L61.7283 134.0643
" />
<path d="M61.7283 134.0643
L61.6807 133.8739
" />
<path d="M61.6807 133.8739
L61.6807 133.6358
" />
<path d="M61.6807 133.6358
L61.7283 133.4453
" />
<path d="M61.7283 133.4453
L61.7759 133.3501
" />
<path d="M61.7759 133.3501
L61.8235 133.3024
" />
<path d="M61.8235 133.3024
L61.9188 133.2548
" />
<path d="M62.8712 133.2548
L62.9664 133.2548
" />
<path d="M62.9664 133.2548
L63.0616 133.3024
" />
<path d="M63.0616 133.3024
L63.1092 133.3501
" />
<path d="M63.1092 133.3501
L63.1569 133.4453
" />
<path d="M63.1569 133.4453
L63.2045 133.6358
" />
<path d="M63.2045 133.6358
L63.2045 133.8739
" />
<path d="M63.2045 133.8739
L63.1569 134.0643
" />
<path d="M63.1569 134.0643
L63.1092 134.1596
" />
<path d="M63.1092 134.1596
L63.0616 134.2072
" />
<path d="M63.0616 134.2072
L62.9664 134.2548
" />
<path d="M62.9664 134.2548
L62.8712 134.2548
" />
<path d="M62.8712 134.2548
L62.7759 134.2072
" />
<path d="M62.7759 134.2072
L62.7283 134.1596
" />
<path d="M62.7283 134.1596
L62.6807 134.0643
" />
<path d="M62.6807 134.0643
L62.6331 133.8739
" />
<path d="M62.6331 133.8739
L62.6331 133.6358
" />
<path d="M62.6331 133.6358
L62.6807 133.4453
" />
<path d="M62.6807 133.4453
L62.7283 133.3501
" />
<path d="M62.7283 133.3501
L62.7759 133.3024
" />
<path d="M62.7759 133.3024
L62.8712 133.2548
" />
<path d="M63.7759 133.6834
L63.6807 133.6358
" />
<path d="M63.6807 133.6358
L63.6331 133.5882
" />
<path d="M63.6331 133.5882
L63.5854 133.4929
" />
<path d="M63.5854 133.4929
L63.5854 133.4453
" />
<path d="M63.5854 133.4453
L63.6331 133.3501
" />
<path d="M63.6331 133.3501
L63.6807 133.3024
" />
<path d="M63.6807 133.3024
L63.7759 133.2548
" />
<path d="M63.7759 133.2548
L63.9664 133.2548
" />
<path d="M63.9664 133.2548
L64.0616 133.3024
" />
<path d="M64.0616 133.3024
L64.1092 133.3501
" />
<path d="M64.1092 133.3501
L64.1569 133.4453
" />
<path d="M64.1569 133.4453
L64.1569 133.4929
" />
<path d="M64.1569 133.4929
L64.1092 133.5882
" />
<path d="M64.1092 133.5882
L64.0616 133.6358
" />
<path d="M64.0616 133.6358
L63.9664 133.6834
" />
<path d="M63.9664 133.6834
L63.7759 133.6834
" />
<path d="M63.7759 133.6834
L63.6807 133.7310
" />
<path d="M63.6807 133.7310
L63.6331 133.7786
" />
<path d="M63.6331 133.7786
L63.5854 133.8739
" />
<path d="M63.5854 133.8739
L63.5854 134.0643
" />
<path d="M63.5854 134.0643
L63.6331 134.1596
" />
<path d="M63.6331 134.1596
L63.6807 134.2072
" />
<path d="M63.6807 134.2072
L63.7759 134.2548
" />
<path d="M63.7759 134.2548
L63.9664 134.2548
" />
<path d="M63.9664 134.2548
L64.0616 134.2072
" />
<path d="M64.0616 134.2072
L64.1092 134.1596
" />
<path d="M64.1092 134.1596
L64.1569 134.0643
" />
<path d="M64.1569 134.0643
L64.1569 133.8739
" />
<path d="M64.1569 133.8739
L64.1092 133.7786
" />
<path d="M64.1092 133.7786
L64.0616 133.7310
" />
<path d="M64.0616 133.7310
L63.9664 133.6834
" />
<path d="M64.6331 134.2548
L64.8235 134.2548
" />
<path d="M64.8235 134.2548
L64.9188 134.2072
" />
<path d="M64.9188 134.2072
L64.9664 134.1596
" />
<path d="M64.9664 134.1596
L65.0616 134.0167
" />
<path d="M65.0616 134.0167
L65.1092 133.8262
" />
<path d="M65.1092 133.8262
L65.1092 133.4453
" />
<path d="M65.1092 133.4453
L65.0616 133.3501
" />
<path d="M65.0616 133.3501
L65.0140 133.3024
" />
<path d="M65.0140 133.3024
L64.9188 133.2548
" />
<path d="M64.9188 133.2548
L64.7283 133.2548
" />
<path d="M64.7283 133.2548
L64.6331 133.3024
" />
<path d="M64.6331 133.3024
L64.5854 133.3501
" />
<path d="M64.5854 133.3501
L64.5378 133.4453
" />
<path d="M64.5378 133.4453
L64.5378 133.6834
" />
<path d="M64.5378 133.6834
L64.5854 133.7786
" />
<path d="M64.5854 133.7786
L64.6331 133.8262
" />
<path d="M64.6331 133.8262
L64.7283 133.8739
" />
<path d="M64.7283 133.8739
L64.9188 133.8739
" />
<path d="M64.9188 133.8739
L65.0140 133.8262
" />
<path d="M65.0140 133.8262
L65.0616 133.7786
" />
<path d="M65.0616 133.7786
L65.1092 133.6834
" />
<path d="M65.4426 133.2548
L66.0616 133.2548
" />
<path d="M66.0616 133.2548
L65.7283 133.6358
" />
<path d="M65.7283 133.6358
L65.8712 133.6358
" />
<path d="M65.8712 133.6358
L65.9664 133.6834
" />
<path d="M65.9664 133.6834
L66.0140 133.7310
" />
<path d="M66.0140 133.7310
L66.0616 133.8262
" />
<path d="M66.0616 133.8262
L66.0616 134.0643
" />
<path d="M66.0616 134.0643
L66.0140 134.1596
" />
<path d="M66.0140 134.1596
L65.9664 134.2072
" />
<path d="M65.9664 134.2072
L65.8712 134.2548
" />
<path d="M65.8712 134.2548
L65.5854 134.2548
" />
<path d="M65.5854 134.2548
L65.4902 134.2072
" />
<path d="M65.4902 134.2072
L65.4426 134.1596
" />
</g><text x="58.9902" y="144.2000"
textLength="1.9643" font-size="1.3333" lengthAdjust="spacingAndGlyphs"
text-anchor="middle" opacity="0" stroke-opacity="0">J2</text>
<g class="stroked-text"><desc>J2</desc>
<path d="M58.6569 143.1548
L58.6569 143.8691
" />
<path d="M58.6569 143.8691
L58.6092 144.0120
" />
<path d="M58.6092 144.0120
L58.5140 144.1072
" />
<path d="M58.5140 144.1072
L58.3712 144.1548
" />
<path d="M58.3712 144.1548
L58.2759 144.1548
" />
<path d="M59.0854 143.2501
L59.1331 143.2024
" />
<path d="M59.1331 143.2024
L59.2283 143.1548
" />
<path d="M59.2283 143.1548
L59.4664 143.1548
" />
<path d="M59.4664 143.1548
L59.5616 143.2024
" />
<path d="M59.5616 143.2024
L59.6092 143.2501
" />
<path d="M59.6092 143.2501
L59.6569 143.3453
" />
<path d="M59.6569 143.3453
L59.6569 143.4405
" />
<path d="M59.6569 143.4405
L59.6092 143.5834
" />
<path d="M59.6092 143.5834
L59.0378 144.1548
" />
<path d="M59.0378 144.1548
L59.6569 144.1548
" />
</g><g transform="rotate(90.000000 46.6402 26.0000)">
<text x="46.6402" y="26.5000"
textLength="16.9643" font-size="1.3333" lengthAdjust="spacingAndGlyphs"
text-anchor="middle" opacity="0" stroke-opacity="0">ESP32-S3-WROOM-1</text>
</g>
<g class="stroked-text"><desc>ESP32-S3-WROOM-1</desc>
<path d="M46.7092 17.8810
L46.7092 18.2143
" />
<path d="M46.1854 18.3571
L46.1854 17.8810
" />
<path d="M46.1854 17.8810
L47.1854 17.8810
" />
<path d="M47.1854 17.8810
L47.1854 18.3571
" />
<path d="M46.2330 18.7381
L46.1854 18.8810
" />
<path d="M46.1854 18.8810
L46.1854 19.1190
" />
<path d="M46.1854 19.1190
L46.2330 19.2143
" />
<path d="M46.2330 19.2143
L46.2806 19.2619
" />
<path d="M46.2806 19.2619
L46.3759 19.3095
" />
<path d="M46.3759 19.3095
L46.4711 19.3095
" />
<path d="M46.4711 19.3095
L46.5663 19.2619
" />
<path d="M46.5663 19.2619
L46.6140 19.2143
" />
<path d="M46.6140 19.2143
L46.6616 19.1190
" />
<path d="M46.6616 19.1190
L46.7092 18.9286
" />
<path d="M46.7092 18.9286
L46.7568 18.8333
" />
<path d="M46.7568 18.8333
L46.8044 18.7857
" />
<path d="M46.8044 18.7857
L46.8997 18.7381
" />
<path d="M46.8997 18.7381
L46.9949 18.7381
" />
<path d="M46.9949 18.7381
L47.0901 18.7857
" />
<path d="M47.0901 18.7857
L47.1378 18.8333
" />
<path d="M47.1378 18.8333
L47.1854 18.9286
" />
<path d="M47.1854 18.9286
L47.1854 19.1667
" />
<path d="M47.1854 19.1667
L47.1378 19.3095
" />
<path d="M46.1854 19.7381
L47.1854 19.7381
" />
<path d="M47.1854 19.7381
L47.1854 20.1190
" />
<path d="M47.1854 20.1190
L47.1378 20.2143
" />
<path d="M47.1378 20.2143
L47.0901 20.2619
" />
<path d="M47.0901 20.2619
L46.9949 20.3095
" />
<path d="M46.9949 20.3095
L46.8520 20.3095
" />
<path d="M46.8520 20.3095
L46.7568 20.2619
" />
<path d="M46.7568 20.2619
L46.7092 20.2143
" />
<path d="M46.7092 20.2143
L46.6616 20.1190
" />
<path d="M46.6616 20.1190
L46.6616 19.7381
" />
<path d="M47.1854 20.6429
L47.1854 21.2619
" />
<path d="M47.1854 21.2619
L46.8044 20.9286
" />
<path d="M46.8044 20.9286
L46.8044 21.0714
" />
<path d="M46.8044 21.0714
L46.7568 21.1667
" />
<path d="M46.7568 21.1667
L46.7092 21.2143
" />
<path d="M46.7092 21.2143
L46.6140 21.2619
" />
<path d="M46.6140 21.2619
L46.3759 21.2619
" />
<path d="M46.3759 21.2619
L46.2806 21.2143
" />
<path d="M46.2806 21.2143
L46.2330 21.1667
" />
<path d="M46.2330 21.1667
L46.1854 21.0714
" />
<path d="M46.1854 21.0714
L46.1854 20.7857
" />
<path d="M46.1854 20.7857
L46.2330 20.6905
" />
<path d="M46.2330 20.6905
L46.2806 20.6429
" />
<path d="M47.0901 21.6429
L47.1378 21.6905
" />
<path d="M47.1378 21.6905
L47.1854 21.7857
" />
<path d="M47.1854 21.7857
L47.1854 22.0238
" />
<path d="M47.1854 22.0238
L47.1378 22.1190
" />
<path d="M47.1378 22.1190
L47.0901 22.1667
" />
<path d="M47.0901 22.1667
L46.9949 22.2143
" />
<path d="M46.9949 22.2143
L46.8997 22.2143
" />
<path d="M46.8997 22.2143
L46.7568 22.1667
" />
<path d="M46.7568 22.1667
L46.1854 21.5952
" />
<path d="M46.1854 21.5952
L46.1854 22.2143
" />
<path d="M46.5663 22.6429
L46.5663 23.4048
" />
<path d="M46.2330 23.8333
L46.1854 23.9762
" />
<path d="M46.1854 23.9762
L46.1854 24.2143
" />
<path d="M46.1854 24.2143
L46.2330 24.3095
" />
<path d="M46.2330 24.3095
L46.2806 24.3571
" />
<path d="M46.2806 24.3571
L46.3759 24.4048
" />
<path d="M46.3759 24.4048
L46.4711 24.4048
" />
<path d="M46.4711 24.4048
L46.5663 24.3571
" />
<path d="M46.5663 24.3571
L46.6140 24.3095
" />
<path d="M46.6140 24.3095
L46.6616 24.2143
" />
<path d="M46.6616 24.2143
L46.7092 24.0238
" />
<path d="M46.7092 24.0238
L46.7568 23.9286
" />
<path d="M46.7568 23.9286
L46.8044 23.8810
" />
<path d="M46.8044 23.8810
L46.8997 23.8333
" />
<path d="M46.8997 23.8333
L46.9949 23.8333
" />
<path d="M46.9949 23.8333
L47.0901 23.8810
" />
<path d="M47.0901 23.8810
L47.1378 23.9286
" />
<path d="M47.1378 23.9286
L47.1854 24.0238
" />
<path d="M47.1854 24.0238
L47.1854 24.2619
" />
<path d="M47.1854 24.2619
L47.1378 24.4048
" />
<path d="M47.1854 24.7381
L47.1854 25.3571
" />
<path d="M47.1854 25.3571
L46.8044 25.0238
" />
<path d="M46.8044 25.0238
L46.8044 25.1667
" />
<path d="M46.8044 25.1667
L46.7568 25.2619
" />
<path d="M46.7568 25.2619
L46.7092 25.3095
" />
<path d="M46.7092 25.3095
L46.6140 25.3571
" />
<path d="M46.6140 25.3571
L46.3759 25.3571
" />
<path d="M46.3759 25.3571
L46.2806 25.3095
" />
<path d="M46.2806 25.3095
L46.2330 25.2619
" />
<path d="M46.2330 25.2619
L46.1854 25.1667
" />
<path d="M46.1854 25.1667
L46.1854 24.8810
" />
<path d="M46.1854 24.8810
L46.2330 24.7857
" />
<path d="M46.2330 24.7857
L46.2806 24.7381
" />
<path d="M46.5663 25.7857
L46.5663 26.5476
" />
<path d="M47.1854 26.9286
L46.1854 27.1667
" />
<path d="M46.1854 27.1667
L46.8997 27.3571
" />
<path d="M46.8997 27.3571
L46.1854 27.5476
" />
<path d="M46.1854 27.5476
L47.1854 27.7857
" />
<path d="M46.1854 28.7381
L46.6616 28.4048
" />
<path d="M46.1854 28.1667
L47.1854 28.1667
" />
<path d="M47.1854 28.1667
L47.1854 28.5476
" />
<path d="M47.1854 28.5476
L47.1378 28.6429
" />
<path d="M47.1378 28.6429
L47.0901 28.6905
" />
<path d="M47.0901 28.6905
L46.9949 28.7381
" />
<path d="M46.9949 28.7381
L46.8520 28.7381
" />
<path d="M46.8520 28.7381
L46.7568 28.6905
" />
<path d="M46.7568 28.6905
L46.7092 28.6429
" />
<path d="M46.7092 28.6429
L46.6616 28.5476
" />
<path d="M46.6616 28.5476
L46.6616 28.1667
" />
<path d="M47.1854 29.3571
L47.1854 29.5476
" />
<path d="M47.1854 29.5476
L47.1378 29.6429
" />
<path d="M47.1378 29.6429
L47.0425 29.7381
" />
<path d="M47.0425 29.7381
L46.8520 29.7857
" />
<path d="M46.8520 29.7857
L46.5187 29.7857
" />
<path d="M46.5187 29.7857
L46.3282 29.7381
" />
<path d="M46.3282 29.7381
L46.2330 29.6429
" />
<path d="M46.2330 29.6429
L46.1854 29.5476
" />
<path d="M46.1854 29.5476
L46.1854 29.3571
" />
<path d="M46.1854 29.3571
L46.2330 29.2619
" />
<path d="M46.2330 29.2619
L46.3282 29.1667
" />
<path d="M46.3282 29.1667
L46.5187 29.1190
" />
<path d="M46.5187 29.1190
L46.8520 29.1190
" />
<path d="M46.8520 29.1190
L47.0425 29.1667
" />
<path d="M47.0425 29.1667
L47.1378 29.2619
" />
<path d="M47.1378 29.2619
L47.1854 29.3571
" />
<path d="M47.1854 30.4048
L47.1854 30.5952
" />
<path d="M47.1854 30.5952
L47.1378 30.6905
" />
<path d="M47.1378 30.6905
L47.0425 30.7857
" />
<path d="M47.0425 30.7857
L46.8520 30.8333
" />
<path d="M46.8520 30.8333
L46.5187 30.8333
" />
<path d="M46.5187 30.8333
L46.3282 30.7857
" />
<path d="M46.3282 30.7857
L46.2330 30.6905
" />
<path d="M46.2330 30.6905
L46.1854 30.5952
" />
<path d="M46.1854 30.5952
L46.1854 30.4048
" />
<path d="M46.1854 30.4048
L46.2330 30.3095
" />
<path d="M46.2330 30.3095
L46.3282 30.2143
" />
<path d="M46.3282 30.2143
L46.5187 30.1667
" />
<path d="M46.5187 30.1667
L46.8520 30.1667
" />
<path d="M46.8520 30.1667
L47.0425 30.2143
" />
<path d="M47.0425 30.2143
L47.1378 30.3095
" />
<path d="M47.1378 30.3095
L47.1854 30.4048
" />
<path d="M46.1854 31.2619
L47.1854 31.2619
" />
<path d="M47.1854 31.2619
L46.4711 31.5952
" />
<path d="M46.4711 31.5952
L47.1854 31.9286
" />
<path d="M47.1854 31.9286
L46.1854 31.9286
" />
<path d="M46.5663 32.4048
L46.5663 33.1667
" />
<path d="M46.1854 34.1667
L46.1854 33.5952
" />
<path d="M46.1854 33.8810
L47.1854 33.8810
" />
<path d="M47.1854 33.8810
L47.0425 33.7857
" />
<path d="M47.0425 33.7857
L46.9473 33.6905
" />
<path d="M46.9473 33.6905
L46.8997 33.5952
" />
</g><g transform="rotate(90.000000 61.8402 26.0000)">
<text x="61.8402" y="26.5000"
textLength="2.2500" font-size="1.3333" lengthAdjust="spacingAndGlyphs"
text-anchor="middle" opacity="0" stroke-opacity="0">U1</text>
</g>
<g class="stroked-text"><desc>U1</desc>
<path d="M62.3854 25.2381
L61.5759 25.2381
" />
<path d="M61.5759 25.2381
L61.4806 25.2857
" />
<path d="M61.4806 25.2857
L61.4330 25.3333
" />
<path d="M61.4330 25.3333
L61.3854 25.4286
" />
<path d="M61.3854 25.4286
L61.3854 25.6190
" />
<path d="M61.3854 25.6190
L61.4330 25.7143
" />
<path d="M61.4330 25.7143
L61.4806 25.7619
" />
<path d="M61.4806 25.7619
L61.5759 25.8095
" />
<path d="M61.5759 25.8095
L62.3854 25.8095
" />
<path d="M61.3854 26.8095
L61.3854 26.2381
" />
<path d="M61.3854 26.5238
L62.3854 26.5238
" />
<path d="M62.3854 26.5238
L62.2425 26.4286
" />
<path d="M62.2425 26.4286
L62.1473 26.3333
" />
<path d="M62.1473 26.3333
L62.0997 26.2381
" />
</g><text x="36.9902" y="9.3800"
textLength="19.6786" font-size="1.3333" lengthAdjust="spacingAndGlyphs"
text-anchor="middle" opacity="0" stroke-opacity="0">COMMUNITY_HEADER_2x13</text>
<g class="stroked-text"><desc>COMMUNITY_HEADER_2x13</desc>
<path d="M28.0854 9.2396
L28.0378 9.2872
" />
<path d="M28.0378 9.2872
L27.8950 9.3348
" />
<path d="M27.8950 9.3348
L27.7997 9.3348
" />
<path d="M27.7997 9.3348
L27.6569 9.2872
" />
<path d="M27.6569 9.2872
L27.5616 9.1920
" />
<path d="M27.5616 9.1920
L27.5140 9.0967
" />
<path d="M27.5140 9.0967
L27.4664 8.9062
" />
<path d="M27.4664 8.9062
L27.4664 8.7634
" />
<path d="M27.4664 8.7634
L27.5140 8.5729
" />
<path d="M27.5140 8.5729
L27.5616 8.4777
" />
<path d="M27.5616 8.4777
L27.6569 8.3824
" />
<path d="M27.6569 8.3824
L27.7997 8.3348
" />
<path d="M27.7997 8.3348
L27.8950 8.3348
" />
<path d="M27.8950 8.3348
L28.0378 8.3824
" />
<path d="M28.0378 8.3824
L28.0854 8.4301
" />
<path d="M28.7045 8.3348
L28.8950 8.3348
" />
<path d="M28.8950 8.3348
L28.9902 8.3824
" />
<path d="M28.9902 8.3824
L29.0854 8.4777
" />
<path d="M29.0854 8.4777
L29.1331 8.6682
" />
<path d="M29.1331 8.6682
L29.1331 9.0015
" />
<path d="M29.1331 9.0015
L29.0854 9.1920
" />
<path d="M29.0854 9.1920
L28.9902 9.2872
" />
<path d="M28.9902 9.2872
L28.8950 9.3348
" />
<path d="M28.8950 9.3348
L28.7045 9.3348
" />
<path d="M28.7045 9.3348
L28.6092 9.2872
" />
<path d="M28.6092 9.2872
L28.5140 9.1920
" />
<path d="M28.5140 9.1920
L28.4664 9.0015
" />
<path d="M28.4664 9.0015
L28.4664 8.6682
" />
<path d="M28.4664 8.6682
L28.5140 8.4777
" />
<path d="M28.5140 8.4777
L28.6092 8.3824
" />
<path d="M28.6092 8.3824
L28.7045 8.3348
" />
<path d="M29.5616 9.3348
L29.5616 8.3348
" />
<path d="M29.5616 8.3348
L29.8950 9.0491
" />
<path d="M29.8950 9.0491
L30.2283 8.3348
" />
<path d="M30.2283 8.3348
L30.2283 9.3348
" />
<path d="M30.7045 9.3348
L30.7045 8.3348
" />
<path d="M30.7045 8.3348
L31.0378 9.0491
" />
<path d="M31.0378 9.0491
L31.3712 8.3348
" />
<path d="M31.3712 8.3348
L31.3712 9.3348
" />
<path d="M31.8473 8.3348
L31.8473 9.1443
" />
<path d="M31.8473 9.1443
L31.8950 9.2396
" />
<path d="M31.8950 9.2396
L31.9426 9.2872
" />
<path d="M31.9426 9.2872
L32.0378 9.3348
" />
<path d="M32.0378 9.3348
L32.2283 9.3348
" />
<path d="M32.2283 9.3348
L32.3235 9.2872
" />
<path d="M32.3235 9.2872
L32.3712 9.2396
" />
<path d="M32.3712 9.2396
L32.4188 9.1443
" />
<path d="M32.4188 9.1443
L32.4188 8.3348
" />
<path d="M32.8950 9.3348
L32.8950 8.3348
" />
<path d="M32.8950 8.3348
L33.4664 9.3348
" />
<path d="M33.4664 9.3348
L33.4664 8.3348
" />
<path d="M33.9426 9.3348
L33.9426 8.3348
" />
<path d="M34.2759 8.3348
L34.8473 8.3348
" />
<path d="M34.5616 9.3348
L34.5616 8.3348
" />
<path d="M35.3712 8.8586
L35.3712 9.3348
" />
<path d="M35.0378 8.3348
L35.3712 8.8586
" />
<path d="M35.3712 8.8586
L35.7045 8.3348
" />
<path d="M35.7997 9.4301
L36.5616 9.4301
" />
<path d="M36.7997 9.3348
L36.7997 8.3348
" />
<path d="M36.7997 8.8110
L37.3712 8.8110
" />
<path d="M37.3712 9.3348
L37.3712 8.3348
" />
<path d="M37.8473 8.8110
L38.1807 8.8110
" />
<path d="M38.3235 9.3348
L37.8473 9.3348
" />
<path d="M37.8473 9.3348
L37.8473 8.3348
" />
<path d="M37.8473 8.3348
L38.3235 8.3348
" />
<path d="M38.7045 9.0491
L39.1807 9.0491
" />
<path d="M38.6092 9.3348
L38.9426 8.3348
" />
<path d="M38.9426 8.3348
L39.2759 9.3348
" />
<path d="M39.6092 9.3348
L39.6092 8.3348
" />
<path d="M39.6092 8.3348
L39.8473 8.3348
" />
<path d="M39.8473 8.3348
L39.9902 8.3824
" />
<path d="M39.9902 8.3824
L40.0854 8.4777
" />
<path d="M40.0854 8.4777
L40.1331 8.5729
" />
<path d="M40.1331 8.5729
L40.1807 8.7634
" />
<path d="M40.1807 8.7634
L40.1807 8.9062
" />
<path d="M40.1807 8.9062
L40.1331 9.0967
" />
<path d="M40.1331 9.0967
L40.0854 9.1920
" />
<path d="M40.0854 9.1920
L39.9902 9.2872
" />
<path d="M39.9902 9.2872
L39.8473 9.3348
" />
<path d="M39.8473 9.3348
L39.6092 9.3348
" />
<path d="M40.6092 8.8110
L40.9426 8.8110
" />
<path d="M41.0854 9.3348
L40.6092 9.3348
" />
<path d="M40.6092 9.3348
L40.6092 8.3348
" />
<path d="M40.6092 8.3348
L41.0854 8.3348
" />
<path d="M42.0854 9.3348
L41.7521 8.8586
" />
<path d="M41.5140 9.3348
L41.5140 8.3348
" />
<path d="M41.5140 8.3348
L41.8950 8.3348
" />
<path d="M41.8950 8.3348
L41.9902 8.3824
" />
<path d="M41.9902 8.3824
L42.0378 8.4301
" />
<path d="M42.0378 8.4301
L42.0854 8.5253
" />
<path d="M42.0854 8.5253
L42.0854 8.6682
" />
<path d="M42.0854 8.6682
L42.0378 8.7634
" />
<path d="M42.0378 8.7634
L41.9902 8.8110
" />
<path d="M41.9902 8.8110
L41.8950 8.8586
" />
<path d="M41.8950 8.8586
L41.5140 8.8586
" />
<path d="M42.2759 9.4301
L43.0378 9.4301
" />
<path d="M43.2283 8.4301
L43.2759 8.3824
" />
<path d="M43.2759 8.3824
L43.3712 8.3348
" />
<path d="M43.3712 8.3348
L43.6092 8.3348
" />
<path d="M43.6092 8.3348
L43.7045 8.3824
" />
<path d="M43.7045 8.3824
L43.7521 8.4301
" />
<path d="M43.7521 8.4301
L43.7997 8.5253
" />
<path d="M43.7997 8.5253
L43.7997 8.6205
" />
<path d="M43.7997 8.6205
L43.7521 8.7634
" />
<path d="M43.7521 8.7634
L43.1807 9.3348
" />
<path d="M43.1807 9.3348
L43.7997 9.3348
" />
<path d="M44.1331 9.3348
L44.6569 8.6682
" />
<path d="M44.1331 8.6682
L44.6569 9.3348
" />
<path d="M45.5616 9.3348
L44.9902 9.3348
" />
<path d="M45.2759 9.3348
L45.2759 8.3348
" />
<path d="M45.2759 8.3348
L45.1807 8.4777
" />
<path d="M45.1807 8.4777
L45.0854 8.5729
" />
<path d="M45.0854 8.5729
L44.9902 8.6205
" />
<path d="M45.8950 8.3348
L46.5140 8.3348
" />
<path d="M46.5140 8.3348
L46.1807 8.7158
" />
<path d="M46.1807 8.7158
L46.3235 8.7158
" />
<path d="M46.3235 8.7158
L46.4188 8.7634
" />
<path d="M46.4188 8.7634
L46.4664 8.8110
" />
<path d="M46.4664 8.8110
L46.5140 8.9062
" />
<path d="M46.5140 8.9062
L46.5140 9.1443
" />
<path d="M46.5140 9.1443
L46.4664 9.2396
" />
<path d="M46.4664 9.2396
L46.4188 9.2872
" />
<path d="M46.4188 9.2872
L46.3235 9.3348
" />
<path d="M46.3235 9.3348
L46.0378 9.3348
" />
<path d="M46.0378 9.3348
L45.9426 9.2872
" />
<path d="M45.9426 9.2872
L45.8950 9.2396
" />
</g><text x="10.9902" y="17.5000"
textLength="15.5833" font-size="1.3333" lengthAdjust="spacingAndGlyphs"
text-anchor="middle" opacity="0" stroke-opacity="0">JST-PH-2 SPEAKER</text>
<g class="stroked-text"><desc>JST-PH-2 SPEAKER</desc>
<path d="M3.8473 16.4548
L3.8473 17.1691
" />
<path d="M3.8473 17.1691
L3.7997 17.3120
" />
<path d="M3.7997 17.3120
L3.7045 17.4072
" />
<path d="M3.7045 17.4072
L3.5616 17.4548
" />
<path d="M3.5616 17.4548
L3.4664 17.4548
" />
<path d="M4.2759 17.4072
L4.4188 17.4548
" />
<path d="M4.4188 17.4548
L4.6569 17.4548
" />
<path d="M4.6569 17.4548
L4.7521 17.4072
" />
<path d="M4.7521 17.4072
L4.7997 17.3596
" />
<path d="M4.7997 17.3596
L4.8473 17.2643
" />
<path d="M4.8473 17.2643
L4.8473 17.1691
" />
<path d="M4.8473 17.1691
L4.7997 17.0739
" />
<path d="M4.7997 17.0739
L4.7521 17.0262
" />
<path d="M4.7521 17.0262
L4.6569 16.9786
" />
<path d="M4.6569 16.9786
L4.4664 16.9310
" />
<path d="M4.4664 16.9310
L4.3712 16.8834
" />
<path d="M4.3712 16.8834
L4.3235 16.8358
" />
<path d="M4.3235 16.8358
L4.2759 16.7405
" />
<path d="M4.2759 16.7405
L4.2759 16.6453
" />
<path d="M4.2759 16.6453
L4.3235 16.5501
" />
<path d="M4.3235 16.5501
L4.3712 16.5024
" />
<path d="M4.3712 16.5024
L4.4664 16.4548
" />
<path d="M4.4664 16.4548
L4.7045 16.4548
" />
<path d="M4.7045 16.4548
L4.8473 16.5024
" />
<path d="M5.1331 16.4548
L5.7045 16.4548
" />
<path d="M5.4188 17.4548
L5.4188 16.4548
" />
<path d="M6.0378 17.0739
L6.7997 17.0739
" />
<path d="M7.2759 17.4548
L7.2759 16.4548
" />
<path d="M7.2759 16.4548
L7.6569 16.4548
" />
<path d="M7.6569 16.4548
L7.7521 16.5024
" />
<path d="M7.7521 16.5024
L7.7997 16.5501
" />
<path d="M7.7997 16.5501
L7.8473 16.6453
" />
<path d="M7.8473 16.6453
L7.8473 16.7882
" />
<path d="M7.8473 16.7882
L7.7997 16.8834
" />
<path d="M7.7997 16.8834
L7.7521 16.9310
" />
<path d="M7.7521 16.9310
L7.6569 16.9786
" />
<path d="M7.6569 16.9786
L7.2759 16.9786
" />
<path d="M8.2759 17.4548
L8.2759 16.4548
" />
<path d="M8.2759 16.9310
L8.8473 16.9310
" />
<path d="M8.8473 17.4548
L8.8473 16.4548
" />
<path d="M9.3235 17.0739
L10.0854 17.0739
" />
<path d="M10.5140 16.5501
L10.5616 16.5024
" />
<path d="M10.5616 16.5024
L10.6569 16.4548
" />
<path d="M10.6569 16.4548
L10.8950 16.4548
" />
<path d="M10.8950 16.4548
L10.9902 16.5024
" />
<path d="M10.9902 16.5024
L11.0378 16.5501
" />
<path d="M11.0378 16.5501
L11.0854 16.6453
" />
<path d="M11.0854 16.6453
L11.0854 16.7405
" />
<path d="M11.0854 16.7405
L11.0378 16.8834
" />
<path d="M11.0378 16.8834
L10.4664 17.4548
" />
<path d="M10.4664 17.4548
L11.0854 17.4548
" />
<path d="M12.2283 17.4072
L12.3712 17.4548
" />
<path d="M12.3712 17.4548
L12.6092 17.4548
" />
<path d="M12.6092 17.4548
L12.7045 17.4072
" />
<path d="M12.7045 17.4072
L12.7521 17.3596
" />
<path d="M12.7521 17.3596
L12.7997 17.2643
" />
<path d="M12.7997 17.2643
L12.7997 17.1691
" />
<path d="M12.7997 17.1691
L12.7521 17.0739
" />
<path d="M12.7521 17.0739
L12.7045 17.0262
" />
<path d="M12.7045 17.0262
L12.6092 16.9786
" />
<path d="M12.6092 16.9786
L12.4188 16.9310
" />
<path d="M12.4188 16.9310
L12.3235 16.8834
" />
<path d="M12.3235 16.8834
L12.2759 16.8358
" />
<path d="M12.2759 16.8358
L12.2283 16.7405
" />
<path d="M12.2283 16.7405
L12.2283 16.6453
" />
<path d="M12.2283 16.6453
L12.2759 16.5501
" />
<path d="M12.2759 16.5501
L12.3235 16.5024
" />
<path d="M12.3235 16.5024
L12.4188 16.4548
" />
<path d="M12.4188 16.4548
L12.6569 16.4548
" />
<path d="M12.6569 16.4548
L12.7997 16.5024
" />
<path d="M13.2283 17.4548
L13.2283 16.4548
" />
<path d="M13.2283 16.4548
L13.6092 16.4548
" />
<path d="M13.6092 16.4548
L13.7045 16.5024
" />
<path d="M13.7045 16.5024
L13.7521 16.5501
" />
<path d="M13.7521 16.5501
L13.7997 16.6453
" />
<path d="M13.7997 16.6453
L13.7997 16.7882
" />
<path d="M13.7997 16.7882
L13.7521 16.8834
" />
<path d="M13.7521 16.8834
L13.7045 16.9310
" />
<path d="M13.7045 16.9310
L13.6092 16.9786
" />
<path d="M13.6092 16.9786
L13.2283 16.9786
" />
<path d="M14.2283 16.9310
L14.5616 16.9310
" />
<path d="M14.7045 17.4548
L14.2283 17.4548
" />
<path d="M14.2283 17.4548
L14.2283 16.4548
" />
<path d="M14.2283 16.4548
L14.7045 16.4548
" />
<path d="M15.0854 17.1691
L15.5616 17.1691
" />
<path d="M14.9902 17.4548
L15.3235 16.4548
" />
<path d="M15.3235 16.4548
L15.6569 17.4548
" />
<path d="M15.9902 17.4548
L15.9902 16.4548
" />
<path d="M16.5616 17.4548
L16.1331 16.8834
" />
<path d="M16.5616 16.4548
L15.9902 17.0262
" />
<path d="M16.9902 16.9310
L17.3235 16.9310
" />
<path d="M17.4664 17.4548
L16.9902 17.4548
" />
<path d="M16.9902 17.4548
L16.9902 16.4548
" />
<path d="M16.9902 16.4548
L17.4664 16.4548
" />
<path d="M18.4664 17.4548
L18.1331 16.9786
" />
<path d="M17.8950 17.4548
L17.8950 16.4548
" />
<path d="M17.8950 16.4548
L18.2759 16.4548
" />
<path d="M18.2759 16.4548
L18.3712 16.5024
" />
<path d="M18.3712 16.5024
L18.4188 16.5501
" />
<path d="M18.4188 16.5501
L18.4664 16.6453
" />
<path d="M18.4664 16.6453
L18.4664 16.7882
" />
<path d="M18.4664 16.7882
L18.4188 16.8834
" />
<path d="M18.4188 16.8834
L18.3712 16.9310
" />
<path d="M18.3712 16.9310
L18.2759 16.9786
" />
<path d="M18.2759 16.9786
L17.8950 16.9786
" />
</g><text x="10.9902" y="20.0000"
textLength="1.9643" font-size="1.3333" lengthAdjust="spacingAndGlyphs"
text-anchor="middle" opacity="0" stroke-opacity="0">J6</text>
<g class="stroked-text"><desc>J6</desc>
<path d="M10.6569 18.9548
L10.6569 19.6691
" />
<path d="M10.6569 19.6691
L10.6092 19.8120
" />
<path d="M10.6092 19.8120
L10.5140 19.9072
" />
<path d="M10.5140 19.9072
L10.3712 19.9548
" />
<path d="M10.3712 19.9548
L10.2759 19.9548
" />
<path d="M11.5616 18.9548
L11.3712 18.9548
" />
<path d="M11.3712 18.9548
L11.2759 19.0024
" />
<path d="M11.2759 19.0024
L11.2283 19.0501
" />
<path d="M11.2283 19.0501
L11.1331 19.1929
" />
<path d="M11.1331 19.1929
L11.0854 19.3834
" />
<path d="M11.0854 19.3834
L11.0854 19.7643
" />
<path d="M11.0854 19.7643
L11.1331 19.8596
" />
<path d="M11.1331 19.8596
L11.1807 19.9072
" />
<path d="M11.1807 19.9072
L11.2759 19.9548
" />
<path d="M11.2759 19.9548
L11.4664 19.9548
" />
<path d="M11.4664 19.9548
L11.5616 19.9072
" />
<path d="M11.5616 19.9072
L11.6092 19.8596
" />
<path d="M11.6092 19.8596
L11.6569 19.7643
" />
<path d="M11.6569 19.7643
L11.6569 19.5262
" />
<path d="M11.6569 19.5262
L11.6092 19.4310
" />
<path d="M11.6092 19.4310
L11.5616 19.3834
" />
<path d="M11.5616 19.3834
L11.4664 19.3358
" />
<path d="M11.4664 19.3358
L11.2759 19.3358
" />
<path d="M11.2759 19.3358
L11.1807 19.3834
" />
<path d="M11.1807 19.3834
L11.1331 19.4310
" />
<path d="M11.1331 19.4310
L11.0854 19.5262
" />
</g><g transform="rotate(90.000000 29.1902 145.0000)">
<text x="29.1902" y="145.5000"
textLength="11.1548" font-size="1.3333" lengthAdjust="spacingAndGlyphs"
text-anchor="middle" opacity="0" stroke-opacity="0">E07-400M10S</text>
</g>
<g class="stroked-text"><desc>E07-400M10S</desc>
<path d="M29.2592 139.7857
L29.2592 140.1190
" />
<path d="M28.7354 140.2619
L28.7354 139.7857
" />
<path d="M28.7354 139.7857
L29.7354 139.7857
" />
<path d="M29.7354 139.7857
L29.7354 140.2619
" />
<path d="M29.7354 140.8810
L29.7354 140.9762
" />
<path d="M29.7354 140.9762
L29.6878 141.0714
" />
<path d="M29.6878 141.0714
L29.6401 141.1190
" />
<path d="M29.6401 141.1190
L29.5449 141.1667
" />
<path d="M29.5449 141.1667
L29.3544 141.2143
" />
<path d="M29.3544 141.2143
L29.1163 141.2143
" />
<path d="M29.1163 141.2143
L28.9259 141.1667
" />
<path d="M28.9259 141.1667
L28.8306 141.1190
" />
<path d="M28.8306 141.1190
L28.7830 141.0714
" />
<path d="M28.7830 141.0714
L28.7354 140.9762
" />
<path d="M28.7354 140.9762
L28.7354 140.8810
" />
<path d="M28.7354 140.8810
L28.7830 140.7857
" />
<path d="M28.7830 140.7857
L28.8306 140.7381
" />
<path d="M28.8306 140.7381
L28.9259 140.6905
" />
<path d="M28.9259 140.6905
L29.1163 140.6429
" />
<path d="M29.1163 140.6429
L29.3544 140.6429
" />
<path d="M29.3544 140.6429
L29.5449 140.6905
" />
<path d="M29.5449 140.6905
L29.6401 140.7381
" />
<path d="M29.6401 140.7381
L29.6878 140.7857
" />
<path d="M29.6878 140.7857
L29.7354 140.8810
" />
<path d="M29.7354 141.5476
L29.7354 142.2143
" />
<path d="M29.7354 142.2143
L28.7354 141.7857
" />
<path d="M29.1163 142.5952
L29.1163 143.3571
" />
<path d="M29.4020 144.2619
L28.7354 144.2619
" />
<path d="M29.7830 144.0238
L29.0687 143.7857
" />
<path d="M29.0687 143.7857
L29.0687 144.4048
" />
<path d="M29.7354 144.9762
L29.7354 145.0714
" />
<path d="M29.7354 145.0714
L29.6878 145.1667
" />
<path d="M29.6878 145.1667
L29.6401 145.2143
" />
<path d="M29.6401 145.2143
L29.5449 145.2619
" />
<path d="M29.5449 145.2619
L29.3544 145.3095
" />
<path d="M29.3544 145.3095
L29.1163 145.3095
" />
<path d="M29.1163 145.3095
L28.9259 145.2619
" />
<path d="M28.9259 145.2619
L28.8306 145.2143
" />
<path d="M28.8306 145.2143
L28.7830 145.1667
" />
<path d="M28.7830 145.1667
L28.7354 145.0714
" />
<path d="M28.7354 145.0714
L28.7354 144.9762
" />
<path d="M28.7354 144.9762
L28.7830 144.8810
" />
<path d="M28.7830 144.8810
L28.8306 144.8333
" />
<path d="M28.8306 144.8333
L28.9259 144.7857
" />
<path d="M28.9259 144.7857
L29.1163 144.7381
" />
<path d="M29.1163 144.7381
L29.3544 144.7381
" />
<path d="M29.3544 144.7381
L29.5449 144.7857
" />
<path d="M29.5449 144.7857
L29.6401 144.8333
" />
<path d="M29.6401 144.8333
L29.6878 144.8810
" />
<path d="M29.6878 144.8810
L29.7354 144.9762
" />
<path d="M29.7354 145.9286
L29.7354 146.0238
" />
<path d="M29.7354 146.0238
L29.6878 146.1190
" />
<path d="M29.6878 146.1190
L29.6401 146.1667
" />
<path d="M29.6401 146.1667
L29.5449 146.2143
" />
<path d="M29.5449 146.2143
L29.3544 146.2619
" />
<path d="M29.3544 146.2619
L29.1163 146.2619
" />
<path d="M29.1163 146.2619
L28.9259 146.2143
" />
<path d="M28.9259 146.2143
L28.8306 146.1667
" />
<path d="M28.8306 146.1667
L28.7830 146.1190
" />
<path d="M28.7830 146.1190
L28.7354 146.0238
" />
<path d="M28.7354 146.0238
L28.7354 145.9286
" />
<path d="M28.7354 145.9286
L28.7830 145.8333
" />
<path d="M28.7830 145.8333
L28.8306 145.7857
" />
<path d="M28.8306 145.7857
L28.9259 145.7381
" />
<path d="M28.9259 145.7381
L29.1163 145.6905
" />
<path d="M29.1163 145.6905
L29.3544 145.6905
" />
<path d="M29.3544 145.6905
L29.5449 145.7381
" />
<path d="M29.5449 145.7381
L29.6401 145.7857
" />
<path d="M29.6401 145.7857
L29.6878 145.8333
" />
<path d="M29.6878 145.8333
L29.7354 145.9286
" />
<path d="M28.7354 146.6905
L29.7354 146.6905
" />
<path d="M29.7354 146.6905
L29.0211 147.0238
" />
<path d="M29.0211 147.0238
L29.7354 147.3571
" />
<path d="M29.7354 147.3571
L28.7354 147.3571
" />
<path d="M28.7354 148.3571
L28.7354 147.7857
" />
<path d="M28.7354 148.0714
L29.7354 148.0714
" />
<path d="M29.7354 148.0714
L29.5925 147.9762
" />
<path d="M29.5925 147.9762
L29.4973 147.8810
" />
<path d="M29.4973 147.8810
L29.4497 147.7857
" />
<path d="M29.7354 148.9762
L29.7354 149.0714
" />
<path d="M29.7354 149.0714
L29.6878 149.1667
" />
<path d="M29.6878 149.1667
L29.6401 149.2143
" />
<path d="M29.6401 149.2143
L29.5449 149.2619
" />
<path d="M29.5449 149.2619
L29.3544 149.3095
" />
<path d="M29.3544 149.3095
L29.1163 149.3095
" />
<path d="M29.1163 149.3095
L28.9259 149.2619
" />
<path d="M28.9259 149.2619
L28.8306 149.2143
" />
<path d="M28.8306 149.2143
L28.7830 149.1667
" />
<path d="M28.7830 149.1667
L28.7354 149.0714
" />
<path d="M28.7354 149.0714
L28.7354 148.9762
" />
<path d="M28.7354 148.9762
L28.7830 148.8810
" />
<path d="M28.7830 148.8810
L28.8306 148.8333
" />
<path d="M28.8306 148.8333
L28.9259 148.7857
" />
<path d="M28.9259 148.7857
L29.1163 148.7381
" />
<path d="M29.1163 148.7381
L29.3544 148.7381
" />
<path d="M29.3544 148.7381
L29.5449 148.7857
" />
<path d="M29.5449 148.7857
L29.6401 148.8333
" />
<path d="M29.6401 148.8333
L29.6878 148.8810
" />
<path d="M29.6878 148.8810
L29.7354 148.9762
" />
<path d="M28.7830 149.6905
L28.7354 149.8333
" />
<path d="M28.7354 149.8333
L28.7354 150.0714
" />
<path d="M28.7354 150.0714
L28.7830 150.1667
" />
<path d="M28.7830 150.1667
L28.8306 150.2143
" />
<path d="M28.8306 150.2143
L28.9259 150.2619
" />
<path d="M28.9259 150.2619
L29.0211 150.2619
" />
<path d="M29.0211 150.2619
L29.1163 150.2143
" />
<path d="M29.1163 150.2143
L29.1640 150.1667
" />
<path d="M29.1640 150.1667
L29.2116 150.0714
" />
<path d="M29.2116 150.0714
L29.2592 149.8810
" />
<path d="M29.2592 149.8810
L29.3068 149.7857
" />
<path d="M29.3068 149.7857
L29.3544 149.7381
" />
<path d="M29.3544 149.7381
L29.4497 149.6905
" />
<path d="M29.4497 149.6905
L29.5449 149.6905
" />
<path d="M29.5449 149.6905
L29.6401 149.7381
" />
<path d="M29.6401 149.7381
L29.6878 149.7857
" />
<path d="M29.6878 149.7857
L29.7354 149.8810
" />
<path d="M29.7354 149.8810
L29.7354 150.1190
" />
<path d="M29.7354 150.1190
L29.6878 150.2619
" />
</g></g>
<g style="fill:none; 
stroke:#000000; stroke-width:0.2000; stroke-opacity:1; 
stroke-linecap:round; stroke-linejoin:round;">
<g transform="rotate(90.000000 14.9902 145.0000)">
<text x="14.9902" y="145.6000"
textLength="2.7600" font-size="1.6000" lengthAdjust="spacingAndGlyphs"
text-anchor="middle" opacity="0" stroke-opacity="0">U7</text>
</g>
<g class="stroked-text"><desc>U7</desc>
<path d="M15.6455 144.0857
L14.6740 144.0857
" />
<path d="M14.6740 144.0857
L14.5597 144.1429
" />
<path d="M14.5597 144.1429
L14.5026 144.2000
" />
<path d="M14.5026 144.2000
L14.4455 144.3143
" />
<path d="M14.4455 144.3143
L14.4455 144.5429
" />
<path d="M14.4455 144.5429
L14.5026 144.6571
" />
<path d="M14.5026 144.6571
L14.5597 144.7143
" />
<path d="M14.5597 144.7143
L14.6740 144.7714
" />
<path d="M14.6740 144.7714
L15.6455 144.7714
" />
<path d="M15.6455 145.2286
L15.6455 146.0286
" />
<path d="M15.6455 146.0286
L14.4455 145.5143
" />
</g></g>
<g style="fill:none; 
stroke:#000000; stroke-width:0.1500; stroke-opacity:1; 
stroke-linecap:round; stroke-linejoin:round;">
<text x="67.9902" y="66.3500"
textLength="4.1071" font-size="1.3333" lengthAdjust="spacingAndGlyphs"
text-anchor="middle" opacity="0" stroke-opacity="0">BOOT</text>
<g class="stroked-text"><desc>BOOT</desc>
<path d="M66.6331 65.7810
L66.7759 65.8286
" />
<path d="M66.7759 65.8286
L66.8235 65.8762
" />
<path d="M66.8235 65.8762
L66.8712 65.9715
" />
<path d="M66.8712 65.9715
L66.8712 66.1143
" />
<path d="M66.8712 66.1143
L66.8235 66.2096
" />
<path d="M66.8235 66.2096
L66.7759 66.2572
" />
<path d="M66.7759 66.2572
L66.6807 66.3048
" />
<path d="M66.6807 66.3048
L66.2997 66.3048
" />
<path d="M66.2997 66.3048
L66.2997 65.3048
" />
<path d="M66.2997 65.3048
L66.6331 65.3048
" />
<path d="M66.6331 65.3048
L66.7283 65.3524
" />
<path d="M66.7283 65.3524
L66.7759 65.4001
" />
<path d="M66.7759 65.4001
L66.8235 65.4953
" />
<path d="M66.8235 65.4953
L66.8235 65.5905
" />
<path d="M66.8235 65.5905
L66.7759 65.6858
" />
<path d="M66.7759 65.6858
L66.7283 65.7334
" />
<path d="M66.7283 65.7334
L66.6331 65.7810
" />
<path d="M66.6331 65.7810
L66.2997 65.7810
" />
<path d="M67.4902 65.3048
L67.6807 65.3048
" />
<path d="M67.6807 65.3048
L67.7759 65.3524
" />
<path d="M67.7759 65.3524
L67.8712 65.4477
" />
<path d="M67.8712 65.4477
L67.9188 65.6382
" />
<path d="M67.9188 65.6382
L67.9188 65.9715
" />
<path d="M67.9188 65.9715
L67.8712 66.1620
" />
<path d="M67.8712 66.1620
L67.7759 66.2572
" />
<path d="M67.7759 66.2572
L67.6807 66.3048
" />
<path d="M67.6807 66.3048
L67.4902 66.3048
" />
<path d="M67.4902 66.3048
L67.3950 66.2572
" />
<path d="M67.3950 66.2572
L67.2997 66.1620
" />
<path d="M67.2997 66.1620
L67.2521 65.9715
" />
<path d="M67.2521 65.9715
L67.2521 65.6382
" />
<path d="M67.2521 65.6382
L67.2997 65.4477
" />
<path d="M67.2997 65.4477
L67.3950 65.3524
" />
<path d="M67.3950 65.3524
L67.4902 65.3048
" />
<path d="M68.5378 65.3048
L68.7283 65.3048
" />
<path d="M68.7283 65.3048
L68.8235 65.3524
" />
<path d="M68.8235 65.3524
L68.9188 65.4477
" />
<path d="M68.9188 65.4477
L68.9664 65.6382
" />
<path d="M68.9664 65.6382
L68.9664 65.9715
" />
<path d="M68.9664 65.9715
L68.9188 66.1620
" />
<path d="M68.9188 66.1620
L68.8235 66.2572
" />
<path d="M68.8235 66.2572
L68.7283 66.3048
" />
<path d="M68.7283 66.3048
L68.5378 66.3048
" />
<path d="M68.5378 66.3048
L68.4426 66.2572
" />
<path d="M68.4426 66.2572
L68.3473 66.1620
" />
<path d="M68.3473 66.1620
L68.2997 65.9715
" />
<path d="M68.2997 65.9715
L68.2997 65.6382
" />
<path d="M68.2997 65.6382
L68.3473 65.4477
" />
<path d="M68.3473 65.4477
L68.4426 65.3524
" />
<path d="M68.4426 65.3524
L68.5378 65.3048
" />
<path d="M69.2521 65.3048
L69.8235 65.3048
" />
<path d="M69.5378 66.3048
L69.5378 65.3048
" />
</g><text x="67.9902" y="74.5500"
textLength="3.2976" font-size="1.3333" lengthAdjust="spacingAndGlyphs"
text-anchor="middle" opacity="0" stroke-opacity="0">SW1</text>
<g class="stroked-text"><desc>SW1</desc>
<path d="M66.6569 74.4572
L66.7997 74.5048
" />
<path d="M66.7997 74.5048
L67.0378 74.5048
" />
<path d="M67.0378 74.5048
L67.1331 74.4572
" />
<path d="M67.1331 74.4572
L67.1807 74.4096
" />
<path d="M67.1807 74.4096
L67.2283 74.3143
" />
<path d="M67.2283 74.3143
L67.2283 74.2191
" />
<path d="M67.2283 74.2191
L67.1807 74.1239
" />
<path d="M67.1807 74.1239
L67.1331 74.0762
" />
<path d="M67.1331 74.0762
L67.0378 74.0286
" />
<path d="M67.0378 74.0286
L66.8473 73.9810
" />
<path d="M66.8473 73.9810
L66.7521 73.9334
" />
<path d="M66.7521 73.9334
L66.7045 73.8858
" />
<path d="M66.7045 73.8858
L66.6569 73.7905
" />
<path d="M66.6569 73.7905
L66.6569 73.6953
" />
<path d="M66.6569 73.6953
L66.7045 73.6001
" />
<path d="M66.7045 73.6001
L66.7521 73.5524
" />
<path d="M66.7521 73.5524
L66.8473 73.5048
" />
<path d="M66.8473 73.5048
L67.0854 73.5048
" />
<path d="M67.0854 73.5048
L67.2283 73.5524
" />
<path d="M67.5616 73.5048
L67.7997 74.5048
" />
<path d="M67.7997 74.5048
L67.9902 73.7905
" />
<path d="M67.9902 73.7905
L68.1807 74.5048
" />
<path d="M68.1807 74.5048
L68.4188 73.5048
" />
<path d="M69.3235 74.5048
L68.7521 74.5048
" />
<path d="M69.0378 74.5048
L69.0378 73.5048
" />
<path d="M69.0378 73.5048
L68.9426 73.6477
" />
<path d="M68.9426 73.6477
L68.8473 73.7429
" />
<path d="M68.8473 73.7429
L68.7521 73.7905
" />
</g><path style="fill:none; 
stroke:#000000; stroke-width:0.1000; stroke-opacity:1; 
stroke-linecap:round; stroke-linejoin:round;fill:none"
d="M 16.9902,117.0000
2.9902,117.0000
2.9902,137.0000
16.9902,137.0000
Z" /> 
<path style="fill:none; 
stroke:#000000; stroke-width:0.1000; stroke-opacity:1; 
stroke-linecap:round; stroke-linejoin:round;fill:none"
d="M 66.2402,135.4000
51.7402,135.4000
51.7402,152.0000
66.2402,152.0000
Z" /> 
</g>
<g style="fill:none; 
stroke:#000000; stroke-width:0.1000; stroke-opacity:1; 
stroke-linecap:round; stroke-linejoin:round;">
<path d="M73.9902 17.0000
L73.9902 35.0000
" />
<path d="M67.9902 17.0000
L67.9902 35.0000
" />
<path d="M48.4902 17.0000
L73.9902 17.0000
" />
<path d="M48.4902 17.0000
L48.4902 35.0000
" />
<path d="M48.4902 35.0000
L73.9902 35.0000
" />
<path d="M20.4802 -5.8400
L21.5802 -5.8400
" />
<path d="M21.9802 -5.8400
L23.0802 -5.8400
" />
<path d="M23.4802 -5.8400
L24.5802 -5.8400
" />
<path d="M24.9802 -5.8400
L26.0802 -5.8400
" />
<path d="M26.4802 -5.8400
L27.5802 -5.8400
" />
<path d="M27.9802 -5.8400
L29.0802 -5.8400
" />
<path d="M29.4802 -5.8400
L30.5802 -5.8400
" />
<path d="M30.9802 -5.8400
L32.0802 -5.8400
" />
<path d="M32.4802 -5.8400
L33.5802 -5.8400
" />
<path d="M33.9802 -5.8400
L35.0802 -5.8400
" />
<path d="M35.4802 -5.8400
L36.5802 -5.8400
" />
<path d="M36.9802 -5.8400
L38.0802 -5.8400
" />
<path d="M38.4802 -5.8400
L39.5802 -5.8400
" />
<path d="M39.9802 -5.8400
L41.0802 -5.8400
" />
<path d="M41.4802 -5.8400
L42.5802 -5.8400
" />
<path d="M42.9802 -5.8400
L44.0802 -5.8400
" />
<path d="M44.4802 -5.8400
L45.5802 -5.8400
" />
<path d="M45.9802 -5.8400
L47.0802 -5.8400
" />
<path d="M47.4802 -5.8400
L48.5802 -5.8400
" />
<path d="M48.9802 -5.8400
L50.0802 -5.8400
" />
<path d="M50.4802 -5.8400
L51.5802 -5.8400
" />
<path d="M51.9802 -5.8400
L53.0802 -5.8400
" />
<path d="M53.4802 -5.8400
L53.5002 -5.8400
" />
<path d="M53.5002 -5.8400
L53.5002 -4.7400
" />
<path d="M53.5002 -4.3400
L53.5002 -3.2400
" />
<path d="M53.5002 -2.8400
L53.5002 -1.7400
" />
<path d="M53.5002 -1.3400
L53.5002 -0.2400
" />
<path d="M53.5002 0.0000
L52.4002 0.0000
" />
<path d="M52.0002 0.0000
L50.9002 0.0000
" />
<path d="M50.5002 0.0000
L49.4002 0.0000
" />
<path d="M49.0002 0.0000
L47.9002 0.0000
" />
<path d="M47.5002 0.0000
L46.4002 0.0000
" />
<path d="M46.0002 0.0000
L44.9002 0.0000
" />
<path d="M44.5002 0.0000
L43.4002 0.0000
" />
<path d="M43.0002 0.0000
L41.9002 0.0000
" />
<path d="M41.5002 0.0000
L40.4002 0.0000
" />
<path d="M40.0002 0.0000
L38.9002 0.0000
" />
<path d="M38.5002 0.0000
L37.4002 0.0000
" />
<path d="M37.0002 0.0000
L35.9002 0.0000
" />
<path d="M35.5002 0.0000
L34.4002 0.0000
" />
<path d="M34.0002 0.0000
L32.9002 0.0000
" />
<path d="M32.5002 0.0000
L31.4002 0.0000
" />
<path d="M31.0002 0.0000
L29.9002 0.0000
" />
<path d="M29.5002 0.0000
L28.4002 0.0000
" />
<path d="M28.0002 0.0000
L26.9002 0.0000
" />
<path d="M26.5002 0.0000
L25.4002 0.0000
" />
<path d="M25.0002 0.0000
L23.9002 0.0000
" />
<path d="M23.5002 0.0000
L22.4002 0.0000
" />
<path d="M22.0002 0.0000
L20.9002 0.0000
" />
<path d="M20.5002 0.0000
L20.4802 0.0000
" />
<path d="M20.4802 0.0000
L20.4802 -1.1000
" />
<path d="M20.4802 -1.5000
L20.4802 -2.6000
" />
<path d="M20.4802 -3.0000
L20.4802 -4.1000
" />
<path d="M20.4802 -4.5000
L20.4802 -5.6000
" />
<path style="fill:none; 
stroke:#000000; stroke-width:0.1000; stroke-opacity:1; 
stroke-linecap:round; stroke-linejoin:round;fill:none"
d="M 53.5002,0.0000
20.4802,0.0000
20.4802,2.5400
53.5002,2.5400
Z" /> 
<path d="M14.3502 23.1100
L14.3502 21.8600
" />
<path d="M13.1002 23.1100
L14.3502 23.1100
" />
<path style="fill:none; 
stroke:#000000; stroke-width:0.1000; stroke-opacity:1; 
stroke-linecap:round; stroke-linejoin:round;fill:none"
d="M 13.9402,18.2000
8.0402,18.2000
8.0402,22.7000
13.9402,22.7000
Z" /> 
<path style="fill:none; 
stroke:#000000; stroke-width:0.1000; stroke-opacity:1; 
stroke-linecap:round; stroke-linejoin:round;fill:none"
d="M 27.9902,138.0000
7.9902,138.0000
7.9902,152.0000
27.9902,152.0000
Z" /> 
<path d="M70.9902 67.0000
L64.9902 67.0000
" />
<path d="M70.9902 73.0000
L70.9902 67.0000
" />
<path d="M64.9902 67.0000
L64.9902 73.0000
" />
<path d="M64.9902 73.0000
L70.9902 73.0000
" />
<circle cx="67.9902" cy="70.0000" r="1.7500" /> 
<path style="fill:none; 
stroke:#000000; stroke-width:0.0500; stroke-opacity:1; 
stroke-linecap:round; stroke-linejoin:round;fill:none"
d="M 17.8902,116.2500
2.0902,116.2500
2.0902,137.5000
17.8902,137.5000
Z" /> 
<path style="fill:none; 
stroke:#000000; stroke-width:0.0500; stroke-opacity:1; 
stroke-linecap:round; stroke-linejoin:round;fill:none"
d="M 66.5902,132.6000
51.3902,132.6000
51.3902,152.4000
66.5902,152.4000
Z" /> 
</g>
<g style="fill:none; 
stroke:#000000; stroke-width:0.0500; stroke-opacity:1; 
stroke-linecap:round; stroke-linejoin:round;">
<path d="M88.9902 2.0000
L67.9902 2.0000
" />
<path d="M88.9902 50.0000
L88.9902 2.0000
" />
<path d="M67.9902 2.0000
L67.9902 16.2500
" />
<path d="M67.9902 35.7500
L67.9902 50.0000
" />
<path d="M67.9902 35.7500
L47.7902 35.7500
" />
<path d="M67.9902 50.0000
L88.9902 50.0000
" />
<path d="M47.7902 16.2500
L67.9902 16.2500
" />
<path d="M47.7902 16.2500
L47.7902 35.7500
" />
<path style="fill:none; 
stroke:#000000; stroke-width:0.0500; stroke-opacity:1; 
stroke-linecap:round; stroke-linejoin:round;fill:none"
d="M 53.7502,-0.2500
20.2302,-0.2500
20.2302,7.6800
53.7502,7.6800
Z" /> 
<path style="fill:none; 
stroke:#000000; stroke-width:0.0500; stroke-opacity:1; 
stroke-linecap:round; stroke-linejoin:round;fill:none"
d="M 14.4402,17.7000
7.5402,17.7000
7.5402,23.2000
14.4402,23.2000
Z" /> 
<path style="fill:none; 
stroke:#000000; stroke-width:0.0500; stroke-opacity:1; 
stroke-linecap:round; stroke-linejoin:round;fill:none"
d="M 28.7402,137.1000
7.4902,137.1000
7.4902,152.9000
28.7402,152.9000
Z" /> 
<path d="M73.0402 66.6000
L62.9402 66.6000
" />
<path d="M73.0402 73.4000
L73.0402 66.6000
" />
<path d="M73.0402 73.4000
L62.9402 73.4000
" />
<path d="M62.9402 66.6000
L62.9402 73.4000
" />
</g>
<g style="fill:none; 
stroke:#000000; stroke-width:0.1000; stroke-opacity:1; 
stroke-linecap:round; stroke-linejoin:round;">
<path d="M73.9902 3.0000 A3.0000 3.0000 0.0 0 0 70.9902 -0.0000" />
<path d="M73.9902 149.0000
L73.9902 3.0000
" />
<path d="M70.9902 0.0000
L2.9902 0.0000
" />
<path d="M70.9902 152.0000 A3.0000 3.0000 0.0 0 0 73.9902 149.0000" />
<circle cx="69.9902" cy="145.0000" r="1.2000" /> 
<circle cx="68.9902" cy="40.0000" r="1.2000" /> 
<circle cx="4.9902" cy="11.0000" r="1.2000" /> 
<circle cx="3.9902" cy="146.0000" r="1.2000" /> 
<path d="M2.9902 0.0000 A3.0000 3.0000 0.0 0 0 -0.0098 3.0000" />
<path d="M2.9902 152.0000
L70.9902 152.0000
" />
<path d="M-0.0098 3.0000
L-0.0098 149.0000
" />
<path d="M-0.0098 149.0000 A3.0000 3.0000 0.0 0 0 2.9902 152.0000" />
</g>
<g style="fill:#FFFFFF; fill-opacity:1.0000; stroke:none;">
<circle cx="69.5302" cy="12.5000" r="0.5500" /> 
</g>
<g style="fill:#FFFFFF; fill-opacity:1.0000; stroke:none;">
<circle cx="66.9902" cy="12.5000" r="0.5500" /> 
</g>
<g style="fill:#FFFFFF; fill-opacity:1.0000; stroke:none;">
<circle cx="64.4502" cy="12.5000" r="0.5500" /> 
</g>
<g style="fill:#000000; fill-opacity:1.0000; stroke:none;">
<circle cx="41.8802" cy="145.2150" r="0.3250" /> 
<circle cx="36.1002" cy="145.2150" r="0.3250" /> 
</g>
<g style="fill:none; 
stroke:#FFFFFF; stroke-width:0.6000; stroke-opacity:1; 
stroke-linecap:round; stroke-linejoin:round;">
<path d="M43.3102 144.1650
L43.3102 145.2650
" />
</g>
<g style="fill:none; 
stroke:#FFFFFF; stroke-width:0.6000; stroke-opacity:1; 
stroke-linecap:round; stroke-linejoin:round;">
<path d="M43.3102 148.4950
L43.3102 149.2950
" />
</g>
<g style="fill:none; 
stroke:#FFFFFF; stroke-width:0.6000; stroke-opacity:1; 
stroke-linecap:round; stroke-linejoin:round;">
<path d="M34.6702 144.1650
L34.6702 145.2650
" />
</g>
<g style="fill:none; 
stroke:#FFFFFF; stroke-width:0.6000; stroke-opacity:1; 
stroke-linecap:round; stroke-linejoin:round;">
<path d="M34.6702 148.4950
L34.6702 149.2950
" />
</g>
<g style="fill:#FFFFFF; fill-opacity:1.0000; stroke:none;">
<circle cx="67.4902" cy="4.0000" r="0.4500" /> 
</g>
<g style="fill:#FFFFFF; fill-opacity:1.0000; stroke:none;">
<circle cx="64.9502" cy="4.0000" r="0.4500" /> 
</g>
<g style="fill:#FFFFFF; fill-opacity:1.0000; stroke:none;">
<circle cx="58.0802" cy="23.1000" r="0.1000" /> 
</g>
<g style="fill:#FFFFFF; fill-opacity:1.0000; stroke:none;">
<circle cx="59.4802" cy="23.1000" r="0.1000" /> 
</g>
<g style="fill:#FFFFFF; fill-opacity:1.0000; stroke:none;">
<circle cx="57.3802" cy="23.8000" r="0.1000" /> 
</g>
<g style="fill:#FFFFFF; fill-opacity:1.0000; stroke:none;">
<circle cx="58.7802" cy="23.8000" r="0.1000" /> 
</g>
<g style="fill:#FFFFFF; fill-opacity:1.0000; stroke:none;">
<circle cx="60.1802" cy="23.8000" r="0.1000" /> 
</g>
<g style="fill:#FFFFFF; fill-opacity:1.0000; stroke:none;">
<circle cx="58.0802" cy="24.5000" r="0.1000" /> 
</g>
<g style="fill:#FFFFFF; fill-opacity:1.0000; stroke:none;">
<circle cx="59.4802" cy="24.5000" r="0.1000" /> 
</g>
<g style="fill:#FFFFFF; fill-opacity:1.0000; stroke:none;">
<circle cx="57.3802" cy="25.2000" r="0.1000" /> 
</g>
<g style="fill:#FFFFFF; fill-opacity:1.0000; stroke:none;">
<circle cx="58.7802" cy="25.2000" r="0.1000" /> 
</g>
<g style="fill:#FFFFFF; fill-opacity:1.0000; stroke:none;">
<circle cx="60.1802" cy="25.2000" r="0.1000" /> 
</g>
<g style="fill:#FFFFFF; fill-opacity:1.0000; stroke:none;">
<circle cx="58.0802" cy="25.9000" r="0.1000" /> 
</g>
<g style="fill:#FFFFFF; fill-opacity:1.0000; stroke:none;">
<circle cx="59.4802" cy="25.9000" r="0.1000" /> 
</g>
<g style="fill:#FFFFFF; fill-opacity:1.0000; stroke:none;">
<circle cx="21.7502" cy="4.0400" r="0.5100" /> 
</g>
<g style="fill:#FFFFFF; fill-opacity:1.0000; stroke:none;">
<circle cx="21.7502" cy="6.5800" r="0.5100" /> 
</g>
<g style="fill:#FFFFFF; fill-opacity:1.0000; stroke:none;">
<circle cx="24.2902" cy="4.0400" r="0.5100" /> 
</g>
<g style="fill:#FFFFFF; fill-opacity:1.0000; stroke:none;">
<circle cx="24.2902" cy="6.5800" r="0.5100" /> 
</g>
<g style="fill:#FFFFFF; fill-opacity:1.0000; stroke:none;">
<circle cx="26.8302" cy="4.0400" r="0.5100" /> 
</g>
<g style="fill:#FFFFFF; fill-opacity:1.0000; stroke:none;">
<circle cx="26.8302" cy="6.5800" r="0.5100" /> 
</g>
<g style="fill:#FFFFFF; fill-opacity:1.0000; stroke:none;">
<circle cx="29.3702" cy="4.0400" r="0.5100" /> 
</g>
<g style="fill:#FFFFFF; fill-opacity:1.0000; stroke:none;">
<circle cx="29.3702" cy="6.5800" r="0.5100" /> 
</g>
<g style="fill:#FFFFFF; fill-opacity:1.0000; stroke:none;">
<circle cx="31.9102" cy="4.0400" r="0.5100" /> 
</g>
<g style="fill:#FFFFFF; fill-opacity:1.0000; stroke:none;">
<circle cx="31.9102" cy="6.5800" r="0.5100" /> 
</g>
<g style="fill:#FFFFFF; fill-opacity:1.0000; stroke:none;">
<circle cx="34.4502" cy="4.0400" r="0.5100" /> 
</g>
<g style="fill:#FFFFFF; fill-opacity:1.0000; stroke:none;">
<circle cx="34.4502" cy="6.5800" r="0.5100" /> 
</g>
<g style="fill:#FFFFFF; fill-opacity:1.0000; stroke:none;">
<circle cx="36.9902" cy="4.0400" r="0.5100" /> 
</g>
<g style="fill:#FFFFFF; fill-opacity:1.0000; stroke:none;">
<circle cx="36.9902" cy="6.5800" r="0.5100" /> 
</g>
<g style="fill:#FFFFFF; fill-opacity:1.0000; stroke:none;">
<circle cx="39.5302" cy="4.0400" r="0.5100" /> 
</g>
<g style="fill:#FFFFFF; fill-opacity:1.0000; stroke:none;">
<circle cx="39.5302" cy="6.5800" r="0.5100" /> 
</g>
<g style="fill:#FFFFFF; fill-opacity:1.0000; stroke:none;">
<circle cx="42.0702" cy="4.0400" r="0.5100" /> 
</g>
<g style="fill:#FFFFFF; fill-opacity:1.0000; stroke:none;">
<circle cx="42.0702" cy="6.5800" r="0.5100" /> 
</g>
<g style="fill:#FFFFFF; fill-opacity:1.0000; stroke:none;">
<circle cx="44.6102" cy="4.0400" r="0.5100" /> 
</g>
<g style="fill:#FFFFFF; fill-opacity:1.0000; stroke:none;">
<circle cx="44.6102" cy="6.5800" r="0.5100" /> 
</g>
<g style="fill:#FFFFFF; fill-opacity:1.0000; stroke:none;">
<circle cx="47.1502" cy="4.0400" r="0.5100" /> 
</g>
<g style="fill:#FFFFFF; fill-opacity:1.0000; stroke:none;">
<circle cx="47.1502" cy="6.5800" r="0.5100" /> 
</g>
<g style="fill:#FFFFFF; fill-opacity:1.0000; stroke:none;">
<circle cx="49.6902" cy="4.0400" r="0.5100" /> 
</g>
<g style="fill:#FFFFFF; fill-opacity:1.0000; stroke:none;">
<circle cx="49.6902" cy="6.5800" r="0.5100" /> 
</g>
<g style="fill:#FFFFFF; fill-opacity:1.0000; stroke:none;">
<circle cx="52.2302" cy="4.0400" r="0.5100" /> 
</g>
<g style="fill:#FFFFFF; fill-opacity:1.0000; stroke:none;">
<circle cx="52.2302" cy="6.5800" r="0.5100" /> 
</g>
<g style="fill:#FFFFFF; fill-opacity:1.0000; stroke:none;">
<circle cx="11.9902" cy="21.0000" r="0.3750" /> 
</g>
<g style="fill:#FFFFFF; fill-opacity:1.0000; stroke:none;">
<circle cx="9.9902" cy="21.0000" r="0.3750" /> 
</g> 
</svg>
