%TF.GenerationSoftware,KiCad,Pcbnew,10.0.3*%
%TF.CreationDate,2026-08-20T19:01:49-04:00*%
%TF.ProjectId,aqroot-Beta-DM,6171726f-6f74-42d4-9265-74612d444d2e,rev?*%
%TF.SameCoordinates,Original*%
%TF.FileFunction,Paste,Bot*%
%TF.FilePolarity,Positive*%
%FSLAX46Y46*%
G04 Gerber Fmt 4.6, Leading zero omitted, Abs format (unit mm)*
G04 Created by KiCad (PCBNEW 10.0.3) date 2026-08-20 19:01:49*
%MOMM*%
%LPD*%
G01*
G04 APERTURE LIST*
G04 Aperture macros list*
%AMRoundRect*
0 Rectangle with rounded corners*
0 $1 Rounding radius*
0 $2 $3 $4 $5 $6 $7 $8 $9 X,Y pos of 4 corners*
0 Add a 4 corners polygon primitive as box body*
4,1,4,$2,$3,$4,$5,$6,$7,$8,$9,$2,$3,0*
0 Add four circle primitives for the rounded corners*
1,1,$1+$1,$2,$3*
1,1,$1+$1,$4,$5*
1,1,$1+$1,$6,$7*
1,1,$1+$1,$8,$9*
0 Add four rect primitives between the rounded corners*
20,1,$1+$1,$2,$3,$4,$5,0*
20,1,$1+$1,$4,$5,$6,$7,0*
20,1,$1+$1,$6,$7,$8,$9,0*
20,1,$1+$1,$8,$9,$2,$3,0*%
G04 Aperture macros list end*
%ADD10C,0.000000*%
%ADD11RoundRect,0.200000X-0.200000X-0.275000X0.200000X-0.275000X0.200000X0.275000X-0.200000X0.275000X0*%
%ADD12RoundRect,0.112500X0.187500X0.112500X-0.187500X0.112500X-0.187500X-0.112500X0.187500X-0.112500X0*%
%ADD13RoundRect,0.225000X0.225000X0.250000X-0.225000X0.250000X-0.225000X-0.250000X0.225000X-0.250000X0*%
%ADD14RoundRect,0.100000X0.100000X-0.637500X0.100000X0.637500X-0.100000X0.637500X-0.100000X-0.637500X0*%
%ADD15R,0.900000X1.800000*%
%ADD16RoundRect,0.200000X0.200000X0.275000X-0.200000X0.275000X-0.200000X-0.275000X0.200000X-0.275000X0*%
%ADD17RoundRect,0.250000X0.250000X0.475000X-0.250000X0.475000X-0.250000X-0.475000X0.250000X-0.475000X0*%
%ADD18R,0.475000X0.250000*%
%ADD19R,0.250000X0.475000*%
%ADD20RoundRect,0.225000X-0.225000X-0.250000X0.225000X-0.250000X0.225000X0.250000X-0.225000X0.250000X0*%
%ADD21RoundRect,0.225000X0.250000X-0.225000X0.250000X0.225000X-0.250000X0.225000X-0.250000X-0.225000X0*%
%ADD22RoundRect,0.250000X-0.250000X-0.475000X0.250000X-0.475000X0.250000X0.475000X-0.250000X0.475000X0*%
%ADD23RoundRect,0.150000X-0.587500X-0.150000X0.587500X-0.150000X0.587500X0.150000X-0.587500X0.150000X0*%
%ADD24RoundRect,0.087500X-0.425000X-0.087500X0.425000X-0.087500X0.425000X0.087500X-0.425000X0.087500X0*%
%ADD25RoundRect,0.100000X-0.637500X-0.100000X0.637500X-0.100000X0.637500X0.100000X-0.637500X0.100000X0*%
%ADD26R,1.800000X0.900000*%
%ADD27RoundRect,0.150000X-0.512500X-0.150000X0.512500X-0.150000X0.512500X0.150000X-0.512500X0.150000X0*%
%ADD28R,0.900000X0.900000*%
%ADD29R,0.900000X1.500000*%
%ADD30R,1.500000X0.900000*%
%ADD31RoundRect,0.225000X-0.250000X0.225000X-0.250000X-0.225000X0.250000X-0.225000X0.250000X0.225000X0*%
%ADD32RoundRect,0.200000X0.275000X-0.200000X0.275000X0.200000X-0.275000X0.200000X-0.275000X-0.200000X0*%
%ADD33R,0.800000X1.500000*%
%ADD34R,1.400000X1.700000*%
%ADD35R,1.500000X1.150000*%
%ADD36R,1.300000X1.500000*%
%ADD37RoundRect,0.125000X-0.687500X-0.125000X0.687500X-0.125000X0.687500X0.125000X-0.687500X0.125000X0*%
%ADD38RoundRect,0.125000X-0.125000X0.125000X-0.125000X-0.125000X0.125000X-0.125000X0.125000X0.125000X0*%
%ADD39RoundRect,0.062500X-0.062500X0.350000X-0.062500X-0.350000X0.062500X-0.350000X0.062500X0.350000X0*%
%ADD40RoundRect,0.062500X-0.350000X0.062500X-0.350000X-0.062500X0.350000X-0.062500X0.350000X0.062500X0*%
%ADD41RoundRect,0.250000X-0.525000X-0.400000X0.525000X-0.400000X0.525000X0.400000X-0.525000X0.400000X0*%
%ADD42R,0.980000X3.400000*%
%ADD43RoundRect,0.250000X-0.262500X-0.450000X0.262500X-0.450000X0.262500X0.450000X-0.262500X0.450000X0*%
G04 APERTURE END LIST*
%TO.C,MK1*%
G36*
X70350000Y-9653000D02*
G01*
X70850000Y-9653000D01*
X70850000Y-10075000D01*
X70350000Y-10075000D01*
X70350000Y-9653000D01*
G37*
G36*
X70350000Y-8831000D02*
G01*
X70850000Y-8831000D01*
X70850000Y-9253000D01*
X70350000Y-9253000D01*
X70350000Y-8831000D01*
G37*
G36*
X71250000Y-9653000D02*
G01*
X71750000Y-9653000D01*
X71750000Y-10075000D01*
X71250000Y-10075000D01*
X71250000Y-9653000D01*
G37*
G36*
X72150000Y-8831000D02*
G01*
X72650000Y-8831000D01*
X72650000Y-9253000D01*
X72150000Y-9253000D01*
X72150000Y-8831000D01*
G37*
G36*
X72150000Y-9653000D02*
G01*
X72650000Y-9653000D01*
X72650000Y-10075000D01*
X72150000Y-10075000D01*
X72150000Y-9653000D01*
G37*
D10*
G36*
X70960700Y-7949800D02*
G01*
X71002900Y-8053200D01*
X71064700Y-8146300D01*
X71143700Y-8225300D01*
X71236800Y-8287100D01*
X71340200Y-8329300D01*
X71450000Y-8350300D01*
X71450000Y-8601000D01*
X71284500Y-8573400D01*
X71128300Y-8512500D01*
X70987800Y-8420800D01*
X70869200Y-8302200D01*
X70777500Y-8161700D01*
X70716600Y-8005500D01*
X70689000Y-7840000D01*
X70939700Y-7840000D01*
X70960700Y-7949800D01*
G37*
G36*
X71450000Y-7229700D02*
G01*
X71340200Y-7250700D01*
X71236800Y-7292900D01*
X71143700Y-7354700D01*
X71064700Y-7433700D01*
X71002900Y-7526800D01*
X70960700Y-7630200D01*
X70939700Y-7740000D01*
X70689000Y-7740000D01*
X70716600Y-7574500D01*
X70777500Y-7418300D01*
X70869200Y-7277800D01*
X70987800Y-7159200D01*
X71128300Y-7067500D01*
X71284500Y-7006600D01*
X71450000Y-6979000D01*
X71450000Y-7229700D01*
G37*
G36*
X72283400Y-8005500D02*
G01*
X72222500Y-8161700D01*
X72130800Y-8302200D01*
X72012200Y-8420800D01*
X71871700Y-8512500D01*
X71715500Y-8573400D01*
X71550000Y-8601000D01*
X71550000Y-8350300D01*
X71659800Y-8329300D01*
X71763200Y-8287100D01*
X71856300Y-8225300D01*
X71935300Y-8146300D01*
X71997100Y-8053200D01*
X72039300Y-7949800D01*
X72060300Y-7840000D01*
X72311000Y-7840000D01*
X72283400Y-8005500D01*
G37*
G36*
X71715500Y-7006600D02*
G01*
X71871700Y-7067500D01*
X72012200Y-7159200D01*
X72130800Y-7277800D01*
X72222500Y-7418300D01*
X72283400Y-7574500D01*
X72311000Y-7740000D01*
X72060300Y-7740000D01*
X72039300Y-7630200D01*
X71997100Y-7526800D01*
X71935300Y-7433700D01*
X71856300Y-7354700D01*
X71763200Y-7292900D01*
X71659800Y-7250700D01*
X71550000Y-7229700D01*
X71550000Y-6979000D01*
X71715500Y-7006600D01*
G37*
%TD*%
D11*
%TO.C,R47*%
X36075000Y-14000000D03*
X37725000Y-14000000D03*
%TD*%
D12*
%TO.C,D8*%
X44050000Y-85200000D03*
X41950000Y-85200000D03*
%TD*%
D11*
%TO.C,R1*%
X14675000Y-10500000D03*
X16325000Y-10500000D03*
%TD*%
D13*
%TO.C,C37*%
X30775000Y-14000000D03*
X29225000Y-14000000D03*
%TD*%
D14*
%TO.C,U3*%
X25575000Y-15162500D03*
X24925000Y-15162500D03*
X24275000Y-15162500D03*
X23625000Y-15162500D03*
X22975000Y-15162500D03*
X22325000Y-15162500D03*
X21675000Y-15162500D03*
X21025000Y-15162500D03*
X20375000Y-15162500D03*
X19725000Y-15162500D03*
X19075000Y-15162500D03*
X18425000Y-15162500D03*
X18425000Y-9437500D03*
X19075000Y-9437500D03*
X19725000Y-9437500D03*
X20375000Y-9437500D03*
X21025000Y-9437500D03*
X21675000Y-9437500D03*
X22325000Y-9437500D03*
X22975000Y-9437500D03*
X23625000Y-9437500D03*
X24275000Y-9437500D03*
X24925000Y-9437500D03*
X25575000Y-9437500D03*
%TD*%
D15*
%TO.C,U7*%
X46500000Y-139500000D03*
X47770000Y-139500000D03*
X49040000Y-139500000D03*
X54610000Y-139500000D03*
X55880000Y-139500000D03*
X57150000Y-139500000D03*
X58420000Y-139500000D03*
X59690000Y-139500000D03*
X60960000Y-139500000D03*
X62230000Y-139500000D03*
X63500000Y-139500000D03*
X63500000Y-153500000D03*
X62230000Y-153500000D03*
X60960000Y-153500000D03*
X59690000Y-153500000D03*
X58420000Y-153500000D03*
X57150000Y-153500000D03*
X55880000Y-153500000D03*
X54610000Y-153500000D03*
X49040000Y-153500000D03*
X47770000Y-153500000D03*
X46500000Y-153500000D03*
%TD*%
D11*
%TO.C,R15*%
X10675000Y-54900000D03*
X12325000Y-54900000D03*
%TD*%
%TO.C,R17*%
X43175000Y-9350000D03*
X44825000Y-9350000D03*
%TD*%
D16*
%TO.C,R71*%
X51225000Y-83000000D03*
X49575000Y-83000000D03*
%TD*%
D17*
%TO.C,C43*%
X34450000Y-83150000D03*
X32550000Y-83150000D03*
%TD*%
D18*
%TO.C,U4*%
X10937500Y-64250000D03*
X10937500Y-63750000D03*
X10937500Y-63250000D03*
X10937500Y-62750000D03*
D19*
X11600000Y-62587500D03*
X12100000Y-62587500D03*
X12600000Y-62587500D03*
D18*
X13262500Y-62750000D03*
X13262500Y-63250000D03*
X13262500Y-63750000D03*
X13262500Y-64250000D03*
D19*
X12600000Y-64412500D03*
X12100000Y-64412500D03*
X11600000Y-64412500D03*
%TD*%
D11*
%TO.C,R12*%
X17375000Y-40500000D03*
X19025000Y-40500000D03*
%TD*%
D20*
%TO.C,C38*%
X39425000Y-14000000D03*
X40975000Y-14000000D03*
%TD*%
D21*
%TO.C,C40*%
X30700000Y-11975000D03*
X30700000Y-10425000D03*
%TD*%
D22*
%TO.C,C10*%
X68850000Y-16300000D03*
X70750000Y-16300000D03*
%TD*%
D23*
%TO.C,Q1*%
X58062500Y-8250000D03*
X58062500Y-6350000D03*
X59937500Y-7300000D03*
%TD*%
D11*
%TO.C,R2*%
X21175000Y-37500000D03*
X22825000Y-37500000D03*
%TD*%
D16*
%TO.C,R22*%
X60125000Y-11400000D03*
X58475000Y-11400000D03*
%TD*%
%TO.C,R72*%
X51225000Y-81100000D03*
X49575000Y-81100000D03*
%TD*%
D22*
%TO.C,C44*%
X45950000Y-85200000D03*
X47850000Y-85200000D03*
%TD*%
D13*
%TO.C,C13*%
X29275000Y-79000000D03*
X27725000Y-79000000D03*
%TD*%
D20*
%TO.C,C56*%
X45325000Y-82500000D03*
X46875000Y-82500000D03*
%TD*%
D11*
%TO.C,R11*%
X17375000Y-45500000D03*
X19025000Y-45500000D03*
%TD*%
D16*
%TO.C,R73*%
X51225000Y-79200000D03*
X49575000Y-79200000D03*
%TD*%
D13*
%TO.C,C8*%
X72775000Y-11800000D03*
X71225000Y-11800000D03*
%TD*%
D11*
%TO.C,R14*%
X7175000Y-54900000D03*
X8825000Y-54900000D03*
%TD*%
%TO.C,R3*%
X17375000Y-43000000D03*
X19025000Y-43000000D03*
%TD*%
D24*
%TO.C,U17*%
X42162500Y-83150000D03*
X42162500Y-82500000D03*
X42162500Y-81850000D03*
X43837500Y-81850000D03*
X43837500Y-83150000D03*
%TD*%
D11*
%TO.C,R13*%
X17375000Y-53000000D03*
X19025000Y-53000000D03*
%TD*%
D22*
%TO.C,C12*%
X62050000Y-9900000D03*
X63950000Y-9900000D03*
%TD*%
D25*
%TO.C,U2*%
X9137500Y-47575000D03*
X9137500Y-46925000D03*
X9137500Y-46275000D03*
X9137500Y-45625000D03*
X9137500Y-44975000D03*
X9137500Y-44325000D03*
X9137500Y-43675000D03*
X9137500Y-43025000D03*
X9137500Y-42375000D03*
X9137500Y-41725000D03*
X9137500Y-41075000D03*
X9137500Y-40425000D03*
X14862500Y-40425000D03*
X14862500Y-41075000D03*
X14862500Y-41725000D03*
X14862500Y-42375000D03*
X14862500Y-43025000D03*
X14862500Y-43675000D03*
X14862500Y-44325000D03*
X14862500Y-44975000D03*
X14862500Y-45625000D03*
X14862500Y-46275000D03*
X14862500Y-46925000D03*
X14862500Y-47575000D03*
%TD*%
D26*
%TO.C,U8*%
X72000000Y-119000000D03*
X72000000Y-120270000D03*
X72000000Y-121540000D03*
X72000000Y-127110000D03*
X72000000Y-128380000D03*
X72000000Y-129650000D03*
X72000000Y-130920000D03*
X72000000Y-132190000D03*
X72000000Y-133460000D03*
X72000000Y-134730000D03*
X72000000Y-136000000D03*
X58000000Y-136000000D03*
X58000000Y-134730000D03*
X58000000Y-133460000D03*
X58000000Y-132190000D03*
X58000000Y-130920000D03*
X58000000Y-129650000D03*
X58000000Y-128380000D03*
X58000000Y-127110000D03*
X58000000Y-121540000D03*
X58000000Y-120270000D03*
X58000000Y-119000000D03*
%TD*%
D11*
%TO.C,R4*%
X7175000Y-50500000D03*
X8825000Y-50500000D03*
%TD*%
%TO.C,R9*%
X10675000Y-53000000D03*
X12325000Y-53000000D03*
%TD*%
D13*
%TO.C,C2*%
X9075000Y-14800000D03*
X7525000Y-14800000D03*
%TD*%
D27*
%TO.C,U15*%
X42862500Y-12950000D03*
X42862500Y-12000000D03*
X42862500Y-11050000D03*
X45137500Y-11050000D03*
X45137500Y-12000000D03*
X45137500Y-12950000D03*
%TD*%
D28*
%TO.C,U1*%
X16610000Y-23100000D03*
X15210000Y-23100000D03*
X13810000Y-23100000D03*
X16610000Y-24500000D03*
X15210000Y-24500000D03*
X13810000Y-24500000D03*
X16610000Y-25900000D03*
X15210000Y-25900000D03*
X13810000Y-25900000D03*
D29*
X7490000Y-17250000D03*
X8760000Y-17250000D03*
X10030000Y-17250000D03*
X11300000Y-17250000D03*
X12570000Y-17250000D03*
X13840000Y-17250000D03*
X15110000Y-17250000D03*
X16380000Y-17250000D03*
X17650000Y-17250000D03*
X18920000Y-17250000D03*
X20190000Y-17250000D03*
X21460000Y-17250000D03*
X22730000Y-17250000D03*
X24000000Y-17250000D03*
D30*
X25250000Y-19015000D03*
X25250000Y-20285000D03*
X25250000Y-21555000D03*
X25250000Y-22825000D03*
X25250000Y-24095000D03*
X25250000Y-25365000D03*
X25250000Y-26635000D03*
X25250000Y-27905000D03*
X25250000Y-29175000D03*
X25250000Y-30445000D03*
X25250000Y-31715000D03*
X25250000Y-32985000D03*
D29*
X24000000Y-34750000D03*
X22730000Y-34750000D03*
X21460000Y-34750000D03*
X20190000Y-34750000D03*
X18920000Y-34750000D03*
X17650000Y-34750000D03*
X16380000Y-34750000D03*
X15110000Y-34750000D03*
X13840000Y-34750000D03*
X12570000Y-34750000D03*
X11300000Y-34750000D03*
X10030000Y-34750000D03*
X8760000Y-34750000D03*
X7490000Y-34750000D03*
%TD*%
D11*
%TO.C,R19*%
X7175000Y-37200000D03*
X8825000Y-37200000D03*
%TD*%
D16*
%TO.C,R26*%
X32825000Y-79000000D03*
X31175000Y-79000000D03*
%TD*%
D11*
%TO.C,R69*%
X41675000Y-79800000D03*
X43325000Y-79800000D03*
%TD*%
D31*
%TO.C,C5*%
X27700000Y-9525000D03*
X27700000Y-11075000D03*
%TD*%
D32*
%TO.C,R50*%
X49600000Y-11825000D03*
X49600000Y-10175000D03*
%TD*%
D33*
%TO.C,J2*%
X13194000Y-151038000D03*
X14294000Y-151038000D03*
X15394000Y-151038000D03*
X16494000Y-151038000D03*
X17594000Y-151038000D03*
X18694000Y-151038000D03*
X19794000Y-151038000D03*
X20894000Y-151038000D03*
D34*
X9444000Y-153937000D03*
D35*
X12994000Y-139463000D03*
X21894000Y-139463000D03*
D34*
X22344000Y-153937000D03*
D35*
X15294000Y-139463000D03*
D36*
X22556000Y-144188000D03*
%TD*%
D37*
%TO.C,U16*%
X32887500Y-12175000D03*
X32887500Y-11525000D03*
X32887500Y-10875000D03*
X32887500Y-10225000D03*
X37112500Y-10225000D03*
X37112500Y-10875000D03*
X37112500Y-11525000D03*
X37112500Y-12175000D03*
%TD*%
D31*
%TO.C,C42*%
X39500000Y-10425000D03*
X39500000Y-11975000D03*
%TD*%
D16*
%TO.C,R48*%
X34325000Y-14000000D03*
X32675000Y-14000000D03*
%TD*%
D11*
%TO.C,R23*%
X57575000Y-13700000D03*
X59225000Y-13700000D03*
%TD*%
D32*
%TO.C,R49*%
X47600000Y-11825000D03*
X47600000Y-10175000D03*
%TD*%
D38*
%TO.C,U5*%
X62810000Y-14490000D03*
X62190000Y-14490000D03*
X62810000Y-15110000D03*
X62190000Y-15110000D03*
D39*
X61750000Y-13362500D03*
X62250000Y-13362500D03*
X62750000Y-13362500D03*
X63250000Y-13362500D03*
D40*
X63937500Y-14050000D03*
X63937500Y-14550000D03*
X63937500Y-15050000D03*
X63937500Y-15550000D03*
D39*
X63250000Y-16237500D03*
X62750000Y-16237500D03*
X62250000Y-16237500D03*
X61750000Y-16237500D03*
D40*
X61062500Y-15550000D03*
X61062500Y-15050000D03*
X61062500Y-14550000D03*
X61062500Y-14050000D03*
%TD*%
D41*
%TO.C,SW1*%
X2020000Y-72250000D03*
X9980000Y-72250000D03*
X2020000Y-67750000D03*
X9980000Y-67750000D03*
%TD*%
D11*
%TO.C,R5*%
X10675000Y-50500000D03*
X12325000Y-50500000D03*
%TD*%
%TO.C,R7*%
X17375000Y-50500000D03*
X19025000Y-50500000D03*
%TD*%
D20*
%TO.C,C7*%
X14725000Y-60800000D03*
X16275000Y-60800000D03*
%TD*%
D11*
%TO.C,R16*%
X13975000Y-54900000D03*
X15625000Y-54900000D03*
%TD*%
D20*
%TO.C,C1*%
X11025000Y-14800000D03*
X12575000Y-14800000D03*
%TD*%
D11*
%TO.C,R10*%
X13975000Y-53000000D03*
X15625000Y-53000000D03*
%TD*%
D16*
%TO.C,R70*%
X51225000Y-84900000D03*
X49575000Y-84900000D03*
%TD*%
D22*
%TO.C,C3*%
X14550000Y-14800000D03*
X16450000Y-14800000D03*
%TD*%
D20*
%TO.C,C6*%
X11075000Y-60800000D03*
X12625000Y-60800000D03*
%TD*%
%TO.C,C4*%
X17025000Y-48000000D03*
X18575000Y-48000000D03*
%TD*%
D11*
%TO.C,R6*%
X13975000Y-50500000D03*
X15625000Y-50500000D03*
%TD*%
D42*
%TO.C,L3*%
X36815000Y-83150000D03*
X39185000Y-83150000D03*
%TD*%
D11*
%TO.C,R8*%
X7175000Y-53000000D03*
X8825000Y-53000000D03*
%TD*%
D43*
%TO.C,R24*%
X62087500Y-7000000D03*
X63912500Y-7000000D03*
%TD*%
D21*
%TO.C,C9*%
X66000000Y-15075000D03*
X66000000Y-13525000D03*
%TD*%
D11*
%TO.C,R20*%
X10675000Y-37200000D03*
X12325000Y-37200000D03*
%TD*%
%TO.C,R18*%
X14975000Y-63500000D03*
X16625000Y-63500000D03*
%TD*%
M02*
