M48
; DRILL file KiCad 10.0.3 date 2026-08-20T19:01:50
; FORMAT={-:-/ absolute / metric / decimal}
; #@! TF.CreationDate,2026-08-20T19:01:50-04:00
; #@! TF.GenerationSoftware,Kicad,Pcbnew,10.0.3
; #@! TF.FileFunction,Plated,1,4,PTH
FMAT,2
METRIC
; #@! TA.AperFunction,Plated,PTH,ComponentDrill
T1C0.200
; #@! TA.AperFunction,Plated,PTH,ViaDrill
T2C0.250
; #@! TA.AperFunction,Plated,PTH,ViaDrill
T3C0.300
; #@! TA.AperFunction,Plated,PTH,ViaDrill
T4C0.400
; #@! TA.AperFunction,Plated,PTH,ComponentDrill
T5C0.600
; #@! TA.AperFunction,Plated,PTH,ComponentDrill
T6C0.750
; #@! TA.AperFunction,Plated,PTH,ComponentDrill
T7C0.900
; #@! TA.AperFunction,Plated,PTH,ComponentDrill
T8C1.020
; #@! TA.AperFunction,Plated,PTH,ComponentDrill
T9C1.100
%
G90
G05
T1
X13.81Y-23.8
X13.81Y-25.2
X14.51Y-23.1
X14.51Y-24.5
X14.51Y-25.9
X15.21Y-23.8
X15.21Y-25.2
X15.91Y-23.1
X15.91Y-24.5
X15.91Y-25.9
X16.61Y-23.8
X16.61Y-25.2
T2
X8.05Y-54.75
X13.55Y-53.95
X16.05Y-13.7
X20.4Y-14.05
X23.025Y-18.7
X23.3Y-21.1
X23.3Y-22.25
X23.3Y-23.4
X23.95Y-21.1
X23.95Y-22.25
X23.95Y-23.4
X24.0Y-18.5
X27.4Y-13.0
X33.225Y-144.0
X33.5Y-146.2
X35.25Y-146.2
X37.4Y-146.6
X39.4Y-60.85
X39.4Y-62.75
X39.75Y-8.75
X40.15Y-60.85
X40.15Y-62.75
X53.4Y-86.0
X53.4Y-116.0
X54.15Y-86.0
X54.15Y-116.0
X62.5Y-14.8
X63.0Y-30.8
X63.0Y-36.6
X64.5Y-80.5
X64.7Y-50.65
X64.7Y-51.35
X65.0Y-66.65
X65.0Y-67.35
X65.5Y-50.65
X65.5Y-51.35
X66.3Y-50.65
X66.3Y-51.35
X67.3Y-66.8
X67.3Y-72.3
T3
X2.55Y-67.75
X5.55Y-65.3
X6.4Y-45.0
X7.4Y-41.5
X7.4Y-45.625
X7.55Y-46.45
X7.7Y-15.7
X7.8Y-17.7
X7.8Y-35.2
X8.123Y-53.151
X8.152Y-54.0
X8.37Y-114.55
X9.0Y-85.0
X9.0Y-141.0
X9.5Y-63.25
X9.511Y-49.8
X9.527Y-50.7
X9.6Y-64.45
X10.0Y-38.1
X10.002Y-53.9
X10.15Y-81.6
X10.175Y-51.475
X10.2Y-65.0
X10.2Y-85.0
X10.2Y-141.0
X10.3Y-17.1
X10.5Y-56.85
X10.55Y-40.5
X10.6Y-153.95
X10.7Y-33.0
X10.7Y-41.725
X10.7Y-44.325
X10.7Y-73.4
X10.8Y-146.0
X11.3Y-19.1
X11.3Y-34.75
X11.3Y-82.0
X11.35Y-73.9
X11.4Y-85.0
X11.4Y-141.0
X11.6Y-14.8
X11.8Y-13.9
X12.0Y-146.0
X12.6Y-14.8
X12.6Y-83.5
X12.6Y-141.0
X13.0Y-80.0
X13.4Y-19.5
X13.4Y-83.6
X13.6Y-45.45
X13.6Y-56.9
X13.6Y-68.65
X13.601Y-38.1
X13.601Y-44.599
X13.601Y-79.197
X13.65Y-35.0
X13.7Y-43.8
X13.7Y-48.35
X13.7Y-52.0
X13.823Y-43.0
X13.998Y-33.481
X14.2Y-64.35
X14.294Y-148.6
X14.7Y-19.3
X14.923Y-50.1
X15.0Y-84.2
X15.1Y-33.481
X15.5Y-13.0
X15.8Y-19.5
X15.85Y-32.7
X15.9Y-42.352
X15.95Y-66.85
X16.0Y-12.35
X16.1Y-31.15
X16.4Y-83.5
X16.45Y-66.2
X16.5Y-38.7
X16.5Y-46.925
X16.5Y-65.4
X16.6Y-19.5
X16.7Y-35.55
X16.75Y-29.5
X16.898Y-33.481
X17.1Y-54.9
X17.48Y-114.65
X17.5Y-36.05
X17.5Y-56.2
X17.55Y-29.5
X17.55Y-34.1
X17.55Y-57.0
X18.2Y-11.7
X18.2Y-38.2
X18.2Y-46.6
X18.2Y-64.7
X18.2Y-149.6
X18.4Y-147.0
X18.8Y-12.85
X18.85Y-152.25
X19.0Y-21.1
X19.0Y-80.3
X19.0Y-86.5
X19.8Y-19.3
X19.8Y-62.9
X19.85Y-87.1
X20.02Y-114.65
X20.02Y-138.35
X20.45Y-29.5
X20.5Y-32.0
X20.6Y-20.4
X21.2Y-29.8
X21.625Y-12.248
X21.9Y-36.55
X22.0Y-39.5
X22.601Y-50.348
X22.65Y-12.35
X22.65Y-47.15
X22.85Y-64.0
X22.877Y-52.8
X23.0Y-52.0
X23.2Y-37.95
X23.3Y-31.35
X23.3Y-33.481
X23.4Y-39.0
X23.4Y-40.0
X23.498Y-66.0
X23.65Y-144.2
X23.801Y-32.849
X24.1Y-36.2
X25.1Y-10.875
X25.2Y-34.3
X25.25Y-29.15
X25.35Y-78.7
X25.4Y-40.1
X26.0Y-77.0
X26.0Y-81.5
X26.05Y-38.35
X26.05Y-39.6
X26.05Y-79.1
X26.075Y-84.9
X26.15Y-13.4
X26.8Y-14.05
X26.9Y-15.3
X27.0Y-12.25
X27.0Y-18.835
X27.275Y-84.9
X27.7Y-49.05
X27.7Y-57.65
X27.98Y-114.35
X28.0Y-39.0
X28.2Y-14.35
X28.35Y-77.4
X29.0Y-10.875
X29.38Y-8.798
X29.55Y-39.6
X30.0Y-52.0
X30.0Y-65.4
X30.2Y-144.0
X30.45Y-39.6
X30.52Y-114.65
X30.598Y-8.649
X30.9Y-81.5
X31.4Y-76.0
X31.5Y-78.8
X31.526Y-8.6
X31.7Y-144.0
X31.75Y-85.5
X33.25Y-84.4
X33.4Y-57.6
X33.8Y-9.4
X33.8Y-78.8
X33.9Y-81.5
X34.75Y-81.45
X34.9Y-79.1
X35.05Y-143.55
X35.298Y-60.748
X35.55Y-81.45
X35.7Y-11.35
X35.85Y-148.75
X35.9Y-79.1
X35.998Y-8.6
X36.9Y-79.1
X37.15Y-40.2
X37.523Y-9.4
X37.75Y-57.6
X37.9Y-79.1
X38.1Y-8.6
X38.2Y-147.1
X38.25Y-81.2
X38.48Y-114.65
X38.75Y-64.0
X38.9Y-79.1
X39.0Y-8.601
X39.25Y-35.3
X39.7Y-144.0
X40.4Y-81.2
X40.651Y-10.676
X40.701Y-63.326
X40.8Y-148.1
X41.1Y-8.6
X41.25Y-38.35
X41.35Y-139.5
X41.4Y-81.2
X41.7Y-10.973
X41.82Y-114.65
X42.55Y-13.8
X42.95Y-81.2
X43.8Y-81.3
X44.173Y-14.7
X44.9Y-146.5
X45.25Y-36.1
X45.25Y-81.4
X45.62Y-140.75
X45.727Y-8.601
X46.5Y-10.877
X46.8Y-14.6
X46.8Y-153.95
X46.85Y-139.95
X47.15Y-81.3
X47.6Y-14.65
X47.7Y-8.8
X47.75Y-82.9
X48.05Y-81.4
X48.1Y-139.95
X48.425Y-9.4
X48.548Y-8.601
X48.8Y-82.3
X49.4Y-139.95
X49.55Y-84.9
X49.6Y-153.5
X49.926Y-8.798
X50.4Y-79.95
X51.0Y-11.098
X51.28Y-114.45
X51.8Y-9.4
X51.9Y-75.4
X51.95Y-11.0
X52.15Y-79.4
X52.526Y-11.748
X53.15Y-14.6
X53.58Y-140.75
X54.0Y-14.6
X54.05Y-139.95
X54.5Y-82.898
X54.55Y-11.2
X54.96Y-86.0
X55.2Y-78.4
X55.88Y-151.8
X56.15Y-140.0
X57.0Y-38.0
X57.1Y-77.8
X57.1Y-115.4
X57.15Y-151.8
X57.16Y-116.9
X57.406Y-122.55
X57.55Y-119.3
X58.15Y-86.0
X58.3Y-85.2
X58.35Y-121.95
X58.42Y-151.8
X58.55Y-136.0
X59.45Y-128.38
X59.5Y-78.0
X60.0Y-12.6
X60.1Y-55.15
X60.15Y-129.65
X60.2Y-74.5
X60.35Y-26.25
X60.85Y-130.92
X61.0Y-86.0
X61.05Y-9.4
X61.6Y-22.5
X61.6Y-25.85
X61.7Y-127.11
X61.7Y-133.46
X62.05Y-55.05
X62.25Y-141.75
X63.0Y-132.5
X63.4Y-78.0
X63.5Y-143.0
X63.65Y-11.95
X63.7Y-47.35
X63.85Y-49.45
X64.0Y-83.0
X64.05Y-81.8
X64.05Y-139.5
X64.05Y-153.5
X64.2Y-78.1
X64.4Y-63.4
X65.0Y-131.0
X65.1Y-47.65
X65.35Y-45.95
X65.49Y-78.0
X65.7Y-70.0
X65.7Y-72.3
X65.8Y-43.7
X65.9Y-16.4
X66.0Y-83.5
X66.1Y-74.6
X66.6Y-12.65
X66.8Y-80.25
X67.0Y-85.0
X67.0Y-129.0
X67.2Y-43.0
X67.5Y-58.5
X67.5Y-61.5
X67.8Y-63.4
X68.0Y-9.9
X68.0Y-85.0
X68.0Y-129.0
X68.3Y-43.0
X69.15Y-55.5
X69.4Y-66.9
X70.15Y-8.75
X70.5Y-70.9
X70.5Y-73.2
X70.5Y-75.5
X70.6Y-129.65
X70.95Y-17.45
X71.0Y-38.0
X71.35Y-12.35
X71.4Y-128.65
X71.4Y-134.5
X72.4Y-9.05
X72.55Y-119.0
X72.55Y-120.25
X72.55Y-121.55
X72.55Y-127.1
X72.55Y-128.4
X72.55Y-134.75
X72.55Y-136.0
X72.7Y-7.8
X73.0Y-46.0
X73.0Y-58.5
X73.0Y-61.5
T4
X9.85Y-33.35
X9.85Y-36.7
X10.6Y-49.975
X10.6Y-52.775
X13.75Y-27.65
X14.0Y-62.75
X14.65Y-53.8
X14.7Y-51.3
X16.55Y-151.05
X17.4Y-47.05
X18.9Y-19.4
X20.76Y-21.73
X21.9Y-37.4
X28.0Y-144.8
X28.45Y-13.0
X28.6Y-9.25
X29.0Y-146.4
X29.25Y-75.25
X29.25Y-77.1
X29.5Y-78.95
X32.35Y-78.495
X32.5Y-52.7
X32.58Y-85.49
X37.2Y-139.9
X46.15Y-81.4
X54.85Y-119.0
X56.0Y-86.0
X56.0Y-116.0
X58.7Y-141.05
X60.2Y-54.25
X62.2Y-72.3
X62.2Y-80.4
X62.35Y-43.55
X62.6Y-67.8
X62.9Y-66.6
X64.5Y-11.05
X64.55Y-140.95
X64.65Y-16.0
X65.75Y-54.4
X65.75Y-56.9
X66.425Y-63.2
X67.2Y-65.6
X68.8Y-127.85
X68.8Y-140.15
X69.0Y-82.5
X69.1Y-86.0
X69.1Y-116.0
X69.35Y-134.15
X70.775Y-64.6
X72.7Y-10.9
T6
X58.0Y-82.5
X60.0Y-82.5
X62.0Y-21.0
X64.0Y-21.0
T7
X59.5Y-4.0
X62.04Y-4.0
T8
X21.76Y-4.04
X21.76Y-6.58
X24.3Y-4.04
X24.3Y-6.58
X26.84Y-4.04
X26.84Y-6.58
X29.38Y-4.04
X29.38Y-6.58
X31.92Y-4.04
X31.92Y-6.58
X34.46Y-4.04
X34.46Y-6.58
X37.0Y-4.04
X37.0Y-6.58
X39.54Y-4.04
X39.54Y-6.58
X42.08Y-4.04
X42.08Y-6.58
X44.62Y-4.04
X44.62Y-6.58
X47.16Y-4.04
X47.16Y-6.58
X49.7Y-4.04
X49.7Y-6.58
X52.24Y-4.04
X52.24Y-6.58
T9
X65.96Y-4.5
X68.5Y-4.5
X71.04Y-4.5
T5
X30.68Y-147.67G85X30.68Y-148.77
G05
X30.68Y-152.0G85X30.68Y-152.8
G05
X39.32Y-147.67G85X39.32Y-148.77
G05
X39.32Y-152.0G85X39.32Y-152.8
G05
M30
