%TF.GenerationSoftware,KiCad,Pcbnew,10.0.3*%
%TF.CreationDate,2026-08-20T19:01:49-04:00*%
%TF.ProjectId,aqroot-Beta-DM,6171726f-6f74-42d4-9265-74612d444d2e,rev?*%
%TF.SameCoordinates,Original*%
%TF.FileFunction,Paste,Top*%
%TF.FilePolarity,Positive*%
%FSLAX46Y46*%
G04 Gerber Fmt 4.6, Leading zero omitted, Abs format (unit mm)*
G04 Created by KiCad (PCBNEW 10.0.3) date 2026-08-20 19:01:49*
%MOMM*%
%LPD*%
G01*
G04 APERTURE LIST*
G04 Aperture macros list*
%AMRoundRect*
0 Rectangle with rounded corners*
0 $1 Rounding radius*
0 $2 $3 $4 $5 $6 $7 $8 $9 X,Y pos of 4 corners*
0 Add a 4 corners polygon primitive as box body*
4,1,4,$2,$3,$4,$5,$6,$7,$8,$9,$2,$3,0*
0 Add four circle primitives for the rounded corners*
1,1,$1+$1,$2,$3*
1,1,$1+$1,$4,$5*
1,1,$1+$1,$6,$7*
1,1,$1+$1,$8,$9*
0 Add four rect primitives between the rounded corners*
20,1,$1+$1,$2,$3,$4,$5,0*
20,1,$1+$1,$4,$5,$6,$7,0*
20,1,$1+$1,$6,$7,$8,$9,0*
20,1,$1+$1,$8,$9,$2,$3,0*%
G04 Aperture macros list end*
%ADD10RoundRect,0.200000X-0.200000X-0.275000X0.200000X-0.275000X0.200000X0.275000X-0.200000X0.275000X0*%
%ADD11RoundRect,0.225000X-0.225000X-0.250000X0.225000X-0.250000X0.225000X0.250000X-0.225000X0.250000X0*%
%ADD12RoundRect,0.150000X-0.587500X-0.150000X0.587500X-0.150000X0.587500X0.150000X-0.587500X0.150000X0*%
%ADD13RoundRect,0.087500X-0.250000X-0.087500X0.250000X-0.087500X0.250000X0.087500X-0.250000X0.087500X0*%
%ADD14RoundRect,0.250000X-0.250000X-0.475000X0.250000X-0.475000X0.250000X0.475000X-0.250000X0.475000X0*%
%ADD15RoundRect,0.250000X-0.325000X-0.650000X0.325000X-0.650000X0.325000X0.650000X-0.325000X0.650000X0*%
%ADD16RoundRect,0.225000X-0.250000X0.225000X-0.250000X-0.225000X0.250000X-0.225000X0.250000X0.225000X0*%
%ADD17R,0.360000X4.250000*%
%ADD18R,0.300000X1.230000*%
%ADD19R,0.980000X3.400000*%
%ADD20RoundRect,0.250000X-0.525000X-0.400000X0.525000X-0.400000X0.525000X0.400000X-0.525000X0.400000X0*%
%ADD21RoundRect,0.140000X-0.140000X-0.170000X0.140000X-0.170000X0.140000X0.170000X-0.140000X0.170000X0*%
%ADD22R,0.980000X3.700000*%
%ADD23R,0.340000X0.620000*%
%ADD24RoundRect,0.075000X-0.275000X-0.075000X0.275000X-0.075000X0.275000X0.075000X-0.275000X0.075000X0*%
%ADD25RoundRect,0.250000X-0.375000X-1.000000X0.375000X-1.000000X0.375000X1.000000X-0.375000X1.000000X0*%
%ADD26RoundRect,0.225000X0.250000X-0.225000X0.250000X0.225000X-0.250000X0.225000X-0.250000X-0.225000X0*%
%ADD27O,0.240000X0.600000*%
%ADD28R,2.565000X1.422000*%
%ADD29R,1.400000X1.400000*%
%ADD30RoundRect,0.075000X-0.300000X-0.075000X0.300000X-0.075000X0.300000X0.075000X-0.300000X0.075000X0*%
%ADD31RoundRect,0.075000X-0.075000X-0.300000X0.075000X-0.300000X0.075000X0.300000X-0.075000X0.300000X0*%
%ADD32RoundRect,0.210000X-0.210000X-0.495000X0.210000X-0.495000X0.210000X0.495000X-0.210000X0.495000X0*%
%ADD33RoundRect,0.050000X-0.325000X-0.050000X0.325000X-0.050000X0.325000X0.050000X-0.325000X0.050000X0*%
%ADD34RoundRect,0.250000X0.250000X0.475000X-0.250000X0.475000X-0.250000X-0.475000X0.250000X-0.475000X0*%
%ADD35RoundRect,0.150000X0.150000X-0.512500X0.150000X0.512500X-0.150000X0.512500X-0.150000X-0.512500X0*%
%ADD36RoundRect,0.150000X-0.150000X-0.425000X0.150000X-0.425000X0.150000X0.425000X-0.150000X0.425000X0*%
%ADD37RoundRect,0.075000X-0.075000X-0.500000X0.075000X-0.500000X0.075000X0.500000X-0.075000X0.500000X0*%
%ADD38O,1.000000X2.100000*%
%ADD39O,1.000000X1.800000*%
G04 APERTURE END LIST*
D10*
%TO.C,R45*%
X63175000Y-37800000D03*
X64825000Y-37800000D03*
%TD*%
%TO.C,R44*%
X63175000Y-35500000D03*
X64825000Y-35500000D03*
%TD*%
%TO.C,R21*%
X68975000Y-10600000D03*
X70625000Y-10600000D03*
%TD*%
%TO.C,R67*%
X23575000Y-13900000D03*
X25225000Y-13900000D03*
%TD*%
D11*
%TO.C,C53*%
X23425000Y-17100000D03*
X24975000Y-17100000D03*
%TD*%
D12*
%TO.C,D2*%
X9862500Y-5450000D03*
X9862500Y-7350000D03*
X11737500Y-6400000D03*
%TD*%
D13*
%TO.C,U13*%
X63787500Y-31500000D03*
X63787500Y-32000000D03*
X63787500Y-32500000D03*
X65212500Y-32500000D03*
X65212500Y-32000000D03*
X65212500Y-31500000D03*
%TD*%
D14*
%TO.C,C33*%
X63250000Y-74600000D03*
X65150000Y-74600000D03*
%TD*%
D15*
%TO.C,C26*%
X63525000Y-46000000D03*
X66475000Y-46000000D03*
%TD*%
D10*
%TO.C,R59*%
X36575000Y-12000000D03*
X38225000Y-12000000D03*
%TD*%
D11*
%TO.C,C16*%
X60185000Y-141500000D03*
X61735000Y-141500000D03*
%TD*%
D10*
%TO.C,R40*%
X66675000Y-55500000D03*
X68325000Y-55500000D03*
%TD*%
%TO.C,R33*%
X29675000Y-139800000D03*
X31325000Y-139800000D03*
%TD*%
%TO.C,R54*%
X46775000Y-13900000D03*
X48425000Y-13900000D03*
%TD*%
D11*
%TO.C,C36*%
X66425000Y-64300000D03*
X67975000Y-64300000D03*
%TD*%
D15*
%TO.C,C32*%
X69025000Y-61500000D03*
X71975000Y-61500000D03*
%TD*%
D11*
%TO.C,C50*%
X21225000Y-26900000D03*
X22775000Y-26900000D03*
%TD*%
D16*
%TO.C,C55*%
X22225000Y-28625000D03*
X22225000Y-30175000D03*
%TD*%
D14*
%TO.C,C35*%
X68050000Y-27800000D03*
X69950000Y-27800000D03*
%TD*%
D17*
%TO.C,J1*%
X23135000Y-84790000D03*
X51865000Y-84790000D03*
D18*
X49750000Y-80150000D03*
X49250000Y-80150000D03*
X48750000Y-80150000D03*
X48250000Y-80150000D03*
X47750000Y-80150000D03*
X47250000Y-80150000D03*
X46750000Y-80150000D03*
X46250000Y-80150000D03*
X45750000Y-80150000D03*
X45250000Y-80150000D03*
X44750000Y-80150000D03*
X44250000Y-80150000D03*
X43750000Y-80150000D03*
X43250000Y-80150000D03*
X42750000Y-80150000D03*
X42250000Y-80150000D03*
X41750000Y-80150000D03*
X41250000Y-80150000D03*
X40750000Y-80150000D03*
X40250000Y-80150000D03*
X39750000Y-80150000D03*
X39250000Y-80150000D03*
X38750000Y-80150000D03*
X38250000Y-80150000D03*
X37750000Y-80150000D03*
X37250000Y-80150000D03*
X36750000Y-80150000D03*
X36250000Y-80150000D03*
X35750000Y-80150000D03*
X35250000Y-80150000D03*
X34750000Y-80150000D03*
X34250000Y-80150000D03*
X33750000Y-80150000D03*
X33250000Y-80150000D03*
X32750000Y-80150000D03*
X32250000Y-80150000D03*
X31750000Y-80150000D03*
X31250000Y-80150000D03*
X30750000Y-80150000D03*
X30250000Y-80150000D03*
X29750000Y-80150000D03*
X29250000Y-80150000D03*
X28750000Y-80150000D03*
X28250000Y-80150000D03*
X27750000Y-80150000D03*
X27250000Y-80150000D03*
X26750000Y-80150000D03*
X26250000Y-80150000D03*
X25750000Y-80150000D03*
X25250000Y-80150000D03*
%TD*%
D10*
%TO.C,R57*%
X39975000Y-12000000D03*
X41625000Y-12000000D03*
%TD*%
D19*
%TO.C,L1*%
X69315000Y-51000000D03*
X71685000Y-51000000D03*
%TD*%
D20*
%TO.C,SW8*%
X44020000Y-136250000D03*
X51980000Y-136250000D03*
X44020000Y-140750000D03*
X51980000Y-140750000D03*
%TD*%
D11*
%TO.C,C46*%
X18225000Y-22150000D03*
X19775000Y-22150000D03*
%TD*%
D14*
%TO.C,C49*%
X9050000Y-26200000D03*
X10950000Y-26200000D03*
%TD*%
D10*
%TO.C,R46*%
X42075000Y-9900000D03*
X43725000Y-9900000D03*
%TD*%
D13*
%TO.C,D3*%
X49287500Y-9400000D03*
X49287500Y-9900000D03*
X49287500Y-10400000D03*
X50712500Y-10400000D03*
X50712500Y-9900000D03*
X50712500Y-9400000D03*
%TD*%
D10*
%TO.C,R64*%
X29775000Y-13900000D03*
X31425000Y-13900000D03*
%TD*%
D11*
%TO.C,C21*%
X29725000Y-142400000D03*
X31275000Y-142400000D03*
%TD*%
D14*
%TO.C,C47*%
X9050000Y-23800000D03*
X10950000Y-23800000D03*
%TD*%
D10*
%TO.C,R51*%
X50175000Y-12000000D03*
X51825000Y-12000000D03*
%TD*%
D11*
%TO.C,C22*%
X38725000Y-142400000D03*
X40275000Y-142400000D03*
%TD*%
D15*
%TO.C,C29*%
X63525000Y-58500000D03*
X66475000Y-58500000D03*
%TD*%
D10*
%TO.C,R34*%
X38675000Y-139800000D03*
X40325000Y-139800000D03*
%TD*%
D11*
%TO.C,C23*%
X69225000Y-66000000D03*
X70775000Y-66000000D03*
%TD*%
D20*
%TO.C,SW7*%
X56020000Y-117250000D03*
X63980000Y-117250000D03*
X56020000Y-121750000D03*
X63980000Y-121750000D03*
%TD*%
%TO.C,SW6*%
X43020000Y-120250000D03*
X50980000Y-120250000D03*
X43020000Y-124750000D03*
X50980000Y-124750000D03*
%TD*%
D15*
%TO.C,C30*%
X69025000Y-58500000D03*
X71975000Y-58500000D03*
%TD*%
D10*
%TO.C,R74*%
X69975000Y-129699999D03*
X71625000Y-129699999D03*
%TD*%
%TO.C,R43*%
X4675000Y-66000000D03*
X6325000Y-66000000D03*
%TD*%
%TO.C,R58*%
X39975000Y-13900000D03*
X41625000Y-13900000D03*
%TD*%
D21*
%TO.C,C19*%
X18520000Y-25950000D03*
X19480000Y-25950000D03*
%TD*%
D10*
%TO.C,R37*%
X68675000Y-72300000D03*
X70325000Y-72300000D03*
%TD*%
D11*
%TO.C,C14*%
X15725000Y-149600000D03*
X17275000Y-149600000D03*
%TD*%
%TO.C,C28*%
X63025000Y-64300000D03*
X64575000Y-64300000D03*
%TD*%
D22*
%TO.C,L2*%
X70685000Y-32000000D03*
X68315000Y-32000000D03*
%TD*%
D23*
%TO.C,U14*%
X64270000Y-80120000D03*
X64270000Y-80880000D03*
X64730000Y-80120000D03*
X64730000Y-80880000D03*
D24*
X63510000Y-79750000D03*
X63510000Y-80250000D03*
X63510000Y-80750000D03*
X63510000Y-81250000D03*
X65490000Y-81250000D03*
X65490000Y-80750000D03*
X65490000Y-80250000D03*
X65490000Y-79750000D03*
%TD*%
D25*
%TO.C,SW9*%
X4000000Y-56750000D03*
X6500000Y-56750000D03*
X9000000Y-56750000D03*
%TD*%
D10*
%TO.C,R66*%
X23575000Y-12000000D03*
X25225000Y-12000000D03*
%TD*%
D11*
%TO.C,C48*%
X18225000Y-24050000D03*
X19775000Y-24050000D03*
%TD*%
D20*
%TO.C,SW4*%
X9520000Y-112250000D03*
X17480000Y-112250000D03*
X9520000Y-116750000D03*
X17480000Y-116750000D03*
%TD*%
D10*
%TO.C,R27*%
X58675000Y-127100000D03*
X60325000Y-127100000D03*
%TD*%
D26*
%TO.C,C54*%
X26900000Y-17875000D03*
X26900000Y-16325000D03*
%TD*%
D10*
%TO.C,R32*%
X42675000Y-146500000D03*
X44325000Y-146500000D03*
%TD*%
D27*
%TO.C,U12*%
X64000000Y-52400000D03*
X64500000Y-52400000D03*
X65000000Y-52400000D03*
X65500000Y-52400000D03*
X66000000Y-52400000D03*
X66500000Y-52400000D03*
X67000000Y-52400000D03*
X67000000Y-49600000D03*
X66500000Y-49600000D03*
X66000000Y-49600000D03*
X65500000Y-49600000D03*
X65000000Y-49600000D03*
X64500000Y-49600000D03*
X64000000Y-49600000D03*
D28*
X65500000Y-51000000D03*
%TD*%
D14*
%TO.C,C51*%
X9050000Y-28600000D03*
X10950000Y-28600000D03*
%TD*%
%TO.C,C45*%
X9050000Y-21400000D03*
X10950000Y-21400000D03*
%TD*%
D10*
%TO.C,R63*%
X29775000Y-12000000D03*
X31425000Y-12000000D03*
%TD*%
D11*
%TO.C,C52*%
X24625000Y-26900000D03*
X26175000Y-26900000D03*
%TD*%
D10*
%TO.C,R60*%
X36575000Y-13900000D03*
X38225000Y-13900000D03*
%TD*%
D15*
%TO.C,C31*%
X63525000Y-61500000D03*
X66475000Y-61500000D03*
%TD*%
D10*
%TO.C,R30*%
X30175000Y-144800000D03*
X31825000Y-144800000D03*
%TD*%
D29*
%TO.C,U9*%
X23600000Y-21350000D03*
X23600000Y-23150000D03*
X25400000Y-21350000D03*
X25400000Y-23150000D03*
D30*
X22225000Y-20500000D03*
X22225000Y-21000000D03*
X22225000Y-21500000D03*
X22225000Y-22000000D03*
X22225000Y-22500000D03*
X22225000Y-23000000D03*
X22225000Y-23500000D03*
X22225000Y-24000000D03*
D31*
X22750000Y-24525000D03*
X23250000Y-24525000D03*
X23750000Y-24525000D03*
X24250000Y-24525000D03*
X24750000Y-24525000D03*
X25250000Y-24525000D03*
X25750000Y-24525000D03*
X26250000Y-24525000D03*
D30*
X26775000Y-24000000D03*
X26775000Y-23500000D03*
X26775000Y-23000000D03*
X26775000Y-22500000D03*
X26775000Y-22000000D03*
X26775000Y-21500000D03*
X26775000Y-21000000D03*
X26775000Y-20500000D03*
D31*
X26250000Y-19975000D03*
X25750000Y-19975000D03*
X25250000Y-19975000D03*
X24750000Y-19975000D03*
X24250000Y-19975000D03*
X23750000Y-19975000D03*
X23250000Y-19975000D03*
X22750000Y-19975000D03*
%TD*%
D32*
%TO.C,U11*%
X65000000Y-67000000D03*
D33*
X63900000Y-66200000D03*
X63900000Y-66600000D03*
X63900000Y-67000000D03*
X63900000Y-67400000D03*
X63900000Y-67800000D03*
X66100000Y-67800000D03*
X66100000Y-67400000D03*
X66100000Y-67000000D03*
X66100000Y-66600000D03*
X66100000Y-66200000D03*
%TD*%
D10*
%TO.C,R29*%
X19975000Y-17100000D03*
X21625000Y-17100000D03*
%TD*%
%TO.C,R31*%
X38175000Y-144800000D03*
X39825000Y-144800000D03*
%TD*%
D11*
%TO.C,C39*%
X45525000Y-9900000D03*
X47075000Y-9900000D03*
%TD*%
D10*
%TO.C,R56*%
X43375000Y-13900000D03*
X45025000Y-13900000D03*
%TD*%
%TO.C,R68*%
X8675000Y-66000000D03*
X10325000Y-66000000D03*
%TD*%
%TO.C,R25*%
X12175000Y-149600000D03*
X13825000Y-149600000D03*
%TD*%
%TO.C,R41*%
X63175000Y-43000000D03*
X64825000Y-43000000D03*
%TD*%
%TO.C,R35*%
X25175000Y-144800000D03*
X26825000Y-144800000D03*
%TD*%
D11*
%TO.C,C25*%
X63225000Y-72300000D03*
X64775000Y-72300000D03*
%TD*%
D34*
%TO.C,C11*%
X68750000Y-8199999D03*
X66850000Y-8199999D03*
%TD*%
D10*
%TO.C,R53*%
X46775000Y-12000000D03*
X48425000Y-12000000D03*
%TD*%
D13*
%TO.C,D4*%
X38587500Y-9400000D03*
X38587500Y-9900000D03*
X38587500Y-10400000D03*
X40012500Y-10400000D03*
X40012500Y-9900000D03*
X40012500Y-9400000D03*
%TD*%
D20*
%TO.C,SW2*%
X20020000Y-101750000D03*
X27980000Y-101750000D03*
X20020000Y-106250000D03*
X27980000Y-106250000D03*
%TD*%
D13*
%TO.C,D5*%
X34787500Y-9400000D03*
X34787500Y-9900000D03*
X34787500Y-10400000D03*
X36212500Y-10400000D03*
X36212500Y-9900000D03*
X36212500Y-9400000D03*
%TD*%
D10*
%TO.C,R61*%
X33175000Y-12000000D03*
X34825000Y-12000000D03*
%TD*%
D35*
%TO.C,U10*%
X34050000Y-142437500D03*
X35000000Y-142437500D03*
X35950000Y-142437500D03*
X35950000Y-140162500D03*
X35000000Y-140162500D03*
X34050000Y-140162500D03*
%TD*%
D20*
%TO.C,SW5*%
X30520000Y-112250000D03*
X38480000Y-112250000D03*
X30520000Y-116750000D03*
X38480000Y-116750000D03*
%TD*%
D15*
%TO.C,C27*%
X69025000Y-46000000D03*
X71975000Y-46000000D03*
%TD*%
D10*
%TO.C,R62*%
X33175000Y-13900000D03*
X34825000Y-13900000D03*
%TD*%
D11*
%TO.C,C17*%
X70025000Y-133500000D03*
X71575000Y-133500000D03*
%TD*%
D10*
%TO.C,R28*%
X57675000Y-153000000D03*
X59325000Y-153000000D03*
%TD*%
D11*
%TO.C,C24*%
X63225000Y-70000000D03*
X64775000Y-70000000D03*
%TD*%
D14*
%TO.C,C34*%
X63050000Y-27800000D03*
X64950000Y-27800000D03*
%TD*%
D13*
%TO.C,D6*%
X31037500Y-9400000D03*
X31037500Y-9900000D03*
X31037500Y-10400000D03*
X32462500Y-10400000D03*
X32462500Y-9900000D03*
X32462500Y-9400000D03*
%TD*%
D10*
%TO.C,R42*%
X66675000Y-43000000D03*
X68325000Y-43000000D03*
%TD*%
D36*
%TO.C,J3*%
X31800000Y-147645000D03*
X32600000Y-147645000D03*
D37*
X33750000Y-147645000D03*
X34750000Y-147645000D03*
X35250000Y-147645000D03*
X36250000Y-147645000D03*
D36*
X37400000Y-147645000D03*
X38200000Y-147645000D03*
X38200000Y-147645000D03*
X37400000Y-147645000D03*
D37*
X36750000Y-147645000D03*
X35750000Y-147645000D03*
X34250000Y-147645000D03*
X33250000Y-147645000D03*
D36*
X32600000Y-147645000D03*
X31800000Y-147645000D03*
D38*
X30680000Y-148220000D03*
D39*
X30680000Y-152400000D03*
D38*
X39320000Y-148220000D03*
D39*
X39320000Y-152400000D03*
%TD*%
D21*
%TO.C,C18*%
X18520000Y-20250000D03*
X19480000Y-20250000D03*
%TD*%
D10*
%TO.C,R39*%
X63175000Y-55500000D03*
X64825000Y-55500000D03*
%TD*%
D12*
%TO.C,D7*%
X9862500Y-1650000D03*
X9862500Y-3550000D03*
X11737500Y-2600000D03*
%TD*%
D10*
%TO.C,R55*%
X43375000Y-12000000D03*
X45025000Y-12000000D03*
%TD*%
D14*
%TO.C,C20*%
X34050000Y-144500000D03*
X35950000Y-144500000D03*
%TD*%
D20*
%TO.C,SW3*%
X20020000Y-122750000D03*
X27980000Y-122750000D03*
X20020000Y-127250000D03*
X27980000Y-127250000D03*
%TD*%
D10*
%TO.C,R52*%
X50175000Y-13900000D03*
X51825000Y-13900000D03*
%TD*%
D14*
%TO.C,C15*%
X15550000Y-147000000D03*
X17450000Y-147000000D03*
%TD*%
D10*
%TO.C,R36*%
X68675000Y-70000000D03*
X70325000Y-70000000D03*
%TD*%
%TO.C,R38*%
X68675000Y-74600000D03*
X70325000Y-74600000D03*
%TD*%
M02*
