%TF.GenerationSoftware,KiCad,Pcbnew,10.0.3*%
%TF.CreationDate,2026-08-20T19:01:49-04:00*%
%TF.ProjectId,aqroot-Beta-DM,6171726f-6f74-42d4-9265-74612d444d2e,rev?*%
%TF.SameCoordinates,Original*%
%TF.FileFunction,Copper,L3,Inr*%
%TF.FilePolarity,Positive*%
%FSLAX46Y46*%
G04 Gerber Fmt 4.6, Leading zero omitted, Abs format (unit mm)*
G04 Created by KiCad (PCBNEW 10.0.3) date 2026-08-20 19:01:49*
%MOMM*%
%LPD*%
G01*
G04 APERTURE LIST*
G04 Aperture macros list*
%AMRoundRect*
0 Rectangle with rounded corners*
0 $1 Rounding radius*
0 $2 $3 $4 $5 $6 $7 $8 $9 X,Y pos of 4 corners*
0 Add a 4 corners polygon primitive as box body*
4,1,4,$2,$3,$4,$5,$6,$7,$8,$9,$2,$3,0*
0 Add four circle primitives for the rounded corners*
1,1,$1+$1,$2,$3*
1,1,$1+$1,$4,$5*
1,1,$1+$1,$6,$7*
1,1,$1+$1,$8,$9*
0 Add four rect primitives between the rounded corners*
20,1,$1+$1,$2,$3,$4,$5,0*
20,1,$1+$1,$4,$5,$6,$7,0*
20,1,$1+$1,$6,$7,$8,$9,0*
20,1,$1+$1,$8,$9,$2,$3,0*%
G04 Aperture macros list end*
%TA.AperFunction,ComponentPad*%
%ADD10R,1.800000X1.800000*%
%TD*%
%TA.AperFunction,ComponentPad*%
%ADD11C,1.800000*%
%TD*%
%TA.AperFunction,ComponentPad*%
%ADD12O,1.000000X2.100000*%
%TD*%
%TA.AperFunction,ComponentPad*%
%ADD13O,1.000000X1.800000*%
%TD*%
%TA.AperFunction,ComponentPad*%
%ADD14RoundRect,0.250000X-0.350000X-0.625000X0.350000X-0.625000X0.350000X0.625000X-0.350000X0.625000X0*%
%TD*%
%TA.AperFunction,ComponentPad*%
%ADD15O,1.200000X1.750000*%
%TD*%
%TA.AperFunction,HeatsinkPad*%
%ADD16C,0.600000*%
%TD*%
%TA.AperFunction,ComponentPad*%
%ADD17R,1.700000X1.700000*%
%TD*%
%TA.AperFunction,ComponentPad*%
%ADD18C,1.700000*%
%TD*%
%TA.AperFunction,ViaPad*%
%ADD19C,0.500000*%
%TD*%
%TA.AperFunction,ViaPad*%
%ADD20C,0.600000*%
%TD*%
%TA.AperFunction,ViaPad*%
%ADD21C,0.550000*%
%TD*%
%TA.AperFunction,ViaPad*%
%ADD22C,0.800000*%
%TD*%
%TA.AperFunction,ViaPad*%
%ADD23C,0.650000*%
%TD*%
%TA.AperFunction,Conductor*%
%ADD24C,0.200000*%
%TD*%
%TA.AperFunction,Conductor*%
%ADD25C,0.600000*%
%TD*%
%TA.AperFunction,Conductor*%
%ADD26C,0.800000*%
%TD*%
%TA.AperFunction,Conductor*%
%ADD27C,0.400000*%
%TD*%
%TA.AperFunction,Conductor*%
%ADD28C,0.250000*%
%TD*%
%TA.AperFunction,Conductor*%
%ADD29C,0.500000*%
%TD*%
%TA.AperFunction,Conductor*%
%ADD30C,0.150000*%
%TD*%
G04 APERTURE END LIST*
D10*
%TO.N,/07_IR/IR_LED_K*%
%TO.C,D1*%
X59500000Y-4000000D03*
D11*
%TO.N,/07_IR/IR_LED_A*%
X62040000Y-4000000D03*
%TD*%
D10*
%TO.N,/IR_RX_GPIO44*%
%TO.C,U6*%
X65960000Y-4500000D03*
D11*
%TO.N,GND*%
X68500000Y-4500000D03*
%TO.N,/07_IR/IR_RX_VS_LOCAL*%
X71040000Y-4500000D03*
%TD*%
D12*
%TO.N,Net-(J3-SHIELD)*%
%TO.C,J3*%
X30680000Y-148220000D03*
D13*
X30680000Y-152400000D03*
D12*
X39320000Y-148220000D03*
D13*
X39320000Y-152400000D03*
%TD*%
D14*
%TO.N,/01_POWER_TREE/BAT_CONNECTOR_P*%
%TO.C,J4*%
X58000000Y-82500000D03*
D15*
%TO.N,GND*%
X60000000Y-82500000D03*
%TD*%
D16*
%TO.N,GND*%
%TO.C,U1*%
X15910000Y-23100000D03*
X14510000Y-23100000D03*
X16610000Y-23800000D03*
X15210000Y-23800000D03*
X13810000Y-23800000D03*
X15910000Y-24500000D03*
X14510000Y-24500000D03*
X16610000Y-25200000D03*
X15210000Y-25200000D03*
X13810000Y-25200000D03*
X15910000Y-25900000D03*
X14510000Y-25900000D03*
%TD*%
D14*
%TO.N,/06_AUDIO/SPK_P*%
%TO.C,J6*%
X62000000Y-21000000D03*
D15*
%TO.N,/06_AUDIO/SPK_N*%
X64000000Y-21000000D03*
%TD*%
D17*
%TO.N,+3V3*%
%TO.C,J5*%
X52240000Y-4040000D03*
D18*
%TO.N,GND*%
X52240000Y-6580000D03*
%TO.N,/09_COMMUNITY_HEADER/XGPIO0_HDR*%
X49700000Y-4040000D03*
%TO.N,/09_COMMUNITY_HEADER/XGPIO1_HDR*%
X49700000Y-6580000D03*
%TO.N,/09_COMMUNITY_HEADER/XGPIO2_HDR*%
X47160000Y-4040000D03*
%TO.N,/09_COMMUNITY_HEADER/XGPIO3_HDR*%
X47160000Y-6580000D03*
%TO.N,GND*%
X44620000Y-4040000D03*
%TO.N,/09_COMMUNITY_HEADER/XGPIO4_HDR*%
X44620000Y-6580000D03*
%TO.N,/09_COMMUNITY_HEADER/XGPIO5_HDR*%
X42080000Y-4040000D03*
%TO.N,/09_COMMUNITY_HEADER/XGPIO6_HDR*%
X42080000Y-6580000D03*
%TO.N,/09_COMMUNITY_HEADER/XGPIO7_HDR*%
X39540000Y-4040000D03*
%TO.N,/09_COMMUNITY_HEADER/XGPIO8_HDR*%
X39540000Y-6580000D03*
%TO.N,/09_COMMUNITY_HEADER/WAKE_ATTN_N_HDR*%
X37000000Y-4040000D03*
%TO.N,/09_COMMUNITY_HEADER/XGPIO9_HDR*%
X37000000Y-6580000D03*
%TO.N,/09_COMMUNITY_HEADER/I2C_SDA_EXT_HDR*%
X34460000Y-4040000D03*
%TO.N,/09_COMMUNITY_HEADER/I2C_SCL_EXT_HDR*%
X34460000Y-6580000D03*
%TO.N,/09_COMMUNITY_HEADER/XGPIO12_HDR*%
X31920000Y-4040000D03*
%TO.N,/09_COMMUNITY_HEADER/XGPIO13_HDR*%
X31920000Y-6580000D03*
%TO.N,/09_COMMUNITY_HEADER/ACC_3V3_SW*%
X29380000Y-4040000D03*
%TO.N,GND*%
X29380000Y-6580000D03*
%TO.N,/09_COMMUNITY_HEADER/XGPIO10_HDR*%
X26840000Y-4040000D03*
%TO.N,/09_COMMUNITY_HEADER/XGPIO11_HDR*%
X26840000Y-6580000D03*
%TO.N,/09_COMMUNITY_HEADER/FAST_IO_GPIO43_HDR*%
X24300000Y-4040000D03*
%TO.N,GND*%
X24300000Y-6580000D03*
X21760000Y-4040000D03*
%TO.N,/09_COMMUNITY_HEADER/RESERVED_NC*%
X21760000Y-6580000D03*
%TD*%
D19*
%TO.N,Net-(U13-FB)*%
X63000000Y-30800000D03*
X63000000Y-36600000D03*
D20*
%TO.N,GND*%
X73000000Y-61500000D03*
X63700000Y-47350000D03*
X28350000Y-77400000D03*
D21*
X62500000Y-14800000D03*
X23300000Y-22250000D03*
D20*
X27980000Y-114350000D03*
X70500000Y-73200000D03*
X69150000Y-55500000D03*
X38900000Y-79100000D03*
X45620000Y-140750000D03*
X57405600Y-122550000D03*
D22*
X62600000Y-67800000D03*
D20*
X40400000Y-81200000D03*
D19*
X8050000Y-54750000D03*
D20*
X47150000Y-81300000D03*
X34750000Y-81450000D03*
X65700000Y-72300000D03*
X10600000Y-153950000D03*
X61050000Y-9400000D03*
X30520000Y-114650000D03*
X17100000Y-54900000D03*
X38250000Y-81200000D03*
X67800000Y-63400000D03*
X70500000Y-70900000D03*
X18200000Y-149600000D03*
X9600000Y-64450000D03*
X64400000Y-63400000D03*
D19*
X39750000Y-8750000D03*
D21*
X65000000Y-66650000D03*
X64500000Y-80500000D03*
D20*
X37900000Y-79100000D03*
X41820000Y-114650000D03*
X64200000Y-78100000D03*
X18400000Y-147000000D03*
D21*
X23300000Y-21100000D03*
X66300000Y-50650000D03*
D20*
X35550000Y-81450000D03*
D19*
X13550000Y-53950000D03*
D20*
X7700000Y-15700000D03*
X47700000Y-8800000D03*
D21*
X65500000Y-51350000D03*
D20*
X69400000Y-66900000D03*
X62250000Y-141750000D03*
X57550000Y-119300000D03*
X70150000Y-8750000D03*
X64050000Y-153500000D03*
X71400000Y-134500000D03*
X72550000Y-136000000D03*
X46850000Y-139950000D03*
X71350000Y-12350000D03*
X54050000Y-139950000D03*
X56150000Y-140000000D03*
X58550000Y-136000000D03*
X49400000Y-139950000D03*
X46800000Y-153950000D03*
X48100000Y-139950000D03*
X72550000Y-119000000D03*
X72550000Y-128400000D03*
X72550000Y-121550000D03*
X72550000Y-127100000D03*
X64050000Y-139500000D03*
X71400000Y-128650000D03*
X49600000Y-153500000D03*
X58350000Y-121950000D03*
X72700000Y-7800000D03*
X72550000Y-134750000D03*
X72550000Y-120250000D03*
X35900000Y-79100000D03*
X41400000Y-81200000D03*
X35050000Y-143550000D03*
X64050000Y-81800000D03*
X47750000Y-82900000D03*
X70500000Y-75500000D03*
D21*
X23300000Y-23400000D03*
D20*
X67200000Y-43000000D03*
X31700000Y-144000000D03*
X7800000Y-35200000D03*
X7800000Y-17700000D03*
X38200000Y-147100000D03*
X39700000Y-144000000D03*
X11600000Y-14800000D03*
X44900000Y-146500000D03*
X2550000Y-67750000D03*
D21*
X65500000Y-50650000D03*
D20*
X26050000Y-79100000D03*
D21*
X23950000Y-21100000D03*
D20*
X34900000Y-79100000D03*
D21*
X65000000Y-67350000D03*
D20*
X73000000Y-58500000D03*
X65700000Y-70000000D03*
D21*
X66300000Y-51350000D03*
D20*
X66100000Y-74600000D03*
X5550000Y-65300000D03*
X67500000Y-61500000D03*
X23650000Y-144200000D03*
X42950000Y-81200000D03*
X67500000Y-58500000D03*
X66600000Y-12650000D03*
D21*
X64700000Y-51350000D03*
X23950000Y-22250000D03*
X64700000Y-50650000D03*
D20*
X70950000Y-17450000D03*
X73000000Y-46000000D03*
X38480000Y-114650000D03*
X20020000Y-138350000D03*
D21*
X23950000Y-23400000D03*
D19*
X16050000Y-13700000D03*
D20*
X53580000Y-140750000D03*
X18850000Y-152250000D03*
X10550000Y-40500000D03*
D19*
X27400000Y-13000000D03*
D20*
X23400000Y-40000000D03*
X36900000Y-79100000D03*
X17480000Y-114650000D03*
X8369999Y-114550000D03*
X25350000Y-78700000D03*
D22*
%TO.N,+3V3*%
X69100000Y-116000000D03*
X60200000Y-54250000D03*
X32500000Y-52700000D03*
X13750000Y-27650000D03*
X62350000Y-43550000D03*
X64650000Y-16000000D03*
X64500000Y-11050000D03*
X72700000Y-10900000D03*
X28450000Y-13000000D03*
X28600000Y-9250000D03*
X65750000Y-56900000D03*
X69100000Y-86000000D03*
X17400000Y-47050000D03*
X14700000Y-51300000D03*
X14650000Y-53800000D03*
X14000000Y-62750000D03*
X9850000Y-33350000D03*
X9850000Y-36700000D03*
X46150000Y-81400000D03*
X29250000Y-75250000D03*
X29250000Y-77100000D03*
X32350000Y-78495000D03*
X29500000Y-78950000D03*
D23*
X18900000Y-19400000D03*
X20760000Y-21730000D03*
X32580000Y-85490000D03*
D22*
X69350000Y-134150000D03*
X68800000Y-127850000D03*
X64550000Y-140950000D03*
X68800000Y-140150000D03*
X58700000Y-141050000D03*
X16550000Y-151050000D03*
X65750000Y-54400000D03*
X10600000Y-49975000D03*
X10600000Y-52775000D03*
D23*
X21900000Y-37400000D03*
D20*
%TO.N,/09_COMMUNITY_HEADER/FAST_IO_GPIO43_HDR*%
X21625000Y-12248500D03*
%TO.N,/FAST_IO_U0TXD_ROOTPROBE_CS*%
X10200000Y-65000000D03*
X15950000Y-66850000D03*
X17550000Y-57000000D03*
X27700000Y-49050000D03*
X26800000Y-14050000D03*
X11300000Y-34750000D03*
%TO.N,/09_COMMUNITY_HEADER/I2C_SDA_EXT_HDR*%
X48425000Y-9400000D03*
X38100000Y-8600000D03*
%TO.N,/09_COMMUNITY_HEADER/XGPIO8_HDR*%
X39000000Y-8601500D03*
D21*
%TO.N,/USB_D_MCU_N*%
X53400000Y-86000000D03*
X39400000Y-62750000D03*
X40150000Y-60850000D03*
X23025000Y-18700000D03*
X53400000Y-116000000D03*
D20*
%TO.N,/09_COMMUNITY_HEADER/XGPIO3_HDR*%
X46800000Y-14600000D03*
X54000000Y-14600000D03*
X48548500Y-8601500D03*
X51800000Y-9400000D03*
D22*
%TO.N,/BAT_PROTECTED_P*%
X69000000Y-82500000D03*
X62200000Y-80400000D03*
X62200000Y-72300000D03*
X66425000Y-63200000D03*
X62900000Y-66600000D03*
D20*
%TO.N,/03_SPI_A_DISPLAY_SD/LED_K*%
X52150000Y-79400000D03*
%TO.N,/03_SPI_A_DISPLAY_SD/LED_A1*%
X49550000Y-84900000D03*
%TO.N,/03_SPI_A_DISPLAY_SD/LED_A2*%
X48800000Y-82300000D03*
%TO.N,/03_SPI_A_DISPLAY_SD/LED_A3*%
X48050000Y-81400000D03*
%TO.N,/03_SPI_A_DISPLAY_SD/LED_A4*%
X50400000Y-79950000D03*
%TO.N,/DISP_RST_N*%
X45250000Y-81400000D03*
X6400000Y-45000000D03*
%TO.N,/SPI_A_MISO*%
X12600000Y-83500000D03*
X12600000Y-141000000D03*
X30900000Y-81500000D03*
X26000000Y-81500000D03*
X33900000Y-81500000D03*
%TO.N,/SPI_A_MOSI*%
X11400000Y-85000000D03*
X11400000Y-141000000D03*
X33250000Y-84400000D03*
X27275000Y-84900000D03*
X26075000Y-84900000D03*
%TO.N,/DISP_DC*%
X33800000Y-78800000D03*
X21200000Y-29800000D03*
%TO.N,/SPI_A_SCK*%
X12000000Y-146000000D03*
X10200000Y-85000000D03*
X10200000Y-141000000D03*
X10800000Y-146000000D03*
X31750000Y-85500000D03*
%TO.N,/DISP_CS_N*%
X27000000Y-18835000D03*
X31500000Y-78800000D03*
%TO.N,/I2C_SCL_INT*%
X18200000Y-46600000D03*
X31400000Y-76000000D03*
X18200000Y-64700000D03*
X18200000Y-11700000D03*
X66800000Y-80250000D03*
X33800000Y-9400000D03*
X18200000Y-38200000D03*
%TO.N,/I2C_SDA_INT*%
X65490000Y-78000000D03*
X16500000Y-65400000D03*
X30000000Y-65400000D03*
X16500000Y-38700000D03*
X25100000Y-10875000D03*
X17500000Y-36050000D03*
X16100000Y-31150000D03*
X29000000Y-10875000D03*
X16500000Y-46925000D03*
%TO.N,/TOUCH_RST_N*%
X7400000Y-41500000D03*
X22000000Y-39500000D03*
X26000000Y-77000000D03*
X7400000Y-45625000D03*
%TO.N,/09_COMMUNITY_HEADER/XGPIO6_HDR*%
X40651500Y-10676500D03*
%TO.N,/XGPIO6*%
X61600000Y-22500000D03*
X35700000Y-11350000D03*
X61600000Y-25850000D03*
X54550000Y-11200000D03*
X39250000Y-35300000D03*
%TO.N,/08_BUTTONS_EXPANDERS/BTN_HOME_N*%
X22877000Y-52800000D03*
X15100000Y-33481499D03*
X13601500Y-44598500D03*
X23801500Y-32848500D03*
X41350000Y-139500000D03*
X13400000Y-83600000D03*
X10150000Y-81600000D03*
X10700000Y-73400000D03*
%TO.N,/09_COMMUNITY_HEADER/XGPIO0_HDR*%
X52526500Y-11748500D03*
%TO.N,/09_COMMUNITY_HEADER/XGPIO1_HDR*%
X51000000Y-11098500D03*
%TO.N,/09_COMMUNITY_HEADER/XGPIO2_HDR*%
X47600000Y-14650000D03*
X53150000Y-14600000D03*
X49926500Y-8798500D03*
%TO.N,/09_COMMUNITY_HEADER/XGPIO13_HDR*%
X30598500Y-8648500D03*
D21*
%TO.N,/USB_D_MCU_P*%
X40150000Y-62750000D03*
X39400000Y-60850000D03*
X24000000Y-18500000D03*
X54150000Y-116000000D03*
X54150000Y-86000000D03*
D22*
%TO.N,/01_POWER_TREE/USB_VBUS_CHG*%
X67200000Y-65600000D03*
X56000000Y-116000000D03*
X70775000Y-64600000D03*
X54850000Y-119000000D03*
X56000000Y-86000000D03*
X28000000Y-144800000D03*
D20*
%TO.N,/08_BUTTONS_EXPANDERS/BTN_B_N*%
X10001500Y-53900000D03*
X10700000Y-33000000D03*
X40701500Y-63326500D03*
X13998500Y-33481499D03*
X54960000Y-86000000D03*
X35298500Y-60748500D03*
X57160000Y-116900000D03*
X13700000Y-43800000D03*
X54500000Y-82898500D03*
X8151500Y-54000000D03*
%TO.N,/08_BUTTONS_EXPANDERS/BTN_A_N*%
X13823500Y-43000000D03*
X10000000Y-38100000D03*
X8123500Y-53151500D03*
X51280000Y-114450000D03*
X13601500Y-38100000D03*
X57100000Y-115400000D03*
X58150000Y-86000000D03*
X55200000Y-78400000D03*
X51900000Y-75400000D03*
X27700000Y-57650000D03*
X13600000Y-56900000D03*
X10500000Y-56850000D03*
%TO.N,/SX1262_RXEN*%
X27000000Y-12250000D03*
X60000000Y-12600000D03*
X66000000Y-83500000D03*
X70600000Y-129650000D03*
%TO.N,Net-(SW9-A)*%
X38750000Y-64000000D03*
X62050000Y-55050000D03*
X22850000Y-64000000D03*
X60100000Y-55150000D03*
X11350000Y-73900000D03*
X65100000Y-47650000D03*
%TO.N,/09_COMMUNITY_HEADER/XGPIO7_HDR*%
X41700000Y-10973500D03*
D19*
%TO.N,/01_POWER_TREE/ISET*%
X67300000Y-72300000D03*
X67300000Y-66800000D03*
D20*
%TO.N,/WAKE_INT_N*%
X25250000Y-29150000D03*
X11800000Y-13900000D03*
X26150000Y-13400000D03*
X7550000Y-46450000D03*
%TO.N,/09_COMMUNITY_HEADER/WAKE_ATTN_N_HDR*%
X44173500Y-14700000D03*
X28200000Y-14350000D03*
X41100000Y-8600000D03*
X26900000Y-15300000D03*
%TO.N,/08_BUTTONS_EXPANDERS/BTN_LEFT_N*%
X14923500Y-50100000D03*
X13601500Y-79196500D03*
%TO.N,/SX1262_CS_N*%
X15800000Y-19500000D03*
X61700000Y-127110000D03*
%TO.N,Net-(J3-SHIELD)*%
X40800000Y-148100000D03*
%TO.N,Net-(U12-PS_SYNC)*%
X68300000Y-43000000D03*
X65350000Y-45950000D03*
%TO.N,Net-(U12-PG)*%
X65800000Y-43700000D03*
X63850000Y-49450000D03*
%TO.N,/09_COMMUNITY_HEADER/XGPIO12_HDR*%
X35998500Y-8600000D03*
%TO.N,/09_COMMUNITY_HEADER/XGPIO9_HDR*%
X37523500Y-9400000D03*
%TO.N,Net-(J3-CC2)*%
X30200000Y-144000000D03*
X35850000Y-148750000D03*
%TO.N,/SPI_B_SCK*%
X11300000Y-19100000D03*
X11300000Y-82000000D03*
X15000000Y-84200000D03*
X59450000Y-128380000D03*
X55880000Y-151800000D03*
%TO.N,/SPI_B_MOSI*%
X13400000Y-19500000D03*
X13000000Y-80000000D03*
X16400000Y-83500000D03*
X60150000Y-129650000D03*
X57150000Y-151800000D03*
X20600000Y-20400000D03*
%TO.N,/SPI_B_MISO*%
X14700000Y-19300000D03*
X19000000Y-21100000D03*
X19000000Y-80300000D03*
X19000000Y-86500000D03*
X58300000Y-85200000D03*
X61000000Y-86000000D03*
X60850000Y-130920000D03*
X58420000Y-151800000D03*
%TO.N,Net-(U15-CT)*%
X51950000Y-11000000D03*
%TO.N,/XGPIO5*%
X22650000Y-12350000D03*
X42550000Y-13800000D03*
D19*
X20400000Y-14050000D03*
D20*
%TO.N,/09_COMMUNITY_HEADER/XGPIO5_HDR*%
X46500000Y-10876500D03*
%TO.N,/SD_CS_N*%
X9000000Y-141000000D03*
X14294000Y-148600000D03*
X24100000Y-36200000D03*
X25200000Y-34300000D03*
X9000000Y-85000000D03*
D22*
%TO.N,/01_POWER_TREE/USB_VBUS_RAW*%
X37200000Y-139900000D03*
D21*
X33225000Y-144000000D03*
D22*
X29000000Y-146400000D03*
D21*
X37400000Y-146600000D03*
D20*
%TO.N,/09_COMMUNITY_HEADER/XGPIO4_HDR*%
X45726500Y-8601500D03*
%TO.N,/08_BUTTONS_EXPANDERS/BTN_UP_N*%
X9500000Y-63250000D03*
X9526500Y-50700000D03*
X10700000Y-44325000D03*
X9511500Y-49800000D03*
%TO.N,/09_COMMUNITY_HEADER/XGPIO10_HDR*%
X31526500Y-8600000D03*
%TO.N,/09_COMMUNITY_HEADER/XGPIO11_HDR*%
X29380000Y-8798500D03*
D21*
%TO.N,/01_POWER_TREE/USB_D_CONN_N*%
X35250000Y-146200000D03*
X33500000Y-146200000D03*
D20*
%TO.N,/08_BUTTONS_EXPANDERS/BTN_RIGHT_N*%
X23300000Y-33481499D03*
X15900000Y-42351500D03*
X22601500Y-50348500D03*
X23498500Y-66000000D03*
X16898500Y-33481499D03*
%TO.N,/CC1101_CS_N*%
X15500000Y-13000000D03*
X37750000Y-57600000D03*
X67000000Y-85000000D03*
X67000000Y-129000000D03*
X63500000Y-143000000D03*
%TO.N,/08_BUTTONS_EXPANDERS/BTN_DOWN_N*%
X10175000Y-51475000D03*
X10700000Y-41725000D03*
X19850000Y-87100000D03*
X16450000Y-66200000D03*
X13600000Y-45450000D03*
X20020000Y-114650000D03*
%TO.N,Net-(U1-EN)*%
X10300000Y-17100000D03*
X12600000Y-14800000D03*
%TO.N,/CC1101_GDO0*%
X16000000Y-12350000D03*
X18800000Y-12850000D03*
X21900000Y-36550000D03*
X33400000Y-57600000D03*
X57100000Y-77800000D03*
X68000000Y-85000000D03*
X68000000Y-129000000D03*
%TO.N,/02_MCU_CORE/BOOT_N*%
X13600000Y-68650000D03*
X17500000Y-56200000D03*
X23200000Y-37950000D03*
X22650000Y-47150000D03*
X14200000Y-64350000D03*
%TO.N,/DISP_BL_CTL*%
X43800000Y-81300000D03*
X20500000Y-32000000D03*
%TO.N,/SX1262_RST_N*%
X13700000Y-48350000D03*
X13700000Y-52000000D03*
X23000000Y-52000000D03*
X30000000Y-52000000D03*
X57000000Y-38000000D03*
X71000000Y-38000000D03*
X65000000Y-131000000D03*
%TO.N,/SX1262_DIO1*%
X23400000Y-39000000D03*
X28000000Y-39000000D03*
X59500000Y-78000000D03*
X63400000Y-78000000D03*
X63000000Y-132500000D03*
%TO.N,/SX1262_BUSY*%
X16600000Y-19500000D03*
X60200000Y-74500000D03*
X64000000Y-83000000D03*
X61700000Y-133460000D03*
%TO.N,/BMI270_INT1_STRAP*%
X19800000Y-62900000D03*
X19800000Y-19300000D03*
%TO.N,/I2S_BCLK*%
X30450000Y-39600000D03*
X17550000Y-34100000D03*
X72400000Y-9050000D03*
X17550000Y-29500000D03*
X60350000Y-26250000D03*
%TO.N,/I2S_LRCLK*%
X29550000Y-39600000D03*
X16700000Y-35550000D03*
X65900000Y-16400000D03*
X26050000Y-39600000D03*
X26050000Y-38350000D03*
X41250000Y-38350000D03*
X16750000Y-29500000D03*
X68000000Y-9900000D03*
%TO.N,/I2S_MIC_DIN*%
X15850000Y-32700000D03*
X45250000Y-36100000D03*
X63650000Y-11950000D03*
X25400000Y-40100000D03*
X23300000Y-31350000D03*
X37150000Y-40200000D03*
X13650000Y-35000000D03*
X20450000Y-29500000D03*
%TD*%
%TO.N,Net-(U13-FB)*%
D24*
X63000000Y-30800000D02*
X63000000Y-36600000D01*
%TO.N,+3V3*%
D25*
X60200000Y-54250000D02*
X60200000Y-52700000D01*
D26*
X60200000Y-52700000D02*
X32500000Y-52700000D01*
D25*
X62500000Y-43200000D02*
X65100000Y-43200000D01*
X65100000Y-43200000D02*
X65100000Y-16450000D01*
X65100000Y-16450000D02*
X64650000Y-16000000D01*
X69100000Y-86000000D02*
X69100000Y-116000000D01*
D27*
X14500000Y-54150000D02*
X14500000Y-62750000D01*
X14500000Y-62750000D02*
X14000000Y-62750000D01*
X18900000Y-19400000D02*
X19260000Y-18840000D01*
X19260000Y-18840000D02*
X19380000Y-18730000D01*
X19380000Y-18730000D02*
X19480000Y-18670000D01*
X19480000Y-18670000D02*
X19580000Y-18630000D01*
X19580000Y-18630000D02*
X19660000Y-18610000D01*
X19660000Y-18610000D02*
X19820000Y-18590000D01*
X19820000Y-18590000D02*
X20150000Y-18650000D01*
X20150000Y-18650000D02*
X20340000Y-18840000D01*
X20340000Y-18840000D02*
X20420000Y-18960000D01*
X20420000Y-18960000D02*
X20460000Y-19050000D01*
X20460000Y-19050000D02*
X20490000Y-19160000D01*
X20490000Y-19160000D02*
X21170000Y-19980000D01*
X21170000Y-19980000D02*
X21230000Y-20080000D01*
X21230000Y-20080000D02*
X21270000Y-20180000D01*
X21270000Y-20180000D02*
X21290000Y-20260000D01*
X21290000Y-20260000D02*
X21310000Y-20420000D01*
X21310000Y-20420000D02*
X21290000Y-20570000D01*
X21290000Y-20570000D02*
X21240000Y-20700000D01*
X21240000Y-20700000D02*
X21180000Y-20800000D01*
X21180000Y-20800000D02*
X21090000Y-20910000D01*
X21090000Y-20910000D02*
X20760000Y-21730000D01*
D26*
X65750000Y-54400000D02*
X65750000Y-56900000D01*
%TO.N,/FAST_IO_U0TXD_ROOTPROBE_CS*%
D24*
X11050000Y-57150000D02*
X11050000Y-57100000D01*
X11200000Y-53150000D02*
X11250000Y-53100000D01*
X17550000Y-57000000D02*
X17550000Y-65950000D01*
X10200000Y-65000000D02*
X10200000Y-60350000D01*
X28550000Y-39250000D02*
X28550000Y-39300000D01*
X11100000Y-53300000D02*
X11200000Y-53200000D01*
X11250000Y-53100000D02*
X11250000Y-53050000D01*
X10650000Y-59850000D02*
X10650000Y-59800000D01*
X27450000Y-15050000D02*
X27500000Y-15100000D01*
X26800000Y-14050000D02*
X26800000Y-14350000D01*
X27600000Y-37750000D02*
X28550000Y-38700000D01*
X16450000Y-66850000D02*
X15950000Y-66850000D01*
X10700000Y-57500000D02*
X11050000Y-57150000D01*
X28550000Y-38700000D02*
X28550000Y-38750000D01*
X28600000Y-39200000D02*
X28550000Y-39250000D01*
X16750000Y-66750000D02*
X16700000Y-66750000D01*
X11050000Y-57100000D02*
X11100000Y-57050000D01*
X16650000Y-66800000D02*
X16500000Y-66800000D01*
X27450000Y-15000000D02*
X27450000Y-15050000D01*
X28600000Y-38800000D02*
X28600000Y-39200000D01*
X10200000Y-60350000D02*
X10600000Y-59950000D01*
X10650000Y-59800000D02*
X10700000Y-59750000D01*
X11300000Y-53000000D02*
X11300000Y-34750000D01*
X27500000Y-18500000D02*
X27600000Y-18600000D01*
X17550000Y-65950000D02*
X16750000Y-66750000D01*
X27500000Y-15100000D02*
X27500000Y-18500000D01*
X11200000Y-53200000D02*
X11200000Y-53150000D01*
X11250000Y-53050000D02*
X11300000Y-53000000D01*
X28550000Y-38750000D02*
X28600000Y-38800000D01*
X27600000Y-18600000D02*
X27600000Y-37750000D01*
X28550000Y-39300000D02*
X27700000Y-40150000D01*
X26800000Y-14350000D02*
X27450000Y-15000000D01*
X16700000Y-66750000D02*
X16650000Y-66800000D01*
X10600000Y-59950000D02*
X10600000Y-59900000D01*
X11100000Y-57050000D02*
X11100000Y-53300000D01*
X16500000Y-66800000D02*
X16450000Y-66850000D01*
X10700000Y-59750000D02*
X10700000Y-57500000D01*
X27700000Y-40150000D02*
X27700000Y-49050000D01*
X10600000Y-59900000D02*
X10650000Y-59850000D01*
%TO.N,/09_COMMUNITY_HEADER/I2C_SDA_EXT_HDR*%
X38100000Y-8600000D02*
X38426500Y-9300000D01*
X38426500Y-9300000D02*
X43375000Y-9423500D01*
X43375000Y-9423500D02*
X48425000Y-9400000D01*
%TO.N,/USB_D_MCU_N*%
D28*
X39400000Y-62750000D02*
X40150000Y-60850000D01*
X53400000Y-116000000D02*
X53400000Y-86000000D01*
%TO.N,/09_COMMUNITY_HEADER/XGPIO3_HDR*%
D24*
X48548500Y-8601500D02*
X49600000Y-9600000D01*
X46800000Y-14600000D02*
X47400000Y-14000000D01*
X47400000Y-14000000D02*
X53400000Y-14000000D01*
X53400000Y-14000000D02*
X54000000Y-14600000D01*
X49600000Y-9600000D02*
X51800000Y-9400000D01*
%TO.N,/DISP_RST_N*%
X45250000Y-82800000D02*
X45250000Y-81400000D01*
X6400000Y-82800000D02*
X45250000Y-82800000D01*
X6400000Y-45000000D02*
X6400000Y-82800000D01*
%TO.N,/SPI_A_MISO*%
X12600000Y-85000000D02*
X12600000Y-141000000D01*
X12600000Y-85000000D02*
X12600000Y-83500000D01*
%TO.N,/SPI_A_MOSI*%
X11400000Y-85000000D02*
X11400000Y-141000000D01*
%TO.N,/DISP_DC*%
X21200000Y-79700000D02*
X33800000Y-79700000D01*
X21200000Y-29800000D02*
X21200000Y-79700000D01*
X33800000Y-79700000D02*
X33800000Y-78800000D01*
%TO.N,/SPI_A_SCK*%
X10200000Y-85000000D02*
X10200000Y-141000000D01*
%TO.N,/DISP_CS_N*%
X27700000Y-78000000D02*
X31500000Y-78000000D01*
X27000000Y-76000000D02*
X27700000Y-77000000D01*
X27000000Y-18835000D02*
X27000000Y-76000000D01*
X27700000Y-77000000D02*
X27700000Y-78000000D01*
X31500000Y-78000000D02*
X31500000Y-78800000D01*
%TO.N,/I2C_SCL_INT*%
X23700000Y-11600000D02*
X33800000Y-11600000D01*
X31400000Y-76000000D02*
X66800000Y-76000000D01*
X18200000Y-38200000D02*
X18200000Y-64700000D01*
X33800000Y-11600000D02*
X33800000Y-9400000D01*
X18200000Y-38200000D02*
X18200000Y-11350000D01*
X23700000Y-11350000D02*
X23700000Y-11600000D01*
X18200000Y-11350000D02*
X23700000Y-11350000D01*
X66800000Y-76000000D02*
X66800000Y-80250000D01*
%TO.N,/I2C_SDA_INT*%
X30000000Y-77000000D02*
X65490000Y-77000000D01*
X16500000Y-38700000D02*
X17500000Y-37000000D01*
X65490000Y-77000000D02*
X65490000Y-78000000D01*
X16500000Y-46925000D02*
X16500000Y-65400000D01*
X17500000Y-10875000D02*
X25100000Y-10875000D01*
X17250000Y-12700000D02*
X17300000Y-12650000D01*
X17300000Y-11100000D02*
X17500000Y-10900000D01*
X16100000Y-31150000D02*
X16100000Y-26850000D01*
X16400000Y-26400000D02*
X16550000Y-26250000D01*
X16100000Y-26850000D02*
X16200000Y-26750000D01*
X16550000Y-26250000D02*
X16550000Y-26200000D01*
X16200000Y-26700000D02*
X16400000Y-26500000D01*
X16200000Y-26750000D02*
X16200000Y-26700000D01*
X16550000Y-26200000D02*
X17100000Y-25650000D01*
X16400000Y-26500000D02*
X16400000Y-26400000D01*
X17100000Y-25600000D02*
X17200000Y-25500000D01*
X17200000Y-25500000D02*
X17200000Y-25400000D01*
X17500000Y-37000000D02*
X17500000Y-36050000D01*
X17200000Y-25400000D02*
X17250000Y-25350000D01*
X17100000Y-25650000D02*
X17100000Y-25600000D01*
X17300000Y-12650000D02*
X17300000Y-11100000D01*
X17250000Y-25350000D02*
X17250000Y-12700000D01*
X16500000Y-38700000D02*
X16500000Y-46925000D01*
X25100000Y-10875000D02*
X29000000Y-10875000D01*
X30000000Y-65400000D02*
X30000000Y-77000000D01*
%TO.N,/TOUCH_RST_N*%
X22000000Y-39500000D02*
X22000000Y-77000000D01*
X22000000Y-77000000D02*
X26000000Y-77000000D01*
%TO.N,/XGPIO6*%
X53150000Y-10400000D02*
X53300000Y-10550000D01*
X51750000Y-10400000D02*
X53150000Y-10400000D01*
X50950000Y-10500000D02*
X51000000Y-10450000D01*
X41200000Y-11350000D02*
X41350000Y-11500000D01*
X41550000Y-11600000D02*
X49650000Y-11600000D01*
X41500000Y-11550000D02*
X41550000Y-11600000D01*
X51700000Y-10450000D02*
X51750000Y-10400000D01*
X54300000Y-10950000D02*
X54550000Y-11200000D01*
X50750000Y-10550000D02*
X50800000Y-10500000D01*
X35700000Y-11350000D02*
X41200000Y-11350000D01*
X61600000Y-22500000D02*
X61600000Y-25850000D01*
X50700000Y-10550000D02*
X50750000Y-10550000D01*
X41400000Y-11500000D02*
X41450000Y-11550000D01*
X51000000Y-10450000D02*
X51700000Y-10450000D01*
X50800000Y-10500000D02*
X50950000Y-10500000D01*
X41450000Y-11550000D02*
X41500000Y-11550000D01*
X53800000Y-10950000D02*
X54300000Y-10950000D01*
X53400000Y-10550000D02*
X53800000Y-10950000D01*
X53300000Y-10550000D02*
X53400000Y-10550000D01*
X41350000Y-11500000D02*
X41400000Y-11500000D01*
X49650000Y-11600000D02*
X50700000Y-10550000D01*
%TO.N,/08_BUTTONS_EXPANDERS/BTN_HOME_N*%
X13800000Y-85000000D02*
X13800000Y-141000000D01*
X13840000Y-44473500D02*
X13601500Y-44598500D01*
X23526500Y-52401500D02*
X23601500Y-52101500D01*
X23601500Y-52101500D02*
X24100000Y-48351500D01*
X14273500Y-44100000D02*
X13840000Y-44473500D01*
X14800000Y-37801500D02*
X14451500Y-41851500D01*
X24198500Y-46788500D02*
X24198500Y-45896500D01*
X24498500Y-34200000D02*
X23801500Y-32848500D01*
X22877000Y-52800000D02*
X23526500Y-52401500D01*
X14451500Y-41851500D02*
X14451500Y-43025000D01*
X15100000Y-33481499D02*
X14862500Y-36098500D01*
X24100000Y-48351500D02*
X24198500Y-46788500D01*
X24798500Y-39401500D02*
X25151500Y-37151500D01*
X14451500Y-43025000D02*
X14273500Y-44100000D01*
X14862500Y-36098500D02*
X14800000Y-37801500D01*
X25151500Y-37151500D02*
X25151500Y-35898500D01*
X24198500Y-43388500D02*
X24798500Y-39401500D01*
X41350000Y-139500000D02*
X38700000Y-139500000D01*
X38700000Y-139500000D02*
X37700000Y-140500000D01*
X37700000Y-140500000D02*
X37650000Y-140500000D01*
X37650000Y-140500000D02*
X37550000Y-140600000D01*
X37550000Y-140600000D02*
X37500000Y-140600000D01*
X37500000Y-140600000D02*
X37450000Y-140650000D01*
X37450000Y-140650000D02*
X13900000Y-140650000D01*
X13900000Y-140650000D02*
X13800000Y-141000000D01*
X13800000Y-84900000D02*
X13800000Y-84350000D01*
X13800000Y-84350000D02*
X13500000Y-84050000D01*
X13500000Y-84050000D02*
X13500000Y-83700000D01*
X13500000Y-83700000D02*
X13400000Y-83600000D01*
X25151500Y-35898500D02*
X24498500Y-34200000D01*
X24198500Y-45896500D02*
X24198500Y-43388500D01*
%TO.N,/09_COMMUNITY_HEADER/XGPIO2_HDR*%
X53150000Y-14600000D02*
X47650000Y-14600000D01*
X47650000Y-14600000D02*
X47600000Y-14650000D01*
%TO.N,/USB_D_MCU_P*%
D28*
X53850000Y-86800000D02*
X54150000Y-86000000D01*
X54150000Y-116000000D02*
X53850000Y-115000000D01*
X53850000Y-115000000D02*
X53850000Y-86800000D01*
%TO.N,/01_POWER_TREE/USB_VBUS_CHG*%
D29*
X56000000Y-116000000D02*
X56000000Y-86000000D01*
X28000000Y-144800000D02*
X54850000Y-144800000D01*
X54850000Y-144800000D02*
X54850000Y-119000000D01*
X67200000Y-65600000D02*
X70775000Y-64600000D01*
%TO.N,/08_BUTTONS_EXPANDERS/BTN_B_N*%
D24*
X8760000Y-53400000D02*
X8825000Y-49500000D01*
X10650000Y-38098500D02*
X10675000Y-36195000D01*
X39250000Y-63323500D02*
X36650000Y-62048500D01*
X10698500Y-33851500D02*
X10700000Y-33000000D01*
X36650000Y-62048500D02*
X35298500Y-60748500D01*
D30*
X54860000Y-116000000D02*
X54860000Y-116900000D01*
X54860000Y-86000000D02*
X54960000Y-86000000D01*
D24*
X9000000Y-47140000D02*
X9000000Y-46226500D01*
X40701500Y-63326500D02*
X39400000Y-63326500D01*
X9000000Y-44271500D02*
X9748500Y-41075000D01*
X9000000Y-46226500D02*
X9000000Y-44271500D01*
X9748500Y-41075000D02*
X10650000Y-38098500D01*
D30*
X54860000Y-116900000D02*
X57160000Y-116900000D01*
X54860000Y-86000000D02*
X54860000Y-116000000D01*
D24*
X39400000Y-63326500D02*
X39250000Y-63323500D01*
X10675000Y-36195000D02*
X10698500Y-33851500D01*
X8151500Y-54000000D02*
X8760000Y-53400000D01*
X8825000Y-49500000D02*
X9000000Y-47140000D01*
%TO.N,/08_BUTTONS_EXPANDERS/BTN_A_N*%
X57100000Y-115400000D02*
X58150000Y-114350000D01*
X58150000Y-114350000D02*
X58150000Y-86000000D01*
X51900000Y-75400000D02*
X45450000Y-75400000D01*
X45450000Y-75400000D02*
X27700000Y-57650000D01*
%TO.N,/SX1262_RXEN*%
X66000000Y-85000000D02*
X66000000Y-117000000D01*
X27000000Y-12250000D02*
X60000000Y-12600000D01*
X66000000Y-83500000D02*
X66000000Y-85000000D01*
X66000000Y-117000000D02*
X66000000Y-129650000D01*
X66000000Y-129650000D02*
X70600000Y-129650000D01*
%TO.N,Net-(SW9-A)*%
X64650000Y-49150000D02*
X64650000Y-48950000D01*
X62050000Y-55050000D02*
X62050000Y-52550000D01*
X64600000Y-49200000D02*
X64650000Y-49150000D01*
X64700000Y-48900000D02*
X64700000Y-48050000D01*
X50600000Y-64000000D02*
X59450000Y-55150000D01*
X64600000Y-49900000D02*
X64600000Y-49200000D01*
X64650000Y-48950000D02*
X64700000Y-48900000D01*
X64150000Y-50450000D02*
X64150000Y-50400000D01*
X62050000Y-52550000D02*
X64150000Y-50450000D01*
X59450000Y-55150000D02*
X60100000Y-55150000D01*
X64200000Y-50350000D02*
X64200000Y-50300000D01*
X38750000Y-64000000D02*
X50600000Y-64000000D01*
X64700000Y-48050000D02*
X65100000Y-47650000D01*
X64150000Y-50400000D02*
X64200000Y-50350000D01*
X64200000Y-50300000D02*
X64600000Y-49900000D01*
%TO.N,/01_POWER_TREE/ISET*%
X67300000Y-66800000D02*
X67300000Y-72300000D01*
%TO.N,/WAKE_INT_N*%
X8550000Y-42350000D02*
X8550000Y-42450000D01*
X8200000Y-43950000D02*
X8150000Y-44000000D01*
X11050000Y-14550000D02*
X11000000Y-14600000D01*
X8750000Y-32900000D02*
X8750000Y-33100000D01*
X25800000Y-28550000D02*
X25800000Y-28600000D01*
X8850000Y-32700000D02*
X8850000Y-32750000D01*
X26000000Y-28300000D02*
X26000000Y-28350000D01*
X9700000Y-16900000D02*
X9700000Y-17050000D01*
X8300000Y-43500000D02*
X8250000Y-43550000D01*
X8700000Y-33150000D02*
X8700000Y-33250000D01*
X26150000Y-28150000D02*
X26000000Y-28300000D01*
X8400000Y-42900000D02*
X8400000Y-43150000D01*
X8800000Y-32850000D02*
X8750000Y-32900000D01*
X8850000Y-32750000D02*
X8800000Y-32800000D01*
X8500000Y-42700000D02*
X8450000Y-42750000D01*
X8650000Y-42100000D02*
X8600000Y-42150000D01*
X8200000Y-43850000D02*
X8200000Y-43950000D01*
X26000000Y-28350000D02*
X25800000Y-28550000D01*
X8750000Y-33100000D02*
X8700000Y-33150000D01*
X9650000Y-31900000D02*
X8850000Y-32700000D01*
X10950000Y-14800000D02*
X10950000Y-15600000D01*
X8450000Y-42750000D02*
X8450000Y-42850000D01*
X9750000Y-16850000D02*
X9700000Y-16900000D01*
X11500000Y-14200000D02*
X11400000Y-14200000D01*
X8300000Y-43400000D02*
X8300000Y-43500000D01*
X8150000Y-44000000D02*
X8150000Y-45850000D01*
X26150000Y-13400000D02*
X26150000Y-28150000D01*
X8700000Y-33250000D02*
X8650000Y-33300000D01*
X11000000Y-14600000D02*
X11000000Y-14750000D01*
X8250000Y-43550000D02*
X8250000Y-43800000D01*
X8250000Y-43800000D02*
X8200000Y-43850000D01*
X11400000Y-14200000D02*
X11350000Y-14250000D01*
X8550000Y-42450000D02*
X8500000Y-42500000D01*
X8600000Y-42300000D02*
X8550000Y-42350000D01*
X8650000Y-33300000D02*
X8650000Y-42100000D01*
X25800000Y-28600000D02*
X25250000Y-29150000D01*
X8800000Y-32800000D02*
X8800000Y-32850000D01*
X10950000Y-15600000D02*
X9750000Y-16800000D01*
X8500000Y-42500000D02*
X8500000Y-42700000D01*
X11300000Y-14250000D02*
X11050000Y-14500000D01*
X11800000Y-13900000D02*
X11500000Y-14200000D01*
X8150000Y-45850000D02*
X7550000Y-46450000D01*
X11350000Y-14250000D02*
X11300000Y-14250000D01*
X8450000Y-42850000D02*
X8400000Y-42900000D01*
X8350000Y-43200000D02*
X8350000Y-43350000D01*
X9750000Y-16800000D02*
X9750000Y-16850000D01*
X9700000Y-17050000D02*
X9650000Y-17100000D01*
X11000000Y-14750000D02*
X10950000Y-14800000D01*
X8600000Y-42150000D02*
X8600000Y-42300000D01*
X11050000Y-14500000D02*
X11050000Y-14550000D01*
X9650000Y-17100000D02*
X9650000Y-31900000D01*
X8400000Y-43150000D02*
X8350000Y-43200000D01*
X8350000Y-43350000D02*
X8300000Y-43400000D01*
%TO.N,/09_COMMUNITY_HEADER/WAKE_ATTN_N_HDR*%
X44173500Y-14700000D02*
X39500000Y-14898500D01*
X28200000Y-14350000D02*
X28000000Y-14150000D01*
X37523500Y-14898500D02*
X35840000Y-14898500D01*
X29100000Y-14151500D02*
X27991500Y-14151500D01*
X32100000Y-14298500D02*
X29100000Y-14151500D01*
X39500000Y-14898500D02*
X37523500Y-14898500D01*
X35840000Y-14898500D02*
X34280000Y-14301500D01*
X34280000Y-14301500D02*
X32100000Y-14298500D01*
%TO.N,/08_BUTTONS_EXPANDERS/BTN_LEFT_N*%
X15351500Y-50950000D02*
X14923500Y-50100000D01*
X15400000Y-51926500D02*
X15400000Y-51276500D01*
X15251500Y-69000000D02*
X15400000Y-64151500D01*
X13601500Y-79196500D02*
X15251500Y-69000000D01*
X15398500Y-51198500D02*
X15351500Y-50950000D01*
X15400000Y-64151500D02*
X15400000Y-62361500D01*
X15400000Y-57201500D02*
X15400000Y-51926500D01*
X15400000Y-62361500D02*
X15400000Y-57201500D01*
X15400000Y-51276500D02*
X15398500Y-51198500D01*
%TO.N,/SX1262_CS_N*%
X62000000Y-85000000D02*
X62000000Y-117000000D01*
X15800000Y-19500000D02*
X15800000Y-18500000D01*
X15800000Y-18500000D02*
X12000000Y-18500000D01*
X12000000Y-18500000D02*
X12000000Y-82250000D01*
X12000000Y-82250000D02*
X44500000Y-82250000D01*
X44500000Y-82250000D02*
X44500000Y-80700000D01*
X44500000Y-80700000D02*
X61400000Y-80700000D01*
X61400000Y-80700000D02*
X61400000Y-84000000D01*
X61400000Y-84000000D02*
X62000000Y-84000000D01*
X62000000Y-84000000D02*
X62000000Y-85000000D01*
X62000000Y-117000000D02*
X62000000Y-127110000D01*
X62000000Y-127110000D02*
X61700000Y-127110000D01*
%TO.N,Net-(J3-SHIELD)*%
X40800000Y-148100000D02*
X39400000Y-148100000D01*
X30700000Y-148200000D02*
X30700000Y-152400000D01*
X39400000Y-148100000D02*
X39300000Y-148200000D01*
X39300000Y-148200000D02*
X39300000Y-152400000D01*
%TO.N,Net-(U12-PS_SYNC)*%
X65350000Y-45950000D02*
X68300000Y-43000000D01*
%TO.N,Net-(U12-PG)*%
X64300000Y-48750000D02*
X64300000Y-45250000D01*
X64800000Y-44700000D02*
X65800000Y-43700000D01*
X64250000Y-48800000D02*
X64300000Y-48750000D01*
X64050000Y-49200000D02*
X64250000Y-49000000D01*
X63850000Y-49450000D02*
X64050000Y-49250000D01*
X64250000Y-49000000D02*
X64250000Y-48800000D01*
X64050000Y-49250000D02*
X64050000Y-49200000D01*
X64800000Y-44750000D02*
X64800000Y-44700000D01*
X64300000Y-45250000D02*
X64800000Y-44750000D01*
%TO.N,/SPI_B_SCK*%
X10750000Y-81350000D02*
X10750000Y-81450000D01*
X7550000Y-52850000D02*
X7550000Y-52900000D01*
X8350000Y-50950000D02*
X8350000Y-52000000D01*
X8450000Y-48450000D02*
X8450000Y-49050000D01*
X8850000Y-42900000D02*
X8850000Y-43100000D01*
X8800000Y-43150000D02*
X8800000Y-43300000D01*
X7600000Y-52800000D02*
X7550000Y-52850000D01*
X8650000Y-43950000D02*
X8600000Y-44000000D01*
X8950000Y-42650000D02*
X8900000Y-42700000D01*
X8650000Y-43750000D02*
X8650000Y-43950000D01*
X9050000Y-42250000D02*
X9000000Y-42300000D01*
X9100000Y-33300000D02*
X9100000Y-42000000D01*
X8550000Y-47700000D02*
X8500000Y-47750000D01*
X11300000Y-19100000D02*
X11300000Y-30850000D01*
X7600000Y-52750000D02*
X7600000Y-52800000D01*
X7550000Y-52900000D02*
X7500000Y-52950000D01*
X7500000Y-78050000D02*
X10700000Y-81250000D01*
X9100000Y-42000000D02*
X9050000Y-42050000D01*
X8400000Y-50900000D02*
X8350000Y-50950000D01*
X9000000Y-42300000D02*
X9000000Y-42450000D01*
X8600000Y-47050000D02*
X8550000Y-47100000D01*
X9000000Y-42450000D02*
X8950000Y-42500000D01*
X8500000Y-48400000D02*
X8450000Y-48450000D01*
X9150000Y-33250000D02*
X9100000Y-33300000D01*
X8850000Y-43100000D02*
X8800000Y-43150000D01*
X8700000Y-43550000D02*
X8700000Y-43700000D01*
X8950000Y-42500000D02*
X8950000Y-42650000D01*
X11300000Y-30850000D02*
X9200000Y-32950000D01*
X8350000Y-52000000D02*
X7600000Y-52750000D01*
X9200000Y-32950000D02*
X9200000Y-33000000D01*
X8700000Y-43700000D02*
X8650000Y-43750000D01*
X8750000Y-43500000D02*
X8700000Y-43550000D01*
X8900000Y-42700000D02*
X8900000Y-42850000D01*
X8750000Y-43350000D02*
X8750000Y-43500000D01*
X8900000Y-42850000D02*
X8850000Y-42900000D01*
X8400000Y-49100000D02*
X8400000Y-50900000D01*
X8500000Y-47750000D02*
X8500000Y-48400000D01*
X8450000Y-49050000D02*
X8400000Y-49100000D01*
X10750000Y-81450000D02*
X11300000Y-82000000D01*
X7500000Y-52950000D02*
X7500000Y-78050000D01*
X8550000Y-47100000D02*
X8550000Y-47700000D01*
X9200000Y-33000000D02*
X9150000Y-33050000D01*
X8600000Y-44000000D02*
X8600000Y-47050000D01*
X10700000Y-81300000D02*
X10750000Y-81350000D01*
X10700000Y-81250000D02*
X10700000Y-81300000D01*
X9150000Y-33050000D02*
X9150000Y-33250000D01*
X9050000Y-42050000D02*
X9050000Y-42250000D01*
X8800000Y-43300000D02*
X8750000Y-43350000D01*
X59000000Y-85000000D02*
X59000000Y-117000000D01*
X15000000Y-84200000D02*
X32000000Y-84200000D01*
X32000000Y-84200000D02*
X33100000Y-85100000D01*
X33100000Y-85100000D02*
X33500000Y-85100000D01*
X33500000Y-85100000D02*
X34600000Y-84200000D01*
X34600000Y-84200000D02*
X59000000Y-84200000D01*
X59000000Y-84200000D02*
X59000000Y-85000000D01*
X59000000Y-117000000D02*
X59000000Y-127880000D01*
X59000000Y-127880000D02*
X59450000Y-128380000D01*
X59450000Y-128380000D02*
X59450000Y-145000000D01*
X59450000Y-145000000D02*
X55880000Y-148570000D01*
X55880000Y-148570000D02*
X55880000Y-151800000D01*
%TO.N,/SPI_B_MOSI*%
X60000000Y-85000000D02*
X60000000Y-117000000D01*
X13400000Y-19500000D02*
X13000000Y-20300000D01*
X13000000Y-20300000D02*
X13000000Y-80000000D01*
X16400000Y-83500000D02*
X54500000Y-83500000D01*
X54500000Y-83500000D02*
X55200000Y-83700000D01*
X55200000Y-83700000D02*
X60000000Y-83700000D01*
X60000000Y-83700000D02*
X60000000Y-85000000D01*
X60000000Y-117000000D02*
X60150000Y-118500000D01*
X60150000Y-118500000D02*
X60150000Y-129650000D01*
X60150000Y-129650000D02*
X60150000Y-145000000D01*
X60150000Y-145000000D02*
X57150000Y-148000000D01*
X57150000Y-148000000D02*
X57150000Y-151800000D01*
%TO.N,/SPI_B_MISO*%
X61000000Y-85000000D02*
X61000000Y-117000000D01*
X19000000Y-21100000D02*
X19000000Y-80300000D01*
X19000000Y-86500000D02*
X52400000Y-86500000D01*
X52400000Y-86500000D02*
X52400000Y-85200000D01*
X52400000Y-85200000D02*
X58300000Y-85200000D01*
X61000000Y-86000000D02*
X61000000Y-85000000D01*
X61000000Y-117000000D02*
X60850000Y-118500000D01*
X60850000Y-118500000D02*
X60850000Y-130920000D01*
X60850000Y-130920000D02*
X60850000Y-145000000D01*
X60850000Y-145000000D02*
X58420000Y-147430000D01*
X58420000Y-147430000D02*
X58420000Y-151800000D01*
%TO.N,/XGPIO5*%
X26450000Y-12850000D02*
X26400000Y-12850000D01*
X23100000Y-12800000D02*
X22650000Y-12350000D01*
X30100000Y-13800000D02*
X30050000Y-13750000D01*
X42550000Y-13800000D02*
X30100000Y-13800000D01*
X26350000Y-12800000D02*
X23100000Y-12800000D01*
X26400000Y-12850000D02*
X26350000Y-12800000D01*
X27350000Y-13750000D02*
X26450000Y-12850000D01*
X30050000Y-13750000D02*
X27350000Y-13750000D01*
%TO.N,/SD_CS_N*%
X9000000Y-85000000D02*
X9000000Y-141000000D01*
%TO.N,/08_BUTTONS_EXPANDERS/BTN_UP_N*%
X9500000Y-63250000D02*
X9000000Y-62511500D01*
X9000000Y-62511500D02*
X9100000Y-57601500D01*
X9526500Y-52200000D02*
X9526500Y-50700000D01*
X9100000Y-57601500D02*
X9526500Y-52200000D01*
%TO.N,/08_BUTTONS_EXPANDERS/BTN_RIGHT_N*%
X23700000Y-41276500D02*
X24701500Y-37398500D01*
X23253500Y-46303500D02*
X23423500Y-44481500D01*
X23150000Y-33900000D02*
X23150000Y-34050000D01*
X23200000Y-33850000D02*
X23150000Y-33900000D01*
X23200000Y-33800000D02*
X23200000Y-33850000D01*
X23150000Y-34400000D02*
X23150000Y-34450000D01*
X23150000Y-34050000D02*
X23100000Y-34100000D01*
X23300000Y-33500000D02*
X23300000Y-33700000D01*
X24450000Y-35650000D02*
X24650000Y-35850000D01*
X23100000Y-34350000D02*
X23150000Y-34400000D01*
X24350000Y-35600000D02*
X24400000Y-35650000D01*
X23300000Y-33700000D02*
X23200000Y-33800000D01*
X23100000Y-34100000D02*
X23100000Y-34350000D01*
X24650000Y-35900000D02*
X24700000Y-35950000D01*
X24650000Y-35850000D02*
X24650000Y-35900000D01*
X24700000Y-35950000D02*
X24700000Y-36000000D01*
X24300000Y-35600000D02*
X24350000Y-35600000D01*
X24400000Y-35650000D02*
X24450000Y-35650000D01*
X23150000Y-34450000D02*
X24300000Y-35600000D01*
X23423500Y-44481500D02*
X23700000Y-41276500D01*
X24701500Y-37398500D02*
X24701500Y-35985000D01*
X22601500Y-50348500D02*
X23253500Y-47223500D01*
X23253500Y-47223500D02*
X23253500Y-46303500D01*
%TO.N,/CC1101_CS_N*%
X67000000Y-85000000D02*
X67000000Y-117000000D01*
X67000000Y-117000000D02*
X67000000Y-129000000D01*
%TO.N,/08_BUTTONS_EXPANDERS/BTN_DOWN_N*%
X19900000Y-114400000D02*
X19900000Y-114300000D01*
X19900000Y-114300000D02*
X19850000Y-114250000D01*
X19850000Y-114250000D02*
X19850000Y-87100000D01*
X16450000Y-66200000D02*
X15950000Y-65700000D01*
X15950000Y-65700000D02*
X15950000Y-65650000D01*
X15950000Y-65650000D02*
X15900000Y-65600000D01*
X15900000Y-65600000D02*
X15900000Y-47750000D01*
X15900000Y-47750000D02*
X13600000Y-45450000D01*
%TO.N,Net-(U1-EN)*%
X10300000Y-17100000D02*
X12600000Y-14800000D01*
%TO.N,/CC1101_GDO0*%
X18800000Y-12850000D02*
X21900000Y-12850000D01*
X21900000Y-12850000D02*
X21900000Y-36550000D01*
X68000000Y-117000000D02*
X68000000Y-129000000D01*
X68000000Y-85000000D02*
X68000000Y-117000000D01*
%TO.N,/02_MCU_CORE/BOOT_N*%
X22850000Y-38700000D02*
X22850000Y-38750000D01*
X23000000Y-38150000D02*
X23000000Y-38200000D01*
X23200000Y-37950000D02*
X23000000Y-38150000D01*
X22800000Y-38800000D02*
X22800000Y-38950000D01*
X22750000Y-39000000D02*
X22750000Y-47050000D01*
X22850000Y-38750000D02*
X22800000Y-38800000D01*
X22950000Y-38250000D02*
X22950000Y-38600000D01*
X22750000Y-47050000D02*
X22650000Y-47150000D01*
X22950000Y-38600000D02*
X22850000Y-38700000D01*
X22800000Y-38950000D02*
X22750000Y-39000000D01*
X23000000Y-38200000D02*
X22950000Y-38250000D01*
%TO.N,/DISP_BL_CTL*%
X20500000Y-32000000D02*
X20500000Y-80400000D01*
X20500000Y-80400000D02*
X43800000Y-80400000D01*
X43800000Y-80400000D02*
X43800000Y-81300000D01*
%TO.N,/SX1262_RST_N*%
X65000000Y-85000000D02*
X65000000Y-117000000D01*
X13700000Y-48350000D02*
X13700000Y-52000000D01*
X30000000Y-52000000D02*
X57000000Y-52000000D01*
X57000000Y-52000000D02*
X57000000Y-38000000D01*
X71000000Y-38000000D02*
X71600000Y-38000000D01*
X71600000Y-38000000D02*
X71600000Y-81500000D01*
X71600000Y-81500000D02*
X65000000Y-81500000D01*
X65000000Y-81500000D02*
X65000000Y-85000000D01*
X65000000Y-117000000D02*
X65000000Y-131000000D01*
%TO.N,/SX1262_DIO1*%
X63000000Y-85000000D02*
X63000000Y-117000000D01*
X63400000Y-78000000D02*
X63400000Y-82000000D01*
X63400000Y-82000000D02*
X63000000Y-83000000D01*
X63000000Y-83000000D02*
X63000000Y-85000000D01*
X63000000Y-117000000D02*
X63000000Y-132500000D01*
%TO.N,/SX1262_BUSY*%
X16600000Y-19500000D02*
X16600000Y-10000000D01*
X16600000Y-10000000D02*
X32900000Y-10000000D01*
X32900000Y-10000000D02*
X33300000Y-8750000D01*
X33300000Y-8750000D02*
X34600000Y-8750000D01*
X34600000Y-8750000D02*
X35000000Y-10000000D01*
X35000000Y-10000000D02*
X61000000Y-10000000D01*
X61000000Y-10000000D02*
X61000000Y-74500000D01*
X61000000Y-74500000D02*
X60200000Y-74500000D01*
X64000000Y-83000000D02*
X64000000Y-85000000D01*
X64000000Y-117000000D02*
X64000000Y-133460000D01*
X64000000Y-133460000D02*
X61700000Y-133460000D01*
X64000000Y-85000000D02*
X64000000Y-117000000D01*
%TO.N,/BMI270_INT1_STRAP*%
X19800000Y-62900000D02*
X19800000Y-19300000D01*
%TO.N,/I2S_BCLK*%
X45000000Y-35500000D02*
X45950000Y-35500000D01*
X44950000Y-35550000D02*
X45000000Y-35500000D01*
X30600000Y-39450000D02*
X30650000Y-39450000D01*
X17550000Y-34100000D02*
X17550000Y-29500000D01*
X45950000Y-35500000D02*
X46350000Y-35100000D01*
X41100000Y-39400000D02*
X44700000Y-35800000D01*
X44700000Y-35800000D02*
X44700000Y-35750000D01*
X30650000Y-39450000D02*
X30700000Y-39400000D01*
X30700000Y-39400000D02*
X41100000Y-39400000D01*
X44700000Y-35750000D02*
X44900000Y-35550000D01*
X46350000Y-35100000D02*
X54100000Y-35100000D01*
X44900000Y-35550000D02*
X44950000Y-35550000D01*
X54100000Y-32500000D02*
X60350000Y-26250000D01*
X54100000Y-35100000D02*
X54100000Y-32500000D01*
X30450000Y-39600000D02*
X30600000Y-39450000D01*
%TO.N,/I2S_LRCLK*%
X67150000Y-12950000D02*
X67200000Y-12900000D01*
X68000000Y-11400000D02*
X68000000Y-9900000D01*
X16300000Y-33600000D02*
X16250000Y-33550000D01*
X16700000Y-34200000D02*
X16350000Y-33850000D01*
X67500000Y-11950000D02*
X67500000Y-11900000D01*
X67300000Y-12350000D02*
X67300000Y-12250000D01*
X29550000Y-39600000D02*
X30100000Y-39050000D01*
X16350000Y-33800000D02*
X16300000Y-33750000D01*
X67400000Y-12100000D02*
X67400000Y-12050000D01*
X16300000Y-33200000D02*
X16350000Y-33150000D01*
X16300000Y-33350000D02*
X16300000Y-33200000D01*
X26050000Y-38350000D02*
X26050000Y-39600000D01*
X67200000Y-12550000D02*
X67250000Y-12500000D01*
X16250000Y-33550000D02*
X16250000Y-33400000D01*
X30100000Y-39050000D02*
X30150000Y-39050000D01*
X67350000Y-12200000D02*
X67350000Y-12150000D01*
X16300000Y-33750000D02*
X16300000Y-33600000D01*
X16350000Y-33150000D02*
X16350000Y-33100000D01*
X16350000Y-33850000D02*
X16350000Y-33800000D01*
X67300000Y-12250000D02*
X67350000Y-12200000D01*
X67250000Y-12500000D02*
X67250000Y-12400000D01*
X67350000Y-12150000D02*
X67400000Y-12100000D01*
X67250000Y-12400000D02*
X67300000Y-12350000D01*
X65900000Y-14550000D02*
X67150000Y-13300000D01*
X30200000Y-39000000D02*
X40600000Y-39000000D01*
X67150000Y-13300000D02*
X67150000Y-12950000D01*
X16350000Y-33100000D02*
X16750000Y-32700000D01*
X16250000Y-33400000D02*
X16300000Y-33350000D01*
X16700000Y-35550000D02*
X16700000Y-34200000D01*
X40600000Y-39000000D02*
X41250000Y-38350000D01*
X65900000Y-16400000D02*
X65900000Y-14550000D01*
X16750000Y-32700000D02*
X16750000Y-29500000D01*
X67500000Y-11900000D02*
X68000000Y-11400000D01*
X67400000Y-12050000D02*
X67500000Y-11950000D01*
X67200000Y-12900000D02*
X67200000Y-12550000D01*
X30150000Y-39050000D02*
X30200000Y-39000000D01*
%TO.N,/I2S_MIC_DIN*%
X25800000Y-37700000D02*
X25500000Y-38000000D01*
X25400000Y-38300000D02*
X25400000Y-40100000D01*
X25450000Y-38250000D02*
X25400000Y-38300000D01*
X23300000Y-31350000D02*
X25800000Y-33850000D01*
X25450000Y-38100000D02*
X25450000Y-38250000D01*
X25500000Y-38000000D02*
X25500000Y-38050000D01*
X41150000Y-40200000D02*
X45250000Y-36100000D01*
X37150000Y-40200000D02*
X41150000Y-40200000D01*
X25800000Y-33850000D02*
X25800000Y-37700000D01*
X25500000Y-38050000D02*
X25450000Y-38100000D01*
%TD*%
M02*
