%TF.GenerationSoftware,KiCad,Pcbnew,10.0.3*%
%TF.CreationDate,2026-08-20T19:01:49-04:00*%
%TF.ProjectId,aqroot-Beta-DM,6171726f-6f74-42d4-9265-74612d444d2e,rev?*%
%TF.SameCoordinates,Original*%
%TF.FileFunction,Legend,Bot*%
%TF.FilePolarity,Positive*%
%FSLAX46Y46*%
G04 Gerber Fmt 4.6, Leading zero omitted, Abs format (unit mm)*
G04 Created by KiCad (PCBNEW 10.0.3) date 2026-08-20 19:01:49*
%MOMM*%
%LPD*%
G01*
G04 APERTURE LIST*
G04 Aperture macros list*
%AMRoundRect*
0 Rectangle with rounded corners*
0 $1 Rounding radius*
0 $2 $3 $4 $5 $6 $7 $8 $9 X,Y pos of 4 corners*
0 Add a 4 corners polygon primitive as box body*
4,1,4,$2,$3,$4,$5,$6,$7,$8,$9,$2,$3,0*
0 Add four circle primitives for the rounded corners*
1,1,$1+$1,$2,$3*
1,1,$1+$1,$4,$5*
1,1,$1+$1,$6,$7*
1,1,$1+$1,$8,$9*
0 Add four rect primitives between the rounded corners*
20,1,$1+$1,$2,$3,$4,$5,0*
20,1,$1+$1,$4,$5,$6,$7,0*
20,1,$1+$1,$6,$7,$8,$9,0*
20,1,$1+$1,$8,$9,$2,$3,0*%
%AMFreePoly0*
4,1,64,0.031751,0.146088,0.079639,0.146088,0.235856,0.115014,0.383010,0.054061,0.515445,-0.034429,0.628071,-0.147055,0.716561,-0.279490,0.777514,-0.426644,0.808588,-0.582861,0.808588,-0.742139,0.777514,-0.898356,0.716561,-1.045510,0.628071,-1.177945,0.515445,-1.290571,0.383010,-1.379061,0.235856,-1.440014,0.079639,-1.471088,-0.079639,-1.471088,-0.235856,-1.440014,-0.383010,-1.379061,
-0.515445,-1.290571,-0.628071,-1.177945,-0.716561,-1.045510,-0.777514,-0.898356,-0.808588,-0.742139,-0.808588,-0.595028,-0.512500,-0.595028,-0.512500,-0.729972,-0.477574,-0.860317,-0.410102,-0.977182,-0.314682,-1.072602,-0.197817,-1.140074,-0.067472,-1.175000,0.067472,-1.175000,0.197817,-1.140074,0.314682,-1.072602,0.410102,-0.977182,0.477574,-0.860317,0.512500,-0.729972,0.512500,-0.595028,
0.477574,-0.464683,0.410102,-0.347818,0.314682,-0.252398,0.197817,-0.184926,0.067472,-0.150000,-0.067472,-0.150000,-0.197817,-0.184926,-0.314682,-0.252398,-0.410102,-0.347818,-0.477574,-0.464683,-0.512500,-0.595028,-0.808588,-0.595028,-0.808588,-0.582861,-0.777514,-0.426644,-0.716561,-0.279490,-0.628071,-0.147055,-0.515445,-0.034429,-0.383010,0.054061,-0.235856,0.115014,-0.079639,0.146088,
-0.031751,0.146088,-0.029264,0.147118,0.029264,0.147118,0.031751,0.146088,0.031751,0.146088,$1*%
G04 Aperture macros list end*
%ADD10C,0.150000*%
%ADD11C,0.105000*%
%ADD12C,0.120000*%
%ADD13C,0.310000*%
%ADD14C,0.260000*%
%ADD15C,0.250000*%
%ADD16R,1.800000X1.800000*%
%ADD17C,1.800000*%
%ADD18C,0.900000*%
%ADD19C,0.650000*%
%ADD20O,1.000000X2.100000*%
%ADD21O,1.000000X1.800000*%
%ADD22RoundRect,0.200000X-0.200000X-0.275000X0.200000X-0.275000X0.200000X0.275000X-0.200000X0.275000X0*%
%ADD23RoundRect,0.112500X0.187500X0.112500X-0.187500X0.112500X-0.187500X-0.112500X0.187500X-0.112500X0*%
%ADD24RoundRect,0.225000X0.225000X0.250000X-0.225000X0.250000X-0.225000X-0.250000X0.225000X-0.250000X0*%
%ADD25RoundRect,0.100000X0.100000X-0.637500X0.100000X0.637500X-0.100000X0.637500X-0.100000X-0.637500X0*%
%ADD26R,0.900000X1.800000*%
%ADD27RoundRect,0.200000X0.200000X0.275000X-0.200000X0.275000X-0.200000X-0.275000X0.200000X-0.275000X0*%
%ADD28RoundRect,0.250000X0.250000X0.475000X-0.250000X0.475000X-0.250000X-0.475000X0.250000X-0.475000X0*%
%ADD29R,0.475000X0.250000*%
%ADD30R,0.250000X0.475000*%
%ADD31RoundRect,0.225000X-0.225000X-0.250000X0.225000X-0.250000X0.225000X0.250000X-0.225000X0.250000X0*%
%ADD32C,1.000000*%
%ADD33RoundRect,0.225000X0.250000X-0.225000X0.250000X0.225000X-0.250000X0.225000X-0.250000X-0.225000X0*%
%ADD34RoundRect,0.250000X-0.250000X-0.475000X0.250000X-0.475000X0.250000X0.475000X-0.250000X0.475000X0*%
%ADD35RoundRect,0.150000X-0.587500X-0.150000X0.587500X-0.150000X0.587500X0.150000X-0.587500X0.150000X0*%
%ADD36RoundRect,0.087500X-0.425000X-0.087500X0.425000X-0.087500X0.425000X0.087500X-0.425000X0.087500X0*%
%ADD37RoundRect,0.100000X-0.637500X-0.100000X0.637500X-0.100000X0.637500X0.100000X-0.637500X0.100000X0*%
%ADD38R,1.800000X0.900000*%
%ADD39RoundRect,0.250000X-0.350000X-0.625000X0.350000X-0.625000X0.350000X0.625000X-0.350000X0.625000X0*%
%ADD40O,1.200000X1.750000*%
%ADD41RoundRect,0.150000X-0.512500X-0.150000X0.512500X-0.150000X0.512500X0.150000X-0.512500X0.150000X0*%
%ADD42R,0.900000X1.500000*%
%ADD43R,1.500000X0.900000*%
%ADD44C,0.600000*%
%ADD45R,3.900000X3.900000*%
%ADD46RoundRect,0.225000X-0.250000X0.225000X-0.250000X-0.225000X0.250000X-0.225000X0.250000X0.225000X0*%
%ADD47RoundRect,0.200000X0.275000X-0.200000X0.275000X0.200000X-0.275000X0.200000X-0.275000X-0.200000X0*%
%ADD48R,0.800000X1.500000*%
%ADD49R,1.400000X1.700000*%
%ADD50R,1.500000X1.150000*%
%ADD51R,1.300000X1.500000*%
%ADD52RoundRect,0.125000X-0.687500X-0.125000X0.687500X-0.125000X0.687500X0.125000X-0.687500X0.125000X0*%
%ADD53RoundRect,0.062500X-0.062500X0.350000X-0.062500X-0.350000X0.062500X-0.350000X0.062500X0.350000X0*%
%ADD54RoundRect,0.062500X-0.350000X0.062500X-0.350000X-0.062500X0.350000X-0.062500X0.350000X0.062500X0*%
%ADD55R,1.230000X1.230000*%
%ADD56RoundRect,0.250000X-0.525000X-0.400000X0.525000X-0.400000X0.525000X0.400000X-0.525000X0.400000X0*%
%ADD57C,0.500000*%
%ADD58R,0.600000X0.522000*%
%ADD59FreePoly0,270.000000*%
%ADD60R,1.700000X1.700000*%
%ADD61C,1.700000*%
%ADD62R,0.980000X3.400000*%
%ADD63RoundRect,0.250000X-0.262500X-0.450000X0.262500X-0.450000X0.262500X0.450000X-0.262500X0.450000X0*%
G04 APERTURE END LIST*
D10*
X37542857Y-15884819D02*
X37876190Y-15408628D01*
X38114285Y-15884819D02*
X38114285Y-14884819D01*
X38114285Y-14884819D02*
X37733333Y-14884819D01*
X37733333Y-14884819D02*
X37638095Y-14932438D01*
X37638095Y-14932438D02*
X37590476Y-14980057D01*
X37590476Y-14980057D02*
X37542857Y-15075295D01*
X37542857Y-15075295D02*
X37542857Y-15218152D01*
X37542857Y-15218152D02*
X37590476Y-15313390D01*
X37590476Y-15313390D02*
X37638095Y-15361009D01*
X37638095Y-15361009D02*
X37733333Y-15408628D01*
X37733333Y-15408628D02*
X38114285Y-15408628D01*
X36685714Y-15218152D02*
X36685714Y-15884819D01*
X36923809Y-14837200D02*
X37161904Y-15551485D01*
X37161904Y-15551485D02*
X36542857Y-15551485D01*
X36257142Y-14884819D02*
X35590476Y-14884819D01*
X35590476Y-14884819D02*
X36019047Y-15884819D01*
X43738094Y-83804819D02*
X43738094Y-82804819D01*
X43738094Y-82804819D02*
X43499999Y-82804819D01*
X43499999Y-82804819D02*
X43357142Y-82852438D01*
X43357142Y-82852438D02*
X43261904Y-82947676D01*
X43261904Y-82947676D02*
X43214285Y-83042914D01*
X43214285Y-83042914D02*
X43166666Y-83233390D01*
X43166666Y-83233390D02*
X43166666Y-83376247D01*
X43166666Y-83376247D02*
X43214285Y-83566723D01*
X43214285Y-83566723D02*
X43261904Y-83661961D01*
X43261904Y-83661961D02*
X43357142Y-83757200D01*
X43357142Y-83757200D02*
X43499999Y-83804819D01*
X43499999Y-83804819D02*
X43738094Y-83804819D01*
X42595237Y-83233390D02*
X42690475Y-83185771D01*
X42690475Y-83185771D02*
X42738094Y-83138152D01*
X42738094Y-83138152D02*
X42785713Y-83042914D01*
X42785713Y-83042914D02*
X42785713Y-82995295D01*
X42785713Y-82995295D02*
X42738094Y-82900057D01*
X42738094Y-82900057D02*
X42690475Y-82852438D01*
X42690475Y-82852438D02*
X42595237Y-82804819D01*
X42595237Y-82804819D02*
X42404761Y-82804819D01*
X42404761Y-82804819D02*
X42309523Y-82852438D01*
X42309523Y-82852438D02*
X42261904Y-82900057D01*
X42261904Y-82900057D02*
X42214285Y-82995295D01*
X42214285Y-82995295D02*
X42214285Y-83042914D01*
X42214285Y-83042914D02*
X42261904Y-83138152D01*
X42261904Y-83138152D02*
X42309523Y-83185771D01*
X42309523Y-83185771D02*
X42404761Y-83233390D01*
X42404761Y-83233390D02*
X42595237Y-83233390D01*
X42595237Y-83233390D02*
X42690475Y-83281009D01*
X42690475Y-83281009D02*
X42738094Y-83328628D01*
X42738094Y-83328628D02*
X42785713Y-83423866D01*
X42785713Y-83423866D02*
X42785713Y-83614342D01*
X42785713Y-83614342D02*
X42738094Y-83709580D01*
X42738094Y-83709580D02*
X42690475Y-83757200D01*
X42690475Y-83757200D02*
X42595237Y-83804819D01*
X42595237Y-83804819D02*
X42404761Y-83804819D01*
X42404761Y-83804819D02*
X42309523Y-83757200D01*
X42309523Y-83757200D02*
X42261904Y-83709580D01*
X42261904Y-83709580D02*
X42214285Y-83614342D01*
X42214285Y-83614342D02*
X42214285Y-83423866D01*
X42214285Y-83423866D02*
X42261904Y-83328628D01*
X42261904Y-83328628D02*
X42309523Y-83281009D01*
X42309523Y-83281009D02*
X42404761Y-83233390D01*
X15666666Y-12384819D02*
X15999999Y-11908628D01*
X16238094Y-12384819D02*
X16238094Y-11384819D01*
X16238094Y-11384819D02*
X15857142Y-11384819D01*
X15857142Y-11384819D02*
X15761904Y-11432438D01*
X15761904Y-11432438D02*
X15714285Y-11480057D01*
X15714285Y-11480057D02*
X15666666Y-11575295D01*
X15666666Y-11575295D02*
X15666666Y-11718152D01*
X15666666Y-11718152D02*
X15714285Y-11813390D01*
X15714285Y-11813390D02*
X15761904Y-11861009D01*
X15761904Y-11861009D02*
X15857142Y-11908628D01*
X15857142Y-11908628D02*
X16238094Y-11908628D01*
X14714285Y-12384819D02*
X15285713Y-12384819D01*
X14999999Y-12384819D02*
X14999999Y-11384819D01*
X14999999Y-11384819D02*
X15095237Y-11527676D01*
X15095237Y-11527676D02*
X15190475Y-11622914D01*
X15190475Y-11622914D02*
X15285713Y-11670533D01*
X30642857Y-12929580D02*
X30690476Y-12977200D01*
X30690476Y-12977200D02*
X30833333Y-13024819D01*
X30833333Y-13024819D02*
X30928571Y-13024819D01*
X30928571Y-13024819D02*
X31071428Y-12977200D01*
X31071428Y-12977200D02*
X31166666Y-12881961D01*
X31166666Y-12881961D02*
X31214285Y-12786723D01*
X31214285Y-12786723D02*
X31261904Y-12596247D01*
X31261904Y-12596247D02*
X31261904Y-12453390D01*
X31261904Y-12453390D02*
X31214285Y-12262914D01*
X31214285Y-12262914D02*
X31166666Y-12167676D01*
X31166666Y-12167676D02*
X31071428Y-12072438D01*
X31071428Y-12072438D02*
X30928571Y-12024819D01*
X30928571Y-12024819D02*
X30833333Y-12024819D01*
X30833333Y-12024819D02*
X30690476Y-12072438D01*
X30690476Y-12072438D02*
X30642857Y-12120057D01*
X30309523Y-12024819D02*
X29690476Y-12024819D01*
X29690476Y-12024819D02*
X30023809Y-12405771D01*
X30023809Y-12405771D02*
X29880952Y-12405771D01*
X29880952Y-12405771D02*
X29785714Y-12453390D01*
X29785714Y-12453390D02*
X29738095Y-12501009D01*
X29738095Y-12501009D02*
X29690476Y-12596247D01*
X29690476Y-12596247D02*
X29690476Y-12834342D01*
X29690476Y-12834342D02*
X29738095Y-12929580D01*
X29738095Y-12929580D02*
X29785714Y-12977200D01*
X29785714Y-12977200D02*
X29880952Y-13024819D01*
X29880952Y-13024819D02*
X30166666Y-13024819D01*
X30166666Y-13024819D02*
X30261904Y-12977200D01*
X30261904Y-12977200D02*
X30309523Y-12929580D01*
X29357142Y-12024819D02*
X28690476Y-12024819D01*
X28690476Y-12024819D02*
X29119047Y-13024819D01*
X26304819Y-11538095D02*
X27114342Y-11538095D01*
X27114342Y-11538095D02*
X27209580Y-11585714D01*
X27209580Y-11585714D02*
X27257200Y-11633333D01*
X27257200Y-11633333D02*
X27304819Y-11728571D01*
X27304819Y-11728571D02*
X27304819Y-11919047D01*
X27304819Y-11919047D02*
X27257200Y-12014285D01*
X27257200Y-12014285D02*
X27209580Y-12061904D01*
X27209580Y-12061904D02*
X27114342Y-12109523D01*
X27114342Y-12109523D02*
X26304819Y-12109523D01*
X26304819Y-12490476D02*
X26304819Y-13109523D01*
X26304819Y-13109523D02*
X26685771Y-12776190D01*
X26685771Y-12776190D02*
X26685771Y-12919047D01*
X26685771Y-12919047D02*
X26733390Y-13014285D01*
X26733390Y-13014285D02*
X26781009Y-13061904D01*
X26781009Y-13061904D02*
X26876247Y-13109523D01*
X26876247Y-13109523D02*
X27114342Y-13109523D01*
X27114342Y-13109523D02*
X27209580Y-13061904D01*
X27209580Y-13061904D02*
X27257200Y-13014285D01*
X27257200Y-13014285D02*
X27304819Y-12919047D01*
X27304819Y-12919047D02*
X27304819Y-12633333D01*
X27304819Y-12633333D02*
X27257200Y-12538095D01*
X27257200Y-12538095D02*
X27209580Y-12490476D01*
X66154819Y-145738095D02*
X66964342Y-145738095D01*
X66964342Y-145738095D02*
X67059580Y-145785714D01*
X67059580Y-145785714D02*
X67107200Y-145833333D01*
X67107200Y-145833333D02*
X67154819Y-145928571D01*
X67154819Y-145928571D02*
X67154819Y-146119047D01*
X67154819Y-146119047D02*
X67107200Y-146214285D01*
X67107200Y-146214285D02*
X67059580Y-146261904D01*
X67059580Y-146261904D02*
X66964342Y-146309523D01*
X66964342Y-146309523D02*
X66154819Y-146309523D01*
X66154819Y-146690476D02*
X66154819Y-147357142D01*
X66154819Y-147357142D02*
X67154819Y-146928571D01*
X12142857Y-56784819D02*
X12476190Y-56308628D01*
X12714285Y-56784819D02*
X12714285Y-55784819D01*
X12714285Y-55784819D02*
X12333333Y-55784819D01*
X12333333Y-55784819D02*
X12238095Y-55832438D01*
X12238095Y-55832438D02*
X12190476Y-55880057D01*
X12190476Y-55880057D02*
X12142857Y-55975295D01*
X12142857Y-55975295D02*
X12142857Y-56118152D01*
X12142857Y-56118152D02*
X12190476Y-56213390D01*
X12190476Y-56213390D02*
X12238095Y-56261009D01*
X12238095Y-56261009D02*
X12333333Y-56308628D01*
X12333333Y-56308628D02*
X12714285Y-56308628D01*
X11190476Y-56784819D02*
X11761904Y-56784819D01*
X11476190Y-56784819D02*
X11476190Y-55784819D01*
X11476190Y-55784819D02*
X11571428Y-55927676D01*
X11571428Y-55927676D02*
X11666666Y-56022914D01*
X11666666Y-56022914D02*
X11761904Y-56070533D01*
X10285714Y-55784819D02*
X10761904Y-55784819D01*
X10761904Y-55784819D02*
X10809523Y-56261009D01*
X10809523Y-56261009D02*
X10761904Y-56213390D01*
X10761904Y-56213390D02*
X10666666Y-56165771D01*
X10666666Y-56165771D02*
X10428571Y-56165771D01*
X10428571Y-56165771D02*
X10333333Y-56213390D01*
X10333333Y-56213390D02*
X10285714Y-56261009D01*
X10285714Y-56261009D02*
X10238095Y-56356247D01*
X10238095Y-56356247D02*
X10238095Y-56594342D01*
X10238095Y-56594342D02*
X10285714Y-56689580D01*
X10285714Y-56689580D02*
X10333333Y-56737200D01*
X10333333Y-56737200D02*
X10428571Y-56784819D01*
X10428571Y-56784819D02*
X10666666Y-56784819D01*
X10666666Y-56784819D02*
X10761904Y-56737200D01*
X10761904Y-56737200D02*
X10809523Y-56689580D01*
X44642857Y-11234819D02*
X44976190Y-10758628D01*
X45214285Y-11234819D02*
X45214285Y-10234819D01*
X45214285Y-10234819D02*
X44833333Y-10234819D01*
X44833333Y-10234819D02*
X44738095Y-10282438D01*
X44738095Y-10282438D02*
X44690476Y-10330057D01*
X44690476Y-10330057D02*
X44642857Y-10425295D01*
X44642857Y-10425295D02*
X44642857Y-10568152D01*
X44642857Y-10568152D02*
X44690476Y-10663390D01*
X44690476Y-10663390D02*
X44738095Y-10711009D01*
X44738095Y-10711009D02*
X44833333Y-10758628D01*
X44833333Y-10758628D02*
X45214285Y-10758628D01*
X43690476Y-11234819D02*
X44261904Y-11234819D01*
X43976190Y-11234819D02*
X43976190Y-10234819D01*
X43976190Y-10234819D02*
X44071428Y-10377676D01*
X44071428Y-10377676D02*
X44166666Y-10472914D01*
X44166666Y-10472914D02*
X44261904Y-10520533D01*
X43357142Y-10234819D02*
X42690476Y-10234819D01*
X42690476Y-10234819D02*
X43119047Y-11234819D01*
X51042857Y-82024819D02*
X51376190Y-81548628D01*
X51614285Y-82024819D02*
X51614285Y-81024819D01*
X51614285Y-81024819D02*
X51233333Y-81024819D01*
X51233333Y-81024819D02*
X51138095Y-81072438D01*
X51138095Y-81072438D02*
X51090476Y-81120057D01*
X51090476Y-81120057D02*
X51042857Y-81215295D01*
X51042857Y-81215295D02*
X51042857Y-81358152D01*
X51042857Y-81358152D02*
X51090476Y-81453390D01*
X51090476Y-81453390D02*
X51138095Y-81501009D01*
X51138095Y-81501009D02*
X51233333Y-81548628D01*
X51233333Y-81548628D02*
X51614285Y-81548628D01*
X50709523Y-81024819D02*
X50042857Y-81024819D01*
X50042857Y-81024819D02*
X50471428Y-82024819D01*
X49138095Y-82024819D02*
X49709523Y-82024819D01*
X49423809Y-82024819D02*
X49423809Y-81024819D01*
X49423809Y-81024819D02*
X49519047Y-81167676D01*
X49519047Y-81167676D02*
X49614285Y-81262914D01*
X49614285Y-81262914D02*
X49709523Y-81310533D01*
X34142857Y-81829580D02*
X34190476Y-81877200D01*
X34190476Y-81877200D02*
X34333333Y-81924819D01*
X34333333Y-81924819D02*
X34428571Y-81924819D01*
X34428571Y-81924819D02*
X34571428Y-81877200D01*
X34571428Y-81877200D02*
X34666666Y-81781961D01*
X34666666Y-81781961D02*
X34714285Y-81686723D01*
X34714285Y-81686723D02*
X34761904Y-81496247D01*
X34761904Y-81496247D02*
X34761904Y-81353390D01*
X34761904Y-81353390D02*
X34714285Y-81162914D01*
X34714285Y-81162914D02*
X34666666Y-81067676D01*
X34666666Y-81067676D02*
X34571428Y-80972438D01*
X34571428Y-80972438D02*
X34428571Y-80924819D01*
X34428571Y-80924819D02*
X34333333Y-80924819D01*
X34333333Y-80924819D02*
X34190476Y-80972438D01*
X34190476Y-80972438D02*
X34142857Y-81020057D01*
X33285714Y-81258152D02*
X33285714Y-81924819D01*
X33523809Y-80877200D02*
X33761904Y-81591485D01*
X33761904Y-81591485D02*
X33142857Y-81591485D01*
X32857142Y-80924819D02*
X32238095Y-80924819D01*
X32238095Y-80924819D02*
X32571428Y-81305771D01*
X32571428Y-81305771D02*
X32428571Y-81305771D01*
X32428571Y-81305771D02*
X32333333Y-81353390D01*
X32333333Y-81353390D02*
X32285714Y-81401009D01*
X32285714Y-81401009D02*
X32238095Y-81496247D01*
X32238095Y-81496247D02*
X32238095Y-81734342D01*
X32238095Y-81734342D02*
X32285714Y-81829580D01*
X32285714Y-81829580D02*
X32333333Y-81877200D01*
X32333333Y-81877200D02*
X32428571Y-81924819D01*
X32428571Y-81924819D02*
X32714285Y-81924819D01*
X32714285Y-81924819D02*
X32809523Y-81877200D01*
X32809523Y-81877200D02*
X32857142Y-81829580D01*
D11*
X12633333Y-65318373D02*
X12633333Y-65885040D01*
X12633333Y-65885040D02*
X12600000Y-65951706D01*
X12600000Y-65951706D02*
X12566666Y-65985040D01*
X12566666Y-65985040D02*
X12500000Y-66018373D01*
X12500000Y-66018373D02*
X12366666Y-66018373D01*
X12366666Y-66018373D02*
X12300000Y-65985040D01*
X12300000Y-65985040D02*
X12266666Y-65951706D01*
X12266666Y-65951706D02*
X12233333Y-65885040D01*
X12233333Y-65885040D02*
X12233333Y-65318373D01*
X11600000Y-65551706D02*
X11600000Y-66018373D01*
X11766667Y-65285040D02*
X11933333Y-65785040D01*
X11933333Y-65785040D02*
X11500000Y-65785040D01*
D10*
X18842857Y-42384819D02*
X19176190Y-41908628D01*
X19414285Y-42384819D02*
X19414285Y-41384819D01*
X19414285Y-41384819D02*
X19033333Y-41384819D01*
X19033333Y-41384819D02*
X18938095Y-41432438D01*
X18938095Y-41432438D02*
X18890476Y-41480057D01*
X18890476Y-41480057D02*
X18842857Y-41575295D01*
X18842857Y-41575295D02*
X18842857Y-41718152D01*
X18842857Y-41718152D02*
X18890476Y-41813390D01*
X18890476Y-41813390D02*
X18938095Y-41861009D01*
X18938095Y-41861009D02*
X19033333Y-41908628D01*
X19033333Y-41908628D02*
X19414285Y-41908628D01*
X17890476Y-42384819D02*
X18461904Y-42384819D01*
X18176190Y-42384819D02*
X18176190Y-41384819D01*
X18176190Y-41384819D02*
X18271428Y-41527676D01*
X18271428Y-41527676D02*
X18366666Y-41622914D01*
X18366666Y-41622914D02*
X18461904Y-41670533D01*
X17509523Y-41480057D02*
X17461904Y-41432438D01*
X17461904Y-41432438D02*
X17366666Y-41384819D01*
X17366666Y-41384819D02*
X17128571Y-41384819D01*
X17128571Y-41384819D02*
X17033333Y-41432438D01*
X17033333Y-41432438D02*
X16985714Y-41480057D01*
X16985714Y-41480057D02*
X16938095Y-41575295D01*
X16938095Y-41575295D02*
X16938095Y-41670533D01*
X16938095Y-41670533D02*
X16985714Y-41813390D01*
X16985714Y-41813390D02*
X17557142Y-42384819D01*
X17557142Y-42384819D02*
X16938095Y-42384819D01*
X40842857Y-15789580D02*
X40890476Y-15837200D01*
X40890476Y-15837200D02*
X41033333Y-15884819D01*
X41033333Y-15884819D02*
X41128571Y-15884819D01*
X41128571Y-15884819D02*
X41271428Y-15837200D01*
X41271428Y-15837200D02*
X41366666Y-15741961D01*
X41366666Y-15741961D02*
X41414285Y-15646723D01*
X41414285Y-15646723D02*
X41461904Y-15456247D01*
X41461904Y-15456247D02*
X41461904Y-15313390D01*
X41461904Y-15313390D02*
X41414285Y-15122914D01*
X41414285Y-15122914D02*
X41366666Y-15027676D01*
X41366666Y-15027676D02*
X41271428Y-14932438D01*
X41271428Y-14932438D02*
X41128571Y-14884819D01*
X41128571Y-14884819D02*
X41033333Y-14884819D01*
X41033333Y-14884819D02*
X40890476Y-14932438D01*
X40890476Y-14932438D02*
X40842857Y-14980057D01*
X40509523Y-14884819D02*
X39890476Y-14884819D01*
X39890476Y-14884819D02*
X40223809Y-15265771D01*
X40223809Y-15265771D02*
X40080952Y-15265771D01*
X40080952Y-15265771D02*
X39985714Y-15313390D01*
X39985714Y-15313390D02*
X39938095Y-15361009D01*
X39938095Y-15361009D02*
X39890476Y-15456247D01*
X39890476Y-15456247D02*
X39890476Y-15694342D01*
X39890476Y-15694342D02*
X39938095Y-15789580D01*
X39938095Y-15789580D02*
X39985714Y-15837200D01*
X39985714Y-15837200D02*
X40080952Y-15884819D01*
X40080952Y-15884819D02*
X40366666Y-15884819D01*
X40366666Y-15884819D02*
X40461904Y-15837200D01*
X40461904Y-15837200D02*
X40509523Y-15789580D01*
X39319047Y-15313390D02*
X39414285Y-15265771D01*
X39414285Y-15265771D02*
X39461904Y-15218152D01*
X39461904Y-15218152D02*
X39509523Y-15122914D01*
X39509523Y-15122914D02*
X39509523Y-15075295D01*
X39509523Y-15075295D02*
X39461904Y-14980057D01*
X39461904Y-14980057D02*
X39414285Y-14932438D01*
X39414285Y-14932438D02*
X39319047Y-14884819D01*
X39319047Y-14884819D02*
X39128571Y-14884819D01*
X39128571Y-14884819D02*
X39033333Y-14932438D01*
X39033333Y-14932438D02*
X38985714Y-14980057D01*
X38985714Y-14980057D02*
X38938095Y-15075295D01*
X38938095Y-15075295D02*
X38938095Y-15122914D01*
X38938095Y-15122914D02*
X38985714Y-15218152D01*
X38985714Y-15218152D02*
X39033333Y-15265771D01*
X39033333Y-15265771D02*
X39128571Y-15313390D01*
X39128571Y-15313390D02*
X39319047Y-15313390D01*
X39319047Y-15313390D02*
X39414285Y-15361009D01*
X39414285Y-15361009D02*
X39461904Y-15408628D01*
X39461904Y-15408628D02*
X39509523Y-15503866D01*
X39509523Y-15503866D02*
X39509523Y-15694342D01*
X39509523Y-15694342D02*
X39461904Y-15789580D01*
X39461904Y-15789580D02*
X39414285Y-15837200D01*
X39414285Y-15837200D02*
X39319047Y-15884819D01*
X39319047Y-15884819D02*
X39128571Y-15884819D01*
X39128571Y-15884819D02*
X39033333Y-15837200D01*
X39033333Y-15837200D02*
X38985714Y-15789580D01*
X38985714Y-15789580D02*
X38938095Y-15694342D01*
X38938095Y-15694342D02*
X38938095Y-15503866D01*
X38938095Y-15503866D02*
X38985714Y-15408628D01*
X38985714Y-15408628D02*
X39033333Y-15361009D01*
X39033333Y-15361009D02*
X39128571Y-15313390D01*
X16061904Y-58902819D02*
X15490476Y-58902819D01*
X15776190Y-59902819D02*
X15776190Y-58902819D01*
X15157142Y-59902819D02*
X15157142Y-58902819D01*
X15157142Y-58902819D02*
X14776190Y-58902819D01*
X14776190Y-58902819D02*
X14680952Y-58950438D01*
X14680952Y-58950438D02*
X14633333Y-58998057D01*
X14633333Y-58998057D02*
X14585714Y-59093295D01*
X14585714Y-59093295D02*
X14585714Y-59236152D01*
X14585714Y-59236152D02*
X14633333Y-59331390D01*
X14633333Y-59331390D02*
X14680952Y-59379009D01*
X14680952Y-59379009D02*
X14776190Y-59426628D01*
X14776190Y-59426628D02*
X15157142Y-59426628D01*
X13633333Y-59902819D02*
X14204761Y-59902819D01*
X13919047Y-59902819D02*
X13919047Y-58902819D01*
X13919047Y-58902819D02*
X14014285Y-59045676D01*
X14014285Y-59045676D02*
X14109523Y-59140914D01*
X14109523Y-59140914D02*
X14204761Y-59188533D01*
X32489580Y-10557142D02*
X32537200Y-10509523D01*
X32537200Y-10509523D02*
X32584819Y-10366666D01*
X32584819Y-10366666D02*
X32584819Y-10271428D01*
X32584819Y-10271428D02*
X32537200Y-10128571D01*
X32537200Y-10128571D02*
X32441961Y-10033333D01*
X32441961Y-10033333D02*
X32346723Y-9985714D01*
X32346723Y-9985714D02*
X32156247Y-9938095D01*
X32156247Y-9938095D02*
X32013390Y-9938095D01*
X32013390Y-9938095D02*
X31822914Y-9985714D01*
X31822914Y-9985714D02*
X31727676Y-10033333D01*
X31727676Y-10033333D02*
X31632438Y-10128571D01*
X31632438Y-10128571D02*
X31584819Y-10271428D01*
X31584819Y-10271428D02*
X31584819Y-10366666D01*
X31584819Y-10366666D02*
X31632438Y-10509523D01*
X31632438Y-10509523D02*
X31680057Y-10557142D01*
X31918152Y-11414285D02*
X32584819Y-11414285D01*
X31537200Y-11176190D02*
X32251485Y-10938095D01*
X32251485Y-10938095D02*
X32251485Y-11557142D01*
X31584819Y-12128571D02*
X31584819Y-12223809D01*
X31584819Y-12223809D02*
X31632438Y-12319047D01*
X31632438Y-12319047D02*
X31680057Y-12366666D01*
X31680057Y-12366666D02*
X31775295Y-12414285D01*
X31775295Y-12414285D02*
X31965771Y-12461904D01*
X31965771Y-12461904D02*
X32203866Y-12461904D01*
X32203866Y-12461904D02*
X32394342Y-12414285D01*
X32394342Y-12414285D02*
X32489580Y-12366666D01*
X32489580Y-12366666D02*
X32537200Y-12319047D01*
X32537200Y-12319047D02*
X32584819Y-12223809D01*
X32584819Y-12223809D02*
X32584819Y-12128571D01*
X32584819Y-12128571D02*
X32537200Y-12033333D01*
X32537200Y-12033333D02*
X32489580Y-11985714D01*
X32489580Y-11985714D02*
X32394342Y-11938095D01*
X32394342Y-11938095D02*
X32203866Y-11890476D01*
X32203866Y-11890476D02*
X31965771Y-11890476D01*
X31965771Y-11890476D02*
X31775295Y-11938095D01*
X31775295Y-11938095D02*
X31680057Y-11985714D01*
X31680057Y-11985714D02*
X31632438Y-12033333D01*
X31632438Y-12033333D02*
X31584819Y-12128571D01*
X70442857Y-18339580D02*
X70490476Y-18387200D01*
X70490476Y-18387200D02*
X70633333Y-18434819D01*
X70633333Y-18434819D02*
X70728571Y-18434819D01*
X70728571Y-18434819D02*
X70871428Y-18387200D01*
X70871428Y-18387200D02*
X70966666Y-18291961D01*
X70966666Y-18291961D02*
X71014285Y-18196723D01*
X71014285Y-18196723D02*
X71061904Y-18006247D01*
X71061904Y-18006247D02*
X71061904Y-17863390D01*
X71061904Y-17863390D02*
X71014285Y-17672914D01*
X71014285Y-17672914D02*
X70966666Y-17577676D01*
X70966666Y-17577676D02*
X70871428Y-17482438D01*
X70871428Y-17482438D02*
X70728571Y-17434819D01*
X70728571Y-17434819D02*
X70633333Y-17434819D01*
X70633333Y-17434819D02*
X70490476Y-17482438D01*
X70490476Y-17482438D02*
X70442857Y-17530057D01*
X69490476Y-18434819D02*
X70061904Y-18434819D01*
X69776190Y-18434819D02*
X69776190Y-17434819D01*
X69776190Y-17434819D02*
X69871428Y-17577676D01*
X69871428Y-17577676D02*
X69966666Y-17672914D01*
X69966666Y-17672914D02*
X70061904Y-17720533D01*
X68871428Y-17434819D02*
X68776190Y-17434819D01*
X68776190Y-17434819D02*
X68680952Y-17482438D01*
X68680952Y-17482438D02*
X68633333Y-17530057D01*
X68633333Y-17530057D02*
X68585714Y-17625295D01*
X68585714Y-17625295D02*
X68538095Y-17815771D01*
X68538095Y-17815771D02*
X68538095Y-18053866D01*
X68538095Y-18053866D02*
X68585714Y-18244342D01*
X68585714Y-18244342D02*
X68633333Y-18339580D01*
X68633333Y-18339580D02*
X68680952Y-18387200D01*
X68680952Y-18387200D02*
X68776190Y-18434819D01*
X68776190Y-18434819D02*
X68871428Y-18434819D01*
X68871428Y-18434819D02*
X68966666Y-18387200D01*
X68966666Y-18387200D02*
X69014285Y-18339580D01*
X69014285Y-18339580D02*
X69061904Y-18244342D01*
X69061904Y-18244342D02*
X69109523Y-18053866D01*
X69109523Y-18053866D02*
X69109523Y-17815771D01*
X69109523Y-17815771D02*
X69061904Y-17625295D01*
X69061904Y-17625295D02*
X69014285Y-17530057D01*
X69014285Y-17530057D02*
X68966666Y-17482438D01*
X68966666Y-17482438D02*
X68871428Y-17434819D01*
X59095238Y-10250057D02*
X59190476Y-10202438D01*
X59190476Y-10202438D02*
X59285714Y-10107200D01*
X59285714Y-10107200D02*
X59428571Y-9964342D01*
X59428571Y-9964342D02*
X59523809Y-9916723D01*
X59523809Y-9916723D02*
X59619047Y-9916723D01*
X59571428Y-10154819D02*
X59666666Y-10107200D01*
X59666666Y-10107200D02*
X59761904Y-10011961D01*
X59761904Y-10011961D02*
X59809523Y-9821485D01*
X59809523Y-9821485D02*
X59809523Y-9488152D01*
X59809523Y-9488152D02*
X59761904Y-9297676D01*
X59761904Y-9297676D02*
X59666666Y-9202438D01*
X59666666Y-9202438D02*
X59571428Y-9154819D01*
X59571428Y-9154819D02*
X59380952Y-9154819D01*
X59380952Y-9154819D02*
X59285714Y-9202438D01*
X59285714Y-9202438D02*
X59190476Y-9297676D01*
X59190476Y-9297676D02*
X59142857Y-9488152D01*
X59142857Y-9488152D02*
X59142857Y-9821485D01*
X59142857Y-9821485D02*
X59190476Y-10011961D01*
X59190476Y-10011961D02*
X59285714Y-10107200D01*
X59285714Y-10107200D02*
X59380952Y-10154819D01*
X59380952Y-10154819D02*
X59571428Y-10154819D01*
X58190476Y-10154819D02*
X58761904Y-10154819D01*
X58476190Y-10154819D02*
X58476190Y-9154819D01*
X58476190Y-9154819D02*
X58571428Y-9297676D01*
X58571428Y-9297676D02*
X58666666Y-9392914D01*
X58666666Y-9392914D02*
X58761904Y-9440533D01*
X22166666Y-39384819D02*
X22499999Y-38908628D01*
X22738094Y-39384819D02*
X22738094Y-38384819D01*
X22738094Y-38384819D02*
X22357142Y-38384819D01*
X22357142Y-38384819D02*
X22261904Y-38432438D01*
X22261904Y-38432438D02*
X22214285Y-38480057D01*
X22214285Y-38480057D02*
X22166666Y-38575295D01*
X22166666Y-38575295D02*
X22166666Y-38718152D01*
X22166666Y-38718152D02*
X22214285Y-38813390D01*
X22214285Y-38813390D02*
X22261904Y-38861009D01*
X22261904Y-38861009D02*
X22357142Y-38908628D01*
X22357142Y-38908628D02*
X22738094Y-38908628D01*
X21785713Y-38480057D02*
X21738094Y-38432438D01*
X21738094Y-38432438D02*
X21642856Y-38384819D01*
X21642856Y-38384819D02*
X21404761Y-38384819D01*
X21404761Y-38384819D02*
X21309523Y-38432438D01*
X21309523Y-38432438D02*
X21261904Y-38480057D01*
X21261904Y-38480057D02*
X21214285Y-38575295D01*
X21214285Y-38575295D02*
X21214285Y-38670533D01*
X21214285Y-38670533D02*
X21261904Y-38813390D01*
X21261904Y-38813390D02*
X21833332Y-39384819D01*
X21833332Y-39384819D02*
X21214285Y-39384819D01*
X59942857Y-10424819D02*
X60276190Y-9948628D01*
X60514285Y-10424819D02*
X60514285Y-9424819D01*
X60514285Y-9424819D02*
X60133333Y-9424819D01*
X60133333Y-9424819D02*
X60038095Y-9472438D01*
X60038095Y-9472438D02*
X59990476Y-9520057D01*
X59990476Y-9520057D02*
X59942857Y-9615295D01*
X59942857Y-9615295D02*
X59942857Y-9758152D01*
X59942857Y-9758152D02*
X59990476Y-9853390D01*
X59990476Y-9853390D02*
X60038095Y-9901009D01*
X60038095Y-9901009D02*
X60133333Y-9948628D01*
X60133333Y-9948628D02*
X60514285Y-9948628D01*
X59561904Y-9520057D02*
X59514285Y-9472438D01*
X59514285Y-9472438D02*
X59419047Y-9424819D01*
X59419047Y-9424819D02*
X59180952Y-9424819D01*
X59180952Y-9424819D02*
X59085714Y-9472438D01*
X59085714Y-9472438D02*
X59038095Y-9520057D01*
X59038095Y-9520057D02*
X58990476Y-9615295D01*
X58990476Y-9615295D02*
X58990476Y-9710533D01*
X58990476Y-9710533D02*
X59038095Y-9853390D01*
X59038095Y-9853390D02*
X59609523Y-10424819D01*
X59609523Y-10424819D02*
X58990476Y-10424819D01*
X58609523Y-9520057D02*
X58561904Y-9472438D01*
X58561904Y-9472438D02*
X58466666Y-9424819D01*
X58466666Y-9424819D02*
X58228571Y-9424819D01*
X58228571Y-9424819D02*
X58133333Y-9472438D01*
X58133333Y-9472438D02*
X58085714Y-9520057D01*
X58085714Y-9520057D02*
X58038095Y-9615295D01*
X58038095Y-9615295D02*
X58038095Y-9710533D01*
X58038095Y-9710533D02*
X58085714Y-9853390D01*
X58085714Y-9853390D02*
X58657142Y-10424819D01*
X58657142Y-10424819D02*
X58038095Y-10424819D01*
X16261904Y-37902819D02*
X15690476Y-37902819D01*
X15976190Y-38902819D02*
X15976190Y-37902819D01*
X15357142Y-38902819D02*
X15357142Y-37902819D01*
X15357142Y-37902819D02*
X14976190Y-37902819D01*
X14976190Y-37902819D02*
X14880952Y-37950438D01*
X14880952Y-37950438D02*
X14833333Y-37998057D01*
X14833333Y-37998057D02*
X14785714Y-38093295D01*
X14785714Y-38093295D02*
X14785714Y-38236152D01*
X14785714Y-38236152D02*
X14833333Y-38331390D01*
X14833333Y-38331390D02*
X14880952Y-38379009D01*
X14880952Y-38379009D02*
X14976190Y-38426628D01*
X14976190Y-38426628D02*
X15357142Y-38426628D01*
X13928571Y-38236152D02*
X13928571Y-38902819D01*
X14166666Y-37855200D02*
X14404761Y-38569485D01*
X14404761Y-38569485D02*
X13785714Y-38569485D01*
X51042857Y-80124819D02*
X51376190Y-79648628D01*
X51614285Y-80124819D02*
X51614285Y-79124819D01*
X51614285Y-79124819D02*
X51233333Y-79124819D01*
X51233333Y-79124819D02*
X51138095Y-79172438D01*
X51138095Y-79172438D02*
X51090476Y-79220057D01*
X51090476Y-79220057D02*
X51042857Y-79315295D01*
X51042857Y-79315295D02*
X51042857Y-79458152D01*
X51042857Y-79458152D02*
X51090476Y-79553390D01*
X51090476Y-79553390D02*
X51138095Y-79601009D01*
X51138095Y-79601009D02*
X51233333Y-79648628D01*
X51233333Y-79648628D02*
X51614285Y-79648628D01*
X50709523Y-79124819D02*
X50042857Y-79124819D01*
X50042857Y-79124819D02*
X50471428Y-80124819D01*
X49709523Y-79220057D02*
X49661904Y-79172438D01*
X49661904Y-79172438D02*
X49566666Y-79124819D01*
X49566666Y-79124819D02*
X49328571Y-79124819D01*
X49328571Y-79124819D02*
X49233333Y-79172438D01*
X49233333Y-79172438D02*
X49185714Y-79220057D01*
X49185714Y-79220057D02*
X49138095Y-79315295D01*
X49138095Y-79315295D02*
X49138095Y-79410533D01*
X49138095Y-79410533D02*
X49185714Y-79553390D01*
X49185714Y-79553390D02*
X49757142Y-80124819D01*
X49757142Y-80124819D02*
X49138095Y-80124819D01*
X47542857Y-87239580D02*
X47590476Y-87287200D01*
X47590476Y-87287200D02*
X47733333Y-87334819D01*
X47733333Y-87334819D02*
X47828571Y-87334819D01*
X47828571Y-87334819D02*
X47971428Y-87287200D01*
X47971428Y-87287200D02*
X48066666Y-87191961D01*
X48066666Y-87191961D02*
X48114285Y-87096723D01*
X48114285Y-87096723D02*
X48161904Y-86906247D01*
X48161904Y-86906247D02*
X48161904Y-86763390D01*
X48161904Y-86763390D02*
X48114285Y-86572914D01*
X48114285Y-86572914D02*
X48066666Y-86477676D01*
X48066666Y-86477676D02*
X47971428Y-86382438D01*
X47971428Y-86382438D02*
X47828571Y-86334819D01*
X47828571Y-86334819D02*
X47733333Y-86334819D01*
X47733333Y-86334819D02*
X47590476Y-86382438D01*
X47590476Y-86382438D02*
X47542857Y-86430057D01*
X46685714Y-86668152D02*
X46685714Y-87334819D01*
X46923809Y-86287200D02*
X47161904Y-87001485D01*
X47161904Y-87001485D02*
X46542857Y-87001485D01*
X45733333Y-86668152D02*
X45733333Y-87334819D01*
X45971428Y-86287200D02*
X46209523Y-87001485D01*
X46209523Y-87001485D02*
X45590476Y-87001485D01*
X29142857Y-77929580D02*
X29190476Y-77977200D01*
X29190476Y-77977200D02*
X29333333Y-78024819D01*
X29333333Y-78024819D02*
X29428571Y-78024819D01*
X29428571Y-78024819D02*
X29571428Y-77977200D01*
X29571428Y-77977200D02*
X29666666Y-77881961D01*
X29666666Y-77881961D02*
X29714285Y-77786723D01*
X29714285Y-77786723D02*
X29761904Y-77596247D01*
X29761904Y-77596247D02*
X29761904Y-77453390D01*
X29761904Y-77453390D02*
X29714285Y-77262914D01*
X29714285Y-77262914D02*
X29666666Y-77167676D01*
X29666666Y-77167676D02*
X29571428Y-77072438D01*
X29571428Y-77072438D02*
X29428571Y-77024819D01*
X29428571Y-77024819D02*
X29333333Y-77024819D01*
X29333333Y-77024819D02*
X29190476Y-77072438D01*
X29190476Y-77072438D02*
X29142857Y-77120057D01*
X28190476Y-78024819D02*
X28761904Y-78024819D01*
X28476190Y-78024819D02*
X28476190Y-77024819D01*
X28476190Y-77024819D02*
X28571428Y-77167676D01*
X28571428Y-77167676D02*
X28666666Y-77262914D01*
X28666666Y-77262914D02*
X28761904Y-77310533D01*
X27857142Y-77024819D02*
X27238095Y-77024819D01*
X27238095Y-77024819D02*
X27571428Y-77405771D01*
X27571428Y-77405771D02*
X27428571Y-77405771D01*
X27428571Y-77405771D02*
X27333333Y-77453390D01*
X27333333Y-77453390D02*
X27285714Y-77501009D01*
X27285714Y-77501009D02*
X27238095Y-77596247D01*
X27238095Y-77596247D02*
X27238095Y-77834342D01*
X27238095Y-77834342D02*
X27285714Y-77929580D01*
X27285714Y-77929580D02*
X27333333Y-77977200D01*
X27333333Y-77977200D02*
X27428571Y-78024819D01*
X27428571Y-78024819D02*
X27714285Y-78024819D01*
X27714285Y-78024819D02*
X27809523Y-77977200D01*
X27809523Y-77977200D02*
X27857142Y-77929580D01*
X46742857Y-84289580D02*
X46790476Y-84337200D01*
X46790476Y-84337200D02*
X46933333Y-84384819D01*
X46933333Y-84384819D02*
X47028571Y-84384819D01*
X47028571Y-84384819D02*
X47171428Y-84337200D01*
X47171428Y-84337200D02*
X47266666Y-84241961D01*
X47266666Y-84241961D02*
X47314285Y-84146723D01*
X47314285Y-84146723D02*
X47361904Y-83956247D01*
X47361904Y-83956247D02*
X47361904Y-83813390D01*
X47361904Y-83813390D02*
X47314285Y-83622914D01*
X47314285Y-83622914D02*
X47266666Y-83527676D01*
X47266666Y-83527676D02*
X47171428Y-83432438D01*
X47171428Y-83432438D02*
X47028571Y-83384819D01*
X47028571Y-83384819D02*
X46933333Y-83384819D01*
X46933333Y-83384819D02*
X46790476Y-83432438D01*
X46790476Y-83432438D02*
X46742857Y-83480057D01*
X45838095Y-83384819D02*
X46314285Y-83384819D01*
X46314285Y-83384819D02*
X46361904Y-83861009D01*
X46361904Y-83861009D02*
X46314285Y-83813390D01*
X46314285Y-83813390D02*
X46219047Y-83765771D01*
X46219047Y-83765771D02*
X45980952Y-83765771D01*
X45980952Y-83765771D02*
X45885714Y-83813390D01*
X45885714Y-83813390D02*
X45838095Y-83861009D01*
X45838095Y-83861009D02*
X45790476Y-83956247D01*
X45790476Y-83956247D02*
X45790476Y-84194342D01*
X45790476Y-84194342D02*
X45838095Y-84289580D01*
X45838095Y-84289580D02*
X45885714Y-84337200D01*
X45885714Y-84337200D02*
X45980952Y-84384819D01*
X45980952Y-84384819D02*
X46219047Y-84384819D01*
X46219047Y-84384819D02*
X46314285Y-84337200D01*
X46314285Y-84337200D02*
X46361904Y-84289580D01*
X44933333Y-83384819D02*
X45123809Y-83384819D01*
X45123809Y-83384819D02*
X45219047Y-83432438D01*
X45219047Y-83432438D02*
X45266666Y-83480057D01*
X45266666Y-83480057D02*
X45361904Y-83622914D01*
X45361904Y-83622914D02*
X45409523Y-83813390D01*
X45409523Y-83813390D02*
X45409523Y-84194342D01*
X45409523Y-84194342D02*
X45361904Y-84289580D01*
X45361904Y-84289580D02*
X45314285Y-84337200D01*
X45314285Y-84337200D02*
X45219047Y-84384819D01*
X45219047Y-84384819D02*
X45028571Y-84384819D01*
X45028571Y-84384819D02*
X44933333Y-84337200D01*
X44933333Y-84337200D02*
X44885714Y-84289580D01*
X44885714Y-84289580D02*
X44838095Y-84194342D01*
X44838095Y-84194342D02*
X44838095Y-83956247D01*
X44838095Y-83956247D02*
X44885714Y-83861009D01*
X44885714Y-83861009D02*
X44933333Y-83813390D01*
X44933333Y-83813390D02*
X45028571Y-83765771D01*
X45028571Y-83765771D02*
X45219047Y-83765771D01*
X45219047Y-83765771D02*
X45314285Y-83813390D01*
X45314285Y-83813390D02*
X45361904Y-83861009D01*
X45361904Y-83861009D02*
X45409523Y-83956247D01*
X18842857Y-47384819D02*
X19176190Y-46908628D01*
X19414285Y-47384819D02*
X19414285Y-46384819D01*
X19414285Y-46384819D02*
X19033333Y-46384819D01*
X19033333Y-46384819D02*
X18938095Y-46432438D01*
X18938095Y-46432438D02*
X18890476Y-46480057D01*
X18890476Y-46480057D02*
X18842857Y-46575295D01*
X18842857Y-46575295D02*
X18842857Y-46718152D01*
X18842857Y-46718152D02*
X18890476Y-46813390D01*
X18890476Y-46813390D02*
X18938095Y-46861009D01*
X18938095Y-46861009D02*
X19033333Y-46908628D01*
X19033333Y-46908628D02*
X19414285Y-46908628D01*
X17890476Y-47384819D02*
X18461904Y-47384819D01*
X18176190Y-47384819D02*
X18176190Y-46384819D01*
X18176190Y-46384819D02*
X18271428Y-46527676D01*
X18271428Y-46527676D02*
X18366666Y-46622914D01*
X18366666Y-46622914D02*
X18461904Y-46670533D01*
X16938095Y-47384819D02*
X17509523Y-47384819D01*
X17223809Y-47384819D02*
X17223809Y-46384819D01*
X17223809Y-46384819D02*
X17319047Y-46527676D01*
X17319047Y-46527676D02*
X17414285Y-46622914D01*
X17414285Y-46622914D02*
X17509523Y-46670533D01*
X51042857Y-78224819D02*
X51376190Y-77748628D01*
X51614285Y-78224819D02*
X51614285Y-77224819D01*
X51614285Y-77224819D02*
X51233333Y-77224819D01*
X51233333Y-77224819D02*
X51138095Y-77272438D01*
X51138095Y-77272438D02*
X51090476Y-77320057D01*
X51090476Y-77320057D02*
X51042857Y-77415295D01*
X51042857Y-77415295D02*
X51042857Y-77558152D01*
X51042857Y-77558152D02*
X51090476Y-77653390D01*
X51090476Y-77653390D02*
X51138095Y-77701009D01*
X51138095Y-77701009D02*
X51233333Y-77748628D01*
X51233333Y-77748628D02*
X51614285Y-77748628D01*
X50709523Y-77224819D02*
X50042857Y-77224819D01*
X50042857Y-77224819D02*
X50471428Y-78224819D01*
X49757142Y-77224819D02*
X49138095Y-77224819D01*
X49138095Y-77224819D02*
X49471428Y-77605771D01*
X49471428Y-77605771D02*
X49328571Y-77605771D01*
X49328571Y-77605771D02*
X49233333Y-77653390D01*
X49233333Y-77653390D02*
X49185714Y-77701009D01*
X49185714Y-77701009D02*
X49138095Y-77796247D01*
X49138095Y-77796247D02*
X49138095Y-78034342D01*
X49138095Y-78034342D02*
X49185714Y-78129580D01*
X49185714Y-78129580D02*
X49233333Y-78177200D01*
X49233333Y-78177200D02*
X49328571Y-78224819D01*
X49328571Y-78224819D02*
X49614285Y-78224819D01*
X49614285Y-78224819D02*
X49709523Y-78177200D01*
X49709523Y-78177200D02*
X49757142Y-78129580D01*
X72166666Y-10729580D02*
X72214285Y-10777200D01*
X72214285Y-10777200D02*
X72357142Y-10824819D01*
X72357142Y-10824819D02*
X72452380Y-10824819D01*
X72452380Y-10824819D02*
X72595237Y-10777200D01*
X72595237Y-10777200D02*
X72690475Y-10681961D01*
X72690475Y-10681961D02*
X72738094Y-10586723D01*
X72738094Y-10586723D02*
X72785713Y-10396247D01*
X72785713Y-10396247D02*
X72785713Y-10253390D01*
X72785713Y-10253390D02*
X72738094Y-10062914D01*
X72738094Y-10062914D02*
X72690475Y-9967676D01*
X72690475Y-9967676D02*
X72595237Y-9872438D01*
X72595237Y-9872438D02*
X72452380Y-9824819D01*
X72452380Y-9824819D02*
X72357142Y-9824819D01*
X72357142Y-9824819D02*
X72214285Y-9872438D01*
X72214285Y-9872438D02*
X72166666Y-9920057D01*
X71595237Y-10253390D02*
X71690475Y-10205771D01*
X71690475Y-10205771D02*
X71738094Y-10158152D01*
X71738094Y-10158152D02*
X71785713Y-10062914D01*
X71785713Y-10062914D02*
X71785713Y-10015295D01*
X71785713Y-10015295D02*
X71738094Y-9920057D01*
X71738094Y-9920057D02*
X71690475Y-9872438D01*
X71690475Y-9872438D02*
X71595237Y-9824819D01*
X71595237Y-9824819D02*
X71404761Y-9824819D01*
X71404761Y-9824819D02*
X71309523Y-9872438D01*
X71309523Y-9872438D02*
X71261904Y-9920057D01*
X71261904Y-9920057D02*
X71214285Y-10015295D01*
X71214285Y-10015295D02*
X71214285Y-10062914D01*
X71214285Y-10062914D02*
X71261904Y-10158152D01*
X71261904Y-10158152D02*
X71309523Y-10205771D01*
X71309523Y-10205771D02*
X71404761Y-10253390D01*
X71404761Y-10253390D02*
X71595237Y-10253390D01*
X71595237Y-10253390D02*
X71690475Y-10301009D01*
X71690475Y-10301009D02*
X71738094Y-10348628D01*
X71738094Y-10348628D02*
X71785713Y-10443866D01*
X71785713Y-10443866D02*
X71785713Y-10634342D01*
X71785713Y-10634342D02*
X71738094Y-10729580D01*
X71738094Y-10729580D02*
X71690475Y-10777200D01*
X71690475Y-10777200D02*
X71595237Y-10824819D01*
X71595237Y-10824819D02*
X71404761Y-10824819D01*
X71404761Y-10824819D02*
X71309523Y-10777200D01*
X71309523Y-10777200D02*
X71261904Y-10729580D01*
X71261904Y-10729580D02*
X71214285Y-10634342D01*
X71214285Y-10634342D02*
X71214285Y-10443866D01*
X71214285Y-10443866D02*
X71261904Y-10348628D01*
X71261904Y-10348628D02*
X71309523Y-10301009D01*
X71309523Y-10301009D02*
X71404761Y-10253390D01*
X8642857Y-56784819D02*
X8976190Y-56308628D01*
X9214285Y-56784819D02*
X9214285Y-55784819D01*
X9214285Y-55784819D02*
X8833333Y-55784819D01*
X8833333Y-55784819D02*
X8738095Y-55832438D01*
X8738095Y-55832438D02*
X8690476Y-55880057D01*
X8690476Y-55880057D02*
X8642857Y-55975295D01*
X8642857Y-55975295D02*
X8642857Y-56118152D01*
X8642857Y-56118152D02*
X8690476Y-56213390D01*
X8690476Y-56213390D02*
X8738095Y-56261009D01*
X8738095Y-56261009D02*
X8833333Y-56308628D01*
X8833333Y-56308628D02*
X9214285Y-56308628D01*
X7690476Y-56784819D02*
X8261904Y-56784819D01*
X7976190Y-56784819D02*
X7976190Y-55784819D01*
X7976190Y-55784819D02*
X8071428Y-55927676D01*
X8071428Y-55927676D02*
X8166666Y-56022914D01*
X8166666Y-56022914D02*
X8261904Y-56070533D01*
X6833333Y-56118152D02*
X6833333Y-56784819D01*
X7071428Y-55737200D02*
X7309523Y-56451485D01*
X7309523Y-56451485D02*
X6690476Y-56451485D01*
X18366666Y-44884819D02*
X18699999Y-44408628D01*
X18938094Y-44884819D02*
X18938094Y-43884819D01*
X18938094Y-43884819D02*
X18557142Y-43884819D01*
X18557142Y-43884819D02*
X18461904Y-43932438D01*
X18461904Y-43932438D02*
X18414285Y-43980057D01*
X18414285Y-43980057D02*
X18366666Y-44075295D01*
X18366666Y-44075295D02*
X18366666Y-44218152D01*
X18366666Y-44218152D02*
X18414285Y-44313390D01*
X18414285Y-44313390D02*
X18461904Y-44361009D01*
X18461904Y-44361009D02*
X18557142Y-44408628D01*
X18557142Y-44408628D02*
X18938094Y-44408628D01*
X18033332Y-43884819D02*
X17414285Y-43884819D01*
X17414285Y-43884819D02*
X17747618Y-44265771D01*
X17747618Y-44265771D02*
X17604761Y-44265771D01*
X17604761Y-44265771D02*
X17509523Y-44313390D01*
X17509523Y-44313390D02*
X17461904Y-44361009D01*
X17461904Y-44361009D02*
X17414285Y-44456247D01*
X17414285Y-44456247D02*
X17414285Y-44694342D01*
X17414285Y-44694342D02*
X17461904Y-44789580D01*
X17461904Y-44789580D02*
X17509523Y-44837200D01*
X17509523Y-44837200D02*
X17604761Y-44884819D01*
X17604761Y-44884819D02*
X17890475Y-44884819D01*
X17890475Y-44884819D02*
X17985713Y-44837200D01*
X17985713Y-44837200D02*
X18033332Y-44789580D01*
X44238094Y-83754819D02*
X44238094Y-84564342D01*
X44238094Y-84564342D02*
X44190475Y-84659580D01*
X44190475Y-84659580D02*
X44142856Y-84707200D01*
X44142856Y-84707200D02*
X44047618Y-84754819D01*
X44047618Y-84754819D02*
X43857142Y-84754819D01*
X43857142Y-84754819D02*
X43761904Y-84707200D01*
X43761904Y-84707200D02*
X43714285Y-84659580D01*
X43714285Y-84659580D02*
X43666666Y-84564342D01*
X43666666Y-84564342D02*
X43666666Y-83754819D01*
X42666666Y-84754819D02*
X43238094Y-84754819D01*
X42952380Y-84754819D02*
X42952380Y-83754819D01*
X42952380Y-83754819D02*
X43047618Y-83897676D01*
X43047618Y-83897676D02*
X43142856Y-83992914D01*
X43142856Y-83992914D02*
X43238094Y-84040533D01*
X42333332Y-83754819D02*
X41666666Y-83754819D01*
X41666666Y-83754819D02*
X42095237Y-84754819D01*
X18842857Y-54884819D02*
X19176190Y-54408628D01*
X19414285Y-54884819D02*
X19414285Y-53884819D01*
X19414285Y-53884819D02*
X19033333Y-53884819D01*
X19033333Y-53884819D02*
X18938095Y-53932438D01*
X18938095Y-53932438D02*
X18890476Y-53980057D01*
X18890476Y-53980057D02*
X18842857Y-54075295D01*
X18842857Y-54075295D02*
X18842857Y-54218152D01*
X18842857Y-54218152D02*
X18890476Y-54313390D01*
X18890476Y-54313390D02*
X18938095Y-54361009D01*
X18938095Y-54361009D02*
X19033333Y-54408628D01*
X19033333Y-54408628D02*
X19414285Y-54408628D01*
X17890476Y-54884819D02*
X18461904Y-54884819D01*
X18176190Y-54884819D02*
X18176190Y-53884819D01*
X18176190Y-53884819D02*
X18271428Y-54027676D01*
X18271428Y-54027676D02*
X18366666Y-54122914D01*
X18366666Y-54122914D02*
X18461904Y-54170533D01*
X17557142Y-53884819D02*
X16938095Y-53884819D01*
X16938095Y-53884819D02*
X17271428Y-54265771D01*
X17271428Y-54265771D02*
X17128571Y-54265771D01*
X17128571Y-54265771D02*
X17033333Y-54313390D01*
X17033333Y-54313390D02*
X16985714Y-54361009D01*
X16985714Y-54361009D02*
X16938095Y-54456247D01*
X16938095Y-54456247D02*
X16938095Y-54694342D01*
X16938095Y-54694342D02*
X16985714Y-54789580D01*
X16985714Y-54789580D02*
X17033333Y-54837200D01*
X17033333Y-54837200D02*
X17128571Y-54884819D01*
X17128571Y-54884819D02*
X17414285Y-54884819D01*
X17414285Y-54884819D02*
X17509523Y-54837200D01*
X17509523Y-54837200D02*
X17557142Y-54789580D01*
X63642857Y-11939580D02*
X63690476Y-11987200D01*
X63690476Y-11987200D02*
X63833333Y-12034819D01*
X63833333Y-12034819D02*
X63928571Y-12034819D01*
X63928571Y-12034819D02*
X64071428Y-11987200D01*
X64071428Y-11987200D02*
X64166666Y-11891961D01*
X64166666Y-11891961D02*
X64214285Y-11796723D01*
X64214285Y-11796723D02*
X64261904Y-11606247D01*
X64261904Y-11606247D02*
X64261904Y-11463390D01*
X64261904Y-11463390D02*
X64214285Y-11272914D01*
X64214285Y-11272914D02*
X64166666Y-11177676D01*
X64166666Y-11177676D02*
X64071428Y-11082438D01*
X64071428Y-11082438D02*
X63928571Y-11034819D01*
X63928571Y-11034819D02*
X63833333Y-11034819D01*
X63833333Y-11034819D02*
X63690476Y-11082438D01*
X63690476Y-11082438D02*
X63642857Y-11130057D01*
X62690476Y-12034819D02*
X63261904Y-12034819D01*
X62976190Y-12034819D02*
X62976190Y-11034819D01*
X62976190Y-11034819D02*
X63071428Y-11177676D01*
X63071428Y-11177676D02*
X63166666Y-11272914D01*
X63166666Y-11272914D02*
X63261904Y-11320533D01*
X62309523Y-11130057D02*
X62261904Y-11082438D01*
X62261904Y-11082438D02*
X62166666Y-11034819D01*
X62166666Y-11034819D02*
X61928571Y-11034819D01*
X61928571Y-11034819D02*
X61833333Y-11082438D01*
X61833333Y-11082438D02*
X61785714Y-11130057D01*
X61785714Y-11130057D02*
X61738095Y-11225295D01*
X61738095Y-11225295D02*
X61738095Y-11320533D01*
X61738095Y-11320533D02*
X61785714Y-11463390D01*
X61785714Y-11463390D02*
X62357142Y-12034819D01*
X62357142Y-12034819D02*
X61738095Y-12034819D01*
X12761904Y-48304819D02*
X12761904Y-49114342D01*
X12761904Y-49114342D02*
X12714285Y-49209580D01*
X12714285Y-49209580D02*
X12666666Y-49257200D01*
X12666666Y-49257200D02*
X12571428Y-49304819D01*
X12571428Y-49304819D02*
X12380952Y-49304819D01*
X12380952Y-49304819D02*
X12285714Y-49257200D01*
X12285714Y-49257200D02*
X12238095Y-49209580D01*
X12238095Y-49209580D02*
X12190476Y-49114342D01*
X12190476Y-49114342D02*
X12190476Y-48304819D01*
X11761904Y-48400057D02*
X11714285Y-48352438D01*
X11714285Y-48352438D02*
X11619047Y-48304819D01*
X11619047Y-48304819D02*
X11380952Y-48304819D01*
X11380952Y-48304819D02*
X11285714Y-48352438D01*
X11285714Y-48352438D02*
X11238095Y-48400057D01*
X11238095Y-48400057D02*
X11190476Y-48495295D01*
X11190476Y-48495295D02*
X11190476Y-48590533D01*
X11190476Y-48590533D02*
X11238095Y-48733390D01*
X11238095Y-48733390D02*
X11809523Y-49304819D01*
X11809523Y-49304819D02*
X11190476Y-49304819D01*
X65761904Y-138654819D02*
X65761904Y-139464342D01*
X65761904Y-139464342D02*
X65714285Y-139559580D01*
X65714285Y-139559580D02*
X65666666Y-139607200D01*
X65666666Y-139607200D02*
X65571428Y-139654819D01*
X65571428Y-139654819D02*
X65380952Y-139654819D01*
X65380952Y-139654819D02*
X65285714Y-139607200D01*
X65285714Y-139607200D02*
X65238095Y-139559580D01*
X65238095Y-139559580D02*
X65190476Y-139464342D01*
X65190476Y-139464342D02*
X65190476Y-138654819D01*
X64571428Y-139083390D02*
X64666666Y-139035771D01*
X64666666Y-139035771D02*
X64714285Y-138988152D01*
X64714285Y-138988152D02*
X64761904Y-138892914D01*
X64761904Y-138892914D02*
X64761904Y-138845295D01*
X64761904Y-138845295D02*
X64714285Y-138750057D01*
X64714285Y-138750057D02*
X64666666Y-138702438D01*
X64666666Y-138702438D02*
X64571428Y-138654819D01*
X64571428Y-138654819D02*
X64380952Y-138654819D01*
X64380952Y-138654819D02*
X64285714Y-138702438D01*
X64285714Y-138702438D02*
X64238095Y-138750057D01*
X64238095Y-138750057D02*
X64190476Y-138845295D01*
X64190476Y-138845295D02*
X64190476Y-138892914D01*
X64190476Y-138892914D02*
X64238095Y-138988152D01*
X64238095Y-138988152D02*
X64285714Y-139035771D01*
X64285714Y-139035771D02*
X64380952Y-139083390D01*
X64380952Y-139083390D02*
X64571428Y-139083390D01*
X64571428Y-139083390D02*
X64666666Y-139131009D01*
X64666666Y-139131009D02*
X64714285Y-139178628D01*
X64714285Y-139178628D02*
X64761904Y-139273866D01*
X64761904Y-139273866D02*
X64761904Y-139464342D01*
X64761904Y-139464342D02*
X64714285Y-139559580D01*
X64714285Y-139559580D02*
X64666666Y-139607200D01*
X64666666Y-139607200D02*
X64571428Y-139654819D01*
X64571428Y-139654819D02*
X64380952Y-139654819D01*
X64380952Y-139654819D02*
X64285714Y-139607200D01*
X64285714Y-139607200D02*
X64238095Y-139559580D01*
X64238095Y-139559580D02*
X64190476Y-139464342D01*
X64190476Y-139464342D02*
X64190476Y-139273866D01*
X64190476Y-139273866D02*
X64238095Y-139178628D01*
X64238095Y-139178628D02*
X64285714Y-139131009D01*
X64285714Y-139131009D02*
X64380952Y-139083390D01*
X59333333Y-84854819D02*
X59333333Y-85569104D01*
X59333333Y-85569104D02*
X59380952Y-85711961D01*
X59380952Y-85711961D02*
X59476190Y-85807200D01*
X59476190Y-85807200D02*
X59619047Y-85854819D01*
X59619047Y-85854819D02*
X59714285Y-85854819D01*
X58428571Y-85188152D02*
X58428571Y-85854819D01*
X58666666Y-84807200D02*
X58904761Y-85521485D01*
X58904761Y-85521485D02*
X58285714Y-85521485D01*
X8166666Y-52384819D02*
X8499999Y-51908628D01*
X8738094Y-52384819D02*
X8738094Y-51384819D01*
X8738094Y-51384819D02*
X8357142Y-51384819D01*
X8357142Y-51384819D02*
X8261904Y-51432438D01*
X8261904Y-51432438D02*
X8214285Y-51480057D01*
X8214285Y-51480057D02*
X8166666Y-51575295D01*
X8166666Y-51575295D02*
X8166666Y-51718152D01*
X8166666Y-51718152D02*
X8214285Y-51813390D01*
X8214285Y-51813390D02*
X8261904Y-51861009D01*
X8261904Y-51861009D02*
X8357142Y-51908628D01*
X8357142Y-51908628D02*
X8738094Y-51908628D01*
X7309523Y-51718152D02*
X7309523Y-52384819D01*
X7547618Y-51337200D02*
X7785713Y-52051485D01*
X7785713Y-52051485D02*
X7166666Y-52051485D01*
X11666666Y-54884819D02*
X11999999Y-54408628D01*
X12238094Y-54884819D02*
X12238094Y-53884819D01*
X12238094Y-53884819D02*
X11857142Y-53884819D01*
X11857142Y-53884819D02*
X11761904Y-53932438D01*
X11761904Y-53932438D02*
X11714285Y-53980057D01*
X11714285Y-53980057D02*
X11666666Y-54075295D01*
X11666666Y-54075295D02*
X11666666Y-54218152D01*
X11666666Y-54218152D02*
X11714285Y-54313390D01*
X11714285Y-54313390D02*
X11761904Y-54361009D01*
X11761904Y-54361009D02*
X11857142Y-54408628D01*
X11857142Y-54408628D02*
X12238094Y-54408628D01*
X11190475Y-54884819D02*
X10999999Y-54884819D01*
X10999999Y-54884819D02*
X10904761Y-54837200D01*
X10904761Y-54837200D02*
X10857142Y-54789580D01*
X10857142Y-54789580D02*
X10761904Y-54646723D01*
X10761904Y-54646723D02*
X10714285Y-54456247D01*
X10714285Y-54456247D02*
X10714285Y-54075295D01*
X10714285Y-54075295D02*
X10761904Y-53980057D01*
X10761904Y-53980057D02*
X10809523Y-53932438D01*
X10809523Y-53932438D02*
X10904761Y-53884819D01*
X10904761Y-53884819D02*
X11095237Y-53884819D01*
X11095237Y-53884819D02*
X11190475Y-53932438D01*
X11190475Y-53932438D02*
X11238094Y-53980057D01*
X11238094Y-53980057D02*
X11285713Y-54075295D01*
X11285713Y-54075295D02*
X11285713Y-54313390D01*
X11285713Y-54313390D02*
X11238094Y-54408628D01*
X11238094Y-54408628D02*
X11190475Y-54456247D01*
X11190475Y-54456247D02*
X11095237Y-54503866D01*
X11095237Y-54503866D02*
X10904761Y-54503866D01*
X10904761Y-54503866D02*
X10809523Y-54456247D01*
X10809523Y-54456247D02*
X10761904Y-54408628D01*
X10761904Y-54408628D02*
X10714285Y-54313390D01*
X8466666Y-13729580D02*
X8514285Y-13777200D01*
X8514285Y-13777200D02*
X8657142Y-13824819D01*
X8657142Y-13824819D02*
X8752380Y-13824819D01*
X8752380Y-13824819D02*
X8895237Y-13777200D01*
X8895237Y-13777200D02*
X8990475Y-13681961D01*
X8990475Y-13681961D02*
X9038094Y-13586723D01*
X9038094Y-13586723D02*
X9085713Y-13396247D01*
X9085713Y-13396247D02*
X9085713Y-13253390D01*
X9085713Y-13253390D02*
X9038094Y-13062914D01*
X9038094Y-13062914D02*
X8990475Y-12967676D01*
X8990475Y-12967676D02*
X8895237Y-12872438D01*
X8895237Y-12872438D02*
X8752380Y-12824819D01*
X8752380Y-12824819D02*
X8657142Y-12824819D01*
X8657142Y-12824819D02*
X8514285Y-12872438D01*
X8514285Y-12872438D02*
X8466666Y-12920057D01*
X8085713Y-12920057D02*
X8038094Y-12872438D01*
X8038094Y-12872438D02*
X7942856Y-12824819D01*
X7942856Y-12824819D02*
X7704761Y-12824819D01*
X7704761Y-12824819D02*
X7609523Y-12872438D01*
X7609523Y-12872438D02*
X7561904Y-12920057D01*
X7561904Y-12920057D02*
X7514285Y-13015295D01*
X7514285Y-13015295D02*
X7514285Y-13110533D01*
X7514285Y-13110533D02*
X7561904Y-13253390D01*
X7561904Y-13253390D02*
X8133332Y-13824819D01*
X8133332Y-13824819D02*
X7514285Y-13824819D01*
X45238094Y-13854819D02*
X45238094Y-14664342D01*
X45238094Y-14664342D02*
X45190475Y-14759580D01*
X45190475Y-14759580D02*
X45142856Y-14807200D01*
X45142856Y-14807200D02*
X45047618Y-14854819D01*
X45047618Y-14854819D02*
X44857142Y-14854819D01*
X44857142Y-14854819D02*
X44761904Y-14807200D01*
X44761904Y-14807200D02*
X44714285Y-14759580D01*
X44714285Y-14759580D02*
X44666666Y-14664342D01*
X44666666Y-14664342D02*
X44666666Y-13854819D01*
X43666666Y-14854819D02*
X44238094Y-14854819D01*
X43952380Y-14854819D02*
X43952380Y-13854819D01*
X43952380Y-13854819D02*
X44047618Y-13997676D01*
X44047618Y-13997676D02*
X44142856Y-14092914D01*
X44142856Y-14092914D02*
X44238094Y-14140533D01*
X42761904Y-13854819D02*
X43238094Y-13854819D01*
X43238094Y-13854819D02*
X43285713Y-14331009D01*
X43285713Y-14331009D02*
X43238094Y-14283390D01*
X43238094Y-14283390D02*
X43142856Y-14235771D01*
X43142856Y-14235771D02*
X42904761Y-14235771D01*
X42904761Y-14235771D02*
X42809523Y-14283390D01*
X42809523Y-14283390D02*
X42761904Y-14331009D01*
X42761904Y-14331009D02*
X42714285Y-14426247D01*
X42714285Y-14426247D02*
X42714285Y-14664342D01*
X42714285Y-14664342D02*
X42761904Y-14759580D01*
X42761904Y-14759580D02*
X42809523Y-14807200D01*
X42809523Y-14807200D02*
X42904761Y-14854819D01*
X42904761Y-14854819D02*
X43142856Y-14854819D01*
X43142856Y-14854819D02*
X43238094Y-14807200D01*
X43238094Y-14807200D02*
X43285713Y-14759580D01*
X24911904Y-14954819D02*
X24911904Y-15764342D01*
X24911904Y-15764342D02*
X24864285Y-15859580D01*
X24864285Y-15859580D02*
X24816666Y-15907200D01*
X24816666Y-15907200D02*
X24721428Y-15954819D01*
X24721428Y-15954819D02*
X24530952Y-15954819D01*
X24530952Y-15954819D02*
X24435714Y-15907200D01*
X24435714Y-15907200D02*
X24388095Y-15859580D01*
X24388095Y-15859580D02*
X24340476Y-15764342D01*
X24340476Y-15764342D02*
X24340476Y-14954819D01*
X23340476Y-15954819D02*
X23911904Y-15954819D01*
X23626190Y-15954819D02*
X23626190Y-14954819D01*
X23626190Y-14954819D02*
X23721428Y-15097676D01*
X23721428Y-15097676D02*
X23816666Y-15192914D01*
X23816666Y-15192914D02*
X23911904Y-15240533D01*
X8642857Y-39084819D02*
X8976190Y-38608628D01*
X9214285Y-39084819D02*
X9214285Y-38084819D01*
X9214285Y-38084819D02*
X8833333Y-38084819D01*
X8833333Y-38084819D02*
X8738095Y-38132438D01*
X8738095Y-38132438D02*
X8690476Y-38180057D01*
X8690476Y-38180057D02*
X8642857Y-38275295D01*
X8642857Y-38275295D02*
X8642857Y-38418152D01*
X8642857Y-38418152D02*
X8690476Y-38513390D01*
X8690476Y-38513390D02*
X8738095Y-38561009D01*
X8738095Y-38561009D02*
X8833333Y-38608628D01*
X8833333Y-38608628D02*
X9214285Y-38608628D01*
X7690476Y-39084819D02*
X8261904Y-39084819D01*
X7976190Y-39084819D02*
X7976190Y-38084819D01*
X7976190Y-38084819D02*
X8071428Y-38227676D01*
X8071428Y-38227676D02*
X8166666Y-38322914D01*
X8166666Y-38322914D02*
X8261904Y-38370533D01*
X7214285Y-39084819D02*
X7023809Y-39084819D01*
X7023809Y-39084819D02*
X6928571Y-39037200D01*
X6928571Y-39037200D02*
X6880952Y-38989580D01*
X6880952Y-38989580D02*
X6785714Y-38846723D01*
X6785714Y-38846723D02*
X6738095Y-38656247D01*
X6738095Y-38656247D02*
X6738095Y-38275295D01*
X6738095Y-38275295D02*
X6785714Y-38180057D01*
X6785714Y-38180057D02*
X6833333Y-38132438D01*
X6833333Y-38132438D02*
X6928571Y-38084819D01*
X6928571Y-38084819D02*
X7119047Y-38084819D01*
X7119047Y-38084819D02*
X7214285Y-38132438D01*
X7214285Y-38132438D02*
X7261904Y-38180057D01*
X7261904Y-38180057D02*
X7309523Y-38275295D01*
X7309523Y-38275295D02*
X7309523Y-38513390D01*
X7309523Y-38513390D02*
X7261904Y-38608628D01*
X7261904Y-38608628D02*
X7214285Y-38656247D01*
X7214285Y-38656247D02*
X7119047Y-38703866D01*
X7119047Y-38703866D02*
X6928571Y-38703866D01*
X6928571Y-38703866D02*
X6833333Y-38656247D01*
X6833333Y-38656247D02*
X6785714Y-38608628D01*
X6785714Y-38608628D02*
X6738095Y-38513390D01*
X63333333Y-23354819D02*
X63333333Y-24069104D01*
X63333333Y-24069104D02*
X63380952Y-24211961D01*
X63380952Y-24211961D02*
X63476190Y-24307200D01*
X63476190Y-24307200D02*
X63619047Y-24354819D01*
X63619047Y-24354819D02*
X63714285Y-24354819D01*
X62428571Y-23354819D02*
X62619047Y-23354819D01*
X62619047Y-23354819D02*
X62714285Y-23402438D01*
X62714285Y-23402438D02*
X62761904Y-23450057D01*
X62761904Y-23450057D02*
X62857142Y-23592914D01*
X62857142Y-23592914D02*
X62904761Y-23783390D01*
X62904761Y-23783390D02*
X62904761Y-24164342D01*
X62904761Y-24164342D02*
X62857142Y-24259580D01*
X62857142Y-24259580D02*
X62809523Y-24307200D01*
X62809523Y-24307200D02*
X62714285Y-24354819D01*
X62714285Y-24354819D02*
X62523809Y-24354819D01*
X62523809Y-24354819D02*
X62428571Y-24307200D01*
X62428571Y-24307200D02*
X62380952Y-24259580D01*
X62380952Y-24259580D02*
X62333333Y-24164342D01*
X62333333Y-24164342D02*
X62333333Y-23926247D01*
X62333333Y-23926247D02*
X62380952Y-23831009D01*
X62380952Y-23831009D02*
X62428571Y-23783390D01*
X62428571Y-23783390D02*
X62523809Y-23735771D01*
X62523809Y-23735771D02*
X62714285Y-23735771D01*
X62714285Y-23735771D02*
X62809523Y-23783390D01*
X62809523Y-23783390D02*
X62857142Y-23831009D01*
X62857142Y-23831009D02*
X62904761Y-23926247D01*
X32642857Y-78024819D02*
X32976190Y-77548628D01*
X33214285Y-78024819D02*
X33214285Y-77024819D01*
X33214285Y-77024819D02*
X32833333Y-77024819D01*
X32833333Y-77024819D02*
X32738095Y-77072438D01*
X32738095Y-77072438D02*
X32690476Y-77120057D01*
X32690476Y-77120057D02*
X32642857Y-77215295D01*
X32642857Y-77215295D02*
X32642857Y-77358152D01*
X32642857Y-77358152D02*
X32690476Y-77453390D01*
X32690476Y-77453390D02*
X32738095Y-77501009D01*
X32738095Y-77501009D02*
X32833333Y-77548628D01*
X32833333Y-77548628D02*
X33214285Y-77548628D01*
X32261904Y-77120057D02*
X32214285Y-77072438D01*
X32214285Y-77072438D02*
X32119047Y-77024819D01*
X32119047Y-77024819D02*
X31880952Y-77024819D01*
X31880952Y-77024819D02*
X31785714Y-77072438D01*
X31785714Y-77072438D02*
X31738095Y-77120057D01*
X31738095Y-77120057D02*
X31690476Y-77215295D01*
X31690476Y-77215295D02*
X31690476Y-77310533D01*
X31690476Y-77310533D02*
X31738095Y-77453390D01*
X31738095Y-77453390D02*
X32309523Y-78024819D01*
X32309523Y-78024819D02*
X31690476Y-78024819D01*
X30833333Y-77024819D02*
X31023809Y-77024819D01*
X31023809Y-77024819D02*
X31119047Y-77072438D01*
X31119047Y-77072438D02*
X31166666Y-77120057D01*
X31166666Y-77120057D02*
X31261904Y-77262914D01*
X31261904Y-77262914D02*
X31309523Y-77453390D01*
X31309523Y-77453390D02*
X31309523Y-77834342D01*
X31309523Y-77834342D02*
X31261904Y-77929580D01*
X31261904Y-77929580D02*
X31214285Y-77977200D01*
X31214285Y-77977200D02*
X31119047Y-78024819D01*
X31119047Y-78024819D02*
X30928571Y-78024819D01*
X30928571Y-78024819D02*
X30833333Y-77977200D01*
X30833333Y-77977200D02*
X30785714Y-77929580D01*
X30785714Y-77929580D02*
X30738095Y-77834342D01*
X30738095Y-77834342D02*
X30738095Y-77596247D01*
X30738095Y-77596247D02*
X30785714Y-77501009D01*
X30785714Y-77501009D02*
X30833333Y-77453390D01*
X30833333Y-77453390D02*
X30928571Y-77405771D01*
X30928571Y-77405771D02*
X31119047Y-77405771D01*
X31119047Y-77405771D02*
X31214285Y-77453390D01*
X31214285Y-77453390D02*
X31261904Y-77501009D01*
X31261904Y-77501009D02*
X31309523Y-77596247D01*
X43142857Y-81684819D02*
X43476190Y-81208628D01*
X43714285Y-81684819D02*
X43714285Y-80684819D01*
X43714285Y-80684819D02*
X43333333Y-80684819D01*
X43333333Y-80684819D02*
X43238095Y-80732438D01*
X43238095Y-80732438D02*
X43190476Y-80780057D01*
X43190476Y-80780057D02*
X43142857Y-80875295D01*
X43142857Y-80875295D02*
X43142857Y-81018152D01*
X43142857Y-81018152D02*
X43190476Y-81113390D01*
X43190476Y-81113390D02*
X43238095Y-81161009D01*
X43238095Y-81161009D02*
X43333333Y-81208628D01*
X43333333Y-81208628D02*
X43714285Y-81208628D01*
X42285714Y-80684819D02*
X42476190Y-80684819D01*
X42476190Y-80684819D02*
X42571428Y-80732438D01*
X42571428Y-80732438D02*
X42619047Y-80780057D01*
X42619047Y-80780057D02*
X42714285Y-80922914D01*
X42714285Y-80922914D02*
X42761904Y-81113390D01*
X42761904Y-81113390D02*
X42761904Y-81494342D01*
X42761904Y-81494342D02*
X42714285Y-81589580D01*
X42714285Y-81589580D02*
X42666666Y-81637200D01*
X42666666Y-81637200D02*
X42571428Y-81684819D01*
X42571428Y-81684819D02*
X42380952Y-81684819D01*
X42380952Y-81684819D02*
X42285714Y-81637200D01*
X42285714Y-81637200D02*
X42238095Y-81589580D01*
X42238095Y-81589580D02*
X42190476Y-81494342D01*
X42190476Y-81494342D02*
X42190476Y-81256247D01*
X42190476Y-81256247D02*
X42238095Y-81161009D01*
X42238095Y-81161009D02*
X42285714Y-81113390D01*
X42285714Y-81113390D02*
X42380952Y-81065771D01*
X42380952Y-81065771D02*
X42571428Y-81065771D01*
X42571428Y-81065771D02*
X42666666Y-81113390D01*
X42666666Y-81113390D02*
X42714285Y-81161009D01*
X42714285Y-81161009D02*
X42761904Y-81256247D01*
X41714285Y-81684819D02*
X41523809Y-81684819D01*
X41523809Y-81684819D02*
X41428571Y-81637200D01*
X41428571Y-81637200D02*
X41380952Y-81589580D01*
X41380952Y-81589580D02*
X41285714Y-81446723D01*
X41285714Y-81446723D02*
X41238095Y-81256247D01*
X41238095Y-81256247D02*
X41238095Y-80875295D01*
X41238095Y-80875295D02*
X41285714Y-80780057D01*
X41285714Y-80780057D02*
X41333333Y-80732438D01*
X41333333Y-80732438D02*
X41428571Y-80684819D01*
X41428571Y-80684819D02*
X41619047Y-80684819D01*
X41619047Y-80684819D02*
X41714285Y-80732438D01*
X41714285Y-80732438D02*
X41761904Y-80780057D01*
X41761904Y-80780057D02*
X41809523Y-80875295D01*
X41809523Y-80875295D02*
X41809523Y-81113390D01*
X41809523Y-81113390D02*
X41761904Y-81208628D01*
X41761904Y-81208628D02*
X41714285Y-81256247D01*
X41714285Y-81256247D02*
X41619047Y-81303866D01*
X41619047Y-81303866D02*
X41428571Y-81303866D01*
X41428571Y-81303866D02*
X41333333Y-81256247D01*
X41333333Y-81256247D02*
X41285714Y-81208628D01*
X41285714Y-81208628D02*
X41238095Y-81113390D01*
X26629580Y-10133333D02*
X26677200Y-10085714D01*
X26677200Y-10085714D02*
X26724819Y-9942857D01*
X26724819Y-9942857D02*
X26724819Y-9847619D01*
X26724819Y-9847619D02*
X26677200Y-9704762D01*
X26677200Y-9704762D02*
X26581961Y-9609524D01*
X26581961Y-9609524D02*
X26486723Y-9561905D01*
X26486723Y-9561905D02*
X26296247Y-9514286D01*
X26296247Y-9514286D02*
X26153390Y-9514286D01*
X26153390Y-9514286D02*
X25962914Y-9561905D01*
X25962914Y-9561905D02*
X25867676Y-9609524D01*
X25867676Y-9609524D02*
X25772438Y-9704762D01*
X25772438Y-9704762D02*
X25724819Y-9847619D01*
X25724819Y-9847619D02*
X25724819Y-9942857D01*
X25724819Y-9942857D02*
X25772438Y-10085714D01*
X25772438Y-10085714D02*
X25820057Y-10133333D01*
X25724819Y-11038095D02*
X25724819Y-10561905D01*
X25724819Y-10561905D02*
X26201009Y-10514286D01*
X26201009Y-10514286D02*
X26153390Y-10561905D01*
X26153390Y-10561905D02*
X26105771Y-10657143D01*
X26105771Y-10657143D02*
X26105771Y-10895238D01*
X26105771Y-10895238D02*
X26153390Y-10990476D01*
X26153390Y-10990476D02*
X26201009Y-11038095D01*
X26201009Y-11038095D02*
X26296247Y-11085714D01*
X26296247Y-11085714D02*
X26534342Y-11085714D01*
X26534342Y-11085714D02*
X26629580Y-11038095D01*
X26629580Y-11038095D02*
X26677200Y-10990476D01*
X26677200Y-10990476D02*
X26724819Y-10895238D01*
X26724819Y-10895238D02*
X26724819Y-10657143D01*
X26724819Y-10657143D02*
X26677200Y-10561905D01*
X26677200Y-10561905D02*
X26629580Y-10514286D01*
X51484819Y-10357142D02*
X51008628Y-10023809D01*
X51484819Y-9785714D02*
X50484819Y-9785714D01*
X50484819Y-9785714D02*
X50484819Y-10166666D01*
X50484819Y-10166666D02*
X50532438Y-10261904D01*
X50532438Y-10261904D02*
X50580057Y-10309523D01*
X50580057Y-10309523D02*
X50675295Y-10357142D01*
X50675295Y-10357142D02*
X50818152Y-10357142D01*
X50818152Y-10357142D02*
X50913390Y-10309523D01*
X50913390Y-10309523D02*
X50961009Y-10261904D01*
X50961009Y-10261904D02*
X51008628Y-10166666D01*
X51008628Y-10166666D02*
X51008628Y-9785714D01*
X50484819Y-11261904D02*
X50484819Y-10785714D01*
X50484819Y-10785714D02*
X50961009Y-10738095D01*
X50961009Y-10738095D02*
X50913390Y-10785714D01*
X50913390Y-10785714D02*
X50865771Y-10880952D01*
X50865771Y-10880952D02*
X50865771Y-11119047D01*
X50865771Y-11119047D02*
X50913390Y-11214285D01*
X50913390Y-11214285D02*
X50961009Y-11261904D01*
X50961009Y-11261904D02*
X51056247Y-11309523D01*
X51056247Y-11309523D02*
X51294342Y-11309523D01*
X51294342Y-11309523D02*
X51389580Y-11261904D01*
X51389580Y-11261904D02*
X51437200Y-11214285D01*
X51437200Y-11214285D02*
X51484819Y-11119047D01*
X51484819Y-11119047D02*
X51484819Y-10880952D01*
X51484819Y-10880952D02*
X51437200Y-10785714D01*
X51437200Y-10785714D02*
X51389580Y-10738095D01*
X50484819Y-11928571D02*
X50484819Y-12023809D01*
X50484819Y-12023809D02*
X50532438Y-12119047D01*
X50532438Y-12119047D02*
X50580057Y-12166666D01*
X50580057Y-12166666D02*
X50675295Y-12214285D01*
X50675295Y-12214285D02*
X50865771Y-12261904D01*
X50865771Y-12261904D02*
X51103866Y-12261904D01*
X51103866Y-12261904D02*
X51294342Y-12214285D01*
X51294342Y-12214285D02*
X51389580Y-12166666D01*
X51389580Y-12166666D02*
X51437200Y-12119047D01*
X51437200Y-12119047D02*
X51484819Y-12023809D01*
X51484819Y-12023809D02*
X51484819Y-11928571D01*
X51484819Y-11928571D02*
X51437200Y-11833333D01*
X51437200Y-11833333D02*
X51389580Y-11785714D01*
X51389580Y-11785714D02*
X51294342Y-11738095D01*
X51294342Y-11738095D02*
X51103866Y-11690476D01*
X51103866Y-11690476D02*
X50865771Y-11690476D01*
X50865771Y-11690476D02*
X50675295Y-11738095D01*
X50675295Y-11738095D02*
X50580057Y-11785714D01*
X50580057Y-11785714D02*
X50532438Y-11833333D01*
X50532438Y-11833333D02*
X50484819Y-11928571D01*
X16333333Y-155754819D02*
X16333333Y-156469104D01*
X16333333Y-156469104D02*
X16380952Y-156611961D01*
X16380952Y-156611961D02*
X16476190Y-156707200D01*
X16476190Y-156707200D02*
X16619047Y-156754819D01*
X16619047Y-156754819D02*
X16714285Y-156754819D01*
X15904761Y-155850057D02*
X15857142Y-155802438D01*
X15857142Y-155802438D02*
X15761904Y-155754819D01*
X15761904Y-155754819D02*
X15523809Y-155754819D01*
X15523809Y-155754819D02*
X15428571Y-155802438D01*
X15428571Y-155802438D02*
X15380952Y-155850057D01*
X15380952Y-155850057D02*
X15333333Y-155945295D01*
X15333333Y-155945295D02*
X15333333Y-156040533D01*
X15333333Y-156040533D02*
X15380952Y-156183390D01*
X15380952Y-156183390D02*
X15952380Y-156754819D01*
X15952380Y-156754819D02*
X15333333Y-156754819D01*
X36238094Y-13104819D02*
X36238094Y-13914342D01*
X36238094Y-13914342D02*
X36190475Y-14009580D01*
X36190475Y-14009580D02*
X36142856Y-14057200D01*
X36142856Y-14057200D02*
X36047618Y-14104819D01*
X36047618Y-14104819D02*
X35857142Y-14104819D01*
X35857142Y-14104819D02*
X35761904Y-14057200D01*
X35761904Y-14057200D02*
X35714285Y-14009580D01*
X35714285Y-14009580D02*
X35666666Y-13914342D01*
X35666666Y-13914342D02*
X35666666Y-13104819D01*
X34666666Y-14104819D02*
X35238094Y-14104819D01*
X34952380Y-14104819D02*
X34952380Y-13104819D01*
X34952380Y-13104819D02*
X35047618Y-13247676D01*
X35047618Y-13247676D02*
X35142856Y-13342914D01*
X35142856Y-13342914D02*
X35238094Y-13390533D01*
X33809523Y-13104819D02*
X33999999Y-13104819D01*
X33999999Y-13104819D02*
X34095237Y-13152438D01*
X34095237Y-13152438D02*
X34142856Y-13200057D01*
X34142856Y-13200057D02*
X34238094Y-13342914D01*
X34238094Y-13342914D02*
X34285713Y-13533390D01*
X34285713Y-13533390D02*
X34285713Y-13914342D01*
X34285713Y-13914342D02*
X34238094Y-14009580D01*
X34238094Y-14009580D02*
X34190475Y-14057200D01*
X34190475Y-14057200D02*
X34095237Y-14104819D01*
X34095237Y-14104819D02*
X33904761Y-14104819D01*
X33904761Y-14104819D02*
X33809523Y-14057200D01*
X33809523Y-14057200D02*
X33761904Y-14009580D01*
X33761904Y-14009580D02*
X33714285Y-13914342D01*
X33714285Y-13914342D02*
X33714285Y-13676247D01*
X33714285Y-13676247D02*
X33761904Y-13581009D01*
X33761904Y-13581009D02*
X33809523Y-13533390D01*
X33809523Y-13533390D02*
X33904761Y-13485771D01*
X33904761Y-13485771D02*
X34095237Y-13485771D01*
X34095237Y-13485771D02*
X34190475Y-13533390D01*
X34190475Y-13533390D02*
X34238094Y-13581009D01*
X34238094Y-13581009D02*
X34285713Y-13676247D01*
X38429580Y-10557142D02*
X38477200Y-10509523D01*
X38477200Y-10509523D02*
X38524819Y-10366666D01*
X38524819Y-10366666D02*
X38524819Y-10271428D01*
X38524819Y-10271428D02*
X38477200Y-10128571D01*
X38477200Y-10128571D02*
X38381961Y-10033333D01*
X38381961Y-10033333D02*
X38286723Y-9985714D01*
X38286723Y-9985714D02*
X38096247Y-9938095D01*
X38096247Y-9938095D02*
X37953390Y-9938095D01*
X37953390Y-9938095D02*
X37762914Y-9985714D01*
X37762914Y-9985714D02*
X37667676Y-10033333D01*
X37667676Y-10033333D02*
X37572438Y-10128571D01*
X37572438Y-10128571D02*
X37524819Y-10271428D01*
X37524819Y-10271428D02*
X37524819Y-10366666D01*
X37524819Y-10366666D02*
X37572438Y-10509523D01*
X37572438Y-10509523D02*
X37620057Y-10557142D01*
X37858152Y-11414285D02*
X38524819Y-11414285D01*
X37477200Y-11176190D02*
X38191485Y-10938095D01*
X38191485Y-10938095D02*
X38191485Y-11557142D01*
X37620057Y-11890476D02*
X37572438Y-11938095D01*
X37572438Y-11938095D02*
X37524819Y-12033333D01*
X37524819Y-12033333D02*
X37524819Y-12271428D01*
X37524819Y-12271428D02*
X37572438Y-12366666D01*
X37572438Y-12366666D02*
X37620057Y-12414285D01*
X37620057Y-12414285D02*
X37715295Y-12461904D01*
X37715295Y-12461904D02*
X37810533Y-12461904D01*
X37810533Y-12461904D02*
X37953390Y-12414285D01*
X37953390Y-12414285D02*
X38524819Y-11842857D01*
X38524819Y-11842857D02*
X38524819Y-12461904D01*
X34142857Y-13024819D02*
X34476190Y-12548628D01*
X34714285Y-13024819D02*
X34714285Y-12024819D01*
X34714285Y-12024819D02*
X34333333Y-12024819D01*
X34333333Y-12024819D02*
X34238095Y-12072438D01*
X34238095Y-12072438D02*
X34190476Y-12120057D01*
X34190476Y-12120057D02*
X34142857Y-12215295D01*
X34142857Y-12215295D02*
X34142857Y-12358152D01*
X34142857Y-12358152D02*
X34190476Y-12453390D01*
X34190476Y-12453390D02*
X34238095Y-12501009D01*
X34238095Y-12501009D02*
X34333333Y-12548628D01*
X34333333Y-12548628D02*
X34714285Y-12548628D01*
X33285714Y-12358152D02*
X33285714Y-13024819D01*
X33523809Y-11977200D02*
X33761904Y-12691485D01*
X33761904Y-12691485D02*
X33142857Y-12691485D01*
X32619047Y-12453390D02*
X32714285Y-12405771D01*
X32714285Y-12405771D02*
X32761904Y-12358152D01*
X32761904Y-12358152D02*
X32809523Y-12262914D01*
X32809523Y-12262914D02*
X32809523Y-12215295D01*
X32809523Y-12215295D02*
X32761904Y-12120057D01*
X32761904Y-12120057D02*
X32714285Y-12072438D01*
X32714285Y-12072438D02*
X32619047Y-12024819D01*
X32619047Y-12024819D02*
X32428571Y-12024819D01*
X32428571Y-12024819D02*
X32333333Y-12072438D01*
X32333333Y-12072438D02*
X32285714Y-12120057D01*
X32285714Y-12120057D02*
X32238095Y-12215295D01*
X32238095Y-12215295D02*
X32238095Y-12262914D01*
X32238095Y-12262914D02*
X32285714Y-12358152D01*
X32285714Y-12358152D02*
X32333333Y-12405771D01*
X32333333Y-12405771D02*
X32428571Y-12453390D01*
X32428571Y-12453390D02*
X32619047Y-12453390D01*
X32619047Y-12453390D02*
X32714285Y-12501009D01*
X32714285Y-12501009D02*
X32761904Y-12548628D01*
X32761904Y-12548628D02*
X32809523Y-12643866D01*
X32809523Y-12643866D02*
X32809523Y-12834342D01*
X32809523Y-12834342D02*
X32761904Y-12929580D01*
X32761904Y-12929580D02*
X32714285Y-12977200D01*
X32714285Y-12977200D02*
X32619047Y-13024819D01*
X32619047Y-13024819D02*
X32428571Y-13024819D01*
X32428571Y-13024819D02*
X32333333Y-12977200D01*
X32333333Y-12977200D02*
X32285714Y-12929580D01*
X32285714Y-12929580D02*
X32238095Y-12834342D01*
X32238095Y-12834342D02*
X32238095Y-12643866D01*
X32238095Y-12643866D02*
X32285714Y-12548628D01*
X32285714Y-12548628D02*
X32333333Y-12501009D01*
X32333333Y-12501009D02*
X32428571Y-12453390D01*
X59042857Y-15584819D02*
X59376190Y-15108628D01*
X59614285Y-15584819D02*
X59614285Y-14584819D01*
X59614285Y-14584819D02*
X59233333Y-14584819D01*
X59233333Y-14584819D02*
X59138095Y-14632438D01*
X59138095Y-14632438D02*
X59090476Y-14680057D01*
X59090476Y-14680057D02*
X59042857Y-14775295D01*
X59042857Y-14775295D02*
X59042857Y-14918152D01*
X59042857Y-14918152D02*
X59090476Y-15013390D01*
X59090476Y-15013390D02*
X59138095Y-15061009D01*
X59138095Y-15061009D02*
X59233333Y-15108628D01*
X59233333Y-15108628D02*
X59614285Y-15108628D01*
X58661904Y-14680057D02*
X58614285Y-14632438D01*
X58614285Y-14632438D02*
X58519047Y-14584819D01*
X58519047Y-14584819D02*
X58280952Y-14584819D01*
X58280952Y-14584819D02*
X58185714Y-14632438D01*
X58185714Y-14632438D02*
X58138095Y-14680057D01*
X58138095Y-14680057D02*
X58090476Y-14775295D01*
X58090476Y-14775295D02*
X58090476Y-14870533D01*
X58090476Y-14870533D02*
X58138095Y-15013390D01*
X58138095Y-15013390D02*
X58709523Y-15584819D01*
X58709523Y-15584819D02*
X58090476Y-15584819D01*
X57757142Y-14584819D02*
X57138095Y-14584819D01*
X57138095Y-14584819D02*
X57471428Y-14965771D01*
X57471428Y-14965771D02*
X57328571Y-14965771D01*
X57328571Y-14965771D02*
X57233333Y-15013390D01*
X57233333Y-15013390D02*
X57185714Y-15061009D01*
X57185714Y-15061009D02*
X57138095Y-15156247D01*
X57138095Y-15156247D02*
X57138095Y-15394342D01*
X57138095Y-15394342D02*
X57185714Y-15489580D01*
X57185714Y-15489580D02*
X57233333Y-15537200D01*
X57233333Y-15537200D02*
X57328571Y-15584819D01*
X57328571Y-15584819D02*
X57614285Y-15584819D01*
X57614285Y-15584819D02*
X57709523Y-15537200D01*
X57709523Y-15537200D02*
X57757142Y-15489580D01*
X49484819Y-10357142D02*
X49008628Y-10023809D01*
X49484819Y-9785714D02*
X48484819Y-9785714D01*
X48484819Y-9785714D02*
X48484819Y-10166666D01*
X48484819Y-10166666D02*
X48532438Y-10261904D01*
X48532438Y-10261904D02*
X48580057Y-10309523D01*
X48580057Y-10309523D02*
X48675295Y-10357142D01*
X48675295Y-10357142D02*
X48818152Y-10357142D01*
X48818152Y-10357142D02*
X48913390Y-10309523D01*
X48913390Y-10309523D02*
X48961009Y-10261904D01*
X48961009Y-10261904D02*
X49008628Y-10166666D01*
X49008628Y-10166666D02*
X49008628Y-9785714D01*
X48818152Y-11214285D02*
X49484819Y-11214285D01*
X48437200Y-10976190D02*
X49151485Y-10738095D01*
X49151485Y-10738095D02*
X49151485Y-11357142D01*
X49484819Y-11785714D02*
X49484819Y-11976190D01*
X49484819Y-11976190D02*
X49437200Y-12071428D01*
X49437200Y-12071428D02*
X49389580Y-12119047D01*
X49389580Y-12119047D02*
X49246723Y-12214285D01*
X49246723Y-12214285D02*
X49056247Y-12261904D01*
X49056247Y-12261904D02*
X48675295Y-12261904D01*
X48675295Y-12261904D02*
X48580057Y-12214285D01*
X48580057Y-12214285D02*
X48532438Y-12166666D01*
X48532438Y-12166666D02*
X48484819Y-12071428D01*
X48484819Y-12071428D02*
X48484819Y-11880952D01*
X48484819Y-11880952D02*
X48532438Y-11785714D01*
X48532438Y-11785714D02*
X48580057Y-11738095D01*
X48580057Y-11738095D02*
X48675295Y-11690476D01*
X48675295Y-11690476D02*
X48913390Y-11690476D01*
X48913390Y-11690476D02*
X49008628Y-11738095D01*
X49008628Y-11738095D02*
X49056247Y-11785714D01*
X49056247Y-11785714D02*
X49103866Y-11880952D01*
X49103866Y-11880952D02*
X49103866Y-12071428D01*
X49103866Y-12071428D02*
X49056247Y-12166666D01*
X49056247Y-12166666D02*
X49008628Y-12214285D01*
X49008628Y-12214285D02*
X48913390Y-12261904D01*
X59154819Y-14038095D02*
X59964342Y-14038095D01*
X59964342Y-14038095D02*
X60059580Y-14085714D01*
X60059580Y-14085714D02*
X60107200Y-14133333D01*
X60107200Y-14133333D02*
X60154819Y-14228571D01*
X60154819Y-14228571D02*
X60154819Y-14419047D01*
X60154819Y-14419047D02*
X60107200Y-14514285D01*
X60107200Y-14514285D02*
X60059580Y-14561904D01*
X60059580Y-14561904D02*
X59964342Y-14609523D01*
X59964342Y-14609523D02*
X59154819Y-14609523D01*
X59154819Y-15561904D02*
X59154819Y-15085714D01*
X59154819Y-15085714D02*
X59631009Y-15038095D01*
X59631009Y-15038095D02*
X59583390Y-15085714D01*
X59583390Y-15085714D02*
X59535771Y-15180952D01*
X59535771Y-15180952D02*
X59535771Y-15419047D01*
X59535771Y-15419047D02*
X59583390Y-15514285D01*
X59583390Y-15514285D02*
X59631009Y-15561904D01*
X59631009Y-15561904D02*
X59726247Y-15609523D01*
X59726247Y-15609523D02*
X59964342Y-15609523D01*
X59964342Y-15609523D02*
X60059580Y-15561904D01*
X60059580Y-15561904D02*
X60107200Y-15514285D01*
X60107200Y-15514285D02*
X60154819Y-15419047D01*
X60154819Y-15419047D02*
X60154819Y-15180952D01*
X60154819Y-15180952D02*
X60107200Y-15085714D01*
X60107200Y-15085714D02*
X60059580Y-15038095D01*
X53538094Y-13402819D02*
X52966666Y-13402819D01*
X53252380Y-14402819D02*
X53252380Y-13402819D01*
X52633332Y-14402819D02*
X52633332Y-13402819D01*
X52633332Y-13402819D02*
X52252380Y-13402819D01*
X52252380Y-13402819D02*
X52157142Y-13450438D01*
X52157142Y-13450438D02*
X52109523Y-13498057D01*
X52109523Y-13498057D02*
X52061904Y-13593295D01*
X52061904Y-13593295D02*
X52061904Y-13736152D01*
X52061904Y-13736152D02*
X52109523Y-13831390D01*
X52109523Y-13831390D02*
X52157142Y-13879009D01*
X52157142Y-13879009D02*
X52252380Y-13926628D01*
X52252380Y-13926628D02*
X52633332Y-13926628D01*
X51109523Y-14402819D02*
X51680951Y-14402819D01*
X51395237Y-14402819D02*
X51395237Y-13402819D01*
X51395237Y-13402819D02*
X51490475Y-13545676D01*
X51490475Y-13545676D02*
X51585713Y-13640914D01*
X51585713Y-13640914D02*
X51680951Y-13688533D01*
X50728570Y-13498057D02*
X50680951Y-13450438D01*
X50680951Y-13450438D02*
X50585713Y-13402819D01*
X50585713Y-13402819D02*
X50347618Y-13402819D01*
X50347618Y-13402819D02*
X50252380Y-13450438D01*
X50252380Y-13450438D02*
X50204761Y-13498057D01*
X50204761Y-13498057D02*
X50157142Y-13593295D01*
X50157142Y-13593295D02*
X50157142Y-13688533D01*
X50157142Y-13688533D02*
X50204761Y-13831390D01*
X50204761Y-13831390D02*
X50776189Y-14402819D01*
X50776189Y-14402819D02*
X50157142Y-14402819D01*
X7333332Y-74457200D02*
X7190475Y-74504819D01*
X7190475Y-74504819D02*
X6952380Y-74504819D01*
X6952380Y-74504819D02*
X6857142Y-74457200D01*
X6857142Y-74457200D02*
X6809523Y-74409580D01*
X6809523Y-74409580D02*
X6761904Y-74314342D01*
X6761904Y-74314342D02*
X6761904Y-74219104D01*
X6761904Y-74219104D02*
X6809523Y-74123866D01*
X6809523Y-74123866D02*
X6857142Y-74076247D01*
X6857142Y-74076247D02*
X6952380Y-74028628D01*
X6952380Y-74028628D02*
X7142856Y-73981009D01*
X7142856Y-73981009D02*
X7238094Y-73933390D01*
X7238094Y-73933390D02*
X7285713Y-73885771D01*
X7285713Y-73885771D02*
X7333332Y-73790533D01*
X7333332Y-73790533D02*
X7333332Y-73695295D01*
X7333332Y-73695295D02*
X7285713Y-73600057D01*
X7285713Y-73600057D02*
X7238094Y-73552438D01*
X7238094Y-73552438D02*
X7142856Y-73504819D01*
X7142856Y-73504819D02*
X6904761Y-73504819D01*
X6904761Y-73504819D02*
X6761904Y-73552438D01*
X6428570Y-73504819D02*
X6190475Y-74504819D01*
X6190475Y-74504819D02*
X5999999Y-73790533D01*
X5999999Y-73790533D02*
X5809523Y-74504819D01*
X5809523Y-74504819D02*
X5571428Y-73504819D01*
X4666666Y-74504819D02*
X5238094Y-74504819D01*
X4952380Y-74504819D02*
X4952380Y-73504819D01*
X4952380Y-73504819D02*
X5047618Y-73647676D01*
X5047618Y-73647676D02*
X5142856Y-73742914D01*
X5142856Y-73742914D02*
X5238094Y-73790533D01*
X19961904Y-64402819D02*
X19390476Y-64402819D01*
X19676190Y-65402819D02*
X19676190Y-64402819D01*
X19057142Y-65402819D02*
X19057142Y-64402819D01*
X19057142Y-64402819D02*
X18676190Y-64402819D01*
X18676190Y-64402819D02*
X18580952Y-64450438D01*
X18580952Y-64450438D02*
X18533333Y-64498057D01*
X18533333Y-64498057D02*
X18485714Y-64593295D01*
X18485714Y-64593295D02*
X18485714Y-64736152D01*
X18485714Y-64736152D02*
X18533333Y-64831390D01*
X18533333Y-64831390D02*
X18580952Y-64879009D01*
X18580952Y-64879009D02*
X18676190Y-64926628D01*
X18676190Y-64926628D02*
X19057142Y-64926628D01*
X18152380Y-64402819D02*
X17533333Y-64402819D01*
X17533333Y-64402819D02*
X17866666Y-64783771D01*
X17866666Y-64783771D02*
X17723809Y-64783771D01*
X17723809Y-64783771D02*
X17628571Y-64831390D01*
X17628571Y-64831390D02*
X17580952Y-64879009D01*
X17580952Y-64879009D02*
X17533333Y-64974247D01*
X17533333Y-64974247D02*
X17533333Y-65212342D01*
X17533333Y-65212342D02*
X17580952Y-65307580D01*
X17580952Y-65307580D02*
X17628571Y-65355200D01*
X17628571Y-65355200D02*
X17723809Y-65402819D01*
X17723809Y-65402819D02*
X18009523Y-65402819D01*
X18009523Y-65402819D02*
X18104761Y-65355200D01*
X18104761Y-65355200D02*
X18152380Y-65307580D01*
X11666666Y-52384819D02*
X11999999Y-51908628D01*
X12238094Y-52384819D02*
X12238094Y-51384819D01*
X12238094Y-51384819D02*
X11857142Y-51384819D01*
X11857142Y-51384819D02*
X11761904Y-51432438D01*
X11761904Y-51432438D02*
X11714285Y-51480057D01*
X11714285Y-51480057D02*
X11666666Y-51575295D01*
X11666666Y-51575295D02*
X11666666Y-51718152D01*
X11666666Y-51718152D02*
X11714285Y-51813390D01*
X11714285Y-51813390D02*
X11761904Y-51861009D01*
X11761904Y-51861009D02*
X11857142Y-51908628D01*
X11857142Y-51908628D02*
X12238094Y-51908628D01*
X10761904Y-51384819D02*
X11238094Y-51384819D01*
X11238094Y-51384819D02*
X11285713Y-51861009D01*
X11285713Y-51861009D02*
X11238094Y-51813390D01*
X11238094Y-51813390D02*
X11142856Y-51765771D01*
X11142856Y-51765771D02*
X10904761Y-51765771D01*
X10904761Y-51765771D02*
X10809523Y-51813390D01*
X10809523Y-51813390D02*
X10761904Y-51861009D01*
X10761904Y-51861009D02*
X10714285Y-51956247D01*
X10714285Y-51956247D02*
X10714285Y-52194342D01*
X10714285Y-52194342D02*
X10761904Y-52289580D01*
X10761904Y-52289580D02*
X10809523Y-52337200D01*
X10809523Y-52337200D02*
X10904761Y-52384819D01*
X10904761Y-52384819D02*
X11142856Y-52384819D01*
X11142856Y-52384819D02*
X11238094Y-52337200D01*
X11238094Y-52337200D02*
X11285713Y-52289580D01*
X18366666Y-52384819D02*
X18699999Y-51908628D01*
X18938094Y-52384819D02*
X18938094Y-51384819D01*
X18938094Y-51384819D02*
X18557142Y-51384819D01*
X18557142Y-51384819D02*
X18461904Y-51432438D01*
X18461904Y-51432438D02*
X18414285Y-51480057D01*
X18414285Y-51480057D02*
X18366666Y-51575295D01*
X18366666Y-51575295D02*
X18366666Y-51718152D01*
X18366666Y-51718152D02*
X18414285Y-51813390D01*
X18414285Y-51813390D02*
X18461904Y-51861009D01*
X18461904Y-51861009D02*
X18557142Y-51908628D01*
X18557142Y-51908628D02*
X18938094Y-51908628D01*
X18033332Y-51384819D02*
X17366666Y-51384819D01*
X17366666Y-51384819D02*
X17795237Y-52384819D01*
X15666666Y-62589580D02*
X15714285Y-62637200D01*
X15714285Y-62637200D02*
X15857142Y-62684819D01*
X15857142Y-62684819D02*
X15952380Y-62684819D01*
X15952380Y-62684819D02*
X16095237Y-62637200D01*
X16095237Y-62637200D02*
X16190475Y-62541961D01*
X16190475Y-62541961D02*
X16238094Y-62446723D01*
X16238094Y-62446723D02*
X16285713Y-62256247D01*
X16285713Y-62256247D02*
X16285713Y-62113390D01*
X16285713Y-62113390D02*
X16238094Y-61922914D01*
X16238094Y-61922914D02*
X16190475Y-61827676D01*
X16190475Y-61827676D02*
X16095237Y-61732438D01*
X16095237Y-61732438D02*
X15952380Y-61684819D01*
X15952380Y-61684819D02*
X15857142Y-61684819D01*
X15857142Y-61684819D02*
X15714285Y-61732438D01*
X15714285Y-61732438D02*
X15666666Y-61780057D01*
X15333332Y-61684819D02*
X14666666Y-61684819D01*
X14666666Y-61684819D02*
X15095237Y-62684819D01*
X15442857Y-56784819D02*
X15776190Y-56308628D01*
X16014285Y-56784819D02*
X16014285Y-55784819D01*
X16014285Y-55784819D02*
X15633333Y-55784819D01*
X15633333Y-55784819D02*
X15538095Y-55832438D01*
X15538095Y-55832438D02*
X15490476Y-55880057D01*
X15490476Y-55880057D02*
X15442857Y-55975295D01*
X15442857Y-55975295D02*
X15442857Y-56118152D01*
X15442857Y-56118152D02*
X15490476Y-56213390D01*
X15490476Y-56213390D02*
X15538095Y-56261009D01*
X15538095Y-56261009D02*
X15633333Y-56308628D01*
X15633333Y-56308628D02*
X16014285Y-56308628D01*
X14490476Y-56784819D02*
X15061904Y-56784819D01*
X14776190Y-56784819D02*
X14776190Y-55784819D01*
X14776190Y-55784819D02*
X14871428Y-55927676D01*
X14871428Y-55927676D02*
X14966666Y-56022914D01*
X14966666Y-56022914D02*
X15061904Y-56070533D01*
X13633333Y-55784819D02*
X13823809Y-55784819D01*
X13823809Y-55784819D02*
X13919047Y-55832438D01*
X13919047Y-55832438D02*
X13966666Y-55880057D01*
X13966666Y-55880057D02*
X14061904Y-56022914D01*
X14061904Y-56022914D02*
X14109523Y-56213390D01*
X14109523Y-56213390D02*
X14109523Y-56594342D01*
X14109523Y-56594342D02*
X14061904Y-56689580D01*
X14061904Y-56689580D02*
X14014285Y-56737200D01*
X14014285Y-56737200D02*
X13919047Y-56784819D01*
X13919047Y-56784819D02*
X13728571Y-56784819D01*
X13728571Y-56784819D02*
X13633333Y-56737200D01*
X13633333Y-56737200D02*
X13585714Y-56689580D01*
X13585714Y-56689580D02*
X13538095Y-56594342D01*
X13538095Y-56594342D02*
X13538095Y-56356247D01*
X13538095Y-56356247D02*
X13585714Y-56261009D01*
X13585714Y-56261009D02*
X13633333Y-56213390D01*
X13633333Y-56213390D02*
X13728571Y-56165771D01*
X13728571Y-56165771D02*
X13919047Y-56165771D01*
X13919047Y-56165771D02*
X14014285Y-56213390D01*
X14014285Y-56213390D02*
X14061904Y-56261009D01*
X14061904Y-56261009D02*
X14109523Y-56356247D01*
X11966666Y-16589580D02*
X12014285Y-16637200D01*
X12014285Y-16637200D02*
X12157142Y-16684819D01*
X12157142Y-16684819D02*
X12252380Y-16684819D01*
X12252380Y-16684819D02*
X12395237Y-16637200D01*
X12395237Y-16637200D02*
X12490475Y-16541961D01*
X12490475Y-16541961D02*
X12538094Y-16446723D01*
X12538094Y-16446723D02*
X12585713Y-16256247D01*
X12585713Y-16256247D02*
X12585713Y-16113390D01*
X12585713Y-16113390D02*
X12538094Y-15922914D01*
X12538094Y-15922914D02*
X12490475Y-15827676D01*
X12490475Y-15827676D02*
X12395237Y-15732438D01*
X12395237Y-15732438D02*
X12252380Y-15684819D01*
X12252380Y-15684819D02*
X12157142Y-15684819D01*
X12157142Y-15684819D02*
X12014285Y-15732438D01*
X12014285Y-15732438D02*
X11966666Y-15780057D01*
X11014285Y-16684819D02*
X11585713Y-16684819D01*
X11299999Y-16684819D02*
X11299999Y-15684819D01*
X11299999Y-15684819D02*
X11395237Y-15827676D01*
X11395237Y-15827676D02*
X11490475Y-15922914D01*
X11490475Y-15922914D02*
X11585713Y-15970533D01*
X70190476Y-11045180D02*
X70190476Y-12045180D01*
X70190476Y-12045180D02*
X70523809Y-11330895D01*
X70523809Y-11330895D02*
X70857142Y-12045180D01*
X70857142Y-12045180D02*
X70857142Y-11045180D01*
X71333333Y-11045180D02*
X71333333Y-12045180D01*
X71904761Y-11045180D02*
X71476190Y-11616609D01*
X71904761Y-12045180D02*
X71333333Y-11473752D01*
X72857142Y-11045180D02*
X72285714Y-11045180D01*
X72571428Y-11045180D02*
X72571428Y-12045180D01*
X72571428Y-12045180D02*
X72476190Y-11902323D01*
X72476190Y-11902323D02*
X72380952Y-11807085D01*
X72380952Y-11807085D02*
X72285714Y-11759466D01*
X15442857Y-54884819D02*
X15776190Y-54408628D01*
X16014285Y-54884819D02*
X16014285Y-53884819D01*
X16014285Y-53884819D02*
X15633333Y-53884819D01*
X15633333Y-53884819D02*
X15538095Y-53932438D01*
X15538095Y-53932438D02*
X15490476Y-53980057D01*
X15490476Y-53980057D02*
X15442857Y-54075295D01*
X15442857Y-54075295D02*
X15442857Y-54218152D01*
X15442857Y-54218152D02*
X15490476Y-54313390D01*
X15490476Y-54313390D02*
X15538095Y-54361009D01*
X15538095Y-54361009D02*
X15633333Y-54408628D01*
X15633333Y-54408628D02*
X16014285Y-54408628D01*
X14490476Y-54884819D02*
X15061904Y-54884819D01*
X14776190Y-54884819D02*
X14776190Y-53884819D01*
X14776190Y-53884819D02*
X14871428Y-54027676D01*
X14871428Y-54027676D02*
X14966666Y-54122914D01*
X14966666Y-54122914D02*
X15061904Y-54170533D01*
X13871428Y-53884819D02*
X13776190Y-53884819D01*
X13776190Y-53884819D02*
X13680952Y-53932438D01*
X13680952Y-53932438D02*
X13633333Y-53980057D01*
X13633333Y-53980057D02*
X13585714Y-54075295D01*
X13585714Y-54075295D02*
X13538095Y-54265771D01*
X13538095Y-54265771D02*
X13538095Y-54503866D01*
X13538095Y-54503866D02*
X13585714Y-54694342D01*
X13585714Y-54694342D02*
X13633333Y-54789580D01*
X13633333Y-54789580D02*
X13680952Y-54837200D01*
X13680952Y-54837200D02*
X13776190Y-54884819D01*
X13776190Y-54884819D02*
X13871428Y-54884819D01*
X13871428Y-54884819D02*
X13966666Y-54837200D01*
X13966666Y-54837200D02*
X14014285Y-54789580D01*
X14014285Y-54789580D02*
X14061904Y-54694342D01*
X14061904Y-54694342D02*
X14109523Y-54503866D01*
X14109523Y-54503866D02*
X14109523Y-54265771D01*
X14109523Y-54265771D02*
X14061904Y-54075295D01*
X14061904Y-54075295D02*
X14014285Y-53980057D01*
X14014285Y-53980057D02*
X13966666Y-53932438D01*
X13966666Y-53932438D02*
X13871428Y-53884819D01*
X51042857Y-83924819D02*
X51376190Y-83448628D01*
X51614285Y-83924819D02*
X51614285Y-82924819D01*
X51614285Y-82924819D02*
X51233333Y-82924819D01*
X51233333Y-82924819D02*
X51138095Y-82972438D01*
X51138095Y-82972438D02*
X51090476Y-83020057D01*
X51090476Y-83020057D02*
X51042857Y-83115295D01*
X51042857Y-83115295D02*
X51042857Y-83258152D01*
X51042857Y-83258152D02*
X51090476Y-83353390D01*
X51090476Y-83353390D02*
X51138095Y-83401009D01*
X51138095Y-83401009D02*
X51233333Y-83448628D01*
X51233333Y-83448628D02*
X51614285Y-83448628D01*
X50709523Y-82924819D02*
X50042857Y-82924819D01*
X50042857Y-82924819D02*
X50471428Y-83924819D01*
X49471428Y-82924819D02*
X49376190Y-82924819D01*
X49376190Y-82924819D02*
X49280952Y-82972438D01*
X49280952Y-82972438D02*
X49233333Y-83020057D01*
X49233333Y-83020057D02*
X49185714Y-83115295D01*
X49185714Y-83115295D02*
X49138095Y-83305771D01*
X49138095Y-83305771D02*
X49138095Y-83543866D01*
X49138095Y-83543866D02*
X49185714Y-83734342D01*
X49185714Y-83734342D02*
X49233333Y-83829580D01*
X49233333Y-83829580D02*
X49280952Y-83877200D01*
X49280952Y-83877200D02*
X49376190Y-83924819D01*
X49376190Y-83924819D02*
X49471428Y-83924819D01*
X49471428Y-83924819D02*
X49566666Y-83877200D01*
X49566666Y-83877200D02*
X49614285Y-83829580D01*
X49614285Y-83829580D02*
X49661904Y-83734342D01*
X49661904Y-83734342D02*
X49709523Y-83543866D01*
X49709523Y-83543866D02*
X49709523Y-83305771D01*
X49709523Y-83305771D02*
X49661904Y-83115295D01*
X49661904Y-83115295D02*
X49614285Y-83020057D01*
X49614285Y-83020057D02*
X49566666Y-82972438D01*
X49566666Y-82972438D02*
X49471428Y-82924819D01*
X37333333Y2045180D02*
X37333333Y1330895D01*
X37333333Y1330895D02*
X37380952Y1188038D01*
X37380952Y1188038D02*
X37476190Y1092800D01*
X37476190Y1092800D02*
X37619047Y1045180D01*
X37619047Y1045180D02*
X37714285Y1045180D01*
X36380952Y2045180D02*
X36857142Y2045180D01*
X36857142Y2045180D02*
X36904761Y1568990D01*
X36904761Y1568990D02*
X36857142Y1616609D01*
X36857142Y1616609D02*
X36761904Y1664228D01*
X36761904Y1664228D02*
X36523809Y1664228D01*
X36523809Y1664228D02*
X36428571Y1616609D01*
X36428571Y1616609D02*
X36380952Y1568990D01*
X36380952Y1568990D02*
X36333333Y1473752D01*
X36333333Y1473752D02*
X36333333Y1235657D01*
X36333333Y1235657D02*
X36380952Y1140419D01*
X36380952Y1140419D02*
X36428571Y1092800D01*
X36428571Y1092800D02*
X36523809Y1045180D01*
X36523809Y1045180D02*
X36761904Y1045180D01*
X36761904Y1045180D02*
X36857142Y1092800D01*
X36857142Y1092800D02*
X36904761Y1140419D01*
X15666666Y-16839580D02*
X15714285Y-16887200D01*
X15714285Y-16887200D02*
X15857142Y-16934819D01*
X15857142Y-16934819D02*
X15952380Y-16934819D01*
X15952380Y-16934819D02*
X16095237Y-16887200D01*
X16095237Y-16887200D02*
X16190475Y-16791961D01*
X16190475Y-16791961D02*
X16238094Y-16696723D01*
X16238094Y-16696723D02*
X16285713Y-16506247D01*
X16285713Y-16506247D02*
X16285713Y-16363390D01*
X16285713Y-16363390D02*
X16238094Y-16172914D01*
X16238094Y-16172914D02*
X16190475Y-16077676D01*
X16190475Y-16077676D02*
X16095237Y-15982438D01*
X16095237Y-15982438D02*
X15952380Y-15934819D01*
X15952380Y-15934819D02*
X15857142Y-15934819D01*
X15857142Y-15934819D02*
X15714285Y-15982438D01*
X15714285Y-15982438D02*
X15666666Y-16030057D01*
X15333332Y-15934819D02*
X14714285Y-15934819D01*
X14714285Y-15934819D02*
X15047618Y-16315771D01*
X15047618Y-16315771D02*
X14904761Y-16315771D01*
X14904761Y-16315771D02*
X14809523Y-16363390D01*
X14809523Y-16363390D02*
X14761904Y-16411009D01*
X14761904Y-16411009D02*
X14714285Y-16506247D01*
X14714285Y-16506247D02*
X14714285Y-16744342D01*
X14714285Y-16744342D02*
X14761904Y-16839580D01*
X14761904Y-16839580D02*
X14809523Y-16887200D01*
X14809523Y-16887200D02*
X14904761Y-16934819D01*
X14904761Y-16934819D02*
X15190475Y-16934819D01*
X15190475Y-16934819D02*
X15285713Y-16887200D01*
X15285713Y-16887200D02*
X15333332Y-16839580D01*
X12016666Y-62589580D02*
X12064285Y-62637200D01*
X12064285Y-62637200D02*
X12207142Y-62684819D01*
X12207142Y-62684819D02*
X12302380Y-62684819D01*
X12302380Y-62684819D02*
X12445237Y-62637200D01*
X12445237Y-62637200D02*
X12540475Y-62541961D01*
X12540475Y-62541961D02*
X12588094Y-62446723D01*
X12588094Y-62446723D02*
X12635713Y-62256247D01*
X12635713Y-62256247D02*
X12635713Y-62113390D01*
X12635713Y-62113390D02*
X12588094Y-61922914D01*
X12588094Y-61922914D02*
X12540475Y-61827676D01*
X12540475Y-61827676D02*
X12445237Y-61732438D01*
X12445237Y-61732438D02*
X12302380Y-61684819D01*
X12302380Y-61684819D02*
X12207142Y-61684819D01*
X12207142Y-61684819D02*
X12064285Y-61732438D01*
X12064285Y-61732438D02*
X12016666Y-61780057D01*
X11159523Y-61684819D02*
X11349999Y-61684819D01*
X11349999Y-61684819D02*
X11445237Y-61732438D01*
X11445237Y-61732438D02*
X11492856Y-61780057D01*
X11492856Y-61780057D02*
X11588094Y-61922914D01*
X11588094Y-61922914D02*
X11635713Y-62113390D01*
X11635713Y-62113390D02*
X11635713Y-62494342D01*
X11635713Y-62494342D02*
X11588094Y-62589580D01*
X11588094Y-62589580D02*
X11540475Y-62637200D01*
X11540475Y-62637200D02*
X11445237Y-62684819D01*
X11445237Y-62684819D02*
X11254761Y-62684819D01*
X11254761Y-62684819D02*
X11159523Y-62637200D01*
X11159523Y-62637200D02*
X11111904Y-62589580D01*
X11111904Y-62589580D02*
X11064285Y-62494342D01*
X11064285Y-62494342D02*
X11064285Y-62256247D01*
X11064285Y-62256247D02*
X11111904Y-62161009D01*
X11111904Y-62161009D02*
X11159523Y-62113390D01*
X11159523Y-62113390D02*
X11254761Y-62065771D01*
X11254761Y-62065771D02*
X11445237Y-62065771D01*
X11445237Y-62065771D02*
X11540475Y-62113390D01*
X11540475Y-62113390D02*
X11588094Y-62161009D01*
X11588094Y-62161009D02*
X11635713Y-62256247D01*
X17966666Y-49789580D02*
X18014285Y-49837200D01*
X18014285Y-49837200D02*
X18157142Y-49884819D01*
X18157142Y-49884819D02*
X18252380Y-49884819D01*
X18252380Y-49884819D02*
X18395237Y-49837200D01*
X18395237Y-49837200D02*
X18490475Y-49741961D01*
X18490475Y-49741961D02*
X18538094Y-49646723D01*
X18538094Y-49646723D02*
X18585713Y-49456247D01*
X18585713Y-49456247D02*
X18585713Y-49313390D01*
X18585713Y-49313390D02*
X18538094Y-49122914D01*
X18538094Y-49122914D02*
X18490475Y-49027676D01*
X18490475Y-49027676D02*
X18395237Y-48932438D01*
X18395237Y-48932438D02*
X18252380Y-48884819D01*
X18252380Y-48884819D02*
X18157142Y-48884819D01*
X18157142Y-48884819D02*
X18014285Y-48932438D01*
X18014285Y-48932438D02*
X17966666Y-48980057D01*
X17109523Y-49218152D02*
X17109523Y-49884819D01*
X17347618Y-48837200D02*
X17585713Y-49551485D01*
X17585713Y-49551485D02*
X16966666Y-49551485D01*
X14966666Y-52384819D02*
X15299999Y-51908628D01*
X15538094Y-52384819D02*
X15538094Y-51384819D01*
X15538094Y-51384819D02*
X15157142Y-51384819D01*
X15157142Y-51384819D02*
X15061904Y-51432438D01*
X15061904Y-51432438D02*
X15014285Y-51480057D01*
X15014285Y-51480057D02*
X14966666Y-51575295D01*
X14966666Y-51575295D02*
X14966666Y-51718152D01*
X14966666Y-51718152D02*
X15014285Y-51813390D01*
X15014285Y-51813390D02*
X15061904Y-51861009D01*
X15061904Y-51861009D02*
X15157142Y-51908628D01*
X15157142Y-51908628D02*
X15538094Y-51908628D01*
X14109523Y-51384819D02*
X14299999Y-51384819D01*
X14299999Y-51384819D02*
X14395237Y-51432438D01*
X14395237Y-51432438D02*
X14442856Y-51480057D01*
X14442856Y-51480057D02*
X14538094Y-51622914D01*
X14538094Y-51622914D02*
X14585713Y-51813390D01*
X14585713Y-51813390D02*
X14585713Y-52194342D01*
X14585713Y-52194342D02*
X14538094Y-52289580D01*
X14538094Y-52289580D02*
X14490475Y-52337200D01*
X14490475Y-52337200D02*
X14395237Y-52384819D01*
X14395237Y-52384819D02*
X14204761Y-52384819D01*
X14204761Y-52384819D02*
X14109523Y-52337200D01*
X14109523Y-52337200D02*
X14061904Y-52289580D01*
X14061904Y-52289580D02*
X14014285Y-52194342D01*
X14014285Y-52194342D02*
X14014285Y-51956247D01*
X14014285Y-51956247D02*
X14061904Y-51861009D01*
X14061904Y-51861009D02*
X14109523Y-51813390D01*
X14109523Y-51813390D02*
X14204761Y-51765771D01*
X14204761Y-51765771D02*
X14395237Y-51765771D01*
X14395237Y-51765771D02*
X14490475Y-51813390D01*
X14490475Y-51813390D02*
X14538094Y-51861009D01*
X14538094Y-51861009D02*
X14585713Y-51956247D01*
X38166666Y-86504819D02*
X38642856Y-86504819D01*
X38642856Y-86504819D02*
X38642856Y-85504819D01*
X37928570Y-85504819D02*
X37309523Y-85504819D01*
X37309523Y-85504819D02*
X37642856Y-85885771D01*
X37642856Y-85885771D02*
X37499999Y-85885771D01*
X37499999Y-85885771D02*
X37404761Y-85933390D01*
X37404761Y-85933390D02*
X37357142Y-85981009D01*
X37357142Y-85981009D02*
X37309523Y-86076247D01*
X37309523Y-86076247D02*
X37309523Y-86314342D01*
X37309523Y-86314342D02*
X37357142Y-86409580D01*
X37357142Y-86409580D02*
X37404761Y-86457200D01*
X37404761Y-86457200D02*
X37499999Y-86504819D01*
X37499999Y-86504819D02*
X37785713Y-86504819D01*
X37785713Y-86504819D02*
X37880951Y-86457200D01*
X37880951Y-86457200D02*
X37928570Y-86409580D01*
X8166666Y-54884819D02*
X8499999Y-54408628D01*
X8738094Y-54884819D02*
X8738094Y-53884819D01*
X8738094Y-53884819D02*
X8357142Y-53884819D01*
X8357142Y-53884819D02*
X8261904Y-53932438D01*
X8261904Y-53932438D02*
X8214285Y-53980057D01*
X8214285Y-53980057D02*
X8166666Y-54075295D01*
X8166666Y-54075295D02*
X8166666Y-54218152D01*
X8166666Y-54218152D02*
X8214285Y-54313390D01*
X8214285Y-54313390D02*
X8261904Y-54361009D01*
X8261904Y-54361009D02*
X8357142Y-54408628D01*
X8357142Y-54408628D02*
X8738094Y-54408628D01*
X7595237Y-54313390D02*
X7690475Y-54265771D01*
X7690475Y-54265771D02*
X7738094Y-54218152D01*
X7738094Y-54218152D02*
X7785713Y-54122914D01*
X7785713Y-54122914D02*
X7785713Y-54075295D01*
X7785713Y-54075295D02*
X7738094Y-53980057D01*
X7738094Y-53980057D02*
X7690475Y-53932438D01*
X7690475Y-53932438D02*
X7595237Y-53884819D01*
X7595237Y-53884819D02*
X7404761Y-53884819D01*
X7404761Y-53884819D02*
X7309523Y-53932438D01*
X7309523Y-53932438D02*
X7261904Y-53980057D01*
X7261904Y-53980057D02*
X7214285Y-54075295D01*
X7214285Y-54075295D02*
X7214285Y-54122914D01*
X7214285Y-54122914D02*
X7261904Y-54218152D01*
X7261904Y-54218152D02*
X7309523Y-54265771D01*
X7309523Y-54265771D02*
X7404761Y-54313390D01*
X7404761Y-54313390D02*
X7595237Y-54313390D01*
X7595237Y-54313390D02*
X7690475Y-54361009D01*
X7690475Y-54361009D02*
X7738094Y-54408628D01*
X7738094Y-54408628D02*
X7785713Y-54503866D01*
X7785713Y-54503866D02*
X7785713Y-54694342D01*
X7785713Y-54694342D02*
X7738094Y-54789580D01*
X7738094Y-54789580D02*
X7690475Y-54837200D01*
X7690475Y-54837200D02*
X7595237Y-54884819D01*
X7595237Y-54884819D02*
X7404761Y-54884819D01*
X7404761Y-54884819D02*
X7309523Y-54837200D01*
X7309523Y-54837200D02*
X7261904Y-54789580D01*
X7261904Y-54789580D02*
X7214285Y-54694342D01*
X7214285Y-54694342D02*
X7214285Y-54503866D01*
X7214285Y-54503866D02*
X7261904Y-54408628D01*
X7261904Y-54408628D02*
X7309523Y-54361009D01*
X7309523Y-54361009D02*
X7404761Y-54313390D01*
X19461904Y-58902819D02*
X18890476Y-58902819D01*
X19176190Y-59902819D02*
X19176190Y-58902819D01*
X18557142Y-59902819D02*
X18557142Y-58902819D01*
X18557142Y-58902819D02*
X18176190Y-58902819D01*
X18176190Y-58902819D02*
X18080952Y-58950438D01*
X18080952Y-58950438D02*
X18033333Y-58998057D01*
X18033333Y-58998057D02*
X17985714Y-59093295D01*
X17985714Y-59093295D02*
X17985714Y-59236152D01*
X17985714Y-59236152D02*
X18033333Y-59331390D01*
X18033333Y-59331390D02*
X18080952Y-59379009D01*
X18080952Y-59379009D02*
X18176190Y-59426628D01*
X18176190Y-59426628D02*
X18557142Y-59426628D01*
X17604761Y-58998057D02*
X17557142Y-58950438D01*
X17557142Y-58950438D02*
X17461904Y-58902819D01*
X17461904Y-58902819D02*
X17223809Y-58902819D01*
X17223809Y-58902819D02*
X17128571Y-58950438D01*
X17128571Y-58950438D02*
X17080952Y-58998057D01*
X17080952Y-58998057D02*
X17033333Y-59093295D01*
X17033333Y-59093295D02*
X17033333Y-59188533D01*
X17033333Y-59188533D02*
X17080952Y-59331390D01*
X17080952Y-59331390D02*
X17652380Y-59902819D01*
X17652380Y-59902819D02*
X17033333Y-59902819D01*
X19461904Y-37902819D02*
X18890476Y-37902819D01*
X19176190Y-38902819D02*
X19176190Y-37902819D01*
X18557142Y-38902819D02*
X18557142Y-37902819D01*
X18557142Y-37902819D02*
X18176190Y-37902819D01*
X18176190Y-37902819D02*
X18080952Y-37950438D01*
X18080952Y-37950438D02*
X18033333Y-37998057D01*
X18033333Y-37998057D02*
X17985714Y-38093295D01*
X17985714Y-38093295D02*
X17985714Y-38236152D01*
X17985714Y-38236152D02*
X18033333Y-38331390D01*
X18033333Y-38331390D02*
X18080952Y-38379009D01*
X18080952Y-38379009D02*
X18176190Y-38426628D01*
X18176190Y-38426628D02*
X18557142Y-38426628D01*
X17080952Y-37902819D02*
X17557142Y-37902819D01*
X17557142Y-37902819D02*
X17604761Y-38379009D01*
X17604761Y-38379009D02*
X17557142Y-38331390D01*
X17557142Y-38331390D02*
X17461904Y-38283771D01*
X17461904Y-38283771D02*
X17223809Y-38283771D01*
X17223809Y-38283771D02*
X17128571Y-38331390D01*
X17128571Y-38331390D02*
X17080952Y-38379009D01*
X17080952Y-38379009D02*
X17033333Y-38474247D01*
X17033333Y-38474247D02*
X17033333Y-38712342D01*
X17033333Y-38712342D02*
X17080952Y-38807580D01*
X17080952Y-38807580D02*
X17128571Y-38855200D01*
X17128571Y-38855200D02*
X17223809Y-38902819D01*
X17223809Y-38902819D02*
X17461904Y-38902819D01*
X17461904Y-38902819D02*
X17557142Y-38855200D01*
X17557142Y-38855200D02*
X17604761Y-38807580D01*
X63642857Y-9104819D02*
X63976190Y-8628628D01*
X64214285Y-9104819D02*
X64214285Y-8104819D01*
X64214285Y-8104819D02*
X63833333Y-8104819D01*
X63833333Y-8104819D02*
X63738095Y-8152438D01*
X63738095Y-8152438D02*
X63690476Y-8200057D01*
X63690476Y-8200057D02*
X63642857Y-8295295D01*
X63642857Y-8295295D02*
X63642857Y-8438152D01*
X63642857Y-8438152D02*
X63690476Y-8533390D01*
X63690476Y-8533390D02*
X63738095Y-8581009D01*
X63738095Y-8581009D02*
X63833333Y-8628628D01*
X63833333Y-8628628D02*
X64214285Y-8628628D01*
X63261904Y-8200057D02*
X63214285Y-8152438D01*
X63214285Y-8152438D02*
X63119047Y-8104819D01*
X63119047Y-8104819D02*
X62880952Y-8104819D01*
X62880952Y-8104819D02*
X62785714Y-8152438D01*
X62785714Y-8152438D02*
X62738095Y-8200057D01*
X62738095Y-8200057D02*
X62690476Y-8295295D01*
X62690476Y-8295295D02*
X62690476Y-8390533D01*
X62690476Y-8390533D02*
X62738095Y-8533390D01*
X62738095Y-8533390D02*
X63309523Y-9104819D01*
X63309523Y-9104819D02*
X62690476Y-9104819D01*
X61833333Y-8438152D02*
X61833333Y-9104819D01*
X62071428Y-8057200D02*
X62309523Y-8771485D01*
X62309523Y-8771485D02*
X61690476Y-8771485D01*
X67789580Y-14133333D02*
X67837200Y-14085714D01*
X67837200Y-14085714D02*
X67884819Y-13942857D01*
X67884819Y-13942857D02*
X67884819Y-13847619D01*
X67884819Y-13847619D02*
X67837200Y-13704762D01*
X67837200Y-13704762D02*
X67741961Y-13609524D01*
X67741961Y-13609524D02*
X67646723Y-13561905D01*
X67646723Y-13561905D02*
X67456247Y-13514286D01*
X67456247Y-13514286D02*
X67313390Y-13514286D01*
X67313390Y-13514286D02*
X67122914Y-13561905D01*
X67122914Y-13561905D02*
X67027676Y-13609524D01*
X67027676Y-13609524D02*
X66932438Y-13704762D01*
X66932438Y-13704762D02*
X66884819Y-13847619D01*
X66884819Y-13847619D02*
X66884819Y-13942857D01*
X66884819Y-13942857D02*
X66932438Y-14085714D01*
X66932438Y-14085714D02*
X66980057Y-14133333D01*
X67884819Y-14609524D02*
X67884819Y-14800000D01*
X67884819Y-14800000D02*
X67837200Y-14895238D01*
X67837200Y-14895238D02*
X67789580Y-14942857D01*
X67789580Y-14942857D02*
X67646723Y-15038095D01*
X67646723Y-15038095D02*
X67456247Y-15085714D01*
X67456247Y-15085714D02*
X67075295Y-15085714D01*
X67075295Y-15085714D02*
X66980057Y-15038095D01*
X66980057Y-15038095D02*
X66932438Y-14990476D01*
X66932438Y-14990476D02*
X66884819Y-14895238D01*
X66884819Y-14895238D02*
X66884819Y-14704762D01*
X66884819Y-14704762D02*
X66932438Y-14609524D01*
X66932438Y-14609524D02*
X66980057Y-14561905D01*
X66980057Y-14561905D02*
X67075295Y-14514286D01*
X67075295Y-14514286D02*
X67313390Y-14514286D01*
X67313390Y-14514286D02*
X67408628Y-14561905D01*
X67408628Y-14561905D02*
X67456247Y-14609524D01*
X67456247Y-14609524D02*
X67503866Y-14704762D01*
X67503866Y-14704762D02*
X67503866Y-14895238D01*
X67503866Y-14895238D02*
X67456247Y-14990476D01*
X67456247Y-14990476D02*
X67408628Y-15038095D01*
X67408628Y-15038095D02*
X67313390Y-15085714D01*
X12142857Y-39084819D02*
X12476190Y-38608628D01*
X12714285Y-39084819D02*
X12714285Y-38084819D01*
X12714285Y-38084819D02*
X12333333Y-38084819D01*
X12333333Y-38084819D02*
X12238095Y-38132438D01*
X12238095Y-38132438D02*
X12190476Y-38180057D01*
X12190476Y-38180057D02*
X12142857Y-38275295D01*
X12142857Y-38275295D02*
X12142857Y-38418152D01*
X12142857Y-38418152D02*
X12190476Y-38513390D01*
X12190476Y-38513390D02*
X12238095Y-38561009D01*
X12238095Y-38561009D02*
X12333333Y-38608628D01*
X12333333Y-38608628D02*
X12714285Y-38608628D01*
X11761904Y-38180057D02*
X11714285Y-38132438D01*
X11714285Y-38132438D02*
X11619047Y-38084819D01*
X11619047Y-38084819D02*
X11380952Y-38084819D01*
X11380952Y-38084819D02*
X11285714Y-38132438D01*
X11285714Y-38132438D02*
X11238095Y-38180057D01*
X11238095Y-38180057D02*
X11190476Y-38275295D01*
X11190476Y-38275295D02*
X11190476Y-38370533D01*
X11190476Y-38370533D02*
X11238095Y-38513390D01*
X11238095Y-38513390D02*
X11809523Y-39084819D01*
X11809523Y-39084819D02*
X11190476Y-39084819D01*
X10571428Y-38084819D02*
X10476190Y-38084819D01*
X10476190Y-38084819D02*
X10380952Y-38132438D01*
X10380952Y-38132438D02*
X10333333Y-38180057D01*
X10333333Y-38180057D02*
X10285714Y-38275295D01*
X10285714Y-38275295D02*
X10238095Y-38465771D01*
X10238095Y-38465771D02*
X10238095Y-38703866D01*
X10238095Y-38703866D02*
X10285714Y-38894342D01*
X10285714Y-38894342D02*
X10333333Y-38989580D01*
X10333333Y-38989580D02*
X10380952Y-39037200D01*
X10380952Y-39037200D02*
X10476190Y-39084819D01*
X10476190Y-39084819D02*
X10571428Y-39084819D01*
X10571428Y-39084819D02*
X10666666Y-39037200D01*
X10666666Y-39037200D02*
X10714285Y-38989580D01*
X10714285Y-38989580D02*
X10761904Y-38894342D01*
X10761904Y-38894342D02*
X10809523Y-38703866D01*
X10809523Y-38703866D02*
X10809523Y-38465771D01*
X10809523Y-38465771D02*
X10761904Y-38275295D01*
X10761904Y-38275295D02*
X10714285Y-38180057D01*
X10714285Y-38180057D02*
X10666666Y-38132438D01*
X10666666Y-38132438D02*
X10571428Y-38084819D01*
X16442857Y-65384819D02*
X16776190Y-64908628D01*
X17014285Y-65384819D02*
X17014285Y-64384819D01*
X17014285Y-64384819D02*
X16633333Y-64384819D01*
X16633333Y-64384819D02*
X16538095Y-64432438D01*
X16538095Y-64432438D02*
X16490476Y-64480057D01*
X16490476Y-64480057D02*
X16442857Y-64575295D01*
X16442857Y-64575295D02*
X16442857Y-64718152D01*
X16442857Y-64718152D02*
X16490476Y-64813390D01*
X16490476Y-64813390D02*
X16538095Y-64861009D01*
X16538095Y-64861009D02*
X16633333Y-64908628D01*
X16633333Y-64908628D02*
X17014285Y-64908628D01*
X15490476Y-65384819D02*
X16061904Y-65384819D01*
X15776190Y-65384819D02*
X15776190Y-64384819D01*
X15776190Y-64384819D02*
X15871428Y-64527676D01*
X15871428Y-64527676D02*
X15966666Y-64622914D01*
X15966666Y-64622914D02*
X16061904Y-64670533D01*
X14919047Y-64813390D02*
X15014285Y-64765771D01*
X15014285Y-64765771D02*
X15061904Y-64718152D01*
X15061904Y-64718152D02*
X15109523Y-64622914D01*
X15109523Y-64622914D02*
X15109523Y-64575295D01*
X15109523Y-64575295D02*
X15061904Y-64480057D01*
X15061904Y-64480057D02*
X15014285Y-64432438D01*
X15014285Y-64432438D02*
X14919047Y-64384819D01*
X14919047Y-64384819D02*
X14728571Y-64384819D01*
X14728571Y-64384819D02*
X14633333Y-64432438D01*
X14633333Y-64432438D02*
X14585714Y-64480057D01*
X14585714Y-64480057D02*
X14538095Y-64575295D01*
X14538095Y-64575295D02*
X14538095Y-64622914D01*
X14538095Y-64622914D02*
X14585714Y-64718152D01*
X14585714Y-64718152D02*
X14633333Y-64765771D01*
X14633333Y-64765771D02*
X14728571Y-64813390D01*
X14728571Y-64813390D02*
X14919047Y-64813390D01*
X14919047Y-64813390D02*
X15014285Y-64861009D01*
X15014285Y-64861009D02*
X15061904Y-64908628D01*
X15061904Y-64908628D02*
X15109523Y-65003866D01*
X15109523Y-65003866D02*
X15109523Y-65194342D01*
X15109523Y-65194342D02*
X15061904Y-65289580D01*
X15061904Y-65289580D02*
X15014285Y-65337200D01*
X15014285Y-65337200D02*
X14919047Y-65384819D01*
X14919047Y-65384819D02*
X14728571Y-65384819D01*
X14728571Y-65384819D02*
X14633333Y-65337200D01*
X14633333Y-65337200D02*
X14585714Y-65289580D01*
X14585714Y-65289580D02*
X14538095Y-65194342D01*
X14538095Y-65194342D02*
X14538095Y-65003866D01*
X14538095Y-65003866D02*
X14585714Y-64908628D01*
X14585714Y-64908628D02*
X14633333Y-64861009D01*
X14633333Y-64861009D02*
X14728571Y-64813390D01*
%TO.C,R47*%
D12*
X36662742Y-13477500D02*
X37137258Y-13477500D01*
X36662742Y-14522500D02*
X37137258Y-14522500D01*
%TO.C,D8*%
X44610000Y-84350000D02*
X41950000Y-84350000D01*
X44610000Y-84350000D02*
X44610000Y-86050000D01*
X44610000Y-86050000D02*
X41950000Y-86050000D01*
%TO.C,R1*%
X15262742Y-9977500D02*
X15737258Y-9977500D01*
X15262742Y-11022500D02*
X15737258Y-11022500D01*
%TO.C,C37*%
X30140580Y-13490000D02*
X29859420Y-13490000D01*
X30140580Y-14510000D02*
X29859420Y-14510000D01*
%TO.C,U3*%
X17965000Y-9990000D02*
X17965000Y-14610000D01*
X26035000Y-14610000D02*
X26035000Y-9990000D01*
X25580000Y-16160000D02*
X25340000Y-16490000D01*
X25820000Y-16490000D01*
X25580000Y-16160000D01*
G36*
X25820000Y-16490000D02*
G01*
X25340000Y-16490000D01*
X25580000Y-16160000D01*
X25820000Y-16490000D01*
G37*
%TO.C,U7*%
D13*
X46655000Y-138100000D02*
G75*
G02*
X46345000Y-138100000I-155000J0D01*
G01*
X46345000Y-138100000D02*
G75*
G02*
X46655000Y-138100000I155000J0D01*
G01*
%TO.C,R15*%
D12*
X11262742Y-54377500D02*
X11737258Y-54377500D01*
X11262742Y-55422500D02*
X11737258Y-55422500D01*
%TO.C,R17*%
X43762742Y-8827500D02*
X44237258Y-8827500D01*
X43762742Y-9872500D02*
X44237258Y-9872500D01*
%TO.C,R71*%
X50637258Y-82477500D02*
X50162742Y-82477500D01*
X50637258Y-83522500D02*
X50162742Y-83522500D01*
%TO.C,C43*%
X33761252Y-82415000D02*
X33238748Y-82415000D01*
X33761252Y-83885000D02*
X33238748Y-83885000D01*
%TO.C,U4*%
X10380000Y-64880000D02*
X10380000Y-64680000D01*
X10380000Y-64880000D02*
X10580000Y-64880000D01*
%TO.C,R12*%
X17962742Y-39977500D02*
X18437258Y-39977500D01*
X17962742Y-41022500D02*
X18437258Y-41022500D01*
%TO.C,C38*%
X40059420Y-13490000D02*
X40340580Y-13490000D01*
X40059420Y-14510000D02*
X40340580Y-14510000D01*
%TO.C,TP1*%
X15500000Y-58000000D02*
G75*
G02*
X14100000Y-58000000I-700000J0D01*
G01*
X14100000Y-58000000D02*
G75*
G02*
X15500000Y-58000000I700000J0D01*
G01*
%TO.C,C40*%
X30190000Y-11340580D02*
X30190000Y-11059420D01*
X31210000Y-11340580D02*
X31210000Y-11059420D01*
%TO.C,C10*%
X69538748Y-15565000D02*
X70061252Y-15565000D01*
X69538748Y-17035000D02*
X70061252Y-17035000D01*
%TO.C,Q1*%
X58240000Y-5740000D02*
X58240000Y-5790000D01*
X58240000Y-6910000D02*
X58240000Y-7690000D01*
X58240000Y-8810000D02*
X58240000Y-8860000D01*
X58240000Y-8860000D02*
X59760000Y-8860000D01*
X59760000Y-5740000D02*
X58240000Y-5740000D01*
X59760000Y-6740000D02*
X59760000Y-5740000D01*
X59760000Y-8860000D02*
X59760000Y-7860000D01*
X57700000Y-7680000D02*
X57940000Y-7350000D01*
X57460000Y-7350000D01*
X57700000Y-7680000D01*
G36*
X57700000Y-7680000D02*
G01*
X57460000Y-7350000D01*
X57940000Y-7350000D01*
X57700000Y-7680000D01*
G37*
%TO.C,R2*%
X21762742Y-36977500D02*
X22237258Y-36977500D01*
X21762742Y-38022500D02*
X22237258Y-38022500D01*
%TO.C,R22*%
X59537258Y-10877500D02*
X59062742Y-10877500D01*
X59537258Y-11922500D02*
X59062742Y-11922500D01*
%TO.C,TP4*%
X15700000Y-37000000D02*
G75*
G02*
X14300000Y-37000000I-700000J0D01*
G01*
X14300000Y-37000000D02*
G75*
G02*
X15700000Y-37000000I700000J0D01*
G01*
%TO.C,R72*%
X50637258Y-80577500D02*
X50162742Y-80577500D01*
X50637258Y-81622500D02*
X50162742Y-81622500D01*
%TO.C,C44*%
X46638748Y-84465000D02*
X47161252Y-84465000D01*
X46638748Y-85935000D02*
X47161252Y-85935000D01*
%TO.C,C13*%
X28640580Y-78490000D02*
X28359420Y-78490000D01*
X28640580Y-79510000D02*
X28359420Y-79510000D01*
%TO.C,C56*%
X45959420Y-81990000D02*
X46240580Y-81990000D01*
X45959420Y-83010000D02*
X46240580Y-83010000D01*
%TO.C,R11*%
X17962742Y-44977500D02*
X18437258Y-44977500D01*
X17962742Y-46022500D02*
X18437258Y-46022500D01*
%TO.C,R73*%
X50637258Y-78677500D02*
X50162742Y-78677500D01*
X50637258Y-79722500D02*
X50162742Y-79722500D01*
%TO.C,C8*%
X72140580Y-11290000D02*
X71859420Y-11290000D01*
X72140580Y-12310000D02*
X71859420Y-12310000D01*
%TO.C,R14*%
X7762742Y-54377500D02*
X8237258Y-54377500D01*
X7762742Y-55422500D02*
X8237258Y-55422500D01*
%TO.C,R3*%
X17962742Y-42477500D02*
X18437258Y-42477500D01*
X17962742Y-43522500D02*
X18437258Y-43522500D01*
%TO.C,U17*%
X42265000Y-81390000D02*
X42265000Y-81415000D01*
X42265000Y-83585000D02*
X42265000Y-83610000D01*
X42265000Y-83610000D02*
X43735000Y-83610000D01*
X43735000Y-81390000D02*
X42265000Y-81390000D01*
X43735000Y-81415000D02*
X43735000Y-81390000D01*
X43735000Y-82715000D02*
X43735000Y-82285000D01*
X43735000Y-83610000D02*
X43735000Y-83585000D01*
X41820000Y-83590000D02*
X41680000Y-83780000D01*
X41960000Y-83780000D01*
X41820000Y-83590000D01*
G36*
X41960000Y-83780000D02*
G01*
X41680000Y-83780000D01*
X41820000Y-83590000D01*
X41960000Y-83780000D01*
G37*
%TO.C,R13*%
X17962742Y-52477500D02*
X18437258Y-52477500D01*
X17962742Y-53522500D02*
X18437258Y-53522500D01*
%TO.C,C12*%
X62738748Y-9165000D02*
X63261252Y-9165000D01*
X62738748Y-10635000D02*
X63261252Y-10635000D01*
%TO.C,U2*%
X9690000Y-48035000D02*
X14310000Y-48035000D01*
X14310000Y-39965000D02*
X9690000Y-39965000D01*
X8140000Y-47580000D02*
X7810000Y-47340000D01*
X7810000Y-47820000D01*
X8140000Y-47580000D01*
G36*
X8140000Y-47580000D02*
G01*
X7810000Y-47820000D01*
X7810000Y-47340000D01*
X8140000Y-47580000D01*
G37*
%TO.C,U8*%
D13*
X73555000Y-119000000D02*
G75*
G02*
X73245000Y-119000000I-155000J0D01*
G01*
X73245000Y-119000000D02*
G75*
G02*
X73555000Y-119000000I155000J0D01*
G01*
%TO.C,J4*%
D12*
X55640000Y-84610000D02*
X55640000Y-83360000D01*
X55940000Y-81700000D02*
X56550000Y-81700000D01*
X55940000Y-83000000D02*
X56550000Y-83000000D01*
X56550000Y-80200000D02*
X61450000Y-80200000D01*
X56550000Y-83700000D02*
X56550000Y-80200000D01*
X56890000Y-84610000D02*
X55640000Y-84610000D01*
X57400000Y-84510000D02*
X57400000Y-84310000D01*
X57700000Y-84310000D02*
X57700000Y-84510000D01*
X57700000Y-84410000D02*
X57400000Y-84410000D01*
X57700000Y-84510000D02*
X57400000Y-84510000D01*
X58500000Y-83700000D02*
X56550000Y-83700000D01*
X58500000Y-84310000D02*
X58500000Y-83700000D01*
X58900000Y-80200000D02*
X58900000Y-80700000D01*
X58900000Y-80700000D02*
X59100000Y-80700000D01*
X59000000Y-80200000D02*
X59000000Y-80700000D01*
X59100000Y-80700000D02*
X59100000Y-80200000D01*
X59500000Y-83700000D02*
X59500000Y-84310000D01*
X61450000Y-80200000D02*
X61450000Y-83700000D01*
X61450000Y-83700000D02*
X59500000Y-83700000D01*
X62060000Y-81700000D02*
X61450000Y-81700000D01*
X62060000Y-83000000D02*
X61450000Y-83000000D01*
X55940000Y-79590000D02*
X62060000Y-79590000D01*
X62060000Y-84310000D01*
X55940000Y-84310000D01*
X55940000Y-79590000D01*
%TO.C,R4*%
X7762742Y-49977500D02*
X8237258Y-49977500D01*
X7762742Y-51022500D02*
X8237258Y-51022500D01*
%TO.C,R9*%
X11262742Y-52477500D02*
X11737258Y-52477500D01*
X11262742Y-53522500D02*
X11737258Y-53522500D01*
%TO.C,C2*%
X8440580Y-14290000D02*
X8159420Y-14290000D01*
X8440580Y-15310000D02*
X8159420Y-15310000D01*
%TO.C,U15*%
X43090000Y-10440000D02*
X43090000Y-10490000D01*
X43090000Y-13510000D02*
X43090000Y-13560000D01*
X43090000Y-13560000D02*
X44910000Y-13560000D01*
X44910000Y-10440000D02*
X43090000Y-10440000D01*
X44910000Y-10490000D02*
X44910000Y-10440000D01*
X44910000Y-13560000D02*
X44910000Y-13510000D01*
X42550000Y-13510000D02*
X42310000Y-13840000D01*
X42790000Y-13840000D01*
X42550000Y-13510000D01*
G36*
X42790000Y-13840000D02*
G01*
X42310000Y-13840000D01*
X42550000Y-13510000D01*
X42790000Y-13840000D01*
G37*
%TO.C,U1*%
X-150000Y-16800000D02*
X-150000Y-35200000D01*
X-150000Y-16800000D02*
X6050000Y-16800000D01*
X-150000Y-35200000D02*
X6050000Y-35200000D01*
X24700000Y-16800000D02*
X25700000Y-16800000D01*
X25700000Y-16800000D02*
X25700000Y-18300000D01*
X25700000Y-35200000D02*
X24700000Y-35200000D01*
X25700000Y-35200000D02*
X25700000Y-33700000D01*
X6725000Y-16800000D02*
X6725000Y-16300000D01*
X6225000Y-16800000D01*
X6725000Y-16800000D01*
G36*
X6725000Y-16800000D02*
G01*
X6225000Y-16800000D01*
X6725000Y-16300000D01*
X6725000Y-16800000D01*
G37*
%TO.C,R19*%
X7762742Y-36677500D02*
X8237258Y-36677500D01*
X7762742Y-37722500D02*
X8237258Y-37722500D01*
%TO.C,J6*%
X59640000Y-23110000D02*
X59640000Y-21860000D01*
X59940000Y-20200000D02*
X60550000Y-20200000D01*
X59940000Y-21500000D02*
X60550000Y-21500000D01*
X60550000Y-18700000D02*
X65450000Y-18700000D01*
X60550000Y-22200000D02*
X60550000Y-18700000D01*
X60890000Y-23110000D02*
X59640000Y-23110000D01*
X61400000Y-23010000D02*
X61400000Y-22810000D01*
X61700000Y-22810000D02*
X61700000Y-23010000D01*
X61700000Y-22910000D02*
X61400000Y-22910000D01*
X61700000Y-23010000D02*
X61400000Y-23010000D01*
X62500000Y-22200000D02*
X60550000Y-22200000D01*
X62500000Y-22810000D02*
X62500000Y-22200000D01*
X62900000Y-18700000D02*
X62900000Y-19200000D01*
X62900000Y-19200000D02*
X63100000Y-19200000D01*
X63000000Y-18700000D02*
X63000000Y-19200000D01*
X63100000Y-19200000D02*
X63100000Y-18700000D01*
X63500000Y-22200000D02*
X63500000Y-22810000D01*
X65450000Y-18700000D02*
X65450000Y-22200000D01*
X65450000Y-22200000D02*
X63500000Y-22200000D01*
X66060000Y-20200000D02*
X65450000Y-20200000D01*
X66060000Y-21500000D02*
X65450000Y-21500000D01*
X59940000Y-18090000D02*
X66060000Y-18090000D01*
X66060000Y-22810000D01*
X59940000Y-22810000D01*
X59940000Y-18090000D01*
%TO.C,R26*%
X32237258Y-78477500D02*
X31762742Y-78477500D01*
X32237258Y-79522500D02*
X31762742Y-79522500D01*
%TO.C,R69*%
X42262742Y-79277500D02*
X42737258Y-79277500D01*
X42262742Y-80322500D02*
X42737258Y-80322500D01*
%TO.C,C5*%
X27190000Y-10159420D02*
X27190000Y-10440580D01*
X28210000Y-10159420D02*
X28210000Y-10440580D01*
%TO.C,R50*%
X49077500Y-11237258D02*
X49077500Y-10762742D01*
X50122500Y-11237258D02*
X50122500Y-10762742D01*
%TO.C,J2*%
D14*
X8230000Y-151038000D02*
G75*
G02*
X7970000Y-151038000I-130000J0D01*
G01*
X7970000Y-151038000D02*
G75*
G02*
X8230000Y-151038000I130000J0D01*
G01*
%TO.C,U16*%
D12*
X33390000Y-9590000D02*
X33390000Y-9715000D01*
X33390000Y-12685000D02*
X33390000Y-12810000D01*
X33390000Y-12810000D02*
X36610000Y-12810000D01*
X36610000Y-9590000D02*
X33390000Y-9590000D01*
X36610000Y-9715000D02*
X36610000Y-9590000D01*
X36610000Y-12810000D02*
X36610000Y-12685000D01*
X32840000Y-12690000D02*
X32600000Y-13020000D01*
X33080000Y-13020000D01*
X32840000Y-12690000D01*
G36*
X33080000Y-13020000D02*
G01*
X32600000Y-13020000D01*
X32840000Y-12690000D01*
X33080000Y-13020000D01*
G37*
%TO.C,C42*%
X38990000Y-11059420D02*
X38990000Y-11340580D01*
X40010000Y-11059420D02*
X40010000Y-11340580D01*
%TO.C,R48*%
X33737258Y-13477500D02*
X33262742Y-13477500D01*
X33737258Y-14522500D02*
X33262742Y-14522500D01*
%TO.C,R23*%
X58162742Y-13177500D02*
X58637258Y-13177500D01*
X58162742Y-14222500D02*
X58637258Y-14222500D01*
%TO.C,R49*%
X47077500Y-11237258D02*
X47077500Y-10762742D01*
X48122500Y-11237258D02*
X48122500Y-10762742D01*
%TO.C,U5*%
X60890000Y-13190000D02*
X60890000Y-13665000D01*
X60890000Y-15935000D02*
X60890000Y-16410000D01*
X60890000Y-16410000D02*
X61365000Y-16410000D01*
X61365000Y-13190000D02*
X60890000Y-13190000D01*
X63635000Y-16410000D02*
X64110000Y-16410000D01*
X64110000Y-13190000D02*
X63635000Y-13190000D01*
X64110000Y-13665000D02*
X64110000Y-13190000D01*
X64110000Y-16410000D02*
X64110000Y-15935000D01*
X61750000Y-12680000D02*
X61990000Y-12350000D01*
X61510000Y-12350000D01*
X61750000Y-12680000D01*
G36*
X61750000Y-12680000D02*
G01*
X61510000Y-12350000D01*
X61990000Y-12350000D01*
X61750000Y-12680000D01*
G37*
%TO.C,TP12*%
X52500000Y-12500000D02*
G75*
G02*
X51100000Y-12500000I-700000J0D01*
G01*
X51100000Y-12500000D02*
G75*
G02*
X52500000Y-12500000I700000J0D01*
G01*
%TO.C,SW1*%
X2770000Y-66770000D02*
X2770000Y-66800000D01*
X2770000Y-66770000D02*
X9230000Y-66770000D01*
X2770000Y-71300000D02*
X2770000Y-68700000D01*
X2770000Y-73200000D02*
X2770000Y-73230000D01*
X2770000Y-73230000D02*
X9230000Y-73230000D01*
X9230000Y-66770000D02*
X9230000Y-66800000D01*
X9230000Y-71300000D02*
X9230000Y-68700000D01*
X9230000Y-73230000D02*
X9230000Y-73200000D01*
%TO.C,TP3*%
X19400000Y-63500000D02*
G75*
G02*
X18000000Y-63500000I-700000J0D01*
G01*
X18000000Y-63500000D02*
G75*
G02*
X19400000Y-63500000I700000J0D01*
G01*
%TO.C,R5*%
X11262742Y-49977500D02*
X11737258Y-49977500D01*
X11262742Y-51022500D02*
X11737258Y-51022500D01*
%TO.C,R7*%
X17962742Y-49977500D02*
X18437258Y-49977500D01*
X17962742Y-51022500D02*
X18437258Y-51022500D01*
%TO.C,C7*%
X15359420Y-60290000D02*
X15640580Y-60290000D01*
X15359420Y-61310000D02*
X15640580Y-61310000D01*
%TO.C,R16*%
X14562742Y-54377500D02*
X15037258Y-54377500D01*
X14562742Y-55422500D02*
X15037258Y-55422500D01*
%TO.C,C1*%
X11659420Y-14290000D02*
X11940580Y-14290000D01*
X11659420Y-15310000D02*
X11940580Y-15310000D01*
%TO.C,MK1*%
X70075000Y-6650000D02*
X70075000Y-10050000D01*
X70375000Y-10350000D02*
X72925000Y-10350000D01*
X72925000Y-6650000D02*
X70075000Y-6650000D01*
X72925000Y-10350000D02*
X72925000Y-6650000D01*
X70075000Y-10350000D02*
X69795000Y-10350000D01*
X70075000Y-10630000D01*
X70075000Y-10350000D01*
G36*
X70075000Y-10630000D02*
G01*
X69795000Y-10350000D01*
X70075000Y-10350000D01*
X70075000Y-10630000D01*
G37*
%TO.C,R10*%
X14562742Y-52477500D02*
X15037258Y-52477500D01*
X14562742Y-53522500D02*
X15037258Y-53522500D01*
%TO.C,R70*%
X50637258Y-84377500D02*
X50162742Y-84377500D01*
X50637258Y-85422500D02*
X50162742Y-85422500D01*
%TO.C,J5*%
X53510000Y-250000D02*
X20490000Y-250000D01*
X53510000Y-2540000D02*
X20490000Y-2540000D01*
D15*
X54110000Y-2840000D02*
X54110000Y-5240000D01*
%TO.C,C3*%
D12*
X15238748Y-14065000D02*
X15761252Y-14065000D01*
X15238748Y-15535000D02*
X15761252Y-15535000D01*
%TO.C,C6*%
X11709420Y-60290000D02*
X11990580Y-60290000D01*
X11709420Y-61310000D02*
X11990580Y-61310000D01*
%TO.C,C4*%
X17659420Y-47490000D02*
X17940580Y-47490000D01*
X17659420Y-48510000D02*
X17940580Y-48510000D01*
%TO.C,R6*%
X14562742Y-49977500D02*
X15037258Y-49977500D01*
X14562742Y-51022500D02*
X15037258Y-51022500D01*
%TO.C,L3*%
X36000000Y-81150000D02*
X36400000Y-81150000D01*
X36000000Y-85150000D02*
X36000000Y-81150000D01*
X36400000Y-85150000D02*
X36000000Y-85150000D01*
X39600000Y-85150000D02*
X40000000Y-85150000D01*
X40000000Y-81150000D02*
X39600000Y-81150000D01*
X40000000Y-85150000D02*
X40000000Y-81150000D01*
%TO.C,R8*%
X7762742Y-52477500D02*
X8237258Y-52477500D01*
X7762742Y-53522500D02*
X8237258Y-53522500D01*
%TO.C,TP2*%
X18900000Y-58000000D02*
G75*
G02*
X17500000Y-58000000I-700000J0D01*
G01*
X17500000Y-58000000D02*
G75*
G02*
X18900000Y-58000000I700000J0D01*
G01*
%TO.C,TP5*%
X18900000Y-37000000D02*
G75*
G02*
X17500000Y-37000000I-700000J0D01*
G01*
X17500000Y-37000000D02*
G75*
G02*
X18900000Y-37000000I700000J0D01*
G01*
%TO.C,R24*%
X62772936Y-6265000D02*
X63227064Y-6265000D01*
X62772936Y-7735000D02*
X63227064Y-7735000D01*
%TO.C,C9*%
X65490000Y-14440580D02*
X65490000Y-14159420D01*
X66510000Y-14440580D02*
X66510000Y-14159420D01*
%TO.C,R20*%
X11262742Y-36677500D02*
X11737258Y-36677500D01*
X11262742Y-37722500D02*
X11737258Y-37722500D01*
%TO.C,R18*%
X15562742Y-62977500D02*
X16037258Y-62977500D01*
X15562742Y-64022500D02*
X16037258Y-64022500D01*
%TD*%
%LPC*%
D16*
%TO.C,D1*%
X59500000Y-4000000D03*
D17*
X62040000Y-4000000D03*
%TD*%
D18*
%TO.C,SW9*%
X3100000Y-59500000D03*
X9900000Y-59500000D03*
%TD*%
D16*
%TO.C,U6*%
X65960000Y-4500000D03*
D17*
X68500000Y-4500000D03*
X71040000Y-4500000D03*
%TD*%
D19*
%TO.C,J3*%
X32110000Y-148720000D03*
X37890000Y-148720000D03*
D20*
X30680000Y-148220000D03*
D21*
X30680000Y-152400000D03*
D20*
X39320000Y-148220000D03*
D21*
X39320000Y-152400000D03*
%TD*%
D22*
%TO.C,R47*%
X36075000Y-14000000D03*
X37725000Y-14000000D03*
%TD*%
D23*
%TO.C,D8*%
X44050000Y-85200000D03*
X41950000Y-85200000D03*
%TD*%
D22*
%TO.C,R1*%
X14675000Y-10500000D03*
X16325000Y-10500000D03*
%TD*%
D24*
%TO.C,C37*%
X30775000Y-14000000D03*
X29225000Y-14000000D03*
%TD*%
D25*
%TO.C,U3*%
X25575000Y-15162500D03*
X24925000Y-15162500D03*
X24275000Y-15162500D03*
X23625000Y-15162500D03*
X22975000Y-15162500D03*
X22325000Y-15162500D03*
X21675000Y-15162500D03*
X21025000Y-15162500D03*
X20375000Y-15162500D03*
X19725000Y-15162500D03*
X19075000Y-15162500D03*
X18425000Y-15162500D03*
X18425000Y-9437500D03*
X19075000Y-9437500D03*
X19725000Y-9437500D03*
X20375000Y-9437500D03*
X21025000Y-9437500D03*
X21675000Y-9437500D03*
X22325000Y-9437500D03*
X22975000Y-9437500D03*
X23625000Y-9437500D03*
X24275000Y-9437500D03*
X24925000Y-9437500D03*
X25575000Y-9437500D03*
%TD*%
D26*
%TO.C,U7*%
X46500000Y-139500000D03*
X47770000Y-139500000D03*
X49040000Y-139500000D03*
X54610000Y-139500000D03*
X55880000Y-139500000D03*
X57150000Y-139500000D03*
X58420000Y-139500000D03*
X59690000Y-139500000D03*
X60960000Y-139500000D03*
X62230000Y-139500000D03*
X63500000Y-139500000D03*
X63500000Y-153500000D03*
X62230000Y-153500000D03*
X60960000Y-153500000D03*
X59690000Y-153500000D03*
X58420000Y-153500000D03*
X57150000Y-153500000D03*
X55880000Y-153500000D03*
X54610000Y-153500000D03*
X49040000Y-153500000D03*
X47770000Y-153500000D03*
X46500000Y-153500000D03*
%TD*%
D22*
%TO.C,R15*%
X10675000Y-54900000D03*
X12325000Y-54900000D03*
%TD*%
%TO.C,R17*%
X43175000Y-9350000D03*
X44825000Y-9350000D03*
%TD*%
D27*
%TO.C,R71*%
X51225000Y-83000000D03*
X49575000Y-83000000D03*
%TD*%
D28*
%TO.C,C43*%
X34450000Y-83150000D03*
X32550000Y-83150000D03*
%TD*%
D29*
%TO.C,U4*%
X10937500Y-64250000D03*
X10937500Y-63750000D03*
X10937500Y-63250000D03*
X10937500Y-62750000D03*
D30*
X11600000Y-62587500D03*
X12100000Y-62587500D03*
X12600000Y-62587500D03*
D29*
X13262500Y-62750000D03*
X13262500Y-63250000D03*
X13262500Y-63750000D03*
X13262500Y-64250000D03*
D30*
X12600000Y-64412500D03*
X12100000Y-64412500D03*
X11600000Y-64412500D03*
%TD*%
D22*
%TO.C,R12*%
X17375000Y-40500000D03*
X19025000Y-40500000D03*
%TD*%
D31*
%TO.C,C38*%
X39425000Y-14000000D03*
X40975000Y-14000000D03*
%TD*%
D32*
%TO.C,TP1*%
X14800000Y-58000000D03*
%TD*%
D33*
%TO.C,C40*%
X30700000Y-11975000D03*
X30700000Y-10425000D03*
%TD*%
D34*
%TO.C,C10*%
X68850000Y-16300000D03*
X70750000Y-16300000D03*
%TD*%
D35*
%TO.C,Q1*%
X58062500Y-8250000D03*
X58062500Y-6350000D03*
X59937500Y-7300000D03*
%TD*%
D22*
%TO.C,R2*%
X21175000Y-37500000D03*
X22825000Y-37500000D03*
%TD*%
D27*
%TO.C,R22*%
X60125000Y-11400000D03*
X58475000Y-11400000D03*
%TD*%
D32*
%TO.C,TP4*%
X15000000Y-37000000D03*
%TD*%
D27*
%TO.C,R72*%
X51225000Y-81100000D03*
X49575000Y-81100000D03*
%TD*%
D34*
%TO.C,C44*%
X45950000Y-85200000D03*
X47850000Y-85200000D03*
%TD*%
D24*
%TO.C,C13*%
X29275000Y-79000000D03*
X27725000Y-79000000D03*
%TD*%
D31*
%TO.C,C56*%
X45325000Y-82500000D03*
X46875000Y-82500000D03*
%TD*%
D22*
%TO.C,R11*%
X17375000Y-45500000D03*
X19025000Y-45500000D03*
%TD*%
D27*
%TO.C,R73*%
X51225000Y-79200000D03*
X49575000Y-79200000D03*
%TD*%
D24*
%TO.C,C8*%
X72775000Y-11800000D03*
X71225000Y-11800000D03*
%TD*%
D22*
%TO.C,R14*%
X7175000Y-54900000D03*
X8825000Y-54900000D03*
%TD*%
%TO.C,R3*%
X17375000Y-43000000D03*
X19025000Y-43000000D03*
%TD*%
D36*
%TO.C,U17*%
X42162500Y-83150000D03*
X42162500Y-82500000D03*
X42162500Y-81850000D03*
X43837500Y-81850000D03*
X43837500Y-83150000D03*
%TD*%
D22*
%TO.C,R13*%
X17375000Y-53000000D03*
X19025000Y-53000000D03*
%TD*%
D34*
%TO.C,C12*%
X62050000Y-9900000D03*
X63950000Y-9900000D03*
%TD*%
D37*
%TO.C,U2*%
X9137500Y-47575000D03*
X9137500Y-46925000D03*
X9137500Y-46275000D03*
X9137500Y-45625000D03*
X9137500Y-44975000D03*
X9137500Y-44325000D03*
X9137500Y-43675000D03*
X9137500Y-43025000D03*
X9137500Y-42375000D03*
X9137500Y-41725000D03*
X9137500Y-41075000D03*
X9137500Y-40425000D03*
X14862500Y-40425000D03*
X14862500Y-41075000D03*
X14862500Y-41725000D03*
X14862500Y-42375000D03*
X14862500Y-43025000D03*
X14862500Y-43675000D03*
X14862500Y-44325000D03*
X14862500Y-44975000D03*
X14862500Y-45625000D03*
X14862500Y-46275000D03*
X14862500Y-46925000D03*
X14862500Y-47575000D03*
%TD*%
D38*
%TO.C,U8*%
X72000000Y-119000000D03*
X72000000Y-120270000D03*
X72000000Y-121540000D03*
X72000000Y-127110000D03*
X72000000Y-128380000D03*
X72000000Y-129650000D03*
X72000000Y-130920000D03*
X72000000Y-132190000D03*
X72000000Y-133460000D03*
X72000000Y-134730000D03*
X72000000Y-136000000D03*
X58000000Y-136000000D03*
X58000000Y-134730000D03*
X58000000Y-133460000D03*
X58000000Y-132190000D03*
X58000000Y-130920000D03*
X58000000Y-129650000D03*
X58000000Y-128380000D03*
X58000000Y-127110000D03*
X58000000Y-121540000D03*
X58000000Y-120270000D03*
X58000000Y-119000000D03*
%TD*%
D39*
%TO.C,J4*%
X58000000Y-82500000D03*
D40*
X60000000Y-82500000D03*
%TD*%
D22*
%TO.C,R4*%
X7175000Y-50500000D03*
X8825000Y-50500000D03*
%TD*%
%TO.C,R9*%
X10675000Y-53000000D03*
X12325000Y-53000000D03*
%TD*%
D24*
%TO.C,C2*%
X9075000Y-14800000D03*
X7525000Y-14800000D03*
%TD*%
D41*
%TO.C,U15*%
X42862500Y-12950000D03*
X42862500Y-12000000D03*
X42862500Y-11050000D03*
X45137500Y-11050000D03*
X45137500Y-12000000D03*
X45137500Y-12950000D03*
%TD*%
D42*
%TO.C,U1*%
X7490000Y-17250000D03*
X8760000Y-17250000D03*
X10030000Y-17250000D03*
X11300000Y-17250000D03*
X12570000Y-17250000D03*
X13840000Y-17250000D03*
X15110000Y-17250000D03*
X16380000Y-17250000D03*
X17650000Y-17250000D03*
X18920000Y-17250000D03*
X20190000Y-17250000D03*
X21460000Y-17250000D03*
X22730000Y-17250000D03*
X24000000Y-17250000D03*
D43*
X25250000Y-19015000D03*
X25250000Y-20285000D03*
X25250000Y-21555000D03*
X25250000Y-22825000D03*
X25250000Y-24095000D03*
X25250000Y-25365000D03*
X25250000Y-26635000D03*
X25250000Y-27905000D03*
X25250000Y-29175000D03*
X25250000Y-30445000D03*
X25250000Y-31715000D03*
X25250000Y-32985000D03*
D42*
X24000000Y-34750000D03*
X22730000Y-34750000D03*
X21460000Y-34750000D03*
X20190000Y-34750000D03*
X18920000Y-34750000D03*
X17650000Y-34750000D03*
X16380000Y-34750000D03*
X15110000Y-34750000D03*
X13840000Y-34750000D03*
X12570000Y-34750000D03*
X11300000Y-34750000D03*
X10030000Y-34750000D03*
X8760000Y-34750000D03*
X7490000Y-34750000D03*
D44*
X15910000Y-23100000D03*
X14510000Y-23100000D03*
X16610000Y-23800000D03*
X15210000Y-23800000D03*
X13810000Y-23800000D03*
X15910000Y-24500000D03*
D45*
X15210000Y-24500000D03*
D44*
X14510000Y-24500000D03*
X16610000Y-25200000D03*
X15210000Y-25200000D03*
X13810000Y-25200000D03*
X15910000Y-25900000D03*
X14510000Y-25900000D03*
%TD*%
D22*
%TO.C,R19*%
X7175000Y-37200000D03*
X8825000Y-37200000D03*
%TD*%
D39*
%TO.C,J6*%
X62000000Y-21000000D03*
D40*
X64000000Y-21000000D03*
%TD*%
D27*
%TO.C,R26*%
X32825000Y-79000000D03*
X31175000Y-79000000D03*
%TD*%
D22*
%TO.C,R69*%
X41675000Y-79800000D03*
X43325000Y-79800000D03*
%TD*%
D46*
%TO.C,C5*%
X27700000Y-9525000D03*
X27700000Y-11075000D03*
%TD*%
D47*
%TO.C,R50*%
X49600000Y-11825000D03*
X49600000Y-10175000D03*
%TD*%
D48*
%TO.C,J2*%
X13194000Y-151038000D03*
X14294000Y-151038000D03*
X15394000Y-151038000D03*
X16494000Y-151038000D03*
X17594000Y-151038000D03*
X18694000Y-151038000D03*
X19794000Y-151038000D03*
X20894000Y-151038000D03*
D49*
X9444000Y-153937000D03*
D50*
X12994000Y-139463000D03*
X21894000Y-139463000D03*
D49*
X22344000Y-153937000D03*
D50*
X15294000Y-139463000D03*
D51*
X22556000Y-144188000D03*
%TD*%
D52*
%TO.C,U16*%
X32887500Y-12175000D03*
X32887500Y-11525000D03*
X32887500Y-10875000D03*
X32887500Y-10225000D03*
X37112500Y-10225000D03*
X37112500Y-10875000D03*
X37112500Y-11525000D03*
X37112500Y-12175000D03*
%TD*%
D46*
%TO.C,C42*%
X39500000Y-10425000D03*
X39500000Y-11975000D03*
%TD*%
D27*
%TO.C,R48*%
X34325000Y-14000000D03*
X32675000Y-14000000D03*
%TD*%
D22*
%TO.C,R23*%
X57575000Y-13700000D03*
X59225000Y-13700000D03*
%TD*%
D47*
%TO.C,R49*%
X47600000Y-11825000D03*
X47600000Y-10175000D03*
%TD*%
D53*
%TO.C,U5*%
X61750000Y-13362500D03*
X62250000Y-13362500D03*
X62750000Y-13362500D03*
X63250000Y-13362500D03*
D54*
X63937500Y-14050000D03*
X63937500Y-14550000D03*
X63937500Y-15050000D03*
X63937500Y-15550000D03*
D53*
X63250000Y-16237500D03*
X62750000Y-16237500D03*
X62250000Y-16237500D03*
X61750000Y-16237500D03*
D54*
X61062500Y-15550000D03*
X61062500Y-15050000D03*
X61062500Y-14550000D03*
X61062500Y-14050000D03*
D55*
X62500000Y-14800000D03*
%TD*%
D32*
%TO.C,TP12*%
X51800000Y-12500000D03*
%TD*%
D56*
%TO.C,SW1*%
X2020000Y-72250000D03*
X9980000Y-72250000D03*
X2020000Y-67750000D03*
X9980000Y-67750000D03*
%TD*%
D32*
%TO.C,TP3*%
X18700000Y-63500000D03*
%TD*%
D22*
%TO.C,R5*%
X10675000Y-50500000D03*
X12325000Y-50500000D03*
%TD*%
%TO.C,R7*%
X17375000Y-50500000D03*
X19025000Y-50500000D03*
%TD*%
D31*
%TO.C,C7*%
X14725000Y-60800000D03*
X16275000Y-60800000D03*
%TD*%
D22*
%TO.C,R16*%
X13975000Y-54900000D03*
X15625000Y-54900000D03*
%TD*%
D31*
%TO.C,C1*%
X11025000Y-14800000D03*
X12575000Y-14800000D03*
%TD*%
D57*
%TO.C,MK1*%
X71500000Y-7790000D03*
D58*
X70600000Y-9864000D03*
X70600000Y-9042000D03*
D59*
X72162500Y-7790000D03*
D58*
X72400000Y-9042000D03*
X72400000Y-9864000D03*
X71500000Y-9864000D03*
%TD*%
D22*
%TO.C,R10*%
X13975000Y-53000000D03*
X15625000Y-53000000D03*
%TD*%
D27*
%TO.C,R70*%
X51225000Y-84900000D03*
X49575000Y-84900000D03*
%TD*%
D60*
%TO.C,J5*%
X52240000Y-4040000D03*
D61*
X52240000Y-6580000D03*
X49700000Y-4040000D03*
X49700000Y-6580000D03*
X47160000Y-4040000D03*
X47160000Y-6580000D03*
X44620000Y-4040000D03*
X44620000Y-6580000D03*
X42080000Y-4040000D03*
X42080000Y-6580000D03*
X39540000Y-4040000D03*
X39540000Y-6580000D03*
X37000000Y-4040000D03*
X37000000Y-6580000D03*
X34460000Y-4040000D03*
X34460000Y-6580000D03*
X31920000Y-4040000D03*
X31920000Y-6580000D03*
X29380000Y-4040000D03*
X29380000Y-6580000D03*
X26840000Y-4040000D03*
X26840000Y-6580000D03*
X24300000Y-4040000D03*
X24300000Y-6580000D03*
X21760000Y-4040000D03*
X21760000Y-6580000D03*
%TD*%
D34*
%TO.C,C3*%
X14550000Y-14800000D03*
X16450000Y-14800000D03*
%TD*%
D31*
%TO.C,C6*%
X11075000Y-60800000D03*
X12625000Y-60800000D03*
%TD*%
%TO.C,C4*%
X17025000Y-48000000D03*
X18575000Y-48000000D03*
%TD*%
D22*
%TO.C,R6*%
X13975000Y-50500000D03*
X15625000Y-50500000D03*
%TD*%
D62*
%TO.C,L3*%
X36815000Y-83150000D03*
X39185000Y-83150000D03*
%TD*%
D22*
%TO.C,R8*%
X7175000Y-53000000D03*
X8825000Y-53000000D03*
%TD*%
D32*
%TO.C,TP2*%
X18200000Y-58000000D03*
%TD*%
%TO.C,TP5*%
X18200000Y-37000000D03*
%TD*%
D63*
%TO.C,R24*%
X62087500Y-7000000D03*
X63912500Y-7000000D03*
%TD*%
D33*
%TO.C,C9*%
X66000000Y-15075000D03*
X66000000Y-13525000D03*
%TD*%
D22*
%TO.C,R20*%
X10675000Y-37200000D03*
X12325000Y-37200000D03*
%TD*%
%TO.C,R18*%
X14975000Y-63500000D03*
X16625000Y-63500000D03*
%TD*%
%LPD*%
M02*
